<svg xmlns="http://www.w3.org/2000/svg" viewBox="0 0 71.32 70.99"><defs><style>.cls-1{fill:#0097d4;}</style></defs><g id="Layer_2" data-name="Layer 2"><g id="Layer_1-2" data-name="Layer 1"><rect class="cls-1" x="34.55" y="30.88" width="2.23" height="2.23"/><path class="cls-1" d="M66.86,62.08V29.76a3.35,3.35,0,0,0-3.34-3.34H36.77v-7.8H34.54v7.8H7.8a3.34,3.34,0,0,0-3.34,3.34V62.08H0v3.34A5.57,5.57,0,0,0,5.57,71H65.75a5.58,5.58,0,0,0,5.57-5.57V62.08ZM6.69,29.76A1.11,1.11,0,0,1,7.8,28.65H63.52a1.11,1.11,0,0,1,1.11,1.11V62.08H62.4V30.88H39V33.1H60.17v29H49V59.16A3.34,3.34,0,0,0,46.86,56l-6.74-2.53V50.07l1.11-.85V39.79a3.34,3.34,0,0,0-3.34-3.34H34.68a7,7,0,0,0-6.79,5.3l-.34,1.38h2.54v6.09l1.11.85v3.44L24.46,56a3.34,3.34,0,0,0-2.17,3.12v2.92H11.14v-29H32.32V30.88H8.92v31.2H6.69ZM24.52,62.08V59.16a1.1,1.1,0,0,1,.72-1l6.38-2.39a3.87,3.87,0,0,0,2.92,1.8V61h2.23V57.53a3.87,3.87,0,0,0,2.93-1.8l6.38,2.39a1.12,1.12,0,0,1,.72,1v2.92H40.12v1.11A1.12,1.12,0,0,1,39,64.31H32.32a1.12,1.12,0,0,1-1.12-1.12V62.08ZM36.77,49.82H34.54l-2.22-1.7v-5h4.45V40.9H30.64a4.77,4.77,0,0,1,4-2.22h3.21A1.11,1.11,0,0,1,39,39.79v8.33Zm1.12,2v2.48c0,.2-.19,1.14-2.23,1.14s-2.22-1-2.23-1.11V51.77l.37.28h3.72Zm31.2,13.65a3.34,3.34,0,0,1-3.34,3.34H5.57a3.34,3.34,0,0,1-3.34-3.34V64.31H29.16a3.38,3.38,0,0,0,3.16,2.23H39a3.38,3.38,0,0,0,3.16-2.23H69.09Z"/><path class="cls-1" d="M18.77,22.29a14.66,14.66,0,0,1,0-20.71L17.19,0a16.89,16.89,0,0,0,0,23.86Z"/><path class="cls-1" d="M21.54,20.89l1.57-1.57a10.46,10.46,0,0,1,0-14.77L21.54,3a12.67,12.67,0,0,0,0,17.92"/><path class="cls-1" d="M27.45,16.34a6.25,6.25,0,0,1,0-8.82L25.88,5.94a8.49,8.49,0,0,0,0,12Z"/><path class="cls-1" d="M52.55,22.29l1.57,1.57A16.87,16.87,0,0,0,54.12,0L52.55,1.58a14.66,14.66,0,0,1,0,20.71"/><path class="cls-1" d="M49.78,20.89A12.69,12.69,0,0,0,49.78,3L48.21,4.55a10.46,10.46,0,0,1,0,14.77Z"/><path class="cls-1" d="M45.44,17.92a8.49,8.49,0,0,0,0-12L43.86,7.52a6.23,6.23,0,0,1,0,8.82Z"/><path class="cls-1" d="M35.66,16.39a4.46,4.46,0,1,0-4.46-4.46,4.46,4.46,0,0,0,4.46,4.46m0-6.69a2.23,2.23,0,1,1-2.23,2.23A2.23,2.23,0,0,1,35.66,9.7"/></g></g></svg>