<svg xmlns="http://www.w3.org/2000/svg" viewBox="0 0 80.82 73.29"><defs><style>.cls-1{fill:#0096d3;}</style></defs><g id="Layer_2" data-name="Layer 2"><g id="Layer_1-2" data-name="Layer 1"><path class="cls-1" d="M80.82,68.76a3.61,3.61,0,0,0-.89-2c-1.83-1.86-3.7-3.69-5.54-5.55-.54-.53-1.08-1.06-1.6-1.6a1.75,1.75,0,0,0-.23-.24c-.44-.45-.91-.88-1.33-1.35a3.34,3.34,0,0,0-3.11-1.17,1.89,1.89,0,0,1-2-.8,2.57,2.57,0,0,0-.33-.33c-.56-.54-1.12-1.08-1.65-1.65a2.83,2.83,0,0,0-.24-.25c-.49-.41-.3-.8,0-1.23a13.9,13.9,0,0,0,2.2-11,13.07,13.07,0,0,0-.88-2.74,14.08,14.08,0,0,0-5.05-6.07,22,22,0,0,0-2-1.15,16.54,16.54,0,0,0-3-1,.73.73,0,0,1-.59-.34,2.6,2.6,0,0,1-.08-1c0-4.76,0-9.53,0-14.29A1.43,1.43,0,0,0,54,14a21.88,21.88,0,0,0-1.63-1.56,14,14,0,0,1-1.64-1.54l-.23-.23C48.59,9,46.77,7.21,44.89,5.5c-.53-.61-1.23-1-1.78-1.62C42,2.73,40.77,1.78,39.69.63A1.81,1.81,0,0,0,38.29,0H5.71a4.79,4.79,0,0,0-1.2.21A6.21,6.21,0,0,0,0,5.43v60.4a5.85,5.85,0,0,0,.79,2.35,6.91,6.91,0,0,0,4.19,3,3.46,3.46,0,0,0,1,.13c5-.06,10,0,15.05,0,8.91,0,17.81,0,26.72,0a4.59,4.59,0,0,0,1.56-.17,4.74,4.74,0,0,0,1.28-.39A7.06,7.06,0,0,0,54,67.26a5.72,5.72,0,0,0,.48-2.52c0-1.76,0-3.52,0-5.27a1.22,1.22,0,0,1,.14-.84,1.08,1.08,0,0,1,.63-.29,13.67,13.67,0,0,0,5.14-2.24c.85-.6.86-.58,1.61.17.57.55,1.13,1.09,1.66,1.66a4.78,4.78,0,0,0,.39.39,1.62,1.62,0,0,1,.64,1.82,3.62,3.62,0,0,0,1.07,3.36l1.44,1.44c.61.58,1.21,1.18,1.8,1.79,1.89,1.76,3.56,3.73,5.4,5.54a4.92,4.92,0,0,0,2.11,1h.24c.29,0,.58,0,.87,0a3.89,3.89,0,0,0,2.91-2.14,5.36,5.36,0,0,0,.3-2.38M39.73,7.48V4.62a7.08,7.08,0,0,1,1.43,1.29l1.71,1.58c2.21,2,4.38,3.95,6.48,6,0,.25-.21.2-.35.2H41.21a.57.57,0,0,1-.22-.07,1.54,1.54,0,0,1-1.28-1.53c0-.54,0-1.09,0-1.63a18.78,18.78,0,0,1,0-3m12,57.44a3.51,3.51,0,0,1-3.23,3.45,2.47,2.47,0,0,1-1.08.09H6.77a1.76,1.76,0,0,1-.85-.09,3.5,3.5,0,0,1-3.25-3,19.68,19.68,0,0,1,0-3.6c0-1.11-.05-2.22-.06-3.34v-.26c0-2.28,0-4.56,0-6.84q0-.95,0-1.89v-.93c0-.28,0-.57.06-.85l0,0,0,0c0-1.2-.06-2.4-.06-3.6,0-1.63,0-3.26,0-4.88q0-1.2,0-2.4V34.28c0-.28,0-.57.06-.85h0l0,0,0,0c0-1.18-.06-2.36-.06-3.53,0-3.28,0-6.56,0-9.83,0-.29,0-.57,0-.86,0-1,0-2.07,0-3.11a.83.83,0,0,1,0-.47q0-3.11,0-6.22V7.16a2.08,2.08,0,0,1,.06-.7,3.46,3.46,0,0,1,3-3.56,1.71,1.71,0,0,1,.92-.12H36.4c.2,0,.46-.13.62.13q0,3.71,0,7.41a19.17,19.17,0,0,0,.17,2.84,4.6,4.6,0,0,0,3.65,3.18c3.43,0,6.87,0,10.31,0,.46,0,.56.15.56.58q0,6.59,0,13.15c0,.48-.13.69-.62.58a21.45,21.45,0,0,0-3.61.83,16.15,16.15,0,0,0-4.84,3.25c-.49.49-1.2.14-1.8.18-2.81,0-5.61,0-8.41,0-.56,0-.8.1-.74.71a15.61,15.61,0,0,1,0,1.81,3.49,3.49,0,0,0,.78.11l.85,0h4.28a.59.59,0,0,1,.23,0h2.65l-.89,1.84a23.65,23.65,0,0,0-.83,3.29c.1.51-.24.47-.56.47H32.57c-.29,0-.57,0-.86,0,0,.3,0,.61,0,.91.11,1.62.11,1.62,1.81,1.62,1.47,0,2.93,0,4.4,0,.24,0,.52-.13.74.11A27.15,27.15,0,0,0,39.75,50l1,1.89H36.11l-4.4.06v2.45c3,0,5.93,0,8.89.06a6.21,6.21,0,0,1,2.31.13,17.65,17.65,0,0,0,3.77,2.56l2.41.89c.76.11,1.5.24,2.26.32.34,0,.36.19.36.46,0,2,0,4,0,6.06m2.54-9.24a6.82,6.82,0,0,1-2.81.06,6.64,6.64,0,0,1-2.74-.61,10.39,10.39,0,0,1-5.8-4.86,7.09,7.09,0,0,1-1.06-2.42,11.27,11.27,0,0,1,8-14.33,10,10,0,0,1,6.18.31,6.51,6.51,0,0,1,2.25,1.08,10.41,10.41,0,0,1,4.7,6,8,8,0,0,1,.6,3,11.23,11.23,0,0,1-9.31,11.77M77.76,70.19a.91.91,0,0,1-1.48-.08c-1.81-1.75-3.59-3.54-5.31-5.38A14.13,14.13,0,0,1,69.25,63c-.52-.51-1.06-1-1.55-1.54a1,1,0,0,1,0-1.53,1,1,0,0,1,1.51,0c.54.52,1,1.08,1.56,1.63a13,13,0,0,1,1.57,1.58c1.85,1.77,3.63,3.61,5.39,5.48a1,1,0,0,1,0,1.56"/><rect class="cls-1" x="9.03" y="60.37" width="35.85" height="2.07"/><path class="cls-1" d="M24.53,54H8.78A1.79,1.79,0,0,1,7,52.17V34.55a1.8,1.8,0,0,1,1.79-1.8H24.53a1.8,1.8,0,0,1,1.79,1.8V52.17A1.79,1.79,0,0,1,24.53,54M8.94,52H24.37V34.71H8.94Z"/></g></g></svg>