<svg xmlns="http://www.w3.org/2000/svg" viewBox="0 0 77.6 74.36"><defs><style>.cls-1{fill:#0097d4;}</style></defs><g id="Layer_2" data-name="Layer 2"><g id="Layer_1-2" data-name="Layer 1"><path class="cls-1" d="M49.89,51.55V50.2c.39-.31.75-.65,1.11-1A20.08,20.08,0,0,0,56.08,38a9.88,9.88,0,0,0,6.37-3.79c2.13-3,2.32-7.34.55-12.78a1.54,1.54,0,0,0-.59-.76l-.81-.55a19.86,19.86,0,0,0-4.76-13.4c-4-4.45-10-6.7-18.05-6.73s-14.1,2.28-18,6.67A19.92,19.92,0,0,0,16,20.08l-.8.54a1.43,1.43,0,0,0-.59.76c-1.78,5.47-1.59,9.77.54,12.78A9.89,9.89,0,0,0,21.51,38,20.05,20.05,0,0,0,26.6,49.2c.35.35.72.68,1.1,1v1.35C22.08,52.64-.38,57.91,0,72.89a1.47,1.47,0,0,0,1.47,1.47H76.12a1.47,1.47,0,0,0,1.47-1.47c.38-15-22.07-20.25-27.7-21.34M20.63,34.72a6.42,6.42,0,0,1-3.12-2.28l.07,0c-1.46-2.15-1.6-5.39-.29-9.68l1.07-.72A1.49,1.49,0,0,0,19,20.69,17.29,17.29,0,0,1,23,8.61C26.32,4.84,31.65,3,38.79,2.94s12.47,1.9,15.85,5.67a17.33,17.33,0,0,1,4,12.08,1.49,1.49,0,0,0,.65,1.37l1.07.72c1.31,4.27,1.22,7.53-.29,9.68a6.47,6.47,0,0,1-3.13,2.27,9.75,9.75,0,0,0,2.39-7.34A6.82,6.82,0,0,0,57,23.28C56.33,8.59,46,7,41.6,7a17.63,17.63,0,0,0-2.81.2A17.5,17.5,0,0,0,36,7C31.58,7,21.3,8.56,20.63,23.28a6.9,6.9,0,0,0-2.4,4.09,9.78,9.78,0,0,0,2.4,7.35M54,22.68a30.32,30.32,0,0,1-17.55-4.41,1.46,1.46,0,0,0-1.91.19c-2.94,3.16-8.3,3.89-10.88,4.05.79-10.38,7.07-12.64,12.36-12.64a14.09,14.09,0,0,1,2.51.2,1.47,1.47,0,0,0,.59,0,14.09,14.09,0,0,1,2.51-.2c5.24,0,11.56,2.32,12.29,12.79ZM24.21,35h.06a1.48,1.48,0,0,0-.37-1c-2-2.31-2.94-4.41-2.69-6.14a3.88,3.88,0,0,1,1.34-2.48c1.94,0,8.81-.37,13.22-4.17a33.08,33.08,0,0,0,16.3,4.4,19.49,19.49,0,0,0,3-.16,3.91,3.91,0,0,1,1.33,2.41c.24,1.7-.68,3.83-2.69,6.14a1.48,1.48,0,0,0-.37,1v.77l-8.55,4.58a4.22,4.22,0,1,0,1.33,3.07V43l6.74-3.61a16.12,16.12,0,0,1-3.94,7.75,13,13,0,0,1-9.74,3.64h-.73a13.11,13.11,0,0,1-9.72-3.62C24.11,42.56,24.21,35.07,24.21,35m19,8.43a1.31,1.31,0,1,1-1.31-1.31,1.31,1.31,0,0,1,1.31,1.31m-5.88,27.9H3c1.16-11,19.09-15.64,24.7-16.83v2.63c0,3.33,4,5.87,9.63,6.3Zm-6.69-14.2V52.06a17.79,17.79,0,0,0,7.8,1.65h.73A17.79,17.79,0,0,0,47,52.06v5.07c0,1.39-3.19,3.41-8.17,3.41s-8.16-2-8.16-3.41m9.63,14.24v-8c5.58-.39,9.63-2.94,9.63-6.31V54.54c5.66,1.18,23.5,5.79,24.71,16.83Z"/></g></g></svg>