<svg xmlns="http://www.w3.org/2000/svg" viewBox="0 0 77.75 75.17"><defs><style>.cls-1{fill:none;stroke:#0097d4;stroke-miterlimit:10;stroke-width:2px;}</style></defs><g id="Layer_2" data-name="Layer 2"><g id="Layer_1-2" data-name="Layer 1"><path class="cls-1" d="M38.55,47.58l12.34,12M40,47.58l-12.34,12m11.7-28v17M68.91,60.34a5.55,5.55,0,0,0,3.29-5,5.69,5.69,0,0,0-11.37,0,5.55,5.55,0,0,0,3.29,5A10,10,0,0,0,56.28,70c0,5.52,20.47,5.52,20.47,0A10,10,0,0,0,68.91,60.34Zm-55.28,0a5.55,5.55,0,0,0,3.29-5,5.62,5.62,0,0,0-5.69-5.55,5.61,5.61,0,0,0-5.68,5.55,5.55,5.55,0,0,0,3.29,5A10,10,0,0,0,1,70c0,5.52,20.47,5.52,20.47,0A10,10,0,0,0,13.63,60.34ZM42.16,11.56a5.53,5.53,0,0,0,3.28-5,5.69,5.69,0,0,0-11.37,0,5.53,5.53,0,0,0,3.29,5,10,10,0,0,0-7.84,9.7c0,5.51,20.47,5.51,20.47,0A10,10,0,0,0,42.16,11.56Z"/></g></g></svg>