<svg xmlns="http://www.w3.org/2000/svg" viewBox="0 0 70 64.17"><defs><style>.cls-1{fill:#0097d4;}</style></defs><g id="Layer_2" data-name="Layer 2"><g id="Layer_1-2" data-name="Layer 1"><path class="cls-1" d="M7.29,5.83A1.46,1.46,0,1,1,5.83,7.29,1.46,1.46,0,0,1,7.29,5.83"/><path class="cls-1" d="M13.13,5.83a1.46,1.46,0,1,1-1.46,1.46,1.46,1.46,0,0,1,1.46-1.46"/><path class="cls-1" d="M19,5.83A1.46,1.46,0,1,1,17.5,7.29,1.47,1.47,0,0,1,19,5.83"/><path class="cls-1" d="M16,29.17H48.13a1.46,1.46,0,0,0,0-2.92H16a1.46,1.46,0,1,0,0,2.92"/><path class="cls-1" d="M33.54,43.75H16a1.46,1.46,0,1,0,0,2.92h17.5a1.46,1.46,0,0,0,0-2.92"/><path class="cls-1" d="M64.42,17.5l-.25,0V5.83A5.84,5.84,0,0,0,58.33,0H5.83A5.84,5.84,0,0,0,0,5.83v52.5a5.84,5.84,0,0,0,5.83,5.84h52.5a5.85,5.85,0,0,0,5.84-5.84V31.23l4.2-4.2h0a5.66,5.66,0,0,0,1.63-4,5.58,5.58,0,0,0-5.58-5.58M2.92,5.83A2.91,2.91,0,0,1,5.83,2.92h52.5a2.92,2.92,0,0,1,2.92,2.91v5.84H2.92Zm58.33,52.5a2.92,2.92,0,0,1-2.92,2.92H5.83a2.91,2.91,0,0,1-2.91-2.92V14.58H61.25V18.5a6,6,0,0,0-.78.63L44.6,35H16a1.46,1.46,0,1,0,0,2.92H42.26l-1.4,7a1.46,1.46,0,0,0,1.43,1.75,1.43,1.43,0,0,0,.29,0l7.29-1.46a1.42,1.42,0,0,0,.74-.4L61.25,34.14ZM48.86,42.41l-4.71.94.94-4.72L58.33,25.39l3.77,3.78ZM66.3,25,64.17,27.1l-3.78-3.77,2.14-2.13A2.67,2.67,0,0,1,66.3,25"/></g></g></svg>