<svg xmlns="http://www.w3.org/2000/svg" xmlns:xlink="http://www.w3.org/1999/xlink" viewBox="0 0 47.13 47.26"><defs><style>.cls-1{fill:none;}.cls-2{fill:#0080ca;}.cls-3{clip-path:url(#clip-path);}</style><clipPath id="clip-path" transform="translate(0 0)"><rect class="cls-1" width="47.13" height="47.26"/></clipPath></defs><g id="Layer_2" data-name="Layer 2"><g id="Layer_1-2" data-name="Layer 1"><path class="cls-2" d="M16.54,29.15V20.48a.79.79,0,0,0-.78-.79H12.6a.79.79,0,0,0-.78.79v8.67h1.57V21.27H15v7.88Z" transform="translate(0 0)"/><path class="cls-2" d="M29.15,32.3v-11a.79.79,0,0,0-.79-.79H25.21a.79.79,0,0,0-.79.79v11H26V22.06h1.57V32.3Z" transform="translate(0 0)"/><path class="cls-2" d="M22.84,32.3V18.12a.78.78,0,0,0-.78-.79H18.91a.79.79,0,0,0-.79.79v12.6h1.57V18.9h1.58V32.3Z" transform="translate(0 0)"/><path class="cls-2" d="M35.45,26V18.12a.79.79,0,0,0-.79-.79H31.51a.79.79,0,0,0-.79.79v8.66H32.3V18.9h1.57V26Z" transform="translate(0 0)"/><path class="cls-2" d="M41.75,25.21V13.39A.79.79,0,0,0,41,12.6H37.81a.8.8,0,0,0-.79.79V25.21H38.6v-11h1.57v11Z" transform="translate(0 0)"/><g class="cls-3"><path class="cls-2" d="M12.05,17.89a.8.8,0,0,0,1.11,0l6.5-6.51,6.54,7.26a.81.81,0,0,0,.56.27h0a.8.8,0,0,0,.56-.24L37.81,8.2v2a.79.79,0,0,0,.79.79h3.15a.79.79,0,0,0,.79-.79V.79A.79.79,0,0,0,41.75,0H32.3a.79.79,0,0,0-.79.79V3.94a.79.79,0,0,0,.79.79h2l-7.52,7.52L20.28,5a.78.78,0,0,0-.57-.26.73.73,0,0,0-.57.23L9.68,14.41a.8.8,0,0,0,0,1.11ZM19.66,6.66l6.54,7.26a.8.8,0,0,0,.56.26.82.82,0,0,0,.58-.23l9.45-9.46A.75.75,0,0,0,37,3.64a.77.77,0,0,0-.72-.49H33.09V1.58H41V9.45H39.39V6.3A.79.79,0,0,0,38,5.74L26.81,17,20.28,9.71a.82.82,0,0,0-.57-.26h0a.79.79,0,0,0-.55.23L12.6,16.22,11.35,15Z" transform="translate(0 0)"/><path class="cls-2" d="M7.09,46.47V44.9H9.45a.79.79,0,0,0,.79-.79V42.05a19.81,19.81,0,0,0,27.4-.59l8.61-8.61a3,3,0,0,0-3.69-4.71,3.06,3.06,0,0,0-5-.17l-.33.44a3.87,3.87,0,0,0-.55-.34,3.38,3.38,0,0,0-4.59,1.64l-2,4.41a3.63,3.63,0,0,0-1.31-.25H19.23l-1.34-1.34a6.36,6.36,0,0,0-7.65-1v-.78a.79.79,0,0,0-.79-.79H7.09v-.78a.79.79,0,0,0-.79-.79H0v1.57H5.52V45.69H0v1.57H6.3a.79.79,0,0,0,.79-.79M40.75,28.52a1.44,1.44,0,0,1,.6.69l-6.24,6.25a13.35,13.35,0,0,1-2.81,2.15l6.48-8.7a1.49,1.49,0,0,1,2-.39m-7.27,1.84a1.82,1.82,0,0,1,2.46-.88,1.57,1.57,0,0,1,.3.2l-4.43,6a3.56,3.56,0,0,0-.43-.59ZM16.77,33.64l1.58,1.58a.83.83,0,0,0,.56.23h9.84a2,2,0,0,1,0,3.94H18.91V41h9.84a3.55,3.55,0,0,0,2.6-1.13,15,15,0,0,0,4.87-3.25l6.87-6.88a1.44,1.44,0,0,1,2,2l-8.61,8.61a18.23,18.23,0,0,1-25.78,0l-.5-.5V33.43a4.78,4.78,0,0,1,6.53.21m-8.1,9.68H7.09V31.51H8.67Z" transform="translate(0 0)"/></g></g></g></svg>