<svg xmlns="http://www.w3.org/2000/svg" viewBox="0 0 48.36 48.36"><defs><style>.cls-1{fill:#0080ca;}</style></defs><g id="Layer_2" data-name="Layer 2"><g id="Layer_1-2" data-name="Layer 1"><path class="cls-1" d="M48.36,40.38V34.49l-2.26-.57a.61.61,0,0,0-.05-.12l1.19-2-4.16-4.16-2,1.18L41,28.77l-.58-2.25H34.49l-.57,2.26-.12,0-2-1.18L27.63,31.8l1.19,2a.61.61,0,0,1-.05.12l-2.25.57v5.9l2.26.57s0,.08,0,.12l-1.19,2,4.17,4.16,2-1.18.12,0,.57,2.26h5.9L41,46.1l.12,0,2,1.18,4.16-4.16-1.18-2s0-.08,0-.12Zm-3.08,2.45-2.45,2.45-1.67-1-.37.18a6.81,6.81,0,0,1-.74.31l-.4.14-.48,1.88H35.7l-.47-1.88-.4-.14a6.81,6.81,0,0,1-.74-.31l-.38-.18-1.66,1L29.6,42.83l1-1.67-.17-.37a6.81,6.81,0,0,1-.31-.74l-.14-.4-1.88-.48V35.71L30,35.23l.14-.4a6.81,6.81,0,0,1,.31-.74l.17-.38-1-1.66,2.46-2.45,1.66,1,.38-.17a6.81,6.81,0,0,1,.74-.31l.4-.14.47-1.88h3.47L39.65,30l.4.14c.25.09.5.19.74.3l.37.18,1.67-1,2.45,2.45-1,1.66.18.38a6.81,6.81,0,0,1,.31.74l.14.4,1.88.47v3.47l-1.88.48-.14.4a6.81,6.81,0,0,1-.31.74l-.17.37Z"/><path class="cls-1" d="M37.44,31.2a6.24,6.24,0,1,0,6.24,6.24,6.25,6.25,0,0,0-6.24-6.24m0,10.92a4.68,4.68,0,1,1,4.68-4.68,4.69,4.69,0,0,1-4.68,4.68"/><path class="cls-1" d="M37.44,34.32a3.12,3.12,0,1,0,3.12,3.12,3.12,3.12,0,0,0-3.12-3.12m0,4.68A1.56,1.56,0,1,1,39,37.44,1.56,1.56,0,0,1,37.44,39"/><path class="cls-1" d="M19.75,13.21a4.71,4.71,0,0,0,1.31,2v.66l-3.71,1.39a3.93,3.93,0,0,0-2.53,3.65V25H33.54V20.88A3.93,3.93,0,0,0,31,17.23L27.3,15.84v-.66a4.69,4.69,0,0,0,1.3-2,3.12,3.12,0,0,0,2.6-3.07V7a7,7,0,1,0-14,0v3.12a3.12,3.12,0,0,0,2.59,3.07m6,2.95-1.56,2.6-1.56-2.6v-.05a4.64,4.64,0,0,0,3.12,0ZM21.5,17.34,23.08,20l-1.57.78-1-3ZM32,20.88V23.4H16.38V20.88a2.35,2.35,0,0,1,1.52-2.19L19,18.26l1.56,4.68,3.58-1.79,3.58,1.79,1.55-4.68,1.15.43A2.35,2.35,0,0,1,32,20.88m-4.13-3.17-1,3L25.28,20l1.57-2.62Zm-3.67-2.89a3.12,3.12,0,0,1-3.12-3.12V8.53a6,6,0,0,0,3.12-1.25A6,6,0,0,0,27.3,8.53V11.7a3.12,3.12,0,0,1-3.12,3.12m4.68-3.34V8.8a1.54,1.54,0,0,1,0,2.68M24.18,1.56A5.47,5.47,0,0,1,29.64,7v.43A3.07,3.07,0,0,0,28.08,7H28a4.51,4.51,0,0,1-3.22-1.33l-.55-.55-.55.55A4.51,4.51,0,0,1,20.41,7h-.13a3.07,3.07,0,0,0-1.56.43V7a5.47,5.47,0,0,1,5.46-5.46M19.5,8.8v2.68a1.54,1.54,0,0,1,0-2.68"/><path class="cls-1" d="M0,48.36H15.6V28.08H0ZM1.56,29.64H14V46.8H1.56Z"/><rect class="cls-1" x="3.12" y="31.2" width="9.36" height="1.56"/><rect class="cls-1" x="3.12" y="34.32" width="1.56" height="1.56"/><rect class="cls-1" x="6.24" y="34.32" width="6.24" height="1.56"/><rect class="cls-1" x="3.12" y="37.44" width="9.36" height="1.56"/><rect class="cls-1" x="3.12" y="40.56" width="9.36" height="1.56"/><rect class="cls-1" x="10.92" y="43.68" width="1.56" height="1.56"/><rect class="cls-1" x="3.12" y="43.68" width="6.24" height="1.56"/><polygon class="cls-1" points="20.83 34.87 19.73 33.77 16.06 37.44 19.73 41.11 20.83 40.01 19.04 38.22 24.96 38.22 24.96 36.66 19.04 36.66 20.83 34.87"/><path class="cls-1" d="M8.58,12.48a.78.78,0,0,1,.78-.78h3.58l-1.79,1.79,1.1,1.1,3.67-3.67L12.25,7.25l-1.1,1.1,1.79,1.79H9.36A2.34,2.34,0,0,0,7,12.48v14H8.58Z"/><path class="cls-1" d="M37.44,12.48V22.3l-1.79-1.79-1.1,1.1,3.67,3.67,3.67-3.67-1.1-1.1L39,22.3V12.48a2.34,2.34,0,0,0-2.34-2.34h-3.9V11.7h3.9a.78.78,0,0,1,.78.78"/></g></g></svg>