<svg xmlns="http://www.w3.org/2000/svg" viewBox="0 0 45.92 45.92"><defs><style>.cls-1{fill:#0080ca;}</style></defs><g id="Layer_2" data-name="Layer 2"><g id="Layer_1-2" data-name="Layer 1"><path class="cls-1" d="M42.18,29.26a4.44,4.44,0,1,0-5.1.53,5.79,5.79,0,0,0-2.65,4.37l-.3,3.61H29.25a2.6,2.6,0,0,0,0,5.19h4.08v3H45.92V34.64a5.76,5.76,0,0,0-3.74-5.38M39.25,23a3,3,0,1,1-3,3,3,3,0,0,1,3-3m5.19,21.48H34.81V43h.92a3,3,0,0,0,3-2.72l.57-6.85-1.48-.12-.57,6.85a1.48,1.48,0,0,1-1.47,1.35H29.25a1.11,1.11,0,0,1,0-2.22h4.88a1.48,1.48,0,0,0,1.48-1.35l.29-3.62a4.28,4.28,0,0,1,8.54.36Z"/><path class="cls-1" d="M16.66,37.77H11.79l-.3-3.62A5.81,5.81,0,0,0,8.84,29.8a4.45,4.45,0,1,0-5.1-.54A5.75,5.75,0,0,0,0,34.64V45.92H12.59V43h4.07a2.6,2.6,0,0,0,0-5.19M6.66,23a3,3,0,1,1-3,3,3,3,0,0,1,3-3m10,18.51H10.19a1.5,1.5,0,0,1-1.48-1.35l-.57-6.85-1.47.12.57,6.85A3,3,0,0,0,10.19,43h.92v1.48H1.48v-9.8A4.27,4.27,0,0,1,10,34.29l.3,3.62a1.47,1.47,0,0,0,1.47,1.34h4.88a1.11,1.11,0,0,1,0,2.22"/><path class="cls-1" d="M28.14,16.29H23.7v3h-3v3h-3v4.44H16.29v1.48H29.62V26.66H28.14ZM26.66,26.66H25.18V17.77h1.48Zm-3,0H22.22V20.74H23.7Zm-4.45-3h1.49v3H19.25Z"/><path class="cls-1" d="M36.29,13.33a1.48,1.48,0,0,1-1.48-1.48H33.33a3,3,0,0,0,2.22,2.86v1.58H37V14.81h2.22v-3a3,3,0,0,0-3-3,1.48,1.48,0,0,1-1.48-1.48V5.93h1.48a1.48,1.48,0,0,1,1.48,1.48h1.48A3,3,0,0,0,37,4.55V3H35.55V4.44H33.33v3a3,3,0,0,0,3,3,1.48,1.48,0,0,1,1.48,1.48v1.48Z"/><rect class="cls-1" x="5.92" y="8.15" width="1.48" height="1.48"/><rect class="cls-1" x="8.89" y="8.15" width="1.48" height="1.48"/><rect class="cls-1" x="11.85" y="8.15" width="1.48" height="1.48"/><path class="cls-1" d="M16.29,10.37v-3a2.22,2.22,0,0,0-2.22-2.23H5.18A2.23,2.23,0,0,0,3,7.41v3a2.23,2.23,0,0,0,2.22,2.22H8l3.88,1.94V12.59h2.22a2.22,2.22,0,0,0,2.22-2.22m-1.48,0a.74.74,0,0,1-.74.74h-3.7v1l-2-1H5.18a.74.74,0,0,1-.74-.74v-3a.74.74,0,0,1,.74-.74h8.89a.74.74,0,0,1,.74.74Z"/><path class="cls-1" d="M34.07,23a10.94,10.94,0,0,0-.84-4.21,9.69,9.69,0,1,0-6.06-6.07,11.09,11.09,0,0,0-8.42,0,9.68,9.68,0,1,0-6.07,6.07A11.11,11.11,0,1,0,34.07,23M28.14,9.63A8.19,8.19,0,1,1,32,16.55a11.07,11.07,0,0,0-2.64-2.65,8.09,8.09,0,0,1-1.23-4.27M9.63,17.78a8.18,8.18,0,1,1,6.92-3.88,11.11,11.11,0,0,0-2.65,2.65,8.09,8.09,0,0,1-4.27,1.23M23,32.59A9.63,9.63,0,1,1,32.59,23,9.64,9.64,0,0,1,23,32.59"/><rect class="cls-1" x="41.47" y="8.89" width="1.48" height="1.48"/><rect class="cls-1" x="29.62" y="8.89" width="1.48" height="1.48"/></g></g></svg>