<svg xmlns="http://www.w3.org/2000/svg" viewBox="0 0 44.96 44.96"><defs><style>.cls-1{fill:#0080ca;}</style></defs><g id="Layer_2" data-name="Layer 2"><g id="Layer_1-2" data-name="Layer 1"><path class="cls-1" d="M24.73,32.91a3.32,3.32,0,1,0-5.57-2.45,3.36,3.36,0,0,0,1.07,2.45,6,6,0,0,0-3.73,5.54.67.67,0,0,0,.66.66H27.8a.66.66,0,0,0,.66-.66,6,6,0,0,0-3.73-5.54m-4.25-2.45a2,2,0,1,1,2,2,2,2,0,0,1-2-2m-2.62,7.33a4.67,4.67,0,0,1,9.24,0Z"/><path class="cls-1" d="M35.66,30.46a3.36,3.36,0,0,0,1.07,2.45A6,6,0,0,0,33,38.45a.66.66,0,0,0,.66.66H44.3a.66.66,0,0,0,.66-.66,6,6,0,0,0-3.73-5.54,3.32,3.32,0,1,0-5.57-2.45m7.94,7.33H34.36a4.67,4.67,0,0,1,9.24,0M41,30.46a2,2,0,1,1-2-2,2,2,0,0,1,2,2"/><path class="cls-1" d="M8.23,32.91a3.33,3.33,0,1,0-4.49,0A6,6,0,0,0,0,38.45a.67.67,0,0,0,.66.66H11.3a.66.66,0,0,0,.66-.66,6,6,0,0,0-3.73-5.54M4,30.46a2,2,0,1,1,2,2,2,2,0,0,1-2-2M1.36,37.79a4.67,4.67,0,0,1,9.24,0Z"/><path class="cls-1" d="M6.16,25.36a.67.67,0,0,0,.66-.66V21.81h15V24.7a.66.66,0,0,0,1.32,0V21.81h15V24.7a.66.66,0,1,0,1.31,0V21.15a.66.66,0,0,0-.66-.66H23.14V17.82H27.8a.66.66,0,0,0,.66-.66v-3a.66.66,0,0,0-.66-.66H17.16a.67.67,0,0,0-.66.66v3a.67.67,0,0,0,.66.66h4.66v2.67H6.16a.67.67,0,0,0-.66.66V24.7a.67.67,0,0,0,.66.66M17.82,14.8h9.33v1.7H17.82Z"/><path class="cls-1" d="M27.8,40.63H17.16a.66.66,0,0,0-.66.66v3a.66.66,0,0,0,.66.66H27.8a.65.65,0,0,0,.66-.66v-3a.65.65,0,0,0-.66-.66m-.65,3H17.82V42h9.33Z"/><path class="cls-1" d="M17.16,12h5.72a.66.66,0,0,0,0-1.31h-5a4.67,4.67,0,0,1,9.24,0H26A.66.66,0,1,0,26,12H27.8a.65.65,0,0,0,.66-.66,6,6,0,0,0-3.73-5.54,3.32,3.32,0,1,0-5.57-2.44,3.35,3.35,0,0,0,1.07,2.44A6,6,0,0,0,16.5,11.3a.66.66,0,0,0,.66.66m3.32-8.64a2,2,0,1,1,2,2,2,2,0,0,1-2-2"/><path class="cls-1" d="M44.3,40.63H43A.66.66,0,0,0,43,42h.64v1.69H34.32V42h5.6a.66.66,0,0,0,0-1.32H33.66a.65.65,0,0,0-.66.66v3a.65.65,0,0,0,.66.66H44.3A.65.65,0,0,0,45,44.3v-3a.65.65,0,0,0-.66-.66"/><path class="cls-1" d="M11.3,40.63H10A.66.66,0,0,0,10,42h.65v1.69H1.32V42h5.6a.66.66,0,0,0,0-1.32H.66a.66.66,0,0,0-.66.66v3A.66.66,0,0,0,.66,45H11.3A.65.65,0,0,0,12,44.3v-3a.65.65,0,0,0-.66-.66"/></g></g></svg>