<svg xmlns="http://www.w3.org/2000/svg" width="120.972" height="120"><g data-name="Group 141" fill="#da86ff"><path data-name="Path 105" d="M66.812 44.133a1.772 1.772 0 0 0 1.772-1.772v-2.864a1.772 1.772 0 1 0-3.543 0v2.864a1.772 1.772 0 0 0 1.771 1.772Z"/><path data-name="Path 106" d="M66.812 75.068a1.772 1.772 0 0 0-1.772 1.772v2.864a1.772 1.772 0 0 0 3.543 0v-2.863a1.772 1.772 0 0 0-1.771-1.773Z"/><path data-name="Path 107" d="M56.657 45.557a1.772 1.772 0 1 0 3.069-1.772l-1.432-2.48a1.772 1.772 0 1 0-3.069 1.772Z"/><path data-name="Path 108" d="M75.328 77.896a1.772 1.772 0 0 0 3.069-1.772l-1.432-2.48a1.772 1.772 0 0 0-3.069 1.772Z"/><path data-name="Path 109" d="M47.868 48.663a1.772 1.772 0 0 0 .648 2.42l2.48 1.432a1.772 1.772 0 1 0 1.772-3.069l-2.48-1.432a1.772 1.772 0 0 0-2.42.649Z"/><path data-name="Path 110" d="m80.851 69.754 2.48 1.432a1.772 1.772 0 1 0 1.772-3.069l-2.48-1.432a1.772 1.772 0 0 0-1.772 3.069Z"/><path data-name="Path 111" d="M51.344 59.6a1.772 1.772 0 0 0-1.772-1.772h-2.859a1.772 1.772 0 1 0 0 3.544h2.864a1.772 1.772 0 0 0 1.767-1.772Z"/><path data-name="Path 112" d="M82.283 59.6a1.772 1.772 0 0 0 1.772 1.772h2.864a1.772 1.772 0 1 0 0-3.544h-2.864a1.772 1.772 0 0 0-1.772 1.772Z"/><path data-name="Path 113" d="m50.996 66.685-2.48 1.432a1.772 1.772 0 1 0 1.772 3.069l2.48-1.432a1.772 1.772 0 0 0-1.772-3.069Z"/><path data-name="Path 114" d="M81.743 52.753a1.763 1.763 0 0 0 .884-.238l2.48-1.432a1.772 1.772 0 0 0-1.772-3.069l-2.48 1.432a1.772 1.772 0 0 0 .888 3.306Z"/><path data-name="Path 115" d="M55.874 78.544a1.771 1.771 0 0 0 2.42-.648l1.432-2.48a1.772 1.772 0 1 0-3.069-1.772l-1.432 2.48a1.772 1.772 0 0 0 .649 2.42Z"/><path data-name="Path 116" d="M74.546 46.205a1.771 1.771 0 0 0 2.42-.648l1.432-2.48a1.772 1.772 0 0 0-3.069-1.772l-1.432 2.48a1.771 1.771 0 0 0 .648 2.42Z"/><circle data-name="Ellipse 6" cx="2.188" cy="2.188" r="2.188" transform="rotate(-13.3 280.583 -246.262)"/><path data-name="Path 117" d="M119.55 90.986a8.863 8.863 0 0 0-10.527-3.527 6.756 6.756 0 0 0-9.06-7.644l-.06.025-2.543 1.092A37.251 37.251 0 0 0 72.825 22.81v-5.458a9.723 9.723 0 1 0-12.027 0v5.458a37.254 37.254 0 0 0-22.071 61.273c-2.489 1.6-4.648 3.663-7.6 4.42a13.578 13.578 0 0 1-4.466.305c-.659-.053-6.1-.783-6.1-1.3v-1.366a5.419 5.419 0 0 0-5.413-5.413H5.413A5.419 5.419 0 0 0 0 86.142v28.448a5.419 5.419 0 0 0 5.413 5.413h9.735a5.419 5.419 0 0 0 5.413-5.413v-2.253l12.63-.737h.047a19.089 19.089 0 0 1 8.172 1.1s1.1.4 2.46.9a1.772 1.772 0 0 0 1.225-3.325c-1.36-.5-2.464-.9-2.469-.9a22.64 22.64 0 0 0-9.665-1.307l-12.4.724V91.226c5.2 1.535 11.009 2.256 16.8-1.856 2.379-1.69 4.95-3.977 8-4.175 1.115-.073 7.617 1.261 10.067 1.764 6.547 1.343 19.744 3.895 19.78 3.9a3.884 3.884 0 0 1-1.026 7.7l-.047-.006-15.659-1.663a1.772 1.772 0 0 0-.374 3.524l15.638 1.658a14.125 14.125 0 0 0 3.386-.322s32.774-10.827 32.827-10.848a5.351 5.351 0 0 1 4.588 9.661c-5.682 1.96-11.556 3.7-17.237 5.391-5.225 1.552-18.326 5.774-19.5 6.193-7.217 2.576-14.033 5.009-21.5 2.26l-3.529-1.3a1.772 1.772 0 0 0-1.225 3.325l2.016.742a27.238 27.238 0 0 0 9.571 1.99c5.542 0 10.758-1.862 15.855-3.681 1.16-.414 14.123-4.591 19.318-6.133 5.755-1.709 17.637-5.53 17.7-5.563a8.894 8.894 0 0 0 3.534-12.8Zm-102.533 23.6a1.872 1.872 0 0 1-1.87 1.87H5.413a1.872 1.872 0 0 1-1.87-1.87V86.142a1.872 1.872 0 0 1 1.87-1.87h9.735a1.872 1.872 0 0 1 1.87 1.87v28.448ZM60.632 9.723a6.18 6.18 0 1 1 11.393 3.313 6.008 6.008 0 0 0-10.422 0 6.128 6.128 0 0 1-.97-3.309Zm8.65 6.306v6.377c-.817-.054-1.64-.084-2.47-.084s-1.653.03-2.47.084V16.03a2.47 2.47 0 1 1 4.94 0Zm6.454 71.324-.319-.063A29 29 0 1 0 50.6 35.556a1.772 1.772 0 0 0 1.984 2.936 25.465 25.465 0 1 1-5.667 5.232 1.772 1.772 0 0 0-2.768-2.212 28.972 28.972 0 0 0 4.282 40.491 17.791 17.791 0 0 0-3.291-.345 10.641 10.641 0 0 0-3.173.727A33.722 33.722 0 1 1 80.7 90.342a7.409 7.409 0 0 0-4.964-2.988Zm29.642-.023a3.223 3.223 0 0 1-1.991 1.848l-11.504 3.964-9.963 3.294a7.489 7.489 0 0 0 .138-.747 7.4 7.4 0 0 0-.017-2.069 37.4 37.4 0 0 0 9.879-6.494l9.347-4.016a3.215 3.215 0 0 1 4.11 4.221Z"/></g></svg>