<svg xmlns="http://www.w3.org/2000/svg" width="120.09" height="120"><g data-name="Group 147" fill="#7ffa8c"><path data-name="Path 126" d="M105.866 13.735H46.835a1.759 1.759 0 0 0 0 3.518h59.03a1.759 1.759 0 0 0 0-3.518Z"/><path data-name="Path 127" d="M105.865 24.844H84.051a1.759 1.759 0 1 0 0 3.518h21.814a1.759 1.759 0 1 0 0-3.518Z"/><path data-name="Path 128" d="M105.865 35.953h-8.76a1.759 1.759 0 1 0 0 3.518h8.76a1.759 1.759 0 1 0 0-3.518Z"/><path data-name="Path 129" d="M105.866 47.062h-5.242a1.759 1.759 0 0 0 0 3.518h5.242a1.759 1.759 0 0 0 0-3.518Z"/><path data-name="Path 130" d="M105.865 58.171h-4.3a1.759 1.759 0 0 0 0 3.518h4.3a1.759 1.759 0 1 0 0-3.518Z"/><path data-name="Path 131" d="M105.866 69.281h-5.278a1.759 1.759 0 1 0 0 3.518h5.278a1.759 1.759 0 1 0 0-3.518Z"/><path data-name="Path 132" d="M105.866 80.39h-6.883a1.759 1.759 0 1 0 0 3.518h6.883a1.759 1.759 0 1 0 0-3.518Z"/><path data-name="Path 133" d="M105.865 91.499H87.957a1.759 1.759 0 0 0 0 3.518h17.908a1.759 1.759 0 0 0 0-3.518Z"/><path data-name="Path 134" d="M37.731 45.505H17.179a1.759 1.759 0 1 0 0 3.518h20.55a1.759 1.759 0 1 0 0-3.518Z"/><path data-name="Path 135" d="M33.365 53.715H17.179a1.759 1.759 0 0 0 0 3.518h16.186a1.759 1.759 0 1 0 0-3.518Z"/><path data-name="Path 136" d="M33.365 61.924H17.179a1.759 1.759 0 0 0 0 3.518h16.186a1.759 1.759 0 0 0 0-3.518Z"/><path data-name="Path 137" d="M114.812 0H37.889a5.284 5.284 0 0 0-5.278 5.278v18.5H16.959c-.891 0-2.033-.167-2.718.483l-.009.008-.009.008L.549 37.245A1.758 1.758 0 0 0 0 38.522v77.373a4.11 4.11 0 0 0 4.1 4.1h97.081c1.28-.044 3.778-2.823 3.778-2.823 2.145-2.033 4.047-3.984 6.192-6.017l8.386-7.95a1.759 1.759 0 0 0 .549-1.276V5.278A5.284 5.284 0 0 0 114.812 0ZM13.691 29.673v5.871a1.4 1.4 0 0 1-1.4 1.4H6.128Zm62.626 86.809H60.836V95.345a.583.583 0 0 1 .582-.582h14.317a.583.583 0 0 1 .582.582v21.136Zm-11-25.237v-4.709a26.928 26.928 0 0 0 3.264.2 27.366 27.366 0 0 0 3.264-.2v4.705h-6.532Zm37.569 22.864v-8.437a2.214 2.214 0 0 1 2.211-2.211h8.865Zm13.686-14.166H105.1a5.736 5.736 0 0 0-5.729 5.729v10.809H79.836V95.345a4.105 4.105 0 0 0-4.1-4.1h-.376v-5.368a26.585 26.585 0 0 0 12.553-7.388 1.76 1.76 0 1 0-2.539-2.436 23.2 23.2 0 1 1 4.277-6.219 1.76 1.76 0 0 0 3.184 1.5 26.8 26.8 0 0 0-22.498-38.125v-5.322a4.11 4.11 0 0 0-4.1-4.1H52.539a1.759 1.759 0 1 0 0 3.518h13.693a.587.587 0 0 1 .586.586v5.318a26.793 26.793 0 0 0-5.024 52.654v5.38h-.376a4.105 4.105 0 0 0-4.1 4.1v21.136H4.1a.587.587 0 0 1-.586-.586V40.462h8.773a4.924 4.924 0 0 0 4.919-4.919V27.3h27.2a1.759 1.759 0 1 0 0-3.518H36.13V5.277a1.761 1.761 0 0 1 1.759-1.759h76.923a1.761 1.761 0 0 1 1.759 1.759Z"/><path data-name="Path 138" d="M68.577 41.785a18.158 18.158 0 1 0 18.158 18.158 18.179 18.179 0 0 0-18.158-18.158Zm0 32.8a14.64 14.64 0 1 1 14.639-14.64 14.656 14.656 0 0 1-14.639 14.638Z"/></g></svg>