<svg xmlns="http://www.w3.org/2000/svg" width="1804" height="303.604" viewBox="0 0 1804 303.604"><g id="Group_332" data-name="Group 332" transform="translate(-52 -6663.396)"><g id="Group_58" data-name="Group 58" transform="translate(283.584 7012.242) rotate(180)"><g id="Group_48" data-name="Group 48" transform="translate(224.638 45.384)"><path id="Path_50" data-name="Path 50" d="M175.71,115.586a3.347,3.347,0,1,0,3.339,3.353A3.348,3.348,0,0,0,175.71,115.586Z" transform="translate(-172.357 12.183)" fill="#fff"></path><path id="Path_51" data-name="Path 51" d="M175.738,101.533a3.346,3.346,0,1,0,3.339,3.353A3.345,3.345,0,0,0,175.738,101.533Z" transform="translate(-172.334 0.682)" fill="#fff"></path><path id="Path_52" data-name="Path 52" d="M175.766,87.48a3.346,3.346,0,1,0,3.339,3.351A3.345,3.345,0,0,0,175.766,87.48Z" transform="translate(-172.311 -10.818)" fill="#fff"></path><path id="Path_53" data-name="Path 53" d="M175.794,73.426a3.347,3.347,0,1,0,3.339,3.353A3.347,3.347,0,0,0,175.794,73.426Z" transform="translate(-172.288 -22.319)" fill="#fff"></path><path id="Path_54" data-name="Path 54" d="M175.822,59.373a3.346,3.346,0,1,0,3.339,3.353A3.345,3.345,0,0,0,175.822,59.373Z" transform="translate(-172.265 -33.82)" fill="#fff"></path><path id="Path_55" data-name="Path 55" d="M175.85,45.32a3.346,3.346,0,1,0,3.339,3.351A3.345,3.345,0,0,0,175.85,45.32Z" transform="translate(-172.242 -45.32)" fill="#fff"></path></g><g id="Group_49" data-name="Group 49" transform="translate(200.963 45.337)"><path id="Path_56" data-name="Path 56" d="M162.69,101.507a3.346,3.346,0,1,0,3.339,3.353A3.345,3.345,0,0,0,162.69,101.507Z" transform="translate(-159.337 0.708)" fill="#fff"></path><path id="Path_57" data-name="Path 57" d="M162.718,87.454a3.346,3.346,0,1,0,3.339,3.351A3.345,3.345,0,0,0,162.718,87.454Z" transform="translate(-159.314 -10.792)" fill="#fff"></path><path id="Path_58" data-name="Path 58" d="M162.746,73.4a3.347,3.347,0,1,0,3.339,3.353A3.347,3.347,0,0,0,162.746,73.4Z" transform="translate(-159.291 -22.293)" fill="#fff"></path><path id="Path_59" data-name="Path 59" d="M162.774,59.347a3.346,3.346,0,1,0,3.339,3.353A3.345,3.345,0,0,0,162.774,59.347Z" transform="translate(-159.268 -33.794)" fill="#fff"></path><path id="Path_60" data-name="Path 60" d="M162.8,45.294a3.346,3.346,0,1,0,3.339,3.351A3.345,3.345,0,0,0,162.8,45.294Z" transform="translate(-159.245 -45.294)" fill="#fff"></path></g><g id="Group_50" data-name="Group 50" transform="translate(177.288 45.289)"><path id="Path_61" data-name="Path 61" d="M149.67,87.428a3.346,3.346,0,1,0,3.339,3.351A3.345,3.345,0,0,0,149.67,87.428Z" transform="translate(-146.317 -10.766)" fill="#fff"></path><path id="Path_62" data-name="Path 62" d="M149.7,73.374a3.347,3.347,0,1,0,3.339,3.353A3.347,3.347,0,0,0,149.7,73.374Z" transform="translate(-146.294 -22.267)" fill="#fff"></path><path id="Path_63" data-name="Path 63" d="M149.726,59.321a3.346,3.346,0,1,0,3.339,3.353A3.345,3.345,0,0,0,149.726,59.321Z" transform="translate(-146.271 -33.768)" fill="#fff"></path><path id="Path_64" data-name="Path 64" d="M149.752,45.268a3.346,3.346,0,1,0,3.34,3.351A3.345,3.345,0,0,0,149.752,45.268Z" transform="translate(-146.248 -45.268)" fill="#fff"></path></g><g id="Group_51" data-name="Group 51" transform="translate(153.613 45.242)"><path id="Path_65" data-name="Path 65" d="M136.648,73.348a3.347,3.347,0,1,0,3.34,3.353A3.346,3.346,0,0,0,136.648,73.348Z" transform="translate(-133.297 -22.241)" fill="#fff"></path><path id="Path_66" data-name="Path 66" d="M136.676,59.295a3.346,3.346,0,1,0,3.34,3.353A3.345,3.345,0,0,0,136.676,59.295Z" transform="translate(-133.274 -33.742)" fill="#fff"></path><path id="Path_67" data-name="Path 67" d="M136.7,45.242a3.346,3.346,0,1,0,3.34,3.353A3.345,3.345,0,0,0,136.7,45.242Z" transform="translate(-133.251 -45.242)" fill="#fff"></path></g><g id="Group_52" data-name="Group 52" transform="translate(130.934 45.242)"><path id="Path_68" data-name="Path 68" d="M124.176,59.295a3.346,3.346,0,1,0,3.34,3.353A3.345,3.345,0,0,0,124.176,59.295Z" transform="translate(-120.825 -33.742)" fill="#fff"></path><path id="Path_69" data-name="Path 69" d="M124.2,45.242a3.346,3.346,0,1,0,3.34,3.353A3.345,3.345,0,0,0,124.2,45.242Z" transform="translate(-120.802 -45.242)" fill="#fff"></path></g><g id="Group_53" data-name="Group 53" transform="translate(108.472 45.242)"><path id="Path_70" data-name="Path 70" d="M111.825,45.242a3.346,3.346,0,1,0,3.34,3.353A3.347,3.347,0,0,0,111.825,45.242Z" transform="translate(-108.472 -45.242)" fill="#fff"></path></g></g><g id="Group_59" data-name="Group 59" transform="translate(1624.416 6618.154)"><g id="Group_48-2" data-name="Group 48" transform="translate(224.638 45.384)"><path id="Path_50-2" data-name="Path 50" d="M175.71,115.586a3.347,3.347,0,1,0,3.339,3.353A3.348,3.348,0,0,0,175.71,115.586Z" transform="translate(-172.357 12.183)" fill="#fff"></path><path id="Path_51-2" data-name="Path 51" d="M175.738,101.533a3.346,3.346,0,1,0,3.339,3.353A3.345,3.345,0,0,0,175.738,101.533Z" transform="translate(-172.334 0.682)" fill="#fff"></path><path id="Path_52-2" data-name="Path 52" d="M175.766,87.48a3.346,3.346,0,1,0,3.339,3.351A3.345,3.345,0,0,0,175.766,87.48Z" transform="translate(-172.311 -10.818)" fill="#fff"></path><path id="Path_53-2" data-name="Path 53" d="M175.794,73.426a3.347,3.347,0,1,0,3.339,3.353A3.347,3.347,0,0,0,175.794,73.426Z" transform="translate(-172.288 -22.319)" fill="#fff"></path><path id="Path_54-2" data-name="Path 54" d="M175.822,59.373a3.346,3.346,0,1,0,3.339,3.353A3.345,3.345,0,0,0,175.822,59.373Z" transform="translate(-172.265 -33.82)" fill="#fff"></path><path id="Path_55-2" data-name="Path 55" d="M175.85,45.32a3.346,3.346,0,1,0,3.339,3.351A3.345,3.345,0,0,0,175.85,45.32Z" transform="translate(-172.242 -45.32)" fill="#fff"></path></g><g id="Group_49-2" data-name="Group 49" transform="translate(200.963 45.337)"><path id="Path_56-2" data-name="Path 56" d="M162.69,101.507a3.346,3.346,0,1,0,3.339,3.353A3.345,3.345,0,0,0,162.69,101.507Z" transform="translate(-159.337 0.708)" fill="#fff"></path><path id="Path_57-2" data-name="Path 57" d="M162.718,87.454a3.346,3.346,0,1,0,3.339,3.351A3.345,3.345,0,0,0,162.718,87.454Z" transform="translate(-159.314 -10.792)" fill="#fff"></path><path id="Path_58-2" data-name="Path 58" d="M162.746,73.4a3.347,3.347,0,1,0,3.339,3.353A3.347,3.347,0,0,0,162.746,73.4Z" transform="translate(-159.291 -22.293)" fill="#fff"></path><path id="Path_59-2" data-name="Path 59" d="M162.774,59.347a3.346,3.346,0,1,0,3.339,3.353A3.345,3.345,0,0,0,162.774,59.347Z" transform="translate(-159.268 -33.794)" fill="#fff"></path><path id="Path_60-2" data-name="Path 60" d="M162.8,45.294a3.346,3.346,0,1,0,3.339,3.351A3.345,3.345,0,0,0,162.8,45.294Z" transform="translate(-159.245 -45.294)" fill="#fff"></path></g><g id="Group_50-2" data-name="Group 50" transform="translate(177.288 45.289)"><path id="Path_61-2" data-name="Path 61" d="M149.67,87.428a3.346,3.346,0,1,0,3.339,3.351A3.345,3.345,0,0,0,149.67,87.428Z" transform="translate(-146.317 -10.766)" fill="#fff"></path><path id="Path_62-2" data-name="Path 62" d="M149.7,73.374a3.347,3.347,0,1,0,3.339,3.353A3.347,3.347,0,0,0,149.7,73.374Z" transform="translate(-146.294 -22.267)" fill="#fff"></path><path id="Path_63-2" data-name="Path 63" d="M149.726,59.321a3.346,3.346,0,1,0,3.339,3.353A3.345,3.345,0,0,0,149.726,59.321Z" transform="translate(-146.271 -33.768)" fill="#fff"></path><path id="Path_64-2" data-name="Path 64" d="M149.752,45.268a3.346,3.346,0,1,0,3.34,3.351A3.345,3.345,0,0,0,149.752,45.268Z" transform="translate(-146.248 -45.268)" fill="#fff"></path></g><g id="Group_51-2" data-name="Group 51" transform="translate(153.613 45.242)"><path id="Path_65-2" data-name="Path 65" d="M136.648,73.348a3.347,3.347,0,1,0,3.34,3.353A3.346,3.346,0,0,0,136.648,73.348Z" transform="translate(-133.297 -22.241)" fill="#fff"></path><path id="Path_66-2" data-name="Path 66" d="M136.676,59.295a3.346,3.346,0,1,0,3.34,3.353A3.345,3.345,0,0,0,136.676,59.295Z" transform="translate(-133.274 -33.742)" fill="#fff"></path><path id="Path_67-2" data-name="Path 67" d="M136.7,45.242a3.346,3.346,0,1,0,3.34,3.353A3.345,3.345,0,0,0,136.7,45.242Z" transform="translate(-133.251 -45.242)" fill="#fff"></path></g><g id="Group_52-2" data-name="Group 52" transform="translate(130.934 45.242)"><path id="Path_68-2" data-name="Path 68" d="M124.176,59.295a3.346,3.346,0,1,0,3.34,3.353A3.345,3.345,0,0,0,124.176,59.295Z" transform="translate(-120.825 -33.742)" fill="#fff"></path><path id="Path_69-2" data-name="Path 69" d="M124.2,45.242a3.346,3.346,0,1,0,3.34,3.353A3.345,3.345,0,0,0,124.2,45.242Z" transform="translate(-120.802 -45.242)" fill="#fff"></path></g><g id="Group_53-2" data-name="Group 53" transform="translate(108.472 45.242)"><path id="Path_70-2" data-name="Path 70" d="M111.825,45.242a3.346,3.346,0,1,0,3.34,3.353A3.347,3.347,0,0,0,111.825,45.242Z" transform="translate(-108.472 -45.242)" fill="#fff"></path></g></g></g></svg>