<svg xmlns="http://www.w3.org/2000/svg" width="94.944" height="119.999"><g data-name="Group 145"><g data-name="Group 144" fill="#5fd1aa"><path data-name="Path 122" d="M51.348 21.427a1.756 1.756 0 0 0-2.461.335 2.211 2.211 0 0 1-3.527-.007 1.756 1.756 0 0 0-2.8 2.116 5.723 5.723 0 0 0 9.127.018 1.756 1.756 0 0 0-.335-2.461Z"/><path data-name="Path 123" d="M92.876 74.746a2.522 2.522 0 0 0-4.294-1.545l-2.886 2.886-14.313-14.312v-3.483L85.695 43.98l2.887 2.887a2.522 2.522 0 0 0 4.294-1.545l2.056-21.639a2.522 2.522 0 0 0-2.75-2.75L70.547 22.99a2.522 2.522 0 0 0-1.545 4.294l2.886 2.886-9.14 9.14a23.991 23.991 0 0 0-8.392-4.519.6.6 0 0 1-.419-.581v-1.454a17.088 17.088 0 1 0-12.925.286v1.169a.6.6 0 0 1-.419.581 23.994 23.994 0 0 0-8.391 4.519l-9.14-9.14 2.885-2.887a2.522 2.522 0 0 0-1.543-4.294l-7.085-.682a1.758 1.758 0 1 0-.337 3.5l5 .481-2.1 2.1a2.523 2.523 0 0 0 0 3.567l9.79 9.79q-.673.748-1.283 1.552a23.666 23.666 0 0 0-4.483 10.367L11.032 40.8a2.522 2.522 0 0 0-3.567 0l-2.1 2.1-1.743-18.356 5.161.491a1.758 1.758 0 0 0 .332-3.5l-6.353-.6a2.522 2.522 0 0 0-2.75 2.75l2.056 21.639a2.522 2.522 0 0 0 4.294 1.545l2.885-2.889 14.314 14.313v3.483L9.247 76.087 6.362 73.2a2.522 2.522 0 0 0-4.294 1.545L.012 96.384a2.522 2.522 0 0 0 2.508 2.761c.08 0 .16 0 .241-.011L24.4 97.078a2.522 2.522 0 0 0 1.547-4.295L23.058 89.9l7.824-7.824a6.66 6.66 0 0 0 2.6-.791v30.874a7.874 7.874 0 0 0 13.99 4.928 7.874 7.874 0 0 0 13.99-4.928v-18.4a1.756 1.756 0 1 0-3.512 0v18.4a4.359 4.359 0 0 1-8.717 0V79.1a1.756 1.756 0 0 0-1.756-1.756A1.756 1.756 0 0 0 45.72 79.1l-.008 33.052a4.359 4.359 0 0 1-8.717 0V55.078a1.756 1.756 0 0 0-3.512 0L33.461 75.4a3.194 3.194 0 1 1-6.388 0V57.7a20.215 20.215 0 0 1 4.111-12.282 20.564 20.564 0 0 1 10.415-7.257 4.139 4.139 0 0 0 2.922-3.945v-.232a17.113 17.113 0 0 0 5.9-.125v.357a4.139 4.139 0 0 0 2.922 3.945 20.563 20.563 0 0 1 10.415 7.257A20.215 20.215 0 0 1 67.871 57.7v17.7a3.194 3.194 0 0 1-6.388 0l-.022-20.009a1.756 1.756 0 1 0-3.512 0v30.17a1.756 1.756 0 0 0 3.512 0v-4.28a6.656 6.656 0 0 0 2.6.791l7.824 7.824-2.886 2.886a2.522 2.522 0 0 0 1.548 4.295l21.639 2.056c.081.007.161.011.241.011a2.522 2.522 0 0 0 2.508-2.761Zm-73 13.368a2.523 2.523 0 0 0 0 3.567l2.1 2.1-18.354 1.743 1.744-18.352 2.1 2.1a2.523 2.523 0 0 0 3.567 0l12.528-12.53V75.4a6.708 6.708 0 0 0 3.271 5.757Zm27.248-57.449A13.576 13.576 0 1 1 60.7 17.089a13.591 13.591 0 0 1-13.578 13.575ZM66.562 43.3c-.4-.536-.834-1.053-1.283-1.552l9.79-9.79a2.523 2.523 0 0 0 0-3.567l-2.1-2.1 18.352-1.744L89.578 42.9l-2.1-2.1a2.523 2.523 0 0 0-3.567 0L71.047 53.664A23.666 23.666 0 0 0 66.562 43.3Zm6.408 50.483 2.1-2.1a2.523 2.523 0 0 0 0-3.567l-6.958-6.958a6.708 6.708 0 0 0 3.271-5.757v-8.659l12.529 12.529a2.522 2.522 0 0 0 3.567 0l2.1-2.1 1.744 18.352Z"/></g></g></svg>