<svg xmlns="http://www.w3.org/2000/svg" width="138.092" height="138"><path data-name="Path 83" d="M135.965 87.687c-11.828-23.062-37.569-44-66.919-44-29.556 0-55.222 21.193-66.919 44a5.274 5.274 0 0 0 0 4.813c11.828 23.062 37.569 44 66.919 44 33.233 0 57.73-26.083 66.919-44a5.273 5.273 0 0 0 0-4.813Zm-66.919 38.266c-23.935 0-44.026-15.9-56.151-35.859 11.991-19.737 32.018-35.86 56.151-35.86 24.03 0 44.094 16.014 56.151 35.859-12.18 20.05-32.351 35.86-56.151 35.86ZM3.208 30.813a5.273 5.273 0 0 1 7.448-.39L22.401 41a5.274 5.274 0 1 1-7.055 7.836L3.599 38.26a5.273 5.273 0 0 1-.39-7.447Zm60.565-2.946V6.773a5.274 5.274 0 0 1 10.547 0v21.094a5.274 5.274 0 1 1-10.547 0ZM30.339 16.122a5.273 5.273 0 1 1 9.635-4.29l8.065 18.114a5.273 5.273 0 0 1-9.635 4.29Zm84.962 32.324a5.273 5.273 0 0 1 .39-7.448l11.745-10.575a5.273 5.273 0 1 1 7.057 7.838l-11.747 10.575a5.274 5.274 0 0 1-7.448-.39Zm-25.248-18.5 8.065-18.114a5.273 5.273 0 1 1 9.635 4.29l-8.065 18.114a5.273 5.273 0 1 1-9.635-4.29ZM69.046 64.188a25.906 25.906 0 1 0 25.906 25.906 25.935 25.935 0 0 0-25.906-25.906Zm0 41.265a15.359 15.359 0 1 1 15.359-15.359 15.376 15.376 0 0 1-15.359 15.359Z" stroke="#fff" stroke-width="3"/></svg>