<svg xmlns="http://www.w3.org/2000/svg" width="120.4" height="120"><g data-name="Group 142" fill="#ffd29d"><path data-name="Path 118" d="M118.358 27.876a6.745 6.745 0 0 0-3.738-11.5l-10.322-1.5a3.215 3.215 0 0 1-2.42-1.758l-4.616-9.353a6.745 6.745 0 0 0-12.1 0l-4.616 9.353a3.215 3.215 0 0 1-2.42 1.758l-10.322 1.5a6.745 6.745 0 0 0-3.738 11.5l7.469 7.281a3.214 3.214 0 0 1 .924 2.845l-1.763 10.28a6.736 6.736 0 0 0 9.791 7.111l9.232-4.854a3.214 3.214 0 0 1 2.991 0l9.232 4.854a6.745 6.745 0 0 0 9.786-7.11l-.337-1.968a1.766 1.766 0 0 0-3.48.6l.337 1.968a3.214 3.214 0 0 1-4.664 3.388l-9.232-4.854a6.742 6.742 0 0 0-6.277 0l-9.232 4.854a3.215 3.215 0 0 1-4.664-3.389l1.763-10.28a6.742 6.742 0 0 0-1.939-5.97l-7.47-7.281a3.214 3.214 0 0 1 1.781-5.483l10.322-1.5a6.744 6.744 0 0 0 5.079-3.69l4.616-9.353a3.214 3.214 0 0 1 5.765 0l4.616 9.353a6.744 6.744 0 0 0 5.079 3.69l10.322 1.5a3.214 3.214 0 0 1 1.781 5.482l-7.469 7.281a6.743 6.743 0 0 0-1.94 5.97l.059.342a1.766 1.766 0 0 0 3.48-.6l-.059-.342a3.213 3.213 0 0 1 .924-2.845Z"/><path data-name="Path 119" d="M97.018 76.212a8.275 8.275 0 0 0-6.271-13.681l-26.866-.032c0-.011-.3-.873-.49-1.276v-.007a4.967 4.967 0 0 1-.438-2.753c.394-3.014.491-6.143.57-8.658.2-6.45-1.085-11.16-3.935-14.4a15.055 15.055 0 0 0-11.31-5.119h-.1a4.474 4.474 0 0 0-4.411 4.486v7.841c0 4.989-.808 11.931-4.655 16.671-4.082 5.028-7.607 4.984-13.444 4.913l-.607-.007v-2.121a6.379 6.379 0 0 0-6.371-6.371H6.371A6.378 6.378 0 0 0 0 62.069v17.726a1.765 1.765 0 0 0 3.53 0V62.069a2.844 2.844 0 0 1 2.841-2.841h12.315a2.844 2.844 0 0 1 2.841 2.841v51.559a2.844 2.844 0 0 1-2.841 2.841H6.371a2.844 2.844 0 0 1-2.841-2.841V87.849a1.765 1.765 0 0 0-3.53 0v25.779a6.379 6.379 0 0 0 6.371 6.371h12.315a6.379 6.379 0 0 0 6.371-6.371v-2.669h2.387a5.193 5.193 0 0 1 3.218 1.136c.238.189.515.426.836.7 2.207 1.885 6.316 5.393 12.2 5.393h43.33a8.276 8.276 0 0 0 6.432-13.49 8.271 8.271 0 0 0 3.561-13.223 8.281 8.281 0 0 0 0-15.267ZM75.68 66.059h15.067a4.751 4.751 0 1 1 0 9.5H75.68a4.751 4.751 0 1 1 0-9.5Zm-10.5 48.6H43.7c-4.579 0-7.784-2.736-9.9-4.547a36.75 36.75 0 0 0-.93-.778 8.737 8.737 0 0 0-5.417-1.9h-2.396V67.718l.563.007c6.184.075 11.07.136 16.229-6.218 2.484-3.06 5.445-8.822 5.445-18.9v-7.84a.936.936 0 0 1 .9-.956h.071a11.686 11.686 0 0 1 8.663 3.919c2.23 2.536 3.231 6.448 3.058 11.96-.076 2.437-.171 5.47-.542 8.311a8.49 8.49 0 0 0 .742 4.707l.012.026.018.042v.009a12.372 12.372 0 0 1 1.061 4.216 11.79 11.79 0 0 1-1.086 5.417 12.8 12.8 0 0 1-6.287 5.759 1.765 1.765 0 0 0-.9 2.329c1.367 3.082 6.443-1.551 7.7-2.85a13.645 13.645 0 0 0 2.714-3.8 15.269 15.269 0 0 0 1.388-7.017 11.906 11.906 0 0 0-.068-.814h4.184a8.272 8.272 0 0 0 3.543 12.417 8.257 8.257 0 0 0 0 10.8 8.274 8.274 0 0 0-3.221 12.842 8.271 8.271 0 0 0-4.063 12.575Zm21.844 0H71.949a4.751 4.751 0 0 1 .009-9.5h15.067a4.751 4.751 0 1 1 0 9.5Zm3.722-13.033H75.68a4.751 4.751 0 1 1 0-9.5h15.067a4.751 4.751 0 1 1 0 9.5Zm3.061-13.032H78.74a4.751 4.751 0 1 1 0-9.5h15.067a4.751 4.751 0 1 1 0 9.5Z"/></g></svg>