<svg xmlns="http://www.w3.org/2000/svg" width="138.636" height="138.455"><g data-name="Group 126"><path data-name="Path 84" d="m135.713 128.153-61.1-68.871V34.306h37.039a5.291 5.291 0 0 0 5.291-5.291V6.791a5.291 5.291 0 0 0-5.294-5.291h-42.33a5.291 5.291 0 0 0-5.291 5.291v52.491l-61.1 68.871a5.291 5.291 0 0 0 3.958 8.8h124.869a5.291 5.291 0 0 0 3.958-8.8Zm-61.1-116.07h31.747v11.64H74.61Zm-55.962 114.29 33.471-37.727 33.469 37.727Zm81.091 0-40.551-45.7 10.123-11.41 50.677 57.11Z" stroke="#fff" stroke-width="3"/></g></svg>