<svg xmlns="http://www.w3.org/2000/svg" width="103.45" height="103.376"><path data-name="Path 83" d="M101.48 65.583c-8.794-17.148-27.933-32.716-49.756-32.716-21.975 0-41.059 15.758-49.756 32.716a3.921 3.921 0 0 0 0 3.578c8.794 17.147 27.933 32.715 49.756 32.715 24.71 0 42.924-19.393 49.756-32.715a3.921 3.921 0 0 0 0-3.578ZM51.724 94.034c-17.8 0-32.735-11.823-41.749-26.662C18.89 52.7 33.781 40.709 51.724 40.709c17.867 0 32.785 11.907 41.749 26.662-9.055 14.908-24.054 26.663-41.749 26.663ZM2.772 23.295a3.921 3.921 0 0 1 5.538-.29l8.733 7.863a3.923 3.923 0 1 1-5.248 5.832l-8.733-7.868a3.921 3.921 0 0 1-.29-5.537ZM47.803 21.1V5.421a3.921 3.921 0 0 1 7.842 0V21.1a3.921 3.921 0 1 1-7.842 0Zm-24.858-8.728a3.921 3.921 0 1 1 7.164-3.19l6 13.468a3.921 3.921 0 0 1-7.164 3.19Zm63.171 24.033a3.921 3.921 0 0 1 .29-5.538L95.136 23a3.921 3.921 0 1 1 5.247 5.827L91.654 36.7a3.921 3.921 0 0 1-5.538-.29ZM67.343 22.651l6-13.468a3.921 3.921 0 1 1 7.164 3.19l-6 13.468a3.921 3.921 0 1 1-7.164-3.189ZM51.724 48.11a19.262 19.262 0 1 0 19.262 19.262A19.283 19.283 0 0 0 51.724 48.11Zm0 30.681a11.42 11.42 0 1 1 11.42-11.42 11.433 11.433 0 0 1-11.42 11.42Z" stroke="#fff" stroke-width="3"/></svg>