<svg xmlns="http://www.w3.org/2000/svg" width="138.455" height="138.455"><g data-name="Group 127"><path data-name="Path 85" d="M131.664 21.607h-25.4V6.791a5.291 5.291 0 0 0-5.289-5.291H37.48a5.291 5.291 0 0 0-5.291 5.291v14.816H6.791A5.291 5.291 0 0 0 1.5 26.9v15.872a31.783 31.783 0 0 0 31.747 31.747h.716a26.554 26.554 0 0 0 19.39 16.4v15.347H42.772a5.291 5.291 0 0 0-5.117 3.945l-5.291 20.107a5.291 5.291 0 0 0 5.117 6.638h63.494a5.291 5.291 0 0 0 5.117-6.638l-5.292-20.107a5.291 5.291 0 0 0-5.117-3.945H85.1V90.919a26.554 26.554 0 0 0 19.39-16.4h.716a31.783 31.783 0 0 0 31.747-31.747V26.9a5.291 5.291 0 0 0-5.289-5.293Zm-99.475 42.3a21.191 21.191 0 0 1-20.107-21.135V32.189h20.107ZM91.6 116.849l2.506 9.524H44.344l2.506-9.524Zm-27.664-10.583V91.451h10.583v14.815Zm31.748-41.271A15.9 15.9 0 0 1 79.81 80.868H58.645a15.9 15.9 0 0 1-15.873-15.873V12.082h52.912Zm30.689-22.223a21.191 21.191 0 0 1-20.107 21.138V32.189h20.107Z" stroke="#fff" stroke-width="3"/></g></svg>