<svg xmlns="http://www.w3.org/2000/svg" data-name="Group 146" width="120.972" height="120"><path data-name="Path 124" d="M59.579 69.561a1.773 1.773 0 0 0-1.941 2.968 10.5 10.5 0 0 0 5.7 2.006v1.856a1.773 1.773 0 1 0 3.546 0v-2a8.57 8.57 0 0 0 6.7-7.024 7.526 7.526 0 0 0-5.18-8.611c-.5-.177-1.01-.362-1.52-.554v-8.183a5.264 5.264 0 0 1 2.089 1.011 1.773 1.773 0 0 0 2.392-2.618 9.026 9.026 0 0 0-4.481-2.005V44.75a1.773 1.773 0 1 0-3.546 0v1.793c-.252.056-.507.12-.768.2a7.128 7.128 0 0 0-4.883 5.591 6.279 6.279 0 0 0 2.057 6.188 16.809 16.809 0 0 0 3.594 2.061v10.4a7.149 7.149 0 0 1-3.759-1.422Zm2.355-13.829a2.78 2.78 0 0 1-.76-2.74 3.667 3.667 0 0 1 2.166-2.764v6.407a10.282 10.282 0 0 1-1.406-.904Zm5.29 6.369a4.037 4.037 0 0 1 2.865 4.68 5.1 5.1 0 0 1-3.2 3.923v-8.728Z" fill="#74cfff"/><path data-name="Path 125" d="M119.55 90.985a8.866 8.866 0 0 0-10.93-3.37l-4.765 1.574v-2.4a6.106 6.106 0 0 0-6.1-6.1 1.45 1.45 0 0 1-1.448-1.439V46.78a18.853 18.853 0 0 0-9.058-16.076l-10.564-6.548v-5.772c1.8-1.252 5.6-4.611 7.775-11.735A5.141 5.141 0 0 0 79.55 0H50.987a5.141 5.141 0 0 0-4.909 6.65c2.173 7.125 5.973 10.483 7.775 11.735v5.772l-10.564 6.547a18.853 18.853 0 0 0-9.058 16.076v8.052a1.773 1.773 0 0 0 3.546 0V46.78a15.329 15.329 0 0 1 7.38-13.062l10.953-6.79h18.318l10.953 6.79a15.328 15.328 0 0 1 7.38 13.062v32.47a5 5 0 0 0 4.995 4.995 2.556 2.556 0 0 1 2.553 2.553v3.562l-18.387 6.072a7.479 7.479 0 0 0 .138-.744 7.428 7.428 0 0 0-6.324-8.338s-29.27-5.785-30.6-5.7c-3.466.222-6.366 2.323-8.925 4.176-.3.221-.6.438-.9.647a12.5 12.5 0 0 1-5.083 2.193v-1.873a2.556 2.556 0 0 1 2.553-2.553 5 5 0 0 0 4.996-4.99V63.015a1.773 1.773 0 0 0-3.546 0V79.25a1.45 1.45 0 0 1-1.449 1.449 6.106 6.106 0 0 0-6.1 6.1v2.033a27.656 27.656 0 0 1-6.12-1.312v-1.381a5.42 5.42 0 0 0-5.414-5.414H5.415A5.42 5.42 0 0 0 0 86.139v28.447A5.421 5.421 0 0 0 5.415 120h9.734a5.42 5.42 0 0 0 5.414-5.414v-2.252l12.629-.737h.047a19.076 19.076 0 0 1 8.162 1.1l13.68 5.039a23.021 23.021 0 0 0 8.057 1.433c5.542 0 10.759-1.862 15.856-3.681 1.16-.414 2.359-.842 3.542-1.241 4.686-1.579 9.439-3.008 13.906-4.337a1.774 1.774 0 0 0-1.011-3.4c-4.5 1.338-9.286 2.778-14.027 4.376a214.02 214.02 0 0 0-3.6 1.261c-7.217 2.576-14.034 5.009-21.5 2.26l-13.679-5.039a22.646 22.646 0 0 0-9.666-1.307l-12.4.724V91.227c5.2 1.536 11.008 2.255 16.8-1.856.3-.215.612-.439.926-.667 2.169-1.571 4.629-3.352 7.072-3.509 1.121-.075 7.625 1.263 10.073 1.766.713.146 19.664 3.88 19.664 3.88l.108.018a3.884 3.884 0 1 1-1.026 7.7l-.047-.005-15.66-1.661a1.773 1.773 0 0 0-.374 3.526l15.639 1.659a7.374 7.374 0 0 0 3.09-.253c.1-.015 32.973-10.86 32.973-10.86.05-.017.1-.036.149-.057a5.349 5.349 0 0 1 4.587 9.658c-3.255 1.123-6.771 2.248-11.379 3.641a1.773 1.773 0 1 0 1.026 3.394c4.707-1.423 8.292-2.571 11.624-3.722a1.736 1.736 0 0 0 .206-.086 8.9 8.9 0 0 0 3.535-12.8Zm-46.411-67.6H57.4v-4.21h15.739Zm1.3-7.756H56.1a11.876 11.876 0 0 1-2.253-1.949 20.682 20.682 0 0 1-4.377-8.066 1.593 1.593 0 0 1 .244-1.426 1.571 1.571 0 0 1 1.273-.638H79.55a1.57 1.57 0 0 1 1.274.642 1.593 1.593 0 0 1 .244 1.426 20.684 20.684 0 0 1-4.382 8.064 11.9 11.9 0 0 1-2.252 1.945Zm-57.422 98.957a1.87 1.87 0 0 1-1.868 1.868H5.415a1.87 1.87 0 0 1-1.868-1.868V86.139a1.87 1.87 0 0 1 1.868-1.868h9.734a1.87 1.87 0 0 1 1.868 1.868Z" fill="#74cfff"/></svg>