<?xml version="1.0" encoding="utf-8"?>
<!-- Generator: Adobe Illustrator 25.1.0, SVG Export Plug-In . SVG Version: 6.00 Build 0)  -->
<svg version="1.1" id="Layer_1" xmlns="http://www.w3.org/2000/svg" xmlns:xlink="http://www.w3.org/1999/xlink" x="0px" y="0px"
	 width="75px" height="75px" viewBox="0 0 75 75" style="enable-background:new 0 0 75 75;" xml:space="preserve">
<style type="text/css">
	.st0{fill:#15284B;}
</style>
<g>
	<path class="st0" d="M64.58,16.44h-8.37v-1.32h-2.2v27.15H25.69V2.2h18.93v10.57h11.6v-2.8L46.25,0H23.48v4.7h-4.7v16.44h-7.05
		v30.53H9.25V19.81c0-0.69,0.63-1.17,1.32-1.17h5.87v-2.2h-5.87c-1.9,0-3.52,1.47-3.52,3.38v37.57c0,1.9,1.62,3.52,3.52,3.52H31.7
		v7.19h-1.17c-1.9,0-3.52,1.47-3.52,3.38V75h20.99v-3.52c0-1.9-1.47-3.38-3.38-3.38H43.3v-7.19h21.28c1.9,0,3.38-1.62,3.38-3.52
		V19.81C67.95,17.91,66.48,16.44,64.58,16.44L64.58,16.44z M46.82,3.68l6.88,6.88h-6.88V3.68z M20.99,6.9h2.49v37.57h25.83v2.49
		H20.99V6.9z M13.94,23.34h4.84v25.83h32.73v-4.7h4.7V23.34h4.84v28.33H13.94V23.34z M44.62,70.3c0.69,0,1.17,0.49,1.17,1.17v1.32
		H29.21v-1.32c0-0.69,0.63-1.17,1.32-1.17H44.62z M33.9,68.1v-7.19h7.19v7.19H33.9z M65.75,57.39c0,0.69-0.49,1.32-1.17,1.32H10.57
		c-0.69,0-1.32-0.63-1.32-1.32v-3.52h56.51V57.39z M65.75,51.66h-2.49V21.13h-7.05v-2.49h8.37c0.69,0,1.17,0.49,1.17,1.17V51.66z
		 M65.75,51.66"/>
	<rect x="29.35" y="5.87" class="st0" width="2.35" height="2.2"/>
	<rect x="34.05" y="5.87" class="st0" width="2.35" height="2.2"/>
	<rect x="38.75" y="5.87" class="st0" width="2.35" height="2.2"/>
	<path class="st0" d="M36.25,38.6v-8.07h-6.9v8.07h2.2v-2.35h2.49v2.35H36.25z M31.56,34.05v-1.32h2.49v1.32H31.56z M31.56,34.05"/>
	<rect x="29.35" y="10.57" class="st0" width="12.92" height="2.2"/>
	<rect x="29.35" y="15.26" class="st0" width="21.13" height="2.2"/>
	<rect x="29.35" y="19.96" class="st0" width="21.13" height="2.2"/>
	<rect x="44.62" y="36.4" class="st0" width="5.87" height="2.2"/>
	<rect x="46.97" y="31.7" class="st0" width="3.52" height="2.2"/>
	<rect x="36.4" y="55.19" class="st0" width="2.35" height="2.2"/>
</g>
</svg>
