<?xml version="1.0" encoding="utf-8"?>
<!-- Generator: Adobe Illustrator 25.1.0, SVG Export Plug-In . SVG Version: 6.00 Build 0)  -->
<svg version="1.1" id="Layer_1" xmlns="http://www.w3.org/2000/svg" xmlns:xlink="http://www.w3.org/1999/xlink" x="0px" y="0px"
	 width="75px" height="75px" viewBox="0 0 75 75" style="enable-background:new 0 0 75 75;" xml:space="preserve">
<style type="text/css">
	.st0{fill:#15284B;}
</style>
<g>
	<path class="st0" d="M22.24,74.63c0.49,0.49,1.28,0.49,1.77,0l5-5c0.49-0.49,0.49-1.28,0-1.77l-0.37-0.37l3.75-3.74h15.73
		c0.33,0,0.65-0.13,0.88-0.37l16.25-16.25c0.49-0.49,0.49-1.28,0-1.77c-3.25-3.24-8.52-3.24-11.77,0l-4.63,4.63h-4.48v-3.74
		c0-2.08-1.68-3.76-3.76-3.76l-13.8-0.01c-0.33,0-0.65,0.14-0.89,0.38l-7.44,7.51c-0.23,0.23-0.36,0.55-0.36,0.87v3.24l-1.25,1.24
		l-0.37-0.38c-0.49-0.49-1.28-0.49-1.77,0l-5,5c-0.49,0.49-0.49,1.28,0,1.77L22.24,74.63z M20.25,55.9
		c0.24-0.23,0.37-0.55,0.38-0.89v-3.23L27.34,45l13.27,0.01c0.7,0,1.26,0.57,1.26,1.26v3.74h-10v2.5h17.5
		c0.33,0,0.65-0.13,0.88-0.37l5-5c1.93-1.93,4.95-2.25,7.25-0.79l-14.9,14.9H31.88c-0.33,0-0.65,0.13-0.88,0.37l-4.12,4.11
		l-8.23-8.23L20.25,55.9z M15.63,58.02l10.73,10.73l-3.23,3.23L16.14,65l1.62-1.62l-1.77-1.77l-1.62,1.62l-1.98-1.98L15.63,58.02z
		 M15.63,58.02"/>
	<rect x="36.86" class="st0" width="2.5" height="2.5"/>
	<path class="st0" d="M30.75,1.71l2.31-0.96l0.96,2.31L31.7,4.02L30.75,1.71z M30.75,1.71"/>
	<path class="st0" d="M25.73,5.65l1.77-1.77l1.77,1.77L27.5,7.41L25.73,5.65z M25.73,5.65"/>
	<path class="st0" d="M22.63,11.18l0.96-2.31l2.31,0.96l-0.96,2.31L22.63,11.18z M22.63,11.18"/>
	<path class="st0" d="M50.35,9.83l2.31-0.96l0.96,2.31l-2.31,0.96L50.35,9.83z M50.35,9.83"/>
	<path class="st0" d="M46.95,5.65l1.77-1.77l1.77,1.77l-1.77,1.77L46.95,5.65z M46.95,5.65"/>
	<path class="st0" d="M42.23,3.06l0.96-2.31l2.31,0.96l-0.96,2.31L42.23,3.06z M42.23,3.06"/>
	<path class="st0" d="M31.86,25.59v2.14c-1.18,0.41-2.08,1.39-2.39,2.6c-0.31,1.21,0.02,2.5,0.86,3.42c-1,1.09-1.26,2.68-0.66,4.03
		c0.6,1.35,1.95,2.23,3.43,2.22h10c1.48,0.01,2.83-0.86,3.43-2.22c0.6-1.36,0.34-2.94-0.65-4.03c0.84-0.92,1.17-2.21,0.86-3.42
		c-0.31-1.21-1.2-2.19-2.39-2.6v-2.14c4.12-2.75,5.95-7.88,4.52-12.62c-1.44-4.74-5.81-7.98-10.77-7.98
		c-4.96,0-9.33,3.24-10.77,7.98C25.91,17.72,27.74,22.84,31.86,25.59L31.86,25.59z M43.11,37.5h-10c-0.69,0-1.25-0.56-1.25-1.25
		c0-0.69,0.56-1.25,1.25-1.25h10c0.69,0,1.25,0.56,1.25,1.25C44.36,36.94,43.8,37.5,43.11,37.5L43.11,37.5z M43.11,32.5h-10
		c-0.69,0-1.25-0.56-1.25-1.25c0-0.69,0.56-1.25,1.25-1.25h10c0.69,0,1.25,0.56,1.25,1.25C44.36,31.94,43.8,32.5,43.11,32.5
		L43.11,32.5z M38.11,7.5c3.95,0.01,7.41,2.66,8.44,6.48c1.02,3.82-0.64,7.85-4.06,9.84c-0.39,0.22-0.62,0.63-0.63,1.08v2.6h-2.5
		v-4.48l4.01-4.01c0.73-0.73,1.14-1.72,1.14-2.76c0-1.04-0.41-2.03-1.14-2.76c-1.45-1.38-3.69-1.49-5.26-0.24
		c-1.56-1.25-3.81-1.15-5.26,0.24c-1.52,1.53-1.52,3.99,0,5.52l0.63,0.63l1.77-1.77l-0.63-0.63c-0.54-0.55-0.54-1.43,0-1.98
		c0.55-0.53,1.43-0.53,1.98,0l0.63,0.63c0.49,0.49,1.28,0.49,1.77,0l0.63-0.63c0.55-0.53,1.43-0.53,1.98,0
		c0.26,0.26,0.41,0.62,0.41,0.99c0,0.37-0.15,0.73-0.41,0.99l-4.38,4.37c-0.23,0.23-0.37,0.55-0.37,0.88v5h-2.5v-2.6
		c0-0.45-0.24-0.86-0.63-1.08c-3.42-1.98-5.09-6.01-4.06-9.83C30.7,10.17,34.16,7.51,38.11,7.5L38.11,7.5z M38.11,7.5"/>
</g>
</svg>
