<?xml version="1.0" encoding="utf-8"?>
<!-- Generator: Adobe Illustrator 25.3.0, SVG Export Plug-In . SVG Version: 6.00 Build 0)  -->
<svg version="1.1" id="Layer_1" xmlns="http://www.w3.org/2000/svg" xmlns:xlink="http://www.w3.org/1999/xlink" x="0px" y="0px"
	 width="75px" height="75px" viewBox="0 0 75 75" style="enable-background:new 0 0 75 75;" xml:space="preserve">
<style type="text/css">
	.st0{fill:#15284B;}
</style>
<g>
	<path class="st0" d="M1.25,75.02h27.5c0.75,0,1.25-0.5,1.25-1.25v-25c0-3.5-2.75-6.25-6.25-6.25c-2,0-3.62-1.5-3.75-3.5
		c4.75-2,7.62-6.75,7.5-11.88c0-0.25,0-0.75,0-0.88c0-6.25-5-11.25-11.25-11.25h-15C0.5,15.02,0,15.52,0,16.27
		c0,2.88,1.13,5.62,3,7.63c-0.25,1.25-0.5,2.37-0.5,3.62c0,5,3,9.5,7.5,11.5c-0.12,2-1.75,3.5-3.75,3.5c-3.5,0-6.25,2.75-6.25,6.25
		v25C0,74.52,0.5,75.02,1.25,75.02z M2.5,72.52v-2.5h25v2.5H2.5z M16.25,17.52c4.38,0,8,3.25,8.62,7.5H11.25
		c-4.38,0-8-3.25-8.62-7.5H16.25z M5,27.52c0-0.62,0-1.25,0.12-1.75c1.88,1.12,4,1.75,6.12,1.75H25c0,4.25-2.62,8-6.62,9.38
		c-0.5,0.12-0.88,0.62-0.88,1.12v0.75c0,1.62,0.62,3.25,1.88,4.5l-3.25,0.5h-2.25l-3.25-0.5c1.25-1.12,1.88-2.75,1.88-4.5v-0.62
		c0-0.5-0.38-1-0.88-1.12C7.63,35.52,5,31.77,5,27.52z M14.88,46.27h0.38L17.5,60.9L15,63.27l-2.38-2.38L14.88,46.27z M6.12,45.02
		l6.12,1l-2.37,15c0,0.38,0.12,0.75,0.38,1.13L14,65.9c0.5,0.5,1.25,0.5,1.75,0l3.75-3.75c0.25-0.25,0.38-0.62,0.38-1.13l-2.38-15
		l6.12-1c2,0,3.62,1.75,3.62,3.75v18.75H2.5V48.77C2.5,46.77,4.12,45.02,6.12,45.02z"/>
	<path class="st0" d="M27.5,12.52h4c-0.75,1.12-0.25,2.75,0.88,3.38c0.38,0.25,0.88,0.37,1.25,0.37H64c1.38,0,2.5-1.12,2.5-2.5
		c0-0.5-0.12-0.88-0.38-1.25H70c1.38,0,2.5,1.12,2.5,2.5v55c0,1.38-1.12,2.5-2.5,2.5H32.5v2.5H70c2.75,0,5-2.25,5-5v-55
		c0-2.75-2.25-5-5-5h-5.62L63,7.9c-0.62-1-1.88-1.62-3.12-1.62h-2.75c-0.62,0-1.12-0.38-1.25-1c-1.25-4-5.38-6.12-9.38-5
		c-2.38,0.75-4.25,2.62-5,5c-0.12,0.5-0.62,1-1.25,1H37.5c-1.25,0-2.38,0.62-3.12,1.62l-1.25,2.12H27.5c-2.75,0-5,2.25-5,5H25
		C25,13.65,26.12,12.52,27.5,12.52z M36.5,9.27c0.25-0.25,0.62-0.5,1.12-0.5h2.75C42,8.77,43.5,7.65,44,6.02
		c0.88-2.62,3.63-4.12,6.25-3.25c1.62,0.5,2.75,1.75,3.25,3.25c0.5,1.63,2,2.75,3.62,2.75h2.75c0.38,0,0.75,0.25,1,0.5l3,4.5H33.62
		L36.5,9.27z"/>
	<rect x="47.5" y="5.02" class="st0" width="2.5" height="2.5"/>
	<polygon class="st0" points="35.88,38.4 38.75,35.52 41.62,38.4 43.38,36.65 40.5,33.77 43.38,30.9 41.62,29.15 38.75,32.02 
		35.88,29.15 34.12,30.9 37,33.77 34.12,36.65 	"/>
	<polygon class="st0" points="55.38,54.15 52.5,57.02 49.62,54.15 47.88,55.9 50.75,58.77 47.88,61.65 49.62,63.4 52.5,60.52 
		55.38,63.4 57.12,61.65 54.25,58.77 57.12,55.9 	"/>
	<path class="st0" d="M33.75,65.02h3.12c4.5,0,8.12-3.63,8.12-8.12v-1.25c0-3.12,2.5-5.62,5.62-5.62c4.5,0,8.12-3.63,8.12-8.12
		v-2.62l2.88,2.88l1.75-1.75l-5-5c-0.5-0.5-1.25-0.5-1.75,0l-5,5l1.75,1.75l2.88-2.88v2.62c0,3.12-2.5,5.62-5.62,5.62
		c-4.5,0-8.12,3.62-8.12,8.12v1.25c0,3.12-2.5,5.62-5.62,5.62h-3.12V65.02z"/>
	<path class="st0" d="M64.12,19.15l-1.62,1.63c-3-2.75-7.75-2.5-10.5,0.62c-2.75,3.12-2.5,7.75,0.63,10.5
		c3.12,2.75,7.75,2.5,10.5-0.62c2.12-2.37,2.5-5.75,1-8.5l1.75-1.75L64.12,19.15z M62.5,26.27c0,2.75-2.25,5-5,5s-5-2.25-5-5
		s2.25-5,5-5c1.25,0,2.38,0.5,3.25,1.25l-3.25,3.25l-1.62-1.62l-1.75,1.75l2.5,2.5c0.5,0.5,1.25,0.5,1.75,0l3.75-3.75
		C62.38,25.15,62.5,25.65,62.5,26.27z"/>
	<rect x="20" y="51.27" class="st0" width="3.75" height="2.5"/>
	<path class="st0" d="M32.5,70.02h36.25c0.75,0,1.25-0.5,1.25-1.25v-52.5h-2.5v51.25h-35V70.02z"/>
</g>
</svg>
