<?xml version="1.0" encoding="utf-8"?>
<!-- Generator: Adobe Illustrator 25.2.3, SVG Export Plug-In . SVG Version: 6.00 Build 0)  -->
<svg version="1.1" id="Layer_1" xmlns="http://www.w3.org/2000/svg" xmlns:xlink="http://www.w3.org/1999/xlink" x="0px" y="0px"
	 width="75px" height="75px" viewBox="0 0 75 75" style="enable-background:new 0 0 75 75;" xml:space="preserve">
<style type="text/css">
	.st0{fill:#15284B;}
</style>
<g>
	<rect x="36.33" y="32.64" class="st0" width="2.34" height="2.34"/>
	<path class="st0" d="M70.31,65.45V31.47c0-1.94-1.57-3.52-3.52-3.52H38.67v-8.2h-2.34v8.2H8.2c-1.94,0-3.52,1.57-3.52,3.52v33.98H0
		v3.52c0,3.23,2.62,5.86,5.86,5.86h63.28c3.23,0,5.86-2.62,5.86-5.86v-3.52H70.31z M7.03,31.47c0-0.65,0.52-1.17,1.17-1.17H66.8
		c0.65,0,1.17,0.52,1.17,1.17v33.98h-2.34V32.64H41.02v2.34h22.27v30.47H51.56v-3.06c0-1.46-0.91-2.77-2.28-3.29l-7.09-2.66v-3.61
		l1.17-0.89v-9.92c0-1.94-1.57-3.52-3.52-3.52h-3.37c-3.38,0-6.33,2.3-7.14,5.58l-0.36,1.46h2.67v6.4l1.17,0.89v3.61l-7.09,2.66
		c-1.37,0.52-2.28,1.83-2.28,3.29v3.06H11.72V34.98h22.27v-2.34H9.37v32.81H7.03V31.47z M25.78,65.45v-3.06
		c0-0.49,0.3-0.93,0.76-1.1l6.71-2.52c0.68,1.08,1.81,1.78,3.08,1.9v3.61h2.34v-3.61c1.27-0.12,2.41-0.82,3.08-1.9l6.71,2.51
		c0.46,0.17,0.76,0.61,0.76,1.1v3.07h-7.03v1.17c0,0.65-0.52,1.17-1.17,1.17h-7.03c-0.65,0-1.17-0.52-1.17-1.17v-1.17H25.78z
		 M38.67,52.56h-2.34l-2.34-1.79v-5.24h4.69v-2.34h-6.45c0.92-1.46,2.52-2.35,4.25-2.34h3.37c0.65,0,1.17,0.52,1.17,1.17v8.76
		L38.67,52.56z M39.84,54.61v2.61c-0.01,0.21-0.2,1.2-2.34,1.2s-2.33-1-2.34-1.17v-2.64l0.39,0.29h3.92L39.84,54.61z M72.66,68.97
		c0,1.94-1.57,3.52-3.52,3.52H5.86c-1.94,0-3.52-1.57-3.52-3.52V67.8h28.33c0.5,1.4,1.83,2.34,3.32,2.34h7.03
		c1.49,0,2.82-0.94,3.32-2.34h28.33V68.97z M72.66,68.97"/>
	<path class="st0" d="M19.74,23.61c-6-6.02-6-15.76,0-21.78l-1.66-1.66c-6.92,6.93-6.92,18.16,0,25.09L19.74,23.61z M19.74,23.61"/>
	<path class="st0" d="M22.65,22.14l1.66-1.66c-4.28-4.29-4.28-11.24,0-15.53L22.65,3.3C17.45,8.5,17.45,16.93,22.65,22.14
		L22.65,22.14z M22.65,22.14"/>
	<path class="st0" d="M28.87,17.36c-2.56-2.57-2.56-6.72,0-9.28l-1.66-1.66c-3.47,3.48-3.47,9.11,0,12.6L28.87,17.36z M28.87,17.36"
		/>
	<path class="st0" d="M55.26,23.61l1.66,1.66c6.92-6.93,6.92-18.16,0-25.09l-1.66,1.66C61.27,7.85,61.27,17.59,55.26,23.61
		L55.26,23.61z M55.26,23.61"/>
	<path class="st0" d="M52.35,22.14c5.2-5.21,5.2-13.64,0-18.84L50.7,4.95c4.28,4.29,4.28,11.24,0,15.53L52.35,22.14z M52.35,22.14"
		/>
	<path class="st0" d="M47.79,19.02c3.47-3.48,3.47-9.11,0-12.6l-1.66,1.66c2.56,2.57,2.56,6.72,0,9.28L47.79,19.02z M47.79,19.02"/>
	<path class="st0" d="M37.5,17.41c2.59,0,4.69-2.1,4.69-4.69s-2.1-4.69-4.69-4.69c-2.59,0-4.69,2.1-4.69,4.69
		S34.91,17.41,37.5,17.41L37.5,17.41z M37.5,10.38c1.29,0,2.34,1.05,2.34,2.34s-1.05,2.34-2.34,2.34c-1.29,0-2.34-1.05-2.34-2.34
		S36.21,10.38,37.5,10.38L37.5,10.38z M37.5,10.38"/>
</g>
</svg>
