<?xml version="1.0" encoding="utf-8"?>
<!-- Generator: Adobe Illustrator 25.2.3, SVG Export Plug-In . SVG Version: 6.00 Build 0)  -->
<svg version="1.1" id="Layer_1" xmlns="http://www.w3.org/2000/svg" xmlns:xlink="http://www.w3.org/1999/xlink" x="0px" y="0px"
	 width="75px" height="75px" viewBox="0 0 75 75" style="enable-background:new 0 0 75 75;" xml:space="preserve">
<style type="text/css">
	.st0{fill:#15284B;}
</style>
<g>
	<path class="st0" d="M72.43,51.3h-0.58V17.57c0-2.58-1.96-4.69-4.35-4.69h-60c-2.39,0-4.35,2.11-4.35,4.69V51.3H2.57
		C1.15,51.3,0,52.36,0,53.66v6.09c0,1.3,1.15,2.36,2.57,2.36h69.86c1.42,0,2.57-1.06,2.57-2.36v-6.09
		C75,52.36,73.85,51.3,72.43,51.3 M5.32,17.57c0-1.29,0.98-2.34,2.18-2.34h60c1.2,0,2.18,1.05,2.18,2.34v33.82H5.32V17.57z
		 M72.75,59.76c0,0.17-0.15,0.3-0.33,0.3H2.57c-0.18,0-0.33-0.14-0.33-0.3v-6.09c0-0.17,0.15-0.3,0.33-0.3h69.86
		c0.18,0,0.33,0.14,0.33,0.3V59.76z"/>
	<path class="st0" d="M32.65,32.67c2.88,0,5.23-2.53,5.23-5.63c0-3.1-2.35-5.63-5.23-5.63c-2.89,0-5.23,2.53-5.23,5.63
		C27.42,30.15,29.76,32.67,32.65,32.67 M32.65,23.69c1.72,0,3.11,1.5,3.11,3.35c0,1.85-1.4,3.35-3.11,3.35
		c-1.72,0-3.12-1.5-3.12-3.35C29.53,25.19,30.93,23.69,32.65,23.69"/>
	<path class="st0" d="M34.74,33.4h-4.66c-1.45,0-2.64,1.25-2.68,2.8l-1.29,9.85l-0.01,0.16c0,1.59,1.2,2.89,2.68,2.89h7.26
		c1.48,0,2.68-1.3,2.68-2.89l-1.3-10.01C37.38,34.65,36.19,33.4,34.74,33.4 M36.04,46.82h-7.26c-0.29,0-0.54-0.25-0.57-0.55
		l1.29-9.82l0.01-0.16c0-0.33,0.26-0.61,0.57-0.61h4.66c0.31,0,0.57,0.28,0.57,0.61l1.3,9.97C36.58,46.57,36.33,46.82,36.04,46.82"
		/>
	<path class="st0" d="M59.36,18.12H43.2c-1.54,0-2.8,1.35-2.8,3.01v11.41c0,1.66,1.26,3.01,2.8,3.01h1.32l4.73,5.88
		c0.15,0.19,0.38,0.3,0.61,0.3c0.1,0,0.19-0.02,0.28-0.06c0.32-0.13,0.53-0.46,0.53-0.82v-5.3h8.68c1.54,0,2.8-1.35,2.8-3.01V21.13
		C62.16,19.47,60.9,18.12,59.36,18.12 M60.53,21.13v11.41c0,0.7-0.53,1.26-1.17,1.26h-9.49c-0.45,0-0.81,0.39-0.81,0.88v3.83
		l-3.55-4.4c-0.16-0.19-0.38-0.3-0.61-0.3c-0.01,0-0.02,0-0.04,0c-0.05,0-1.66,0-1.66,0c-0.65,0-1.17-0.57-1.17-1.26V21.13
		c0-0.69,0.53-1.26,1.17-1.26h16.16C60,19.87,60.53,20.43,60.53,21.13"/>
	<path class="st0" d="M58.45,22.66H44.1c-0.45,0-0.81,0.39-0.81,0.88s0.37,0.88,0.81,0.88h14.35c0.45,0,0.81-0.39,0.81-0.88
		S58.9,22.66,58.45,22.66"/>
	<path class="st0" d="M58.45,25.96H44.1c-0.45,0-0.81,0.39-0.81,0.88c0,0.48,0.37,0.88,0.81,0.88h14.35c0.45,0,0.81-0.39,0.81-0.88
		C59.26,26.35,58.9,25.96,58.45,25.96"/>
	<path class="st0" d="M50.9,29.25H44.1c-0.45,0-0.81,0.39-0.81,0.88s0.37,0.88,0.81,0.88h6.79c0.45,0,0.81-0.39,0.81-0.88
		S51.34,29.25,50.9,29.25"/>
</g>
</svg>
