<?xml version="1.0" encoding="utf-8"?>
<!-- Generator: Adobe Illustrator 25.2.3, SVG Export Plug-In . SVG Version: 6.00 Build 0)  -->
<svg version="1.1" id="Layer_1" xmlns="http://www.w3.org/2000/svg" xmlns:xlink="http://www.w3.org/1999/xlink" x="0px" y="0px"
	 width="75px" height="75px" viewBox="0 0 75 75" style="enable-background:new 0 0 75 75;" xml:space="preserve">
<style type="text/css">
	.st0{fill:none;stroke:#15284B;stroke-width:2;stroke-miterlimit:10;}
</style>
<path class="st0" d="M37.19,47.22l11.89,11.7 M38.58,47.22L26.7,58.92 M37.97,31.66v16.55 M66.45,59.62
	c1.87-0.86,3.17-2.72,3.17-4.88c0-2.98-2.45-5.39-5.48-5.39c-3.03,0-5.48,2.41-5.48,5.39c0,2.16,1.3,4.02,3.17,4.88
	c-4.33,1.03-7.55,4.85-7.55,9.43c0,5.36,19.73,5.36,19.73,0C74,64.47,70.78,60.65,66.45,59.62z M13.17,59.62
	c1.87-0.86,3.17-2.72,3.17-4.88c0-2.98-2.45-5.39-5.48-5.39c-3.03,0-5.48,2.41-5.48,5.39c0,2.16,1.3,4.02,3.17,4.88
	C4.22,60.65,1,64.47,1,69.05c0,5.36,19.73,5.36,19.73,0C20.73,64.47,17.5,60.65,13.17,59.62z M40.66,12.2
	c1.87-0.86,3.17-2.72,3.17-4.88c0-2.98-2.45-5.39-5.48-5.39c-3.03,0-5.48,2.41-5.48,5.39c0,2.16,1.3,4.02,3.17,4.88
	c-4.33,1.03-7.55,4.85-7.55,9.43c0,5.36,19.73,5.36,19.73,0C48.21,17.05,44.99,13.23,40.66,12.2z"/>
</svg>
