<?xml version="1.0" encoding="utf-8"?>
<!-- Generator: Adobe Illustrator 25.1.0, SVG Export Plug-In . SVG Version: 6.00 Build 0)  -->
<svg version="1.1" id="Layer_1" xmlns="http://www.w3.org/2000/svg" xmlns:xlink="http://www.w3.org/1999/xlink" x="0px" y="0px"
	 width="75px" height="75px" viewBox="0 0 75 75" style="enable-background:new 0 0 75 75;" xml:space="preserve">
<style type="text/css">
	.st0{fill:#15284B;}
</style>
<g>
	<path class="st0" d="M1.22,48.78h6.36c0.21,0,0.42-0.06,0.59-0.17l4.04-2.59c0.51-0.33,0.66-1.01,0.33-1.52
		c-0.33-0.51-1.01-0.66-1.52-0.33l-3.77,2.42H1.22c-0.61,0-1.1,0.49-1.1,1.1C0.12,48.28,0.61,48.78,1.22,48.78L1.22,48.78z
		 M1.22,48.78"/>
	<path class="st0" d="M36.54,49.82c0-2.16-1.76-3.92-3.92-3.92h-2.2v-0.82c0-2.76-2.12-5.03-4.82-5.27V28.29
		c1.75-0.48,3.41-1.29,4.89-2.41c0.48-0.37,0.58-1.06,0.21-1.54c-0.37-0.48-1.06-0.58-1.54-0.21c-2.13,1.62-4.68,2.47-7.36,2.47
		c-6.73,0-12.2-5.47-12.2-12.2c0-6.73,5.47-12.2,12.2-12.2c6.73,0,12.2,5.47,12.2,12.2c0,2.34-0.66,4.6-1.91,6.56
		c-0.33,0.51-0.18,1.19,0.33,1.52c0.51,0.33,1.19,0.18,1.52-0.33c1.48-2.31,2.26-4.99,2.26-7.75c0-7.94-6.46-14.4-14.4-14.4
		c-7.94,0-14.4,6.46-14.4,14.4c0,6.58,4.43,12.14,10.47,13.85v11.84c-0.64,0.19-1.25,0.47-1.82,0.83l-1.08,0.69
		c-0.51,0.33-0.66,1.01-0.33,1.52c0.33,0.51,1.01,0.66,1.52,0.33l1.08-0.69c0.8-0.52,1.73-0.79,2.68-0.79h5.2
		c1.71,0,3.09,1.39,3.09,3.1v10.26c0,1.01-0.82,1.82-1.82,1.82c-1.01,0-1.82-0.82-1.82-1.82v-4.31c0-0.52-0.36-0.96-0.86-1.07
		c-0.5-0.11-1.02,0.14-1.23,0.61c-1.25,2.67-4.05,4.22-6.97,3.87l-1.73-0.21c-0.6-0.07-1.15,0.36-1.22,0.96
		c-0.07,0.6,0.36,1.15,0.96,1.22l1.73,0.21c0.89,0.11,1.77,0.08,2.62-0.07v10.99h-4.55c-0.89,0-1.77-0.23-2.55-0.65L5.5,64
		c-0.16-0.09-0.34-0.13-0.53-0.13H1.22c-0.61,0-1.1,0.49-1.1,1.1c0,0.61,0.49,1.1,1.1,1.1h3.48l5.02,2.75
		c1.1,0.61,2.35,0.93,3.61,0.93h4.55v4.16c0,0.61,0.49,1.1,1.1,1.1c0.61,0,1.1-0.49,1.1-1.1V55.87c0.84-0.39,1.62-0.9,2.31-1.52v1
		c0,1.08,0.43,2.05,1.12,2.78c-0.85,0.72-1.39,1.79-1.39,2.99c0,1.11,0.46,2.11,1.2,2.82c-0.74,0.71-1.2,1.71-1.2,2.82
		c0,1.15,0.5,2.19,1.3,2.91v4.24c0,0.61,0.49,1.1,1.1,1.1c0.61,0,1.1-0.49,1.1-1.1v-3.26c0.14,0.02,0.28,0.02,0.43,0.02h4.83
		c2.16,0,3.92-1.76,3.92-3.92c0-0.96-0.35-1.84-0.92-2.52c0.95-0.72,1.56-1.85,1.56-3.12c0-0.93-0.33-1.78-0.87-2.45
		c1-0.71,1.65-1.88,1.65-3.19c0-1.03-0.4-1.96-1.05-2.66C36,52.09,36.54,51.02,36.54,49.82L36.54,49.82z M20.08,39.79v-11.1
		c0.57,0.07,1.15,0.1,1.74,0.1c0.54,0,1.07-0.03,1.6-0.09v11.08H20.08z M26.03,59.39h5.47c0.95,0,1.72,0.77,1.72,1.72
		s-0.77,1.72-1.72,1.72h-5.47c-0.95,0-1.72-0.77-1.72-1.72S25.08,59.39,26.03,59.39L26.03,59.39z M30.87,68.47h-4.83
		c-0.95,0-1.72-0.77-1.72-1.72c0-0.95,0.77-1.72,1.72-1.72h4.83c0.95,0,1.72,0.77,1.72,1.72C32.59,67.7,31.82,68.47,30.87,68.47
		L30.87,68.47z M32.29,57.19h-2.31c0.29-0.55,0.45-1.18,0.45-1.85v-1.6h1.86c0.95,0,1.72,0.77,1.72,1.72
		C34.01,56.42,33.24,57.19,32.29,57.19L32.29,57.19z M32.62,51.55h-2.2V48.1h2.2c0.95,0,1.72,0.77,1.72,1.72
		C34.34,50.77,33.57,51.55,32.62,51.55L32.62,51.55z M32.62,51.55"/>
	<path class="st0" d="M73.78,63.86h-3.61c-0.18,0-0.37,0.05-0.53,0.14l-5.27,2.89c-0.78,0.43-1.66,0.65-2.55,0.65h-4.55V56.55
		c0.85,0.15,1.73,0.18,2.62,0.07l1.73-0.21c0.6-0.07,1.03-0.62,0.96-1.22c-0.07-0.6-0.62-1.03-1.22-0.96l-1.73,0.21
		c-2.92,0.35-5.72-1.2-6.97-3.87c-0.22-0.47-0.73-0.72-1.23-0.61c-0.5,0.11-0.86,0.56-0.86,1.07v4.31c0,1.01-0.82,1.82-1.82,1.82
		c-1.01,0-1.82-0.82-1.82-1.82V45.09c0-1.71,1.39-3.09,3.09-3.09h5.2c0.95,0,1.88,0.27,2.68,0.79l9.08,5.83
		c0.18,0.11,0.38,0.17,0.59,0.17h6.22c0.61,0,1.1-0.49,1.1-1.1c0-0.61-0.49-1.1-1.1-1.1h-5.89l-8.81-5.65
		c-0.57-0.36-1.18-0.64-1.82-0.83v-3.05c6.03-1.72,10.47-7.28,10.47-13.85c0-2.78-0.8-5.48-2.3-7.81c-0.33-0.51-1.01-0.66-1.52-0.33
		c-0.51,0.33-0.65,1.01-0.33,1.52c1.28,1.97,1.95,4.26,1.95,6.62c0,6.73-5.47,12.2-12.2,12.2c-6.73,0-12.2-5.47-12.2-12.2
		s5.47-12.2,12.2-12.2c2.67,0,5.2,0.84,7.32,2.44c0.49,0.36,1.17,0.27,1.54-0.22c0.36-0.49,0.27-1.17-0.22-1.54
		c-2.51-1.88-5.5-2.88-8.64-2.88c-7.94,0-14.4,6.46-14.4,14.4c0,6.63,4.5,12.22,10.6,13.89v2.74c-2.7,0.24-4.82,2.51-4.82,5.27v0.82
		h-2.2c-2.16,0-3.92,1.76-3.92,3.92c0,1.19,0.54,2.26,1.38,2.98c-0.65,0.7-1.05,1.63-1.05,2.66c0,1.31,0.65,2.48,1.65,3.19
		c-0.54,0.67-0.87,1.52-0.87,2.45c0,1.28,0.61,2.41,1.56,3.13c-0.57,0.68-0.92,1.56-0.92,2.52c0,2.16,1.76,3.92,3.92,3.92h4.83
		c0.14,0,0.29-0.01,0.43-0.02v3.26c0,0.61,0.49,1.1,1.1,1.1c0.61,0,1.1-0.49,1.1-1.1v-4.24c0.79-0.72,1.3-1.76,1.3-2.91
		c0-1.11-0.46-2.11-1.2-2.82c0.74-0.71,1.2-1.71,1.2-2.82c0-1.2-0.54-2.27-1.39-2.99c0.69-0.72,1.12-1.7,1.12-2.78v-1
		c0.69,0.63,1.47,1.14,2.31,1.52V73.9c0,0.61,0.49,1.1,1.1,1.1c0.61,0,1.1-0.49,1.1-1.1v-4.16h4.55c1.26,0,2.51-0.32,3.61-0.92
		l5.02-2.75h3.33c0.61,0,1.1-0.49,1.1-1.1C74.88,64.35,74.39,63.86,73.78,63.86L73.78,63.86z M53.33,37.59
		c0.59,0,1.17-0.04,1.74-0.1v2.31h-3.33v-2.3C52.26,37.55,52.79,37.59,53.33,37.59L53.33,37.59z M49.11,62.83h-5.47
		c-0.95,0-1.72-0.77-1.72-1.72s0.77-1.72,1.72-1.72h5.47c0.95,0,1.72,0.77,1.72,1.72S50.06,62.83,49.11,62.83L49.11,62.83z
		 M42.86,57.19c-0.95,0-1.72-0.77-1.72-1.72c0-0.95,0.77-1.72,1.72-1.72h1.86v1.6c0,0.67,0.16,1.29,0.45,1.85H42.86z M42.53,48.1
		h2.2v3.45h-2.2c-0.95,0-1.72-0.77-1.72-1.72C40.8,48.87,41.58,48.1,42.53,48.1L42.53,48.1z M44.28,68.47
		c-0.95,0-1.72-0.77-1.72-1.72c0-0.95,0.77-1.72,1.72-1.72h4.83c0.95,0,1.72,0.77,1.72,1.72c0,0.95-0.77,1.72-1.72,1.72H44.28z
		 M44.28,68.47"/>
	<path class="st0" d="M45.31,28.74l2.47,2.47c0.75,0.75,1.98,0.75,2.73,0l2.83-2.83l2.83,2.83c0.38,0.38,0.87,0.56,1.36,0.56
		c0.49,0,0.99-0.19,1.36-0.56l2.47-2.47c0.75-0.75,0.75-1.98,0-2.73l-2.83-2.83l2.83-2.83c0.75-0.75,0.75-1.98,0-2.73l-2.47-2.47
		c-0.36-0.36-0.85-0.56-1.36-0.56c-0.52,0-1,0.2-1.36,0.56l-2.83,2.83l-2.83-2.83c-0.36-0.36-0.85-0.56-1.36-0.56
		c-0.52,0-1,0.2-1.36,0.56l-2.47,2.47c-0.75,0.75-0.75,1.97,0,2.73l2.83,2.83l-2.83,2.83C44.56,26.76,44.56,27.99,45.31,28.74
		L45.31,28.74z M50.47,23.96c0.43-0.43,0.43-1.12,0-1.55L47.06,19l2.09-2.09l3.41,3.41c0.43,0.43,1.12,0.43,1.55,0l3.41-3.41
		L59.61,19l-3.41,3.41c-0.21,0.21-0.32,0.49-0.32,0.78c0,0.29,0.12,0.57,0.32,0.78l3.41,3.41l-2.09,2.09l-3.41-3.41
		c-0.21-0.21-0.49-0.32-0.78-0.32c-0.29,0-0.57,0.12-0.78,0.32l-3.41,3.41l-2.09-2.09L50.47,23.96z M50.47,23.96"/>
	<path class="st0" d="M27.22,6.6c-0.41,0-0.8,0.15-1.09,0.45l-6.94,6.91l-1.19-1.5c-0.43-0.54-1.23-0.64-1.79-0.22l-3.66,2.81
		c-0.27,0.21-0.45,0.52-0.49,0.86c-0.04,0.34,0.05,0.68,0.27,0.95l3.71,4.71c0.08,0.1,0.17,0.2,0.27,0.3
		c0.21,0.21,0.49,0.33,0.78,0.33h3.56c0.29,0,0.57-0.12,0.78-0.32l9.72-9.69c0.59-0.58,0.6-1.54,0.02-2.14L28.3,7.07
		C28.01,6.77,27.63,6.61,27.22,6.6L27.22,6.6z M20.18,20h-2.59l-2.97-3.77l2.21-1.7l1.4,1.76c0.19,0.24,0.48,0.4,0.8,0.41
		c0.31,0.02,0.62-0.1,0.84-0.32l7.33-7.3l1.93,2.01L20.18,20z M20.18,20"/>
</g>
</svg>
