<?xml version="1.0" encoding="utf-8"?>
<!-- Generator: Adobe Illustrator 25.1.0, SVG Export Plug-In . SVG Version: 6.00 Build 0)  -->
<svg version="1.1" id="Layer_1" xmlns="http://www.w3.org/2000/svg" xmlns:xlink="http://www.w3.org/1999/xlink" x="0px" y="0px"
	 width="75px" height="75px" viewBox="0 0 75 75" style="enable-background:new 0 0 75 75;" xml:space="preserve">
<style type="text/css">
	.st0{fill:#15284B;}
</style>
<g>
	<rect x="22.28" y="5.88" class="st0" width="2.35" height="2.2"/>
	<rect x="26.98" y="5.88" class="st0" width="2.35" height="2.2"/>
	<rect x="31.68" y="5.88" class="st0" width="2.35" height="2.2"/>
	<path class="st0" d="M18.61,57.44h19.41l3.45-3.45l-3.45-3.45H18.61V2.2h28.36v12.93h13.96v-2.81L48.59,0H16.4v50.54H2.3v6.9h6.9
		v-4.7h27.9l1.25,1.25l-1.25,1.25H11.7v2.2h4.7v5.88h28.21v-2.2h-26V57.44z M49.17,3.69l9.24,9.24h-9.24V3.69z M7,55.24H4.5v-2.5H7
		V55.24z M7,55.24"/>
	<rect x="31.68" y="17.63" class="st0" width="23.51" height="2.2"/>
	<rect x="31.68" y="11.75" class="st0" width="12.93" height="2.2"/>
	<rect x="22.28" y="11.75" class="st0" width="7.05" height="2.2"/>
	<rect x="31.68" y="22.33" class="st0" width="12.93" height="2.2"/>
	<path class="st0" d="M29.19,17.63h-6.91v6.91h6.91V17.63z M26.98,22.33h-2.5v-2.5h2.5V22.33z M26.98,22.33"/>
	<rect x="31.68" y="28.21" class="st0" width="23.51" height="2.2"/>
	<rect x="31.68" y="32.91" class="st0" width="12.93" height="2.2"/>
	<path class="st0" d="M29.19,28.21h-6.91v6.91h6.91V28.21z M26.98,32.91h-2.5v-2.5h2.5V32.91z M26.98,32.91"/>
	<rect x="31.68" y="38.79" class="st0" width="23.51" height="2.2"/>
	<rect x="31.68" y="43.49" class="st0" width="12.93" height="2.2"/>
	<path class="st0" d="M22.28,45.69h6.91v-6.9h-6.91V45.69z M24.48,40.99h2.5v2.5h-2.5V40.99z M24.48,40.99"/>
	<path class="st0" d="M59.89,53.99c-4.5,0-8.15,3.66-8.15,8.15c0,4.5,3.66,8.15,8.15,8.15c4.5,0,8.15-3.66,8.15-8.15
		C68.04,57.65,64.39,53.99,59.89,53.99L59.89,53.99z M59.89,68.1c-3.28,0-5.95-2.67-5.95-5.95c0-3.28,2.67-5.95,5.95-5.95
		c3.28,0,5.95,2.67,5.95,5.95C65.84,65.43,63.17,68.1,59.89,68.1L59.89,68.1z M59.89,68.1"/>
	<path class="st0" d="M60.92,49.34V17.48h-2.2v31.85C52.25,49.9,47,55.43,47,62.14C47,69.23,52.78,75,59.87,75
		c7.09,0,12.83-5.77,12.83-12.86C72.7,55.43,67.53,49.9,60.92,49.34L60.92,49.34z M59.89,72.8c-5.87,0-10.65-4.78-10.65-10.65
		c0-5.87,4.78-10.65,10.65-10.65c5.87,0,10.65,4.78,10.65,10.65C70.54,68.02,65.76,72.8,59.89,72.8L59.89,72.8z M59.89,72.8"/>
	<path class="st0" d="M58.72,61.69l-1.99,2.03l1.54,1.56l2.66-2.67v-3.98h-2.2V61.69z M58.72,61.69"/>
</g>
</svg>
