<?xml version="1.0" encoding="utf-8"?>
<!-- Generator: Adobe Illustrator 25.2.3, SVG Export Plug-In . SVG Version: 6.00 Build 0)  -->
<svg version="1.1" id="Layer_1" xmlns="http://www.w3.org/2000/svg" xmlns:xlink="http://www.w3.org/1999/xlink" x="0px" y="0px"
	 width="75px" height="75px" viewBox="0 0 75 75" style="enable-background:new 0 0 75 75;" xml:space="preserve">
<style type="text/css">
	.st0{fill:#15284B;}
</style>
<g>
	<path class="st0" d="M29.38,46.08c0.38,0.22,0.86,0.23,1.24,0.01l20-11.25c0.6-0.34,0.81-1.1,0.47-1.7
		c-0.11-0.2-0.28-0.36-0.47-0.47l-20-11.25c-0.6-0.34-1.36-0.13-1.7,0.47c-0.11,0.19-0.16,0.4-0.16,0.62V45
		C28.75,45.45,28.99,45.86,29.38,46.08z M31.25,24.64l16.2,9.11l-16.2,9.11V24.64z"/>
	<polygon class="st0" points="25,56.25 22.5,56.25 22.5,58.75 5,58.75 5,61.25 22.5,61.25 22.5,63.75 25,63.75 25,61.25 70,61.25 
		70,58.75 25,58.75 	"/>
	<path class="st0" d="M37.5,53.75c11.05,0,20-8.95,20-20s-8.95-20-20-20s-20,8.95-20,20C17.51,44.79,26.46,53.74,37.5,53.75z
		 M37.5,16.25c9.66,0,17.5,7.84,17.5,17.5s-7.84,17.5-17.5,17.5S20,43.41,20,33.75C20.01,24.09,27.84,16.26,37.5,16.25z"/>
	<path class="st0" d="M71.25,6.25H3.75C1.68,6.25,0,7.93,0,10v55c0,2.07,1.68,3.75,3.75,3.75h67.5c2.07,0,3.75-1.68,3.75-3.75V10
		C75,7.93,73.32,6.25,71.25,6.25z M72.5,65c0,0.69-0.56,1.25-1.25,1.25H3.75c-0.69,0-1.25-0.56-1.25-1.25V10
		c0-0.69,0.56-1.25,1.25-1.25h67.5c0.69,0,1.25,0.56,1.25,1.25V65z"/>
	<rect x="5" y="11.25" class="st0" width="2.5" height="2.5"/>
	<rect x="10" y="11.25" class="st0" width="2.5" height="2.5"/>
	<rect x="15" y="11.25" class="st0" width="2.5" height="2.5"/>
</g>
</svg>
