<?xml version="1.0" encoding="utf-8"?>
<!-- Generator: Adobe Illustrator 21.0.2, SVG Export Plug-In . SVG Version: 6.00 Build 0)  -->
<svg version="1.1" id="Layer_1" xmlns="http://www.w3.org/2000/svg" xmlns:xlink="http://www.w3.org/1999/xlink" x="0px" y="0px"
	 viewBox="0 0 134 79" style="enable-background:new 0 0 134 79;" xml:space="preserve">
<style type="text/css">
	.st0{fill:#0080C8;}
</style>
<g>
	<g>
		<g>
			<path class="st0" d="M113.3,23.1h2.5V10.7h-2l6.9-6.9l6.9,6.9h-2v7.5h2.5v-5h5.5L120.7,0.2l-12.9,12.9h5.5V23.1z"/>
			<path class="st0" d="M125.7,20.6h2.5v2.5h-2.5V20.6z"/>
		</g>
	</g>
	<g>
		<g>
			<path class="st0" d="M20.7,57.8h5.5L13.3,44.9L0.3,57.8h5.5v5h2.5v-7.5h-2l6.9-6.9l6.9,6.9h-2v12.4h2.5V57.8z"/>
			<path class="st0" d="M8.3,67.8H5.8v-2.5h2.5V67.8z"/>
		</g>
	</g>
	<path class="st0" d="M28.3,1.7v64.6h7.5v2.1l3.1,1l-1.4,2.9l4.8,4.8l2.9-1.4l1,3.1h6.8l1-3.1l2.9,1.4l4.8-4.8l-1.4-2.9l3.1-1v-6.8
		l-3.1-1l1.4-2.9L56.7,53l-2.9,1.4l-1-3.1h-6.8l-1,3.1L42.2,53l-4.8,4.8l1.4,2.9l-3.1,1v2.1h-5V14.1h72.1v40.5l-0.6-0.2
		c-0.4-1.5-1-3-1.8-4.4l1.4-2.9l-4.8-4.8l-2.9,1.4c-1.4-0.8-2.8-1.4-4.4-1.8l-1-3.1h-6.8l-1,3.1c-1.5,0.4-3,1-4.4,1.8l-2.9-1.4
		L69,47.2l1.4,2.9c-0.8,1.4-1.4,2.8-1.8,4.4l-3.1,1v6.8l3.1,1c0.4,1.5,1,3,1.8,4.4L69,70.6l4.8,4.8l2.9-1.4c1.4,0.8,2.8,1.4,4.4,1.8
		l1,3.1h6.8l1-3.1c1.5-0.4,3-1,4.4-1.8l2.9,1.4l4.8-4.8l-1.4-2.9c0.8-1.4,1.4-2.8,1.8-4.4l3.1-1V1.7H28.3z M38.3,63.5l2.9-1l0.2-0.5
		c0.1-0.2,0.1-0.3,0.2-0.5l0.2-0.5l-1.3-2.7l2.2-2.2l2.7,1.3l0.5-0.2c0.2-0.1,0.3-0.1,0.5-0.2l0.6-0.2l1-2.9H51l1,2.9l0.6,0.2
		c0.2,0.1,0.3,0.1,0.5,0.2l0.5,0.2l2.7-1.3l2.2,2.2L57.1,61l0.2,0.5c0.1,0.2,0.1,0.3,0.2,0.5l0.2,0.5l2.8,1v3.2l-2.9,1l-0.2,0.5
		c-0.1,0.2-0.1,0.3-0.2,0.5l-0.2,0.5l1.3,2.7l-2.2,2.2l-2.7-1.3L53,73c-0.2,0.1-0.3,0.1-0.5,0.2L52,73.4l-1,2.9h-3.2l-1-2.9
		l-0.6-0.2c-0.2-0.1-0.3-0.1-0.5-0.2l-0.5-0.2l-2.7,1.3l-2.2-2.2l1.3-2.7l-0.2-0.5c-0.1-0.2-0.1-0.3-0.2-0.5l-0.2-0.5l-2.8-1V63.5z
		 M102.9,60.5l-2.7,0.9l-0.1,0.7c-0.4,1.7-1.1,3.4-2,4.9l-0.4,0.6l1.3,2.5l-2.2,2.2L94.1,71l-0.6,0.4c-1.5,1-3.1,1.6-4.9,2L88,73.6
		l-0.9,2.7h-3.2L83,73.6l-0.7-0.1c-1.7-0.4-3.4-1.1-4.9-2L76.8,71l-2.5,1.3l-2.2-2.2l1.3-2.5l-0.4-0.6c-1-1.5-1.6-3.1-2-4.9
		l-0.1-0.7l-2.7-0.9v-3.2l2.7-0.9l0.1-0.7c0.4-1.7,1.1-3.4,2-4.9l0.4-0.6l-1.3-2.5l2.2-2.2l2.5,1.3l0.6-0.4c1.5-1,3.1-1.6,4.9-2
		l0.7-0.1l0.9-2.7h3.2l0.9,2.7l0.7,0.1c1.7,0.4,3.4,1.1,4.9,2l0.6,0.4l2.5-1.3l2.2,2.2l-1.3,2.5l0.4,0.6c1,1.5,1.6,3.1,2,4.9
		l0.1,0.7l2.7,0.9V60.5z M30.8,11.7V4.2h72.1v7.5H30.8z"/>
	<path class="st0" d="M33.3,6.7h2.5v2.5h-2.5V6.7z"/>
	<path class="st0" d="M38.3,6.7h2.5v2.5h-2.5V6.7z"/>
	<path class="st0" d="M43.2,6.7h2.5v2.5h-2.5V6.7z"/>
	<path class="st0" d="M49.4,71.3c3.4,0,6.2-2.8,6.2-6.2c0-3.4-2.8-6.2-6.2-6.2c-3.4,0-6.2,2.8-6.2,6.2C43.2,68.5,46,71.3,49.4,71.3z
		 M49.4,61.4c2.1,0,3.7,1.7,3.7,3.7c0,2.1-1.7,3.7-3.7,3.7c-2.1,0-3.7-1.7-3.7-3.7C45.7,63,47.4,61.4,49.4,61.4z"/>
	<path class="st0" d="M85.5,46.5c-6.9,0-12.4,5.6-12.4,12.4s5.6,12.4,12.4,12.4c6.9,0,12.4-5.6,12.4-12.4S92.3,46.5,85.5,46.5z
		 M85.5,68.8c-5.5,0-9.9-4.5-9.9-9.9s4.5-9.9,9.9-9.9c5.5,0,9.9,4.5,9.9,9.9S91,68.8,85.5,68.8z"/>
	<path class="st0" d="M85.5,53.9c-2.7,0-5,2.2-5,5c0,2.7,2.2,5,5,5c2.7,0,5-2.2,5-5C90.5,56.1,88.2,53.9,85.5,53.9z M85.5,61.4
		c-1.4,0-2.5-1.1-2.5-2.5s1.1-2.5,2.5-2.5c1.4,0,2.5,1.1,2.5,2.5S86.9,61.4,85.5,61.4z"/>
	<path class="st0" d="M39,41.2l13.6-10.9L39,19.4l-1.6,1.9l11.2,9l-11.2,9L39,41.2z"/>
	<path class="st0" d="M44.5,39h27.3v2.5H44.5V39z"/>
	<path class="st0" d="M73.1,16.6h27.3v2.5H73.1V16.6z"/>
	<path class="st0" d="M73.1,21.6h27.3v2.5H73.1V21.6z"/>
	<path class="st0" d="M73.1,26.6h27.3v2.5H73.1V26.6z"/>
	<path class="st0" d="M73.1,31.5h27.3V34H73.1V31.5z"/>
</g>
<g>
</g>
<g>
</g>
<g>
</g>
<g>
</g>
<g>
</g>
<g>
</g>
<g>
</g>
<g>
</g>
<g>
</g>
<g>
</g>
<g>
</g>
<g>
</g>
<g>
</g>
<g>
</g>
<g>
</g>
</svg>
