<svg xmlns="http://www.w3.org/2000/svg" viewBox="0 0 64.05 70.94"><defs><style>.cls-1{fill:#0081cc;}.cls-2,.cls-3{fill:none;stroke-miterlimit:10;}.cls-2{stroke:#fff;}.cls-3{stroke:#0081cc;stroke-width:2px;}</style></defs><title>Asset 9</title><g id="Layer_2" data-name="Layer 2"><g id="Layer_1-2" data-name="Layer 1"><path class="cls-1" d="M40.26,8.44A30.8,30.8,0,0,0,24.57,8.2a31.31,31.31,0,0,0-13.81,7.35A31.42,31.42,0,0,0,.62,41.19a32.11,32.11,0,0,0,3.1,11.72,31.62,31.62,0,0,0,7.36,9.58,31.56,31.56,0,0,0,23.24,7.85A31.84,31.84,0,0,0,46,67.18a32.17,32.17,0,0,0,9.61-7.43,31,31,0,0,0,6.31-10.83,32,32,0,0,0,1.4-14.27l-3.86.41a27.52,27.52,0,0,1-9.12,24.66,27.76,27.76,0,0,1-12.82,6.35,27.24,27.24,0,0,1-14.39-.94,26.93,26.93,0,0,1-12-8A27.61,27.61,0,0,1,4.83,44.36,27.55,27.55,0,0,1,11,20.84a27.36,27.36,0,0,1,7.93-6.43,27.89,27.89,0,0,1,9.72-3,26.86,26.86,0,0,1,10.4.68l-2.41,7.15,11.81-5.88L42.67,1.28Z"/><path class="cls-2" d="M40.38,8.47a30.77,30.77,0,0,0-15.68-.3,31.19,31.19,0,0,0-13.85,7.29A31.4,31.4,0,0,0,.59,41,32.37,32.37,0,0,0,3.64,52.78,31.75,31.75,0,0,0,11,62.4a31.51,31.51,0,0,0,23.2,7.95A31.06,31.06,0,0,0,55.49,59.86a31,31,0,0,0,6.36-10.8,31.82,31.82,0,0,0,1.46-14.27l-3.85.39A27.58,27.58,0,0,1,50.22,59.8a27.68,27.68,0,0,1-12.84,6.29,27.29,27.29,0,0,1-14.4-1,26.93,26.93,0,0,1-11.91-8A27.61,27.61,0,0,1,4.79,44.23a27.59,27.59,0,0,1,6.26-23.49,26.91,26.91,0,0,1,17.69-9.36,26.67,26.67,0,0,1,10.4.72l-2.45,7.14,11.85-5.82L42.83,1.33Z"/><path class="cls-3" d="M34.23,36.47a5.5,5.5,0,0,0,3.45-5,5.75,5.75,0,0,0-6-5.51,5.76,5.76,0,0,0-6,5.51,5.51,5.51,0,0,0,3.46,5,10.11,10.11,0,0,0-8.24,9.63c0,5.48,21.53,5.48,21.53,0A10.11,10.11,0,0,0,34.23,36.47Z"/></g></g></svg>