<svg xmlns="http://www.w3.org/2000/svg" viewBox="0 0 69.46 62.99"><defs><style>.cls-1{fill:#0081cc;}</style></defs><title>Asset 3</title><g id="Layer_2" data-name="Layer 2"><g id="Layer_1-2" data-name="Layer 1"><path class="cls-1" d="M2.34,16.48l-.06,0,.05,0Z"/><path class="cls-1" d="M23.35,41.66h0v0Z"/><path class="cls-1" d="M29.86,2.44h1A5.44,5.44,0,0,0,29.86,2.44Z"/><path class="cls-1" d="M2.32,38.3h0Z"/><path class="cls-1" d="M69.46,59.1a3.12,3.12,0,0,0-.76-1.74c-1.58-1.6-3.18-3.18-4.76-4.77-.47-.46-.93-.91-1.38-1.38l-.2-.21c-.38-.38-.77-.75-1.14-1.15a2.85,2.85,0,0,0-2.67-1,1.63,1.63,0,0,1-1.75-.69,1.53,1.53,0,0,0-.28-.29c-.48-.46-1-.93-1.42-1.42l-.2-.21c-.43-.35-.26-.69,0-1.06a12,12,0,0,0,1.89-9.45A11.6,11.6,0,0,0,56,33.37a12,12,0,0,0-4.34-5.21,19.62,19.62,0,0,0-1.72-1,13.52,13.52,0,0,0-2.57-.83.63.63,0,0,1-.51-.29,2.26,2.26,0,0,1-.06-.86q0-6.14,0-12.28a1.2,1.2,0,0,0-.4-.89A16.14,16.14,0,0,0,45,10.68,12.62,12.62,0,0,1,43.6,9.35l-.2-.19c-1.64-1.44-3.2-3-4.82-4.43-.46-.52-1-.89-1.53-1.4-.93-1-2-1.8-2.94-2.79A1.53,1.53,0,0,0,32.91,0h-28a4.13,4.13,0,0,0-1,.18A5.34,5.34,0,0,0,0,4.67V56.58a5.1,5.1,0,0,0,.68,2,5.93,5.93,0,0,0,3.6,2.55,2.81,2.81,0,0,0,.87.11c4.31,0,8.62,0,12.94,0,7.65,0,15.3,0,23,0a3.81,3.81,0,0,0,1.34-.15,4,4,0,0,0,1.1-.33,6.07,6.07,0,0,0,2.93-3,4.91,4.91,0,0,0,.41-2.17c0-1.51,0-3,0-4.53,0-.25-.06-.5.11-.72a1,1,0,0,1,.55-.25,11.89,11.89,0,0,0,4.42-1.93c.72-.51.73-.49,1.38.15.49.47,1,.94,1.43,1.43a3.43,3.43,0,0,0,.33.33,1.4,1.4,0,0,1,.55,1.57,3.11,3.11,0,0,0,.92,2.88l1.24,1.24c.52.5,1,1,1.54,1.54,1.63,1.51,3.07,3.21,4.65,4.77a4.22,4.22,0,0,0,1.81.86H66c.25,0,.5,0,.75,0a3.37,3.37,0,0,0,2.51-1.84A4.71,4.71,0,0,0,69.46,59.1ZM34.14,6.43V4a6.29,6.29,0,0,1,1.24,1.1l1.47,1.37c1.89,1.68,3.76,3.4,5.56,5.17,0,.21-.18.17-.3.17H35.42a.42.42,0,0,1-.19-.06,1.31,1.31,0,0,1-1.1-1.32,12.89,12.89,0,0,1,0-1.39A17.09,17.09,0,0,1,34.14,6.43ZM44.42,55.79a3,3,0,0,1-2.78,3h0a2.1,2.1,0,0,1-.93.08H5.82a1.51,1.51,0,0,1-.73-.07h0A3,3,0,0,1,2.3,56.14a16.67,16.67,0,0,1,0-3.08c0-1,0-1.92,0-2.87,0,0,0-.06,0-.08V42.46c0-.27,0-.53,0-.8s0-.49,0-.73l0,0,0,0c0-1,0-2.07,0-3.1,0-1.4,0-2.79,0-4.19V31.51c0-.68,0-1.37,0-2.05,0-.24,0-.49,0-.73h0l0,0,0,0c0-1,0-2,0-3V17.18c0-.25,0-.49,0-.74,0-.89,0-1.78,0-2.67a.68.68,0,0,1,0-.4c0-1.78,0-3.57,0-5.35V6.15a1.75,1.75,0,0,1,0-.6A3,3,0,0,1,4.86,2.49a1.43,1.43,0,0,1,.79-.1q12.81,0,25.63,0c.18,0,.4-.12.54.11V8.87A18.06,18.06,0,0,0,32,11.31,4,4,0,0,0,35.11,14c3,0,5.9,0,8.86,0,.4,0,.48.13.48.51q0,5.64,0,11.3c0,.41-.11.59-.53.5a17.4,17.4,0,0,0-3.1.71,14.12,14.12,0,0,0-4.17,2.79c-.41.42-1,.13-1.55.16-2.4,0-4.81,0-7.22,0-.48,0-.69.09-.63.62s0,1,0,1.55a3,3,0,0,0,.67.09l.73,0h3.67a.5.5,0,0,1,.21,0H34.8L34,33.83a20.92,20.92,0,0,0-.71,2.83c.09.43-.2.4-.48.4-1.62,0-3.23,0-4.85,0l-.73,0,0,.79c.1,1.39.1,1.39,1.56,1.39,1.26,0,2.52,0,3.78,0,.21,0,.45-.1.64.1A24.36,24.36,0,0,0,34.16,43L35,44.63c-1.4,0-2.69,0-4,0l-3.79,0v2.11c2.55,0,5.1,0,7.64.05a5.56,5.56,0,0,1,2,.11,15.17,15.17,0,0,0,3.24,2.2l2.08.77h0c.64.09,1.28.2,1.93.27.29,0,.31.17.31.39C44.44,52.32,44.48,54.06,44.42,55.79Zm2.18-7.93a5.93,5.93,0,0,1-2.41,0,5.81,5.81,0,0,1-2.36-.53,8.9,8.9,0,0,1-5-4.18,5.84,5.84,0,0,1-.92-2.07A9.69,9.69,0,0,1,42.8,28.81a8.54,8.54,0,0,1,5.31.27h0A5.46,5.46,0,0,1,50,30a9,9,0,0,1,4.05,5.15,7,7,0,0,1,.51,2.59A9.66,9.66,0,0,1,46.6,47.86ZM66.83,60.33a.78.78,0,0,1-1.27-.07c-1.56-1.51-3.09-3-4.57-4.63a13.78,13.78,0,0,1-1.47-1.49c-.45-.44-.92-.86-1.34-1.33a.87.87,0,0,1,0-1.31.83.83,0,0,1,1.3,0c.46.45.89.93,1.34,1.4a10.21,10.21,0,0,1,1.35,1.36c1.59,1.52,3.12,3.1,4.63,4.7A.86.86,0,0,1,66.83,60.33Z"/><path class="cls-1" d="M9.27,58.72H9.21s.12.06.07,0Z"/><path class="cls-1" d="M11,54l0,.06.09-.09h-.13S11,54,11,54Z"/><path class="cls-1" d="M44.39,18.32v.74C44.4,18.82,44.4,18.58,44.39,18.32Z"/><path class="cls-1" d="M18.05,47.19v0a.25.25,0,0,1,0,.07Z"/><rect class="cls-1" x="7.76" y="51.89" width="30.82" height="1.78"/><path class="cls-1" d="M21.08,46.38H7.55A1.55,1.55,0,0,1,6,44.83V29.69a1.55,1.55,0,0,1,1.55-1.54H21.08a1.54,1.54,0,0,1,1.54,1.54V44.83A1.54,1.54,0,0,1,21.08,46.38ZM7.69,44.69H20.94V29.83H7.69Z"/><path class="cls-1" d="M13.09,11.67a2.77,2.77,0,0,1-1.06.17A2,2,0,0,1,9.87,9.78a2.11,2.11,0,0,1,2.26-2.19,2.5,2.5,0,0,1,1,.18L13,8.52a2,2,0,0,0-.78-.16,1.25,1.25,0,0,0-1.32,1.37,1.23,1.23,0,0,0,1.32,1.34,2.39,2.39,0,0,0,.78-.13Z"/><path class="cls-1" d="M14.73,10.72l-.3,1.06h-1l1.26-4.12H16l1.28,4.12h-1l-.32-1.06Zm1-.69-.25-.88c-.08-.24-.15-.55-.21-.79h0c-.07.24-.13.55-.19.79l-.25.88Z"/><path class="cls-1" d="M17.81,10.82a2.37,2.37,0,0,0,1,.26c.42,0,.65-.18.65-.45s-.19-.4-.69-.58c-.69-.24-1.13-.62-1.13-1.22s.58-1.24,1.56-1.24a2.51,2.51,0,0,1,1.05.21l-.21.75a2,2,0,0,0-.86-.19c-.4,0-.6.18-.6.39s.23.38.76.59c.73.26,1.08.64,1.08,1.23s-.54,1.27-1.67,1.27a2.68,2.68,0,0,1-1.17-.25Z"/><path class="cls-1" d="M23.54,10H22v1h1.7v.76H21.09V7.66h2.54v.76H22v.86h1.52Z"/><path class="cls-1" d="M8,18.17a2.37,2.37,0,0,0,1,.25c.43,0,.66-.17.66-.44s-.2-.41-.69-.58c-.69-.24-1.13-.62-1.13-1.22s.58-1.24,1.56-1.24a2.57,2.57,0,0,1,1,.2l-.21.76a1.93,1.93,0,0,0-.86-.2c-.41,0-.6.18-.6.4s.23.38.76.58c.73.27,1.07.65,1.07,1.23s-.53,1.28-1.66,1.28a2.68,2.68,0,0,1-1.17-.25Z"/><path class="cls-1" d="M12,15.79H10.92V15h3.17v.79H13v3.34H12Z"/><path class="cls-1" d="M15.52,15v2.38c0,.71.27,1.07.75,1.07s.76-.34.76-1.07V15H18v2.32c0,1.27-.65,1.88-1.72,1.88s-1.66-.58-1.66-1.9V15Z"/><path class="cls-1" d="M18.76,15.06A7.75,7.75,0,0,1,20,15a2.63,2.63,0,0,1,1.69.44,1.83,1.83,0,0,1,.7,1.56,2.12,2.12,0,0,1-.68,1.67,3,3,0,0,1-1.91.53,8.4,8.4,0,0,1-1.06-.06Zm.94,3.36a1.57,1.57,0,0,0,.32,0A1.28,1.28,0,0,0,21.42,17a1.18,1.18,0,0,0-1.3-1.31,1.75,1.75,0,0,0-.42,0Z"/><path class="cls-1" d="M23.75,19.13V17.44L22.45,15h1.06l.43,1,.31.79h0c.09-.25.19-.49.31-.79L25,15H26l-1.36,2.41v1.72Z"/></g></g></svg>