<svg xmlns="http://www.w3.org/2000/svg" viewBox="0 0 12.19 12.19"><defs><style>.cls-1{fill:#fff;}</style></defs><title>Asset 3</title><g id="Layer_2" data-name="Layer 2"><g id="Layer_1-2" data-name="Layer 1"><path class="cls-1" d="M6.1,0a6.1,6.1,0,1,0,6.09,6.1A6.1,6.1,0,0,0,6.1,0ZM7.37,9.45l-.76.28a1.81,1.81,0,0,1-.65.1,1.26,1.26,0,0,1-.88-.28.89.89,0,0,1-.32-.7,1.87,1.87,0,0,1,0-.34,3.77,3.77,0,0,1,.07-.4l.39-1.38a3.42,3.42,0,0,0,.09-.38,1.35,1.35,0,0,0,0-.33.53.53,0,0,0-.11-.37.65.65,0,0,0-.42-.1,1.1,1.1,0,0,0-.31,0l-.28.1.11-.43A6.6,6.6,0,0,1,5.1,5a2.08,2.08,0,0,1,.67-.11,1.26,1.26,0,0,1,.87.27A.89.89,0,0,1,7,5.86c0,.06,0,.17,0,.32a1.84,1.84,0,0,1-.08.42L6.46,8c0,.11-.06.24-.09.38a2.5,2.5,0,0,0,0,.32.48.48,0,0,0,.12.38.66.66,0,0,0,.43.1,1.39,1.39,0,0,0,.32-.05A1.07,1.07,0,0,0,7.47,9ZM7.3,3.83a1,1,0,0,1-.66.26A.93.93,0,0,1,6,3.83a.8.8,0,0,1-.28-.61A.84.84,0,0,1,6,2.6a.93.93,0,0,1,.66-.26,1,1,0,0,1,.66.26.83.83,0,0,1,.27.62A.79.79,0,0,1,7.3,3.83Z"/></g></g></svg>