<?xml version="1.0" encoding="utf-8"?>
<!-- Generator: Adobe Illustrator 21.0.2, SVG Export Plug-In . SVG Version: 6.00 Build 0)  -->
<svg version="1.1" id="Layer_1" xmlns="http://www.w3.org/2000/svg" xmlns:xlink="http://www.w3.org/1999/xlink" x="0px" y="0px"
	 viewBox="0 0 56 56" style="enable-background:new 0 0 56 56;" xml:space="preserve">
<style type="text/css">
	.st0{fill:#0081CC;}
</style>
<g>
	<g>
		<path class="st0" d="M22.8,37.9c-0.2,0-0.4-0.1-0.5-0.2L17,33.2c-0.2-0.2-0.3-0.4-0.3-0.6c0-0.2,0.1-0.5,0.3-0.6l5.3-4.5
			c0.3-0.3,0.9-0.3,1.1,0.1c0.3,0.3,0.3,0.9-0.1,1.1l-4.5,3.9l4.5,3.9c0.3,0.3,0.4,0.8,0.1,1.1C23.3,37.8,23,37.9,22.8,37.9z"/>
		<path class="st0" d="M33.2,37.9c-0.2,0-0.5-0.1-0.6-0.3c-0.3-0.3-0.3-0.9,0.1-1.1l4.5-3.9l-4.5-3.9c-0.3-0.3-0.4-0.8-0.1-1.1
			c0.3-0.3,0.8-0.4,1.1-0.1L39,32c0.2,0.2,0.3,0.4,0.3,0.6c0,0.2-0.1,0.5-0.3,0.6l-5.3,4.5C33.6,37.8,33.4,37.9,33.2,37.9z"/>
		<path class="st0" d="M26.1,41.3c-0.1,0-0.1,0-0.2,0c-0.4-0.1-0.7-0.5-0.6-1l3.3-15.6c0.1-0.4,0.5-0.7,1-0.6c0.4,0.1,0.7,0.5,0.6,1
			l-3.3,15.6C26.8,41,26.5,41.3,26.1,41.3z"/>
		<path class="st0" d="M47.2,49.8H8.8c-3,0-5.5-2.5-5.5-5.5V11.7c0-3,2.5-5.5,5.5-5.5h38.4c3,0,5.5,2.5,5.5,5.5v32.6
			C52.7,47.3,50.2,49.8,47.2,49.8z M8.8,7.8c-2.1,0-3.8,1.7-3.8,3.8v32.6c0,2.1,1.7,3.8,3.8,3.8h38.4c2.1,0,3.8-1.7,3.8-3.8V11.7
			c0-2.1-1.7-3.8-3.8-3.8H8.8z"/>
		<path class="st0" d="M51.9,19.3H4.1c-0.5,0-0.8-0.4-0.8-0.8c0-0.5,0.4-0.8,0.8-0.8h47.8c0.5,0,0.8,0.4,0.8,0.8
			C52.7,18.9,52.3,19.3,51.9,19.3z"/>
		<path class="st0" d="M17.2,15.4c-1.4,0-2.6-1.2-2.6-2.6c0-1.4,1.2-2.6,2.6-2.6c1.4,0,2.6,1.2,2.6,2.6
			C19.8,14.2,18.7,15.4,17.2,15.4z M17.2,11.8c-0.5,0-0.9,0.4-0.9,0.9c0,0.5,0.4,0.9,0.9,0.9c0.5,0,0.9-0.4,0.9-0.9
			C18.2,12.3,17.8,11.8,17.2,11.8z"/>
		<path class="st0" d="M9.3,15.3c-1.4,0-2.6-1.2-2.6-2.6s1.2-2.6,2.6-2.6s2.6,1.2,2.6,2.6S10.7,15.3,9.3,15.3z M9.3,11.8
			c-0.5,0-0.9,0.4-0.9,0.9c0,0.5,0.4,0.9,0.9,0.9c0.5,0,0.9-0.4,0.9-0.9C10.3,12.2,9.8,11.8,9.3,11.8z"/>
		<path class="st0" d="M25.2,15.4c-1.4,0-2.6-1.2-2.6-2.6c0-1.4,1.2-2.6,2.6-2.6c1.4,0,2.6,1.2,2.6,2.6
			C27.7,14.2,26.6,15.4,25.2,15.4z M25.2,11.9c-0.5,0-0.9,0.4-0.9,0.9s0.4,0.9,0.9,0.9c0.5,0,0.9-0.4,0.9-0.9S25.7,11.9,25.2,11.9z"
			/>
	</g>
</g>
<g>
</g>
<g>
</g>
<g>
</g>
<g>
</g>
<g>
</g>
<g>
</g>
<g>
</g>
<g>
</g>
<g>
</g>
<g>
</g>
<g>
</g>
<g>
</g>
<g>
</g>
<g>
</g>
<g>
</g>
</svg>
