<?xml version="1.0" encoding="utf-8"?>
<!-- Generator: Adobe Illustrator 21.0.2, SVG Export Plug-In . SVG Version: 6.00 Build 0)  -->
<svg version="1.1" id="Layer_1" xmlns="http://www.w3.org/2000/svg" xmlns:xlink="http://www.w3.org/1999/xlink" x="0px" y="0px"
	 viewBox="0 0 56 56" style="enable-background:new 0 0 56 56;" xml:space="preserve">
<style type="text/css">
	.st0{fill:#0081CC;}
</style>
<g>
	<path class="st0" d="M7,11.4l1.4-0.9l-1.3-2l1.3-2L7,5.6L5.4,8c-0.2,0.3-0.2,0.6,0,0.9L7,11.4z"/>
	<path class="st0" d="M14.9,11.4l1.6-2.4c0.2-0.3,0.2-0.6,0-0.9l-1.6-2.4l-1.4,0.9l1.3,2l-1.3,2L14.9,11.4z"/>
	<path class="st0" d="M9.4,10.7L11,5.8l1.5,0.5l-1.6,4.9L9.4,10.7z"/>
	<path class="st0" d="M15.8,26.4c0.2,0,0.4-0.1,0.6-0.2l3.2-3.2c0.2-0.2,0.2-0.4,0.2-0.6V2.8c0-0.4-0.4-0.8-0.8-0.8H2.8
		C2.4,2,2,2.4,2,2.8v22.7c0,0.4,0.4,0.8,0.8,0.8H15.8z M15.8,24.4v-2.1h2.1L15.8,24.4z M3.7,3.6h14.6v17H15c-0.4,0-0.8,0.4-0.8,0.8
		v3.2H3.7V3.6z"/>
	<path class="st0" d="M5.3,13.4h8.1V15H5.3V13.4z"/>
	<path class="st0" d="M15,13.4h1.6V15H15V13.4z"/>
	<path class="st0" d="M5.3,16.6h8.1v1.6H5.3V16.6z"/>
	<path class="st0" d="M15,16.6h1.6v1.6H15V16.6z"/>
	<path class="st0" d="M5.3,19.9h4.1v1.6H5.3V19.9z"/>
	<path class="st0" d="M11,19.9h1.6v1.6H11V19.9z"/>
	<path class="st0" d="M38.6,37.7l-5.1-2.2l-1.8-2.4c1.2-0.7,2-2,2-3.5v-7.3c0-2.2-1.8-4.1-4.1-4.1h-3.2c-2.2,0-4.1,1.8-4.1,4.1v7.3
		c0,1.5,0.8,2.8,2,3.5l-1.8,2.4l-5,2C16,38.1,15,39.6,15,41.3v11.9c0,0.4,0.4,0.8,0.8,0.8l24.3,0h0c0.2,0,0.4-0.1,0.6-0.2
		c0.2-0.2,0.2-0.4,0.2-0.6V41.5C41,39.8,40,38.4,38.6,37.7z M23.9,22.3c0-1.3,1.1-2.4,2.4-2.4h3.2c1.3,0,2.4,1.1,2.4,2.4v2.4h-2.4
		c-1.3,0-2.4-1.1-2.4-2.4v-0.8h-1.6v0.8c0,2.2,1.8,4.1,4.1,4.1h2.4v3.2c0,1.3-1.1,2.4-2.4,2.4h-3.2c-1.3,0-2.4-1.1-2.4-2.4V22.3z
		 M26,33.7H30l1.7,2.2L28,38.4l-3.7-2.5L26,33.7z M39.4,52.4l-3.2,0v-6.5h-1.6v6.5l-13,0v-6.5h-1.6v6.5l-3.2,0V41.3
		c0-1,0.6-1.9,1.5-2.3l4.9-2l4.5,3c0.3,0.2,0.6,0.2,0.9,0l4.5-3l5,2.2c0.9,0.4,1.5,1.3,1.5,2.2V52.4z"/>
	<path class="st0" d="M27.2,45h1.6v4.9h-1.6V45z"/>
	<path class="st0" d="M27.2,41.8h1.6v1.6h-1.6V41.8z"/>
	<path class="st0" d="M39.4,18.2h3.2v1.6h-3.2V18.2z"/>
	<path class="st0" d="M53.2,2H36.9c-0.4,0-0.8,0.4-0.8,0.8v22.7c0,0.4,0.4,0.8,0.8,0.8h16.2c0.4,0,0.8-0.4,0.8-0.8V2.8
		C54,2.4,53.6,2,53.2,2z M37.7,3.6h14.6v1.6H37.7V3.6z M37.7,24.7V6.9h14.6v17.9H37.7z"/>
	<path class="st0" d="M49.9,8.5h-9.7c-0.4,0-0.8,0.4-0.8,0.8v6.5c0,0.4,0.4,0.8,0.8,0.8h9.7c0.4,0,0.8-0.4,0.8-0.8V9.3
		C50.7,8.9,50.4,8.5,49.9,8.5z M49.1,15H41v-4.9h8.1V15z"/>
	<path class="st0" d="M42.6,11.7h4.9v1.6h-4.9V11.7z"/>
	<path class="st0" d="M44.2,18.2h6.5v1.6h-6.5V18.2z"/>
	<path class="st0" d="M39.4,21.5h8.1v1.6h-8.1V21.5z"/>
	<path class="st0" d="M49.1,21.5h1.6v1.6h-1.6V21.5z"/>
	<path class="st0" d="M46.7,36.1H45v1.6h2.4c0.4,0,0.8-0.4,0.8-0.8v-2.4h-1.6V36.1z"/>
	<path class="st0" d="M41.8,36.1h1.6v1.6h-1.6V36.1z"/>
	<path class="st0" d="M46.7,31.2h1.6v1.6h-1.6V31.2z"/>
	<path class="st0" d="M46.7,28h1.6v1.6h-1.6V28z"/>
	<path class="st0" d="M10.1,34.5H8.5v2.4c0,0.4,0.4,0.8,0.8,0.8h2.4v-1.6h-1.6V34.5z"/>
	<path class="st0" d="M13.4,36.1H15v1.6h-1.6V36.1z"/>
	<path class="st0" d="M8.5,31.2h1.6v1.6H8.5V31.2z"/>
	<path class="st0" d="M8.5,28h1.6v1.6H8.5V28z"/>
	<path class="st0" d="M22.3,8.5h6.5V6.9h-5l0.8-1.2l-1.4-0.9l-1.6,2.4c-0.2,0.2-0.2,0.6,0,0.8C21.7,8.3,22,8.5,22.3,8.5z"/>
	<path class="st0" d="M30.4,6.9h1.6v1.6h-1.6V6.9z"/>
	<path class="st0" d="M27.2,13.4h5l-0.8,1.2l1.4,0.9l1.6-2.4c0.2-0.2,0.2-0.6,0-0.8c-0.1-0.3-0.4-0.4-0.7-0.4h-6.5V13.4z"/>
	<path class="st0" d="M23.9,11.7h1.6v1.6h-1.6V11.7z"/>
</g>
<g>
</g>
<g>
</g>
<g>
</g>
<g>
</g>
<g>
</g>
<g>
</g>
<g>
</g>
<g>
</g>
<g>
</g>
<g>
</g>
<g>
</g>
<g>
</g>
<g>
</g>
<g>
</g>
<g>
</g>
</svg>
