<?xml version="1.0" encoding="utf-8"?>
<!-- Generator: Adobe Illustrator 21.0.2, SVG Export Plug-In . SVG Version: 6.00 Build 0)  -->
<svg version="1.1" id="Layer_1" xmlns="http://www.w3.org/2000/svg" xmlns:xlink="http://www.w3.org/1999/xlink" x="0px" y="0px"
	 viewBox="0 0 56 56" style="enable-background:new 0 0 56 56;" xml:space="preserve">
<style type="text/css">
	.st0{fill:#0081CC;}
</style>
<g>
	<g>
		<path class="st0" d="M31.6,28v-9.1c0-0.6-0.5-1-1-1h-2v-2c0-1.1-0.9-2-2-2h-4.1c-1.1,0-2,0.9-2,2v2h-2c-0.6,0-1,0.5-1,1V28
			c0,0.6,0.5,1,1,1h12.2C31.1,29,31.6,28.6,31.6,28z M22.4,15.8h4.1v2h-4.1V15.8z M19.4,19.9h10.1v1.4l-1.7,0.8
			c-2.1,1.1-4.6,1.1-6.8,0l-1.7-0.8L19.4,19.9z M19.4,27v-3.4l0.8,0.4c2.7,1.4,5.9,1.4,8.6,0l0.8-0.4V27H19.4z"/>
		<path class="st0" d="M53.3,26.5l-5.6-3.2V7.7c0-0.6-0.5-1-1-1h-5.1v-3c0-0.6-0.5-1-1-1H9.2c-0.6,0-1,0.5-1,1v19.7l-5.6,3.2
			c-0.9,0.5-1.5,1.6-1.5,2.6v23.2c0,0.6,0.5,1,1,1h7.1c0.6,0,1-0.5,1-1v-9.1h24.3c1.3,0,2.4-0.8,2.9-2h8.3v11.2c0,0.6,0.5,1,1,1h7.1
			c0.6,0,1-0.5,1-1V29.2C54.9,28.1,54.3,27.1,53.3,26.5z M37.6,13.4l2-1v2.8l-2,1V13.4z M37.6,18.5l2-1v2.8l-2,1V18.5z M39.7,4.7
			v5.5l-2,1V4.7H39.7z M8.2,51.3H3.1V29.2c0-0.4,0.2-0.7,0.5-0.9l4.6-2.6v3.1c0,0.6,0.5,1,1,1c0.2,0,0.4-0.1,0.6-0.2l2.3-1.7
			c0.5-0.3,1.1-0.2,1.4,0.2c0.1,0.2,0.2,0.4,0.2,0.6c0,0.3-0.2,0.6-0.4,0.8l-2.4,1.8c-0.2,0.2-0.4,0.4-0.4,0.7
			c-0.2,1.3-0.9,2.6-1.9,3.5c-0.2,0.2-0.3,0.5-0.3,0.8L8.2,51.3z M34.6,41.2H10.2v-4.5c1.1-1.1,1.8-2.5,2.1-3.9l2.1-1.6c0,0,0,0,0,0
			c1.3-1,1.6-2.9,0.6-4.2c0,0,0,0,0,0c-1-1.3-2.9-1.6-4.3-0.6l-0.6,0.5V4.7h25.4v35.5C35.6,40.7,35.2,41.2,34.6,41.2L34.6,41.2z
			 M37.6,23.6l3.5-1.7c0.3-0.2,0.6-0.5,0.6-0.9V8.7h4.1v18.1l-0.6-0.5c-1.4-1-3.3-0.7-4.3,0.7c0,0,0,0,0,0c-1,1.4-0.7,3.2,0.6,4.2
			c0,0,0,0,0,0l2.1,1.6c0.3,1.5,1,2.9,2.1,3.9v2.4h-8.1V23.6z M52.9,51.3h-5.1c0,0,0-11.1,0-11.1s0,0,0,0v-3.9
			c0-0.3-0.1-0.6-0.3-0.8c-1-0.9-1.7-2.1-1.9-3.5c0-0.3-0.2-0.5-0.4-0.7l-2.4-1.8c-0.3-0.2-0.4-0.5-0.4-0.8c0-0.6,0.5-1,1-1
			c0.2,0,0.4,0.1,0.6,0.2l2.3,1.7c0.5,0.3,1.1,0.2,1.4-0.2c0.1-0.2,0.2-0.4,0.2-0.6v-3.1l4.6,2.6c0.3,0.2,0.5,0.5,0.5,0.9V51.3z"/>
		<path class="st0" d="M31.6,33.1h2v2h-2V33.1z"/>
		<path class="st0" d="M23.4,33.1h6.1v2h-6.1V33.1z"/>
		<path class="st0" d="M26.5,37.1h7.1v2h-7.1V37.1z"/>
	</g>
</g>
<g>
</g>
<g>
</g>
<g>
</g>
<g>
</g>
<g>
</g>
<g>
</g>
<g>
</g>
<g>
</g>
<g>
</g>
<g>
</g>
<g>
</g>
<g>
</g>
<g>
</g>
<g>
</g>
<g>
</g>
</svg>
