<?xml version="1.0" encoding="utf-8"?>
<!-- Generator: Adobe Illustrator 21.0.2, SVG Export Plug-In . SVG Version: 6.00 Build 0)  -->
<svg version="1.1" id="Layer_1" xmlns="http://www.w3.org/2000/svg" xmlns:xlink="http://www.w3.org/1999/xlink" x="0px" y="0px"
	 viewBox="0 0 56 56" style="enable-background:new 0 0 56 56;" xml:space="preserve">
<style type="text/css">
	.st0{fill:#0080C8;}
</style>
<g>
	<path class="st0" d="M51.3,7.5H4.7c-1.3,0-2.4,1.1-2.4,2.4v30.6c0,1.3,1.1,2.4,2.4,2.4h15.9L19.4,47h-3.5c-0.4,0-0.8,0.3-0.8,0.8
		c0,0.4,0.3,0.8,0.8,0.8h4c0,0,0,0,0,0c0,0,0,0,0,0H36c0,0,0,0,0,0c0,0,0,0,0,0h4c0.4,0,0.8-0.3,0.8-0.8c0-0.4-0.3-0.8-0.8-0.8h-3.5
		l-1.2-4.1h15.9c1.3,0,2.4-1.1,2.4-2.4V9.9C53.7,8.6,52.6,7.5,51.3,7.5z M35,47H21l1.2-4.1h11.7L35,47z M52.2,40.5
		c0,0.5-0.4,0.9-0.9,0.9H34.5h0H4.7c-0.5,0-0.9-0.4-0.9-0.9V9.9C3.8,9.4,4.2,9,4.7,9h46.7c0.5,0,0.9,0.4,0.9,0.9V40.5z"/>
	<path class="st0" d="M49.7,10.8H6.3c-0.4,0-0.8,0.3-0.8,0.8v27.4c0,0.4,0.3,0.8,0.8,0.8h43.4c0.4,0,0.8-0.3,0.8-0.8V11.5
		C50.5,11.1,50.1,10.8,49.7,10.8z M49,12.3v4.9H7v-4.9L49,12.3z M7,38.1V18.7H49v19.4H7z"/>
	<path class="st0" d="M17.5,15.5h24.1c0.4,0,0.8-0.3,0.8-0.8S42.1,14,41.7,14H17.5c-0.4,0-0.8,0.3-0.8,0.8S17.1,15.5,17.5,15.5z"/>
	<path class="st0" d="M44.9,15.5h1.6c0.4,0,0.8-0.3,0.8-0.8S46.9,14,46.5,14h-1.6c-0.4,0-0.8,0.3-0.8,0.8S44.5,15.5,44.9,15.5z"/>
	<path class="st0" d="M9.5,15.5c0.2,0,0.4-0.1,0.5-0.2c0.1-0.1,0.2-0.3,0.2-0.5s-0.1-0.4-0.2-0.5C9.9,14.1,9.7,14,9.5,14
		c-0.2,0-0.4,0.1-0.5,0.2c-0.1,0.1-0.2,0.3-0.2,0.5s0.1,0.4,0.2,0.5C9.1,15.4,9.3,15.5,9.5,15.5z"/>
	<path class="st0" d="M11.9,15.5c0.2,0,0.4-0.1,0.5-0.2c0.1-0.1,0.2-0.3,0.2-0.5s-0.1-0.4-0.2-0.5c-0.1-0.1-0.3-0.2-0.5-0.2
		c-0.2,0-0.4,0.1-0.5,0.2c-0.1,0.1-0.2,0.3-0.2,0.5s0.1,0.4,0.2,0.5C11.5,15.4,11.7,15.5,11.9,15.5z"/>
	<path class="st0" d="M14.3,15.5c0.2,0,0.4-0.1,0.5-0.2c0.1-0.1,0.2-0.3,0.2-0.5s-0.1-0.4-0.2-0.5c-0.1-0.1-0.3-0.2-0.5-0.2
		c-0.2,0-0.4,0.1-0.5,0.2c-0.1,0.1-0.2,0.3-0.2,0.5s0.1,0.4,0.2,0.5C13.9,15.4,14.1,15.5,14.3,15.5z"/>
	<path class="st0" d="M12.4,22.2c-0.3-0.3-0.8-0.3-1.1,0c-0.3,0.3-0.3,0.8,0,1.1l5.1,5.1l-5.1,5.1c-0.3,0.3-0.3,0.8,0,1.1
		c0.1,0.1,0.3,0.2,0.5,0.2c0.2,0,0.4-0.1,0.5-0.2l5.6-5.6c0.3-0.3,0.3-0.8,0-1.1L12.4,22.2z"/>
	<path class="st0" d="M27.2,33.3h-8c-0.4,0-0.8,0.3-0.8,0.8c0,0.4,0.3,0.8,0.8,0.8h8c0.4,0,0.8-0.3,0.8-0.8
		C27.9,33.6,27.6,33.3,27.2,33.3z"/>
</g>
<g>
</g>
<g>
</g>
<g>
</g>
<g>
</g>
<g>
</g>
<g>
</g>
<g>
</g>
<g>
</g>
<g>
</g>
<g>
</g>
<g>
</g>
<g>
</g>
<g>
</g>
<g>
</g>
<g>
</g>
</svg>
