<?xml version="1.0" encoding="utf-8"?>
<!-- Generator: Adobe Illustrator 21.0.2, SVG Export Plug-In . SVG Version: 6.00 Build 0)  -->
<svg version="1.1" id="Layer_1" xmlns="http://www.w3.org/2000/svg" xmlns:xlink="http://www.w3.org/1999/xlink" x="0px" y="0px"
	 viewBox="0 0 56 56" style="enable-background:new 0 0 56 56;" xml:space="preserve">
<style type="text/css">
	.st0{fill:#0081CC;}
</style>
<g>
	<g>
		<g>
			<path class="st0" d="M53.3,17.5H33.9c-0.9,0-1.7,0.8-1.7,1.7v1.9h-3.1V10.4h3c0.9,0,1.7-0.8,1.7-1.7V3.2c0-0.9-0.8-1.7-1.7-1.7
				H9.7C8.7,1.5,8,2.3,8,3.2v5.5c0,0.9,0.8,1.7,1.7,1.7h4.7c0.4,0,0.8-0.4,0.8-0.8c0-0.4-0.4-0.8-0.8-0.8H9.7
				c-0.1,0-0.1-0.1-0.1-0.1V3.2c0-0.1,0.1-0.1,0.1-0.1h22.4c0.1,0,0.1,0.1,0.1,0.1v5.5c0,0.1-0.1,0.1-0.1,0.1H17.5
				c-0.4,0-0.8,0.4-0.8,0.8c0,0.4,0.4,0.8,0.8,0.8h10v23.4h-3.1v-1.9c0-0.9-0.8-1.7-1.7-1.7H3.3c-0.9,0-1.7,0.8-1.7,1.7v5.5
				c0,0.9,0.8,1.7,1.7,1.7h19.4c0.9,0,1.7-0.8,1.7-1.7v-1.9h3.1v10.8h-3c-0.9,0-1.7,0.8-1.7,1.7v5.5c0,0.9,0.8,1.7,1.7,1.7h22.4
				c0.9,0,1.7-0.8,1.7-1.7v-5.5c0-0.9-0.8-1.7-1.7-1.7h-5.4c-0.4,0-0.8,0.4-0.8,0.8c0,0.4,0.4,0.8,0.8,0.8h5.4
				c0.1,0,0.1,0.1,0.1,0.1v5.5c0,0.1-0.1,0.1-0.1,0.1H24.5c-0.1,0-0.1-0.1-0.1-0.1v-5.5c0-0.1,0.1-0.1,0.1-0.1h13.9
				c0.4,0,0.8-0.4,0.8-0.8c0-0.4-0.4-0.8-0.8-0.8h-9.3V22.7h3.1v1.9c0,0.9,0.8,1.7,1.7,1.7h19.4c0.9,0,1.7-0.8,1.7-1.7v-5.5
				C55,18.3,54.2,17.5,53.3,17.5z M22.8,37.3L22.8,37.3c0,0.1-0.1,0.1-0.1,0.1H3.3c-0.1,0-0.1-0.1-0.1-0.1v-5.5
				c0-0.1,0.1-0.1,0.1-0.1h19.4c0.1,0,0.1,0.1,0.1,0.1V37.3z M53.4,24.7L53.4,24.7c0,0.1-0.1,0.1-0.1,0.1H33.9
				c-0.1,0-0.1-0.1-0.1-0.1v-5.5c0-0.1,0.1-0.1,0.1-0.1h19.4c0.1,0,0.1,0.1,0.1,0.1L53.4,24.7L53.4,24.7z"/>
			<path class="st0" d="M14.7,3.9L12.6,6l-0.3-0.2c-0.4-0.2-0.9-0.1-1.1,0.3C11,6.5,11.1,7,11.4,7.2l0.9,0.5
				c0.1,0.1,0.3,0.1,0.4,0.1c0.2,0,0.4-0.1,0.6-0.2L15.8,5c0.3-0.3,0.3-0.8,0-1.1C15.5,3.6,15,3.6,14.7,3.9z"/>
			<path class="st0" d="M26.3,6.7c0.4,0,0.8-0.4,0.8-0.8s-0.4-0.8-0.8-0.8h-9.4c-0.4,0-0.8,0.4-0.8,0.8s0.4,0.8,0.8,0.8H26.3z"/>
			<path class="st0" d="M29.5,6.7c0.4,0,0.8-0.4,0.8-0.8s-0.4-0.8-0.8-0.8h-1.1c-0.4,0-0.8,0.4-0.8,0.8s0.4,0.8,0.8,0.8H29.5z"/>
			<path class="st0" d="M37.7,20c-0.3-0.3-0.8-0.3-1.1,0l-1.4,1.4c-0.3,0.3-0.3,0.8,0,1.1l1.3,1.3c0.2,0.2,0.4,0.2,0.6,0.2
				c0.2,0,0.4-0.1,0.6-0.2c0.3-0.3,0.3-0.8,0-1.1l-0.7-0.7l0.9-0.9C38,20.8,38,20.3,37.7,20z"/>
			<path class="st0" d="M42.3,20c-0.3-0.3-0.8-0.3-1.1,0c-0.3,0.3-0.3,0.8,0,1.1l0.9,0.9l-0.7,0.7c-0.3,0.3-0.3,0.8,0,1.1
				c0.2,0.2,0.4,0.2,0.6,0.2s0.4-0.1,0.6-0.2l1.3-1.3c0.3-0.3,0.3-0.8,0-1.1L42.3,20z"/>
			<path class="st0" d="M40.2,19.8c-0.4-0.2-0.9,0-1,0.4l-1,2.6c-0.2,0.4,0,0.9,0.4,1c0.1,0,0.2,0.1,0.3,0.1c0.3,0,0.6-0.2,0.7-0.5
				l1-2.6C40.8,20.5,40.6,20,40.2,19.8z"/>
			<path class="st0" d="M51.7,21.1h-6.4c-0.4,0-0.8,0.4-0.8,0.8c0,0.4,0.4,0.8,0.8,0.8h6.4c0.4,0,0.8-0.4,0.8-0.8
				C52.5,21.5,52.1,21.1,51.7,21.1z"/>
			<path class="st0" d="M8.2,32.7L6,34.9l-0.3-0.2c-0.4-0.2-0.9-0.1-1.1,0.3c-0.2,0.4-0.1,0.9,0.3,1.1l0.9,0.5
				c0.1,0.1,0.3,0.1,0.4,0.1c0.2,0,0.4-0.1,0.6-0.2l2.6-2.6c0.3-0.3,0.3-0.8,0-1.1C9,32.4,8.5,32.4,8.2,32.7z"/>
			<path class="st0" d="M20.8,33.8H10.4c-0.4,0-0.8,0.4-0.8,0.8c0,0.4,0.4,0.8,0.8,0.8h10.3c0.4,0,0.8-0.4,0.8-0.8
				C21.6,34.1,21.2,33.8,20.8,33.8z"/>
			<path class="st0" d="M25.5,50.6c0,1.2,1,2.1,2.1,2.1c1.2,0,2.1-1,2.1-2.1c0-1.2-1-2.1-2.1-2.1C26.5,48.4,25.5,49.4,25.5,50.6z
				 M28.2,50.6c0,0.3-0.3,0.6-0.6,0.6s-0.6-0.3-0.6-0.6c0-0.3,0.3-0.6,0.6-0.6S28.2,50.2,28.2,50.6z"/>
			<path class="st0" d="M30.5,50.6c0,1.2,1,2.1,2.1,2.1c1.2,0,2.1-1,2.1-2.1c0-1.2-1-2.1-2.1-2.1C31.5,48.4,30.5,49.4,30.5,50.6z
				 M33.3,50.6c0,0.3-0.3,0.6-0.6,0.6c-0.3,0-0.6-0.3-0.6-0.6c0-0.3,0.3-0.6,0.6-0.6C33,50,33.3,50.2,33.3,50.6z"/>
			<path class="st0" d="M37.8,49.8h-1.5c-0.4,0-0.8,0.4-0.8,0.8c0,0.4,0.4,0.8,0.8,0.8h1.5c0.4,0,0.8-0.4,0.8-0.8
				C38.6,50.1,38.2,49.8,37.8,49.8z"/>
			<path class="st0" d="M40,51.3h5.1c0.4,0,0.8-0.4,0.8-0.8c0-0.4-0.4-0.8-0.8-0.8H40c-0.4,0-0.8,0.4-0.8,0.8
				C39.2,51,39.6,51.3,40,51.3z"/>
			<path class="st0" d="M3.2,20h4c0.9,0,1.7-0.8,1.7-1.7v-4c0-0.9-0.8-1.7-1.7-1.7h-4c-0.9,0-1.7,0.8-1.7,1.7v4
				C1.5,19.2,2.3,20,3.2,20z M3.1,14.3c0-0.1,0.1-0.1,0.1-0.1h4c0.1,0,0.1,0.1,0.1,0.1v4c0,0.1-0.1,0.1-0.1,0.1h-4
				c-0.1,0-0.1-0.1-0.1-0.1V14.3z"/>
			<path class="st0" d="M11.7,12.9c0,0.4,0.4,0.8,0.8,0.8h11.9c0.4,0,0.8-0.4,0.8-0.8c0-0.4-0.4-0.8-0.8-0.8H12.5
				C12.1,12.2,11.7,12.5,11.7,12.9z"/>
			<path class="st0" d="M12.5,17.1h11.9c0.4,0,0.8-0.4,0.8-0.8c0-0.4-0.4-0.8-0.8-0.8H12.5c-0.4,0-0.8,0.4-0.8,0.8
				C11.7,16.7,12.1,17.1,12.5,17.1z"/>
			<path class="st0" d="M12.5,20.4h2.8c0.4,0,0.8-0.4,0.8-0.8s-0.4-0.8-0.8-0.8h-2.8c-0.4,0-0.8,0.4-0.8,0.8S12.1,20.4,12.5,20.4z"
				/>
			<path class="st0" d="M24.4,18.8h-6.4c-0.4,0-0.8,0.4-0.8,0.8s0.4,0.8,0.8,0.8h6.4c0.4,0,0.8-0.4,0.8-0.8S24.9,18.8,24.4,18.8z"/>
			<path class="st0" d="M33,30.9c-0.9,0-1.7,0.8-1.7,1.7v4c0,0.9,0.8,1.7,1.7,1.7h4c0.9,0,1.7-0.8,1.7-1.7v-4c0-0.9-0.8-1.7-1.7-1.7
				H33z M37.1,32.6v4c0,0.1-0.1,0.1-0.1,0.1h-4c-0.1,0-0.1-0.1-0.1-0.1v-4c0-0.1,0.1-0.1,0.1-0.1h4C37.1,32.4,37.1,32.5,37.1,32.6z"
				/>
			<path class="st0" d="M54.2,30.4H42.3c-0.4,0-0.8,0.4-0.8,0.8s0.4,0.8,0.8,0.8h11.9c0.4,0,0.8-0.4,0.8-0.8S54.6,30.4,54.2,30.4z"
				/>
			<path class="st0" d="M54.2,33.8H42.3c-0.4,0-0.8,0.4-0.8,0.8c0,0.4,0.4,0.8,0.8,0.8h11.9c0.4,0,0.8-0.4,0.8-0.8
				C55,34.1,54.6,33.8,54.2,33.8z"/>
			<path class="st0" d="M42.3,37.1c-0.4,0-0.8,0.4-0.8,0.8c0,0.4,0.4,0.8,0.8,0.8h2.8c0.4,0,0.8-0.4,0.8-0.8c0-0.4-0.4-0.8-0.8-0.8
				H42.3z"/>
			<path class="st0" d="M54.2,37.1h-6.4c-0.4,0-0.8,0.4-0.8,0.8c0,0.4,0.4,0.8,0.8,0.8h6.4c0.4,0,0.8-0.4,0.8-0.8
				C55,37.5,54.6,37.1,54.2,37.1z"/>
		</g>
	</g>
</g>
<g>
</g>
<g>
</g>
<g>
</g>
<g>
</g>
<g>
</g>
<g>
</g>
<g>
</g>
<g>
</g>
<g>
</g>
<g>
</g>
<g>
</g>
<g>
</g>
<g>
</g>
<g>
</g>
<g>
</g>
</svg>
