<svg xmlns="http://www.w3.org/2000/svg" viewBox="0 0 87.93 53.63"><defs><style>.cls-1{fill:#0081cc;}</style></defs><title>Asset 8</title><g id="Layer_2" data-name="Layer 2"><g id="Layer_1-2" data-name="Layer 1"><path class="cls-1" d="M84.92,41.85h-.68V5.1A5.11,5.11,0,0,0,79.14,0H8.79a5.12,5.12,0,0,0-5.1,5.1V41.85H3a2.82,2.82,0,0,0-3,2.57v6.64a2.82,2.82,0,0,0,3,2.57H84.92a2.82,2.82,0,0,0,3-2.57V44.42a2.82,2.82,0,0,0-3-2.57M6.24,5.1A2.56,2.56,0,0,1,8.79,2.55H79.14A2.56,2.56,0,0,1,81.69,5.1V41.94H6.24Zm79.06,46a.35.35,0,0,1-.38.32H3a.35.35,0,0,1-.38-.32V44.42A.36.36,0,0,1,3,44.09H84.92a.36.36,0,0,1,.38.33Z"/><path class="cls-1" d="M38.28,21.55a6.13,6.13,0,1,0-6.13-6.13,6.14,6.14,0,0,0,6.13,6.13m0-9.78a3.65,3.65,0,1,1-3.65,3.65,3.66,3.66,0,0,1,3.65-3.65"/><path class="cls-1" d="M40.73,22.35H35.27a3.15,3.15,0,0,0-3.15,3L30.61,36.13v.17a3.15,3.15,0,0,0,3.14,3.15h8.52A3.15,3.15,0,0,0,45.4,36.3L43.88,25.4a3.16,3.16,0,0,0-3.15-3M42.26,37H33.74a.67.67,0,0,1-.66-.61l1.51-10.69V25.5a.68.68,0,0,1,.67-.67h5.46a.68.68,0,0,1,.67.67l1.52,10.86a.68.68,0,0,1-.66.61"/><path class="cls-1" d="M69.6,5.7H50.65A3.29,3.29,0,0,0,47.36,9V21.41a3.29,3.29,0,0,0,3.29,3.28H52.2l5.55,6.4a.94.94,0,0,0,.72.33,1,1,0,0,0,1-1V24.69H69.6a3.29,3.29,0,0,0,3.28-3.28V9A3.29,3.29,0,0,0,69.6,5.7M71,9V21.41a1.37,1.37,0,0,1-1.37,1.37H58.47a1,1,0,0,0-1,1v4.17l-4.15-4.8a1,1,0,0,0-.72-.33h-2a1.37,1.37,0,0,1-1.38-1.37V9a1.37,1.37,0,0,1,1.38-1.37H69.6A1.37,1.37,0,0,1,71,9"/><path class="cls-1" d="M68.53,10.65H51.71a1,1,0,0,0,0,1.91H68.53a1,1,0,0,0,0-1.91"/><path class="cls-1" d="M68.53,14.24H51.71a1,1,0,0,0,0,1.91H68.53a1,1,0,0,0,0-1.91"/><path class="cls-1" d="M59.67,17.83h-8a1,1,0,0,0,0,1.91h8a1,1,0,1,0,0-1.91"/></g></g></svg>