<svg xmlns="http://www.w3.org/2000/svg" viewBox="0 0 67.21 64.99"><defs><style>.cls-1{fill:none;stroke:#0081cc;stroke-miterlimit:10;stroke-width:2px;}</style></defs><title>Asset 14</title><g id="Layer_2" data-name="Layer 2"><g id="Layer_1-2" data-name="Layer 1"><path class="cls-1" d="M33.33,41.1,44,51.46M34.58,41.1,24,51.46M34,27.32V42m25.44,10.1a4.75,4.75,0,0,0,2.83-4.32,4.9,4.9,0,0,0-9.79,0,4.75,4.75,0,0,0,2.83,4.32,8.65,8.65,0,0,0-6.75,8.35c0,4.75,17.62,4.75,17.62,0A8.65,8.65,0,0,0,59.47,52.08Zm-47.6,0a4.75,4.75,0,0,0,2.83-4.32A4.83,4.83,0,0,0,9.81,43a4.83,4.83,0,0,0-4.89,4.77,4.75,4.75,0,0,0,2.83,4.32A8.65,8.65,0,0,0,1,60.43c0,4.75,17.62,4.75,17.62,0A8.65,8.65,0,0,0,11.87,52.08Zm24.56-42a4.75,4.75,0,0,0,2.83-4.32,4.9,4.9,0,0,0-9.79,0,4.75,4.75,0,0,0,2.83,4.32,8.65,8.65,0,0,0-6.75,8.35c0,4.75,17.63,4.75,17.63,0A8.65,8.65,0,0,0,36.43,10.09Z"/></g></g></svg>