<svg xmlns="http://www.w3.org/2000/svg" viewBox="0 0 96.34 57.93"><defs><style>.cls-1{fill:none;stroke:#0081cc;stroke-miterlimit:10;stroke-width:2px;}</style></defs><title>Asset 12</title><g id="Layer_2" data-name="Layer 2"><g id="Layer_1-2" data-name="Layer 1"><path class="cls-1" d="M21.53,24.1,28.2,4.54c2-5.75,9-3.28,7.19,1.93S28.81,26.2,28.81,26.2l4.91-14.41c2.17-6.36,9.2-2.65,7.43,2.54-.86,2.51-7.78,23.93-7.78,23.93s3.1-1.81,6.55-4.18,8,2.91,4.19,6.5C41.77,42.75,32.49,51.07,29.3,53.49c-2.54,1.92-7.9,4.16-13.28,2.7S5.16,52.85,2.77,48,.49,38.71,2.68,32.29l7.91-23.2c1.92-5.62,9.3-3.39,7.2,2.76L13.92,23S19.1,8.68,20.46,4.69,29.1,1.45,26.8,8.21Zm54,.21s-4.12-14-5.83-19.84S60.89.81,62.44,6.09s5.73,20,5.73,20l-4.3-14.61C62,5,54.8,8.44,56.34,13.7c.75,2.54,6.76,24.24,6.76,24.24s-3-1.94-6.37-4.45-8.17,2.55-4.47,6.3c2.25,2.27,11.16,11,14.24,13.54,2.46,2,7.72,4.5,13.16,3.27s11-2.87,13.6-7.66,2.67-9.14.75-15.65L87.1,9.77C85.43,4.08,78,6,79.79,12.23l3.39,11.29S78.61,9,77.42,5s-8.49-3.6-6.48,3.25Z"/></g></g></svg>