<svg xmlns="http://www.w3.org/2000/svg" viewBox="0 0 85.23 56.21"><defs><style>.cls-1{fill:none;stroke:#0081cc;stroke-miterlimit:10;stroke-width:2px;}</style></defs><title>Asset 13</title><g id="Layer_2" data-name="Layer 2"><g id="Layer_1-2" data-name="Layer 1"><path class="cls-1" d="M46.3,11.8A2.32,2.32,0,1,1,44,9.51,2.3,2.3,0,0,1,46.3,11.8Zm-6.81,0a2.32,2.32,0,1,1-2.31-2.29A2.29,2.29,0,0,1,39.49,11.8Zm-6.8,0a2.32,2.32,0,1,1-2.32-2.29A2.3,2.3,0,0,1,32.69,11.8Zm22.6,1H58A5.17,5.17,0,0,1,63.16,18v5.25a5.17,5.17,0,0,1-5.11,5.14,16.59,16.59,0,0,0,3.59,4.36,13.54,13.54,0,0,1-10-4.36H46.33a5.2,5.2,0,0,1-4-1.92M44.88,1H28.67a7.22,7.22,0,0,0-7.26,7.18v7.33a7.21,7.21,0,0,0,7.13,7.17,23.5,23.5,0,0,1-5,6.09,18.88,18.88,0,0,0,13.95-6.08h7.4a7.22,7.22,0,0,0,7.26-7.18V8.18A7.22,7.22,0,0,0,44.88,1ZM75.45,39.5a6.38,6.38,0,1,0-5.37,0,11.36,11.36,0,0,0-8.79,11c0,6.26,22.94,6.26,22.94,0A11.36,11.36,0,0,0,75.45,39.5Zm-60.3,0a6.32,6.32,0,1,0-9-5.71A6.31,6.31,0,0,0,9.78,39.5,11.36,11.36,0,0,0,1,50.52c0,6.26,22.93,6.26,22.93,0A11.35,11.35,0,0,0,15.15,39.5Z"/></g></g></svg>