<svg xmlns="http://www.w3.org/2000/svg" viewBox="0 0 66.55 63.77"><defs><style>.cls-1{fill:#0081cc;}</style></defs><title>Asset 11</title><g id="Layer_2" data-name="Layer 2"><g id="Layer_1-2" data-name="Layer 1"><path class="cls-1" d="M42.79,44.21V43.05a12.56,12.56,0,0,0,1-.85,17.2,17.2,0,0,0,4.35-9.6,8.46,8.46,0,0,0,5.47-3.25c1.83-2.58,2-6.3.47-11a1.22,1.22,0,0,0-.51-.65l-.69-.47a17.1,17.1,0,0,0-4.08-11.5C45.36,2,40.16,0,33.27,0S21.18,2,17.79,5.72a17.08,17.08,0,0,0-4.08,11.5l-.7.47a1.25,1.25,0,0,0-.5.65C11,23,11.15,26.72,13,29.3a8.51,8.51,0,0,0,5.46,3.29,17.32,17.32,0,0,0,4.37,9.61c.3.3.62.58,1,.85v1.16C18.93,45.14-.32,49.67,0,62.51a1.26,1.26,0,0,0,1.26,1.26h64a1.26,1.26,0,0,0,1.26-1.26c.33-12.84-18.93-17.37-23.76-18.3M17.69,29.78a5.4,5.4,0,0,1-2.67-2l.06,0c-1.26-1.84-1.37-4.62-.25-8.3l.92-.62a1.26,1.26,0,0,0,.55-1.17A14.87,14.87,0,0,1,19.73,7.38c2.84-3.22,7.42-4.83,13.54-4.86S44,4.16,46.86,7.38a14.92,14.92,0,0,1,3.43,10.37,1.24,1.24,0,0,0,.55,1.17l.92.62c1.12,3.66,1.05,6.46-.25,8.3a5.51,5.51,0,0,1-2.68,1.95,8.43,8.43,0,0,0,2.05-6.3,5.89,5.89,0,0,0-2-3.52C48.31,7.37,39.48,6,35.68,6a17.53,17.53,0,0,0-2.41.17A17.64,17.64,0,0,0,30.86,6C27.08,6,18.27,7.34,17.69,20a5.85,5.85,0,0,0-2.05,3.51,8.39,8.39,0,0,0,2.05,6.3M46.34,19.45a26,26,0,0,1-15.05-3.78,1.26,1.26,0,0,0-1.64.16c-2.52,2.71-7.11,3.34-9.33,3.48C21,10.4,26.39,8.47,30.93,8.47a11.92,11.92,0,0,1,2.15.17,1.06,1.06,0,0,0,.5,0,12.1,12.1,0,0,1,2.16-.17c4.49,0,9.91,2,10.54,11ZM20.76,30h0a1.27,1.27,0,0,0-.31-.85c-1.73-2-2.52-3.77-2.31-5.26a3.35,3.35,0,0,1,1.15-2.13c1.66,0,7.56-.31,11.33-3.58a28.41,28.41,0,0,0,14,3.78,17.62,17.62,0,0,0,2.59-.13,3.27,3.27,0,0,1,1.13,2.06c.22,1.46-.58,3.29-2.3,5.26a1.28,1.28,0,0,0-.32.85v.65l-7.33,3.93a3.61,3.61,0,1,0,1.14,2.64v-.34l5.78-3.1A13.94,13.94,0,0,1,42,40.46a11.19,11.19,0,0,1-8.35,3.12H33a11.23,11.23,0,0,1-8.34-3.11c-4-4-3.89-10.39-3.89-10.45m16.29,7.23a1.13,1.13,0,1,1-1.12-1.12,1.12,1.12,0,0,1,1.12,1.12M32,61.18H2.56c1-9.46,16.37-13.42,21.19-14.44V49c0,2.86,3.47,5,8.26,5.4ZM26.27,49V44.65A15.11,15.11,0,0,0,33,46.06h.63a15.13,15.13,0,0,0,6.69-1.41V49c0,1.2-2.73,2.92-7,2.92s-7-1.72-7-2.92m8.26,12.22V54.39c4.79-.33,8.26-2.52,8.26-5.4V46.78c4.85,1,20.15,5,21.19,14.44Z"/></g></g></svg>