<svg id="Layer_1" data-name="Layer 1" xmlns="http://www.w3.org/2000/svg" viewBox="0 0 2217.9669 527.9792"><defs><style>.cls-1{fill:#fff;fill-rule:evenodd;}</style></defs><title>Columbia-logo-white</title><path class="cls-1" d="M334.9215,272.7122l-9.8567,29.2835H344.78l-9.8584-29.2835Zm14.1565,41.6845H320.7689L314.23,332.55H299.4879l29.382-77.5076h12.1048l29.382,77.5076h-14.74l-6.539-18.153Z" transform="translate(-8.1711 -8.3758)"/><polygon class="cls-1" points="392.24 324.174 378.573 324.174 378.573 260.725 356.416 260.725 356.416 248.032 414.399 248.032 414.399 260.725 392.24 260.725 392.24 324.174 392.24 324.174"/><polygon class="cls-1" points="478.132 324.174 464.465 324.174 464.465 260.725 442.307 260.725 442.307 248.032 500.289 248.032 500.289 260.725 478.132 260.725 478.132 324.174 478.132 324.174"/><polygon class="cls-1" points="569.296 248.032 569.296 324.174 555.629 324.174 555.629 291.57 523.611 291.57 523.611 324.174 509.948 324.174 509.948 248.032 523.611 248.032 523.611 278.884 555.629 278.884 555.629 248.032 569.296 248.032 569.296 248.032"/><polygon class="cls-1" points="638.103 248.032 638.103 260.725 597.787 260.725 597.787 278.884 633.516 278.884 633.516 291.57 597.787 291.57 597.787 311.485 639.957 311.485 639.957 324.174 584.122 324.174 584.122 248.032 638.103 248.032 638.103 248.032"/><polygon class="cls-1" points="700.562 307.876 706.615 289.909 720.866 248.032 735.997 248.032 707.296 325.544 693.826 325.544 665.128 248.032 680.258 248.032 694.51 289.909 700.562 307.876 700.562 307.876"/><polygon class="cls-1" points="798.167 248.032 798.167 260.725 757.851 260.725 757.851 278.884 793.58 278.884 793.58 291.57 757.851 291.57 757.851 311.485 800.023 311.485 800.023 324.174 744.186 324.174 744.186 248.032 798.167 248.032 798.167 248.032"/><path class="cls-1" d="M853.767,289.89c4.7833,0,11.0308-.8747,11.0308-10.3475,0-9.5611-6.2474-10.4415-11.0308-10.4415l-18.6439-.0006v20.79ZM835.1232,332.55H821.4575V256.4082h31.4332c13.1754,0,25.8656,4.3922,25.8656,23.1346.0006,13.4732-6.5407,19.4308-15.0312,21.6762L882.1719,332.55H866.164l-17.0824-29.8672H835.1232V332.55Z" transform="translate(-8.1711 -8.3758)"/><polygon class="cls-1" points="916.75 324.174 903.083 324.174 903.083 292.645 873.602 248.032 889.32 248.032 903.766 270.681 909.917 280.54 916.065 270.681 930.515 248.032 946.23 248.032 916.75 292.645 916.75 324.174 916.75 324.174"/><path class="cls-1" d="M1007.783,321.2272c10.2519,0,14.74-3.8091,16.1075-12.8861l13.7638,1.464c-1.5621,14.6418-10.3481,24.1146-29.8712,24.1146-23.4278,0-32.6034-15.72-32.6034-39.4374.0006-23.724,9.1756-39.44,32.6034-39.44,19.5232,0,28.3092,9.4671,29.8706,24.1151l-13.7632,1.464c-1.3677-9.0816-5.8556-12.8844-16.1075-12.8844-15.6184,0-18.6445,12.5866-18.6445,26.7455.0006,14.15,3.0255,26.7449,18.6445,26.7449Z" transform="translate(-8.1711 -8.3758)"/><polygon class="cls-1" points="1095.556 248.032 1095.556 260.725 1055.24 260.725 1055.24 278.884 1090.968 278.884 1090.968 291.57 1055.24 291.57 1055.24 311.485 1097.411 311.485 1097.411 324.174 1041.577 324.174 1041.577 248.032 1095.556 248.032 1095.556 248.032"/><polygon class="cls-1" points="1131.664 284.934 1124.15 273.22 1124.344 291.473 1124.344 324.174 1110.679 324.174 1110.679 248.032 1123.27 248.032 1149.525 287.278 1157.045 298.99 1156.851 280.734 1156.851 248.032 1170.514 248.032 1170.514 324.174 1157.926 324.174 1131.664 284.934 1131.664 284.934"/><polygon class="cls-1" points="1215.997 324.174 1202.328 324.174 1202.328 260.725 1180.174 260.725 1180.174 248.032 1238.156 248.032 1238.156 260.725 1215.997 260.725 1215.997 324.174 1215.997 324.174"/><polygon class="cls-1" points="1301.79 248.032 1301.79 260.725 1261.477 260.725 1261.477 278.884 1297.201 278.884 1297.201 291.57 1261.477 291.57 1261.477 311.485 1303.646 311.485 1303.646 324.174 1247.81 324.174 1247.81 248.032 1301.79 248.032 1301.79 248.032"/><path class="cls-1" d="M1357.3923,289.89c4.7833,0,11.03-.8747,11.03-10.3475,0-9.5611-6.2475-10.4415-11.0308-10.4415l-18.6445-.0006v20.79ZM1338.7472,332.55h-13.6645V256.4082h31.4344c13.1714,0,25.8639,4.3922,25.8639,23.1346,0,13.4732-6.5447,19.4308-15.033,21.6762l18.4507,31.3307h-16.011l-17.0859-29.8672h-13.9545V332.55Z" transform="translate(-8.1711 -8.3758)"/><path class="cls-1" d="M1429.2236,294.4818c0,14.4481,3.9993,26.7455,20.2971,26.7455,16.304,0,20.2081-12.2973,20.2081-26.7449.0011-14.45-3.9048-26.7455-20.2081-26.7455-16.2979,0-20.2982,12.2951-20.2971,26.7449Zm-13.8612,0c0-24.0166,10.0493-39.44,34.1583-39.44,24.115,0,34.1727,15.423,34.1727,39.44.0006,24.0143-10.0582,39.4374-34.1727,39.4374-24.109,0-34.1593-15.4225-34.1583-39.438Z" transform="translate(-8.1711 -8.3758)"/><polygon class="cls-1" points="1501.958 324.174 1488.297 324.174 1488.297 248.032 1540.324 248.032 1540.324 260.725 1501.958 260.725 1501.958 278.884 1535.638 278.884 1535.638 291.57 1501.958 291.57 1501.958 324.174 1501.958 324.174"/><path class="cls-1" d="M1613.2014,319.8611c4.493,0,11.3279-.5871,11.3279-9.7644.0012-9.1756-5.9613-10.1505-10.9367-10.1505H1594.46v19.9149Zm-18.7413-50.76V287.26h17.96c5.8569,0,9.5669-1.7613,9.5669-9.2752.0007-7.32-3.6115-8.8835-9.5669-8.8835l-17.96-.0006Zm-13.6679,63.449V256.4082h32.6092c9.6583,0,22.6425,3.5175,22.6425,21.0874.0011,7.9091-3.4173,12.8839-6.9286,15.1309,5.3676,2.2448,9.3675,8.4922,9.3675,17.6678,0,18.5442-11.7119,22.2553-24.5924,22.2553Z" transform="translate(-8.1711 -8.3758)"/><path class="cls-1" d="M1649.8935,304.73V256.4082H1663.56V304.73c0,9.2752,2.9337,16.4976,17.3773,16.4976s17.3706-7.2218,17.3706-16.497l0-48.322h13.6732V304.73c0,16.5956-7.3265,29.19-31.0443,29.19s-31.0447-12.5946-31.0442-29.19Z" transform="translate(-8.1711 -8.3758)"/><path class="cls-1" d="M1723.4862,310.5876l13.8593-1.4658c1.0738,8.884,6.5379,12.1054,16.8856,12.1054,7.6145-.1,16.2058-2.9281,16.2058-11.3224.0006-6.6387-4.0027-9.4672-16.5954-10.6414-13.9583-1.17-27.6259-4.7811-27.72-21.0851-.1-16.0079,12.6869-23.1363,27.4282-23.1363,19.9156,0,28.99,8.7861,30.3564,23.2342l-13.86,1.464c-1.0727-8.982-6.1478-12.0035-16.496-12.0035-5.1745.0917-13.7671,1.9475-13.7671,10.5394.1,5.2726,3.0278,7.5139,14.74,8.6859,18.6484,1.6616,29.3837,5.0755,29.4816,22.9426.1,16.9867-14.6417,24.0149-29.773,24.0149-20.5955,0-29.1839-8.2007-30.7449-23.3322Z" transform="translate(-8.1711 -8.3758)"/><polygon class="cls-1" points="1803.454 324.174 1789.782 324.174 1789.782 248.032 1803.454 248.032 1803.454 324.174 1803.454 324.174"/><polygon class="cls-1" points="1840.636 284.934 1833.123 273.22 1833.314 291.473 1833.314 324.174 1819.647 324.174 1819.647 248.032 1832.242 248.032 1858.498 287.278 1866.015 298.99 1865.823 280.734 1865.823 248.032 1879.484 248.032 1879.484 324.174 1866.896 324.174 1840.636 284.934 1840.636 284.934"/><polygon class="cls-1" points="1948.294 248.032 1948.294 260.725 1907.98 260.725 1907.98 278.884 1943.709 278.884 1943.709 291.57 1907.98 291.57 1907.98 311.485 1950.147 311.485 1950.147 324.174 1894.313 324.174 1894.313 248.032 1948.294 248.032 1948.294 248.032"/><path class="cls-1" d="M1969.0461,310.5876l13.8667-1.4658c1.0718,8.884,6.5323,12.1054,16.88,12.1054,7.6255-.1,16.2135-2.9281,16.2135-11.3224,0-6.6387-4.0145-9.4672-16.599-10.6414-13.9625-1.17-27.6258-4.7811-27.7243-21.0851-.0992-16.0079,12.6869-23.1363,27.4327-23.1363,19.9069,0,28.9938,8.7861,30.3518,23.2342l-13.86,1.464c-1.0586-8.982-6.1524-12.0035-16.4919-12.0035-5.1787.0917-13.7652,1.9475-13.7652,10.5394.0944,5.2726,3.022,7.5139,14.7395,8.6859,18.653,1.6616,29.3775,5.0755,29.4777,22.9426.1009,16.9867-14.64,24.0149-29.7749,24.0149-20.5908,0-29.1837-8.2007-30.747-23.3322Z" transform="translate(-8.1711 -8.3758)"/><path class="cls-1" d="M2039.615,310.5876l13.861-1.4658c1.0788,8.884,6.53,12.1054,16.8957,12.1054,7.61-.1,16.1982-2.9281,16.1982-11.3224,0-6.6387-3.9947-9.4672-16.5982-10.6414-13.96-1.17-27.6216-4.7811-27.7211-21.0851-.0992-16.0079,12.6827-23.1363,27.4224-23.1363,19.9133,0,29,8.7861,30.3779,23.2342l-13.88,1.464c-1.0581-8.982-6.1319-12.0035-16.4976-12.0035-5.1723.0917-13.7611,1.9475-13.7611,10.5394.1,5.2726,3.0359,7.5139,14.7395,8.6859,18.6552,1.6616,29.3995,5.0755,29.4794,22.9426.1,16.9867-14.64,24.0149-29.7591,24.0149-20.6108,0-29.2-8.2007-30.7567-23.3322Z" transform="translate(-8.1711 -8.3758)"/><path class="cls-1" d="M351.7021,178.6187c15.8658,0,22.8187-5.8914,24.93-19.9381l21.2986,2.2635c-2.4209,22.6562-16.0119,37.3093-46.2284,37.3093-36.254,0-50.4587-24.3127-50.4587-61.0269,0-36.7029,14.2047-61.0275,50.4587-61.0275,30.2165,0,43.8075,14.6474,46.2284,37.3093L376.632,115.771c-2.1112-14.0462-9.0641-19.9376-24.93-19.9376-24.1667,0-28.8521,19.4892-28.8521,41.393s4.6854,41.3923,28.8521,41.3923Z" transform="translate(-8.1711 -8.3758)"/><path class="cls-1" d="M433.286,156.108c0,16.6193,6.94,22.9659,18.1168,22.9659,11.1888,0,18.1349-6.3465,18.1349-22.9659,0-16.6126-6.9461-22.9591-18.1349-22.9591-11.1764-.0006-18.1168,6.3465-18.1168,22.9591Zm-21.153,0c0-27.7951,15.1032-42.1448,39.27-42.1448,24.1729,0,39.2879,14.35,39.2879,42.1448,0,27.8014-15.1151,42.1453-39.2879,42.1453-24.1667,0-39.27-14.344-39.27-42.1453Z" transform="translate(-8.1711 -8.3758)"/><polygon class="cls-1" points="497.925 66.913 518.468 66.913 518.468 187.766 497.925 187.766 497.925 66.913 497.925 66.913"/><path class="cls-1" d="M601.2705,187.6839c-5.2845,6.4983-14.8054,10.5694-24.1729,10.5694-18.5844,0-31.7265-9.5141-31.7265-28.6993l.0006-53.4734h20.5433v50.4519c0,8.3122,5.5941,12.39,14.0529,12.39,10.4234,0,18.876-7.8513,20.0881-14.0462V116.0806H620.45v58.4663l1.3645,21.5947H602.9282l-1.6577-8.4577Z" transform="translate(-8.1711 -8.3758)"/><path class="cls-1" d="M662.7419,124.5333a26.3779,26.3779,0,0,1,20.9991-10.57c11.3286,0,18.876,4.3747,23.11,11.4793,5.74-7.56,15.5645-11.4793,24.9253-11.4793,18.4293,0,29.16,10.7217,29.16,29.4579l.0006,52.72h-20.55V144.7742c0-7.8513-4.8354-11.6253-12.3891-11.48-8.6044.1517-14.0467,7.403-15.5583,14.0468v48.8H691.8963V144.7742c0-7.8513-4.6906-11.6253-12.24-11.48-8.6072.1517-14.0462,7.403-15.714,14.0468l.0005,48.8H643.5563V137.6753L642.19,116.0806h18.8822l1.67,8.4527Z" transform="translate(-8.1711 -8.3758)"/><path class="cls-1" d="M819.8479,133.2944c-10.5756,0-17.6757,6.8017-19.1862,13.4517l.0005,18.73c1.51,6.6437,8.61,13.4455,19.1851,13.4455s18.5788-7.3962,18.5788-22.8141c0-15.4112-8.0031-22.8136-18.5782-22.8136ZM800.6622,123.179c4.5377-5.1441,13.4455-9.2158,22.5107-9.2158,23.7177,0,36.7074,14.9628,36.7074,42.1448,0,27.195-12.99,42.1453-36.7074,42.1453-9.363,0-19.6409-4.6719-23.8631-10.8672l-1.67,8.7555H778.7528l1.3656-21.5947V75.289h20.5439v47.89Z" transform="translate(-8.1711 -8.3758)"/><path class="cls-1" d="M875.2932,116.0806h20.5439v80.061H875.2932v-80.061Zm21.6008-13.1482h-22.663V80.27h22.663v22.6624Z" transform="translate(-8.1711 -8.3758)"/><path class="cls-1" d="M943.7209,180.7423c11.79.4489,19.9448-7.56,22.0554-14.5133l.0006-6.4983-21.297,3.4768c-8.161,1.3644-11.0307,3.78-11.0307,9.2163,0,5.29,3.7807,8.1667,10.2716,8.3184Zm-2.414-32.94,24.47-3.4705v-1.6633c0-7.0984-4.9815-10.7274-15.4049-10.7274-10.8792-.1516-14.053,3.78-15.1133,10.2734l-20.9951-2.7187c2.2708-14.3552,9.8188-25.5322,35.4953-25.5322,22.821,0,36.5693,9.5136,36.5693,30.3683l.0006,30.2154,1.3581,21.5947H968.799l-1.656-8.4577c-6.1953,6.9529-15.4133,10.5694-25.9823,10.5694-21.3025,0-29.47-10.4177-29.47-24.92.0006-17.8269,11.4924-22.971,29.616-25.5317Z" transform="translate(-8.1711 -8.3758)"/><path class="cls-1" d="M1090.5608,176.5069c6.9545,0,17.524-.91,17.524-15.1077,0-14.2047-9.2174-15.7152-16.9227-15.7152h-29.6034v30.8229Zm-29.0022-78.556V126.05h27.79c9.0656,0,14.8053-2.7187,14.8053-14.3616,0-11.3167-5.5884-13.7375-14.8053-13.7375Zm-21.15,98.1907V78.31h50.4564c14.9571,0,35.0532,5.4373,35.0532,32.6318,0,12.2374-5.2986,19.9381-10.7353,23.4091,8.3128,3.4824,14.5081,13.1477,14.5081,27.3519.0006,28.7043-18.1286,34.4394-38.0736,34.4394l-51.2088-.0005Z" transform="translate(-8.1711 -8.3758)"/><path class="cls-1" d="M1199.4807,187.6839c-5.2856,6.4983-14.8054,10.5694-24.1684,10.5694-18.59,0-31.7265-9.5141-31.7265-28.6993l.0006-53.4734h20.5393v50.4519c0,8.3122,5.5941,12.39,14.0563,12.39,10.4245,0,18.8822-7.8513,20.0842-14.0462l.0011-48.7954H1218.66v58.4663l1.3712,21.5947H1201.149l-1.6684-8.4577Z" transform="translate(-8.1711 -8.3758)"/><path class="cls-1" d="M1284.5339,171.3736c-.146-6.65-6.4914-6.3465-17.528-7.4075-15.564-1.3656-32.7829-2.87-32.7829-23.5666,0-20.09,19.04-26.4363,34.5963-26.4363,22.8153,0,33.5359,8.1549,35.6532,25.2288l-20.8529,2.7243c-.8985-6.3465-4.8259-10.43-14.8-10.2778-6.3409.1506-12.6863,1.8077-12.6863,8.3059.1516,5.5936,6.3454,5.5942,16.1573,6.65,16.0186,1.6684,33.6921,2.1117,33.6921,24.6275,0,20.3876-19.4937,27.0314-37.6128,27.0314-24.3241,0-34.7479-9.8114-36.5614-26.1329l21-2.7186c1.2087,7.4086,5.4481,11.3406,15.5617,11.1888,8.9022-.1636,16.3159-2.2753,16.1641-9.2169Z" transform="translate(-8.1711 -8.3758)"/><path class="cls-1" d="M1322.9115,116.0806h20.5376v80.061h-20.5376v-80.061Zm21.5936-13.1482h-22.6624V80.27h22.6624v22.6624Z" transform="translate(-8.1711 -8.3758)"/><path class="cls-1" d="M1384.5447,124.5333c5.2806-6.4984,14.7992-10.57,24.1623-10.57,18.5843,0,31.7321,9.5136,31.7321,28.7055v53.4729h-20.5457V145.684c0-8.3065-5.5924-12.39-14.0569-12.39-10.4188,0-18.8816,7.8633-20.09,14.0468l.0011,48.8h-20.3865V137.6753l-1.3718-21.5947h18.8878l1.6679,8.4527Z" transform="translate(-8.1711 -8.3758)"/><path class="cls-1" d="M1475.0178,147.802h33.5478c-.45-10.728-5.7465-15.8613-15.86-15.8613-9.9761,0-16.6136,4.83-17.6876,15.8613Zm-.1518,16.1636c.6194,11.3281,8.0144,16.3159,18.2945,16.3159,10.7223.1455,14.8037-4.0836,16.0057-9.52l21.0054,2.572c-2.117,13.44-11.031,24.92-36.57,24.92-25.5242,0-40.4758-14.7986-40.4758-42.1453.0006-27.34,14.9516-42.1448,39.4272-42.1448,24.7811,0,38.0737,14.9628,38.0737,42.1448l.0011,7.8576Z" transform="translate(-8.1711 -8.3758)"/><path class="cls-1" d="M1593.3176,171.3736c-.1518-6.65-6.5-6.3465-17.519-7.4075-15.5679-1.3656-32.7829-2.87-32.7829-23.5666,0-20.09,19.0243-26.4363,34.5867-26.4363,22.8073,0,33.5517,8.1549,35.6527,25.2288l-20.8491,2.7243c-.8962-6.3465-4.8415-10.43-14.8036-10.2778-6.3471.1506-12.6949,1.8077-12.6949,8.3059.153,5.5936,6.3472,5.5942,16.166,6.65,16.0107,1.6684,33.6977,2.1117,33.6977,24.6275.0006,20.3876-19.4834,27.0314-37.6246,27.0314-24.3138,0-34.7417-9.8114-36.5514-26.1329l20.9889-2.7186c1.219,7.4086,5.4465,11.3406,15.5624,11.1888,8.92-.1636,16.316-2.2753,16.171-9.2169Z" transform="translate(-8.1711 -8.3758)"/><path class="cls-1" d="M1675.6578,171.3736c-.1495-6.65-6.4978-6.3465-17.5405-7.4075-15.5555-1.3656-32.7767-2.87-32.7767-23.5666.0006-20.09,19.04-26.4363,34.602-26.4363,22.81,0,33.53,8.1549,35.6414,25.2288l-20.8468,2.7243c-.9052-6.3465-4.83-10.43-14.7946-10.2778-6.3443.1506-12.6927,1.8077-12.6927,8.3059.1531,5.5936,6.3478,5.5942,16.17,6.65,16.0066,1.6684,33.6757,2.1117,33.6757,24.6275.0006,20.3876-19.4892,27.0314-37.6081,27.0314-24.3236,0-34.7543-9.8114-36.5677-26.1329l21.0059-2.7186c1.202,7.4086,5.4418,11.3406,15.5618,11.1888,8.9027-.1636,16.3215-2.2753,16.17-9.2169Z" transform="translate(-8.1711 -8.3758)"/><path class="cls-1" d="M1745.5935,162.1516l21.455-2.2691c1.6556,13.7546,10.1188,18.7362,26.133,18.7362,11.7877-.1517,25.0753-4.5264,25.0753-17.5229,0-10.2723-6.1931-14.6531-25.6767-16.467-21.6054-1.8151-42.7709-7.4024-42.917-32.6312-.1434-24.7741,19.6409-35.7987,42.4618-35.7987,30.8116,0,44.8584,13.5915,46.979,35.9505l-21.4575,2.2629c-1.6514-13.8888-9.504-18.5788-25.5215-18.5788-8.0081.1518-21.3025,3.0159-21.3025,16.3159.1523,8.16,4.6769,11.631,22.8062,13.4455,28.8583,2.5664,45.4752,7.8514,45.6271,35.501.1529,26.29-22.6664,37.1575-46.0744,37.1575-31.88,0-45.1735-12.6868-47.5879-36.1017Z" transform="translate(-8.1711 -8.3758)"/><path class="cls-1" d="M1890.7652,179.0739c11.0258.146,14.64-4.078,16.0175-11.1764l20.9877,2.7175c-1.947,15.2487-10.1144,27.6383-36.8536,27.6383-24.4758,0-38.9725-14.95-38.9725-42.1453.0011-27.182,14.4962-42.1448,38.9725-42.1448,26.7392,0,34.906,12.39,36.8531,27.6439l-20.9865,2.7243c-1.3787-7.1051-4.9936-11.3343-16.0182-11.1826-11.1888.2973-17.9792,7.4019-17.9792,22.9591,0,15.5635,6.79,22.6624,17.9792,22.9659Z" transform="translate(-8.1711 -8.3758)"/><path class="cls-1" d="M1940.1613,75.289h20.5442v48.1877c4.9929-6.0431,14.3616-9.5136,22.9718-9.5136,18.5723,0,31.71,9.5136,31.71,28.7055l.0007,53.4729h-20.5359V145.684c0-8.3065-5.6-12.39-14.0446-12.39-10.4409,0-18.8883,7.8633-20.1022,14.0468l0,48.8h-20.5442V75.289Z" transform="translate(-8.1711 -8.3758)"/><path class="cls-1" d="M2046.3657,156.108c0,16.6193,6.95,22.9659,18.114,22.9659,11.2058,0,18.1357-6.3465,18.1357-22.9659,0-16.6126-6.9309-22.9591-18.1357-22.9591-11.1643-.0006-18.115,6.3465-18.114,22.9591Zm-21.1513,0c0-27.7951,15.0986-42.1448,39.2653-42.1448,24.1869,0,39.2862,14.35,39.2862,42.1448,0,27.8014-15.0993,42.1453-39.2862,42.1453-24.1659,0-39.2658-14.344-39.2653-42.1453Z" transform="translate(-8.1711 -8.3758)"/><path class="cls-1" d="M2135.7824,156.108c0,16.6193,6.95,22.9659,18.1342,22.9659,11.1658,0,18.1349-6.3465,18.1349-22.9659.0007-16.6126-6.97-22.9591-18.1349-22.9591-11.1843-.0006-18.1352,6.3465-18.1342,22.9591Zm-21.1311,0c0-27.7951,15.0988-42.1448,39.2653-42.1448s39.2862,14.35,39.2862,42.1448c.0007,27.8014-15.12,42.1453-39.2862,42.1453s-39.2658-14.344-39.2653-42.1453Z" transform="translate(-8.1711 -8.3758)"/><polygon class="cls-1" points="2197.415 66.913 2217.967 66.913 2217.967 187.766 2197.415 187.766 2197.415 66.913 2197.415 66.913"/><path class="cls-1" d="M56.0853,127.5022,127.28,56.3072v71.195Zm190.32,19.839,19.851-19.839H147.1415V8.3758L8.1711,147.3412H127.28v19.856H66.5614L46.7055,187.0537H127.28V206.91H106.274L86.418,226.7651H127.28v39.7013l19.8617-19.8447V226.7651H167.01L186.8546,206.91H147.1415v-19.856h59.5578l19.851-19.8565H147.1415v-19.856Z" transform="translate(-8.1711 -8.3758)"/><polygon class="cls-1" points="297.233 527.979 294.69 527.979 294.69 394.114 297.233 394.114 297.233 527.979 297.233 527.979"/><path class="cls-1" d="M2143.551,282.8961l-4.1142-12.2611-1.0783-3.2316.1,3.629v11.8637h-7.25V256.4144h9.9863l4.5128,13.5372,1.1786,3.8266,1.1786-3.8266,4.514-13.5372h10.0062v26.4816h-7.2508V271.0324l.1-3.629-1.0991,3.2316-4.0935,12.2611Zm-23.1271,0h-7.0713V263.1793h-7.7484v-6.7649h22.549v6.7649h-7.7293v19.7167Z" transform="translate(-8.1711 -8.3758)"/><polygon class="cls-1" points="413.395 422.58 413.395 426.237 364.658 426.237 364.658 459.336 409.335 459.336 409.335 462.993 364.658 462.993 364.658 498.126 415.426 498.126 415.426 501.777 360.599 501.777 360.599 422.58 413.395 422.58 413.395 422.58"/><polygon class="cls-1" points="456.655 460.35 449.753 450.2 431.071 422.58 436.046 422.58 452.699 447.254 459.092 456.698 465.491 447.254 482.14 422.58 487.116 422.58 468.437 450.2 461.531 460.35 468.84 471.014 489.758 501.777 484.579 501.777 466.402 474.565 459.092 463.907 451.784 474.565 433.607 501.777 428.434 501.777 449.345 471.014 456.655 460.35 456.655 460.35"/><polygon class="cls-1" points="558.1 422.58 558.1 426.237 509.363 426.237 509.363 459.336 554.039 459.336 554.039 462.993 509.363 462.993 509.363 498.126 560.131 498.126 560.131 501.777 505.304 501.777 505.304 422.58 558.1 422.58 558.1 422.58"/><path class="cls-1" d="M616.5356,429.9393c19.1919,0,27.3184,8.734,29.6509,20.716l-4.2637.6046c-2.03-11.0643-9.6494-17.8671-25.3873-17.6616-20.6079.304-29.236,13.8072-29.236,36.9594,0,23.1459,8.6281,36.65,29.236,36.9588,15.7384.1982,23.3576-6.6024,25.3868-17.67l4.2641.6075c-2.3325,11.9814-10.46,20.7132-29.6509,20.7132-23.35,0-33.5059-15.7384-33.5059-40.61,0-24.88,10.1556-40.6184,33.5059-40.6184Z" transform="translate(-8.1711 -8.3758)"/><path class="cls-1" d="M660.7169,483.8571v-52.901h4.1606v53.6121c0,13.7093,6.1931,22.8425,27.0065,22.8425,20.819,0,27.0087-9.1331,27.0087-22.8425V430.9561h4.1641v52.901c0,16.6471-7.7172,27.31-31.1728,27.31s-31.167-10.6634-31.167-27.31Z" transform="translate(-8.1711 -8.3758)"/><polygon class="cls-1" points="758.047 501.777 753.986 501.777 753.986 426.237 727.077 426.237 727.077 422.58 784.956 422.58 784.956 426.237 758.047 426.237 758.047 501.777 758.047 501.777"/><polygon class="cls-1" points="804.758 501.777 800.698 501.777 800.698 422.58 804.758 422.58 804.758 501.777 804.758 501.777"/><polygon class="cls-1" points="853.495 498.126 862.129 474.664 881.622 422.58 886.09 422.58 855.63 502.792 851.366 502.792 820.904 422.58 825.374 422.58 844.867 474.664 853.495 498.126 853.495 498.126"/><polygon class="cls-1" points="953.01 422.58 953.01 426.237 904.273 426.237 904.273 459.336 948.949 459.336 948.949 462.993 904.273 462.993 904.273 498.126 955.039 498.126 955.039 501.777 900.213 501.777 900.213 422.58 953.01 422.58 953.01 422.58"/><polygon class="cls-1" points="1049.987 422.58 1049.987 426.237 1001.252 426.237 1001.252 459.336 1045.928 459.336 1045.928 462.993 1001.252 462.993 1001.252 498.126 1052.018 498.126 1052.018 501.777 997.191 501.777 997.191 422.58 1049.987 422.58 1049.987 422.58"/><path class="cls-1" d="M1105.1749,506.502c21.4247,0,30.46-8.5341,30.46-35.9443,0-27.4164-9.0358-35.9448-30.46-35.9448H1082.029V506.502Zm-1.1148,3.6511h-26.0915v-79.197H1104.06c23.0469,0,35.839,8.7323,35.839,39.6016,0,30.8636-12.7927,39.5954-35.839,39.5954Z" transform="translate(-8.1711 -8.3758)"/><path class="cls-1" d="M1155.6493,483.8571v-52.901h4.1585v53.6121c0,13.7093,6.1953,22.8425,27.0087,22.8425,20.82,0,27.0064-9.1331,27.0064-22.8425l.0012-53.6121h4.1657v52.901c0,16.6471-7.7178,27.31-31.1733,27.31s-31.1672-10.6634-31.1672-27.31Z" transform="translate(-8.1711 -8.3758)"/><path class="cls-1" d="M1267.2465,429.9393c19.1828,0,27.3093,8.734,29.6424,20.716l-4.2638.6046c-2.0289-11.0643-9.6493-17.8671-25.38-17.6616-20.6153.304-29.25,13.8072-29.25,36.9594.0006,23.1459,8.6344,36.65,29.25,36.9588,15.7315.1982,23.35-6.6024,25.3794-17.67l4.2641.6075c-2.3325,11.9814-10.46,20.7132-29.6435,20.7132-23.3565,0-33.5116-15.7384-33.5116-40.61,0-24.88,10.1539-40.6184,33.5127-40.6184Z" transform="translate(-8.1711 -8.3758)"/><path class="cls-1" d="M1328.6755,458.0628l-8.1271,21.5244h33.4085l-8.0218-21.5244-8.6337-23.45-8.6258,23.45Zm26.7036,25.1875H1319.231l-10.05,26.9028h-4.468l30.46-80.2138h4.2637l30.4623,80.2138H1365.43L1355.3791,483.25Z" transform="translate(-8.1711 -8.3758)"/><polygon class="cls-1" points="1391.069 501.777 1387.008 501.777 1387.008 426.237 1360.1 426.237 1360.1 422.58 1417.977 422.58 1417.977 426.237 1391.069 426.237 1391.069 501.777 1391.069 501.777"/><polygon class="cls-1" points="1437.781 501.777 1433.721 501.777 1433.721 422.58 1437.781 422.58 1437.781 501.777 1437.781 501.777"/><path class="cls-1" d="M1469.5052,470.5577c0,20.7075,7.3157,36.9588,29.25,36.9588,21.927,0,29.236-16.2513,29.236-36.9588,0-20.7194-7.31-36.9594-29.236-36.9594-21.9338,0-29.25,16.24-29.25,36.9594Zm-4.2637,0c0-23.5558,9.2407-40.6184,33.5132-40.6184,24.2647,0,33.5059,17.0626,33.5059,40.6184.0006,23.5535-9.2412,40.61-33.5059,40.61-24.2714,0-33.5138-17.0564-33.5132-40.61Z" transform="translate(-8.1711 -8.3758)"/><polygon class="cls-1" points="1557.193 446.543 1545.007 427.45 1545.311 455.072 1545.311 501.777 1541.356 501.777 1541.356 422.58 1546.331 422.58 1582.474 477.814 1594.658 496.9 1594.358 469.286 1594.358 422.58 1598.318 422.58 1598.318 501.777 1593.341 501.777 1557.193 446.543 1557.193 446.543"/></svg>