<svg width="520" height="505" viewBox="0 0 520 505" fill="none" xmlns="http://www.w3.org/2000/svg">
<g filter="url(#filter0_d_275_5054)">
<path d="M255 489.89C393.071 489.89 505 425.267 505 345.551C505 265.836 393.071 201.213 255 201.213C116.929 201.213 5 265.836 5 345.551C5 425.267 116.929 489.89 255 489.89Z" fill="#F0F0F0"/>
<path d="M398.574 395.634C382.181 386.169 382.181 370.826 398.574 361.362C414.968 351.897 441.548 351.897 457.941 361.362C474.335 370.826 474.335 386.169 457.941 395.634C441.548 405.099 414.968 405.099 398.574 395.634Z" fill="#E0E0E0"/>
<path d="M65.1418 396.95L22.0197 372.057C19.5898 370.657 19.5898 368.375 22.0197 366.975L272.847 222.159C274.21 221.468 275.717 221.108 277.245 221.108C278.774 221.108 280.28 221.468 281.644 222.159L324.776 247.052C327.206 248.453 327.206 250.734 324.776 252.135L73.9487 396.95C72.5836 397.641 71.0752 398.001 69.5452 398.001C68.0153 398.001 66.5068 397.641 65.1418 396.95Z" fill="#E0E0E0"/>
<path d="M220.144 352.576L257.218 331.142C261.038 328.935 262.948 326.049 262.948 323.152C262.948 320.255 262.948 317.995 262.948 317.995L224.494 296.307C223.42 295.612 222.526 294.673 221.884 293.567C221.242 292.46 220.871 291.218 220.802 289.94V244.219L156.076 281.632V327.333C156.151 328.609 156.524 329.85 157.165 330.955C157.806 332.061 158.698 333.001 159.769 333.699L192.492 352.544C200.111 356.99 212.504 356.99 220.144 352.576Z" fill="#BCD85E"/>
<g opacity="0.6">
<path d="M220.144 352.576L257.218 331.142C261.038 328.935 262.948 326.049 262.948 323.152C262.948 320.255 262.948 317.995 262.948 317.995L224.494 296.307C223.42 295.612 222.526 294.673 221.884 293.567C221.242 292.46 220.871 291.218 220.802 289.94V244.219L156.076 281.632V327.333C156.151 328.609 156.524 329.85 157.165 330.955C157.806 332.061 158.698 333.001 159.769 333.699L192.492 352.544C200.111 356.99 212.504 356.99 220.144 352.576Z" fill="black"/>
</g>
<path opacity="0.3" d="M171.6 335.429V340.565L159.737 333.721C158.666 333.023 157.775 332.083 157.136 330.977C156.496 329.871 156.126 328.63 156.055 327.354V281.633L168.385 274.513C168.639 277.643 168.915 280.879 169.18 284.062L160.511 289.049V324.755C160.58 326.032 160.951 327.275 161.592 328.382C162.234 329.488 163.129 330.427 164.204 331.121L171.6 335.429Z" fill="black"/>
<path d="M160.511 324.765C160.584 326.042 160.956 327.283 161.598 328.389C162.239 329.495 163.132 330.434 164.204 331.132L192.45 347.408C200.089 351.812 212.483 351.822 220.133 347.408L257.271 325.975C264.921 321.561 264.921 314.409 257.271 309.995L229.004 293.718C227.935 293.019 227.044 292.079 226.405 290.973C225.765 289.867 225.394 288.627 225.322 287.352V251.636L160.596 289.049L160.511 324.765Z" fill="#BCD85E"/>
<path opacity="0.3" d="M160.511 324.765C160.584 326.042 160.956 327.283 161.598 328.389C162.239 329.495 163.132 330.434 164.204 331.132L192.45 347.408C200.089 351.812 212.483 351.822 220.133 347.408L257.271 325.975C264.921 321.561 264.921 314.409 257.271 309.995L229.004 293.718C227.935 293.019 227.044 292.079 226.405 290.973C225.765 289.867 225.394 288.627 225.322 287.352V251.636L160.596 289.049L160.511 324.765Z" fill="black"/>
<path opacity="0.5" d="M236.484 298.079L228.961 293.739C227.892 293.04 227.002 292.1 226.362 290.994C225.723 289.889 225.352 288.648 225.279 287.373V251.636L160.554 289.049V324.765C160.627 326.042 160.999 327.283 161.64 328.389C162.282 329.495 163.175 330.434 164.246 331.132L171.674 335.376L236.484 298.079Z" fill="black"/>
<path d="M262.958 318.006V323.163C262.958 326.06 261.038 328.935 257.229 331.153L220.091 352.576C216.027 354.745 211.487 355.872 206.88 355.855V350.719C211.487 350.736 216.027 349.61 220.091 347.44L257.229 325.996C261.038 323.8 262.958 320.903 262.958 318.006Z" fill="#BCD85E"/>
<path opacity="0.5" d="M262.958 318.006V323.163C262.958 326.06 261.038 328.935 257.229 331.153L220.091 352.576C216.027 354.745 211.487 355.872 206.88 355.855V350.719C211.487 350.736 216.027 349.61 220.091 347.44L257.229 325.996C261.038 323.8 262.958 320.903 262.958 318.006Z" fill="black"/>
<path d="M56.5259 369.15C57.9252 369.826 59.4636 370.163 61.0173 370.136C62.571 370.108 64.0965 369.716 65.4708 368.991L315.885 224.419C317.227 223.543 318.345 222.364 319.147 220.975C319.949 219.587 320.412 218.03 320.5 216.429V13.8487C320.452 12.2914 320.037 10.7675 319.288 9.40118C318.54 8.03482 317.479 6.86469 316.192 5.98612C314.795 5.30953 313.257 4.97228 311.705 5.00178C310.152 5.03128 308.629 5.4267 307.258 6.15589L56.8442 150.77C55.5062 151.651 54.3954 152.836 53.6025 154.228C52.8096 155.621 52.357 157.181 52.2816 158.781V361.33C52.3289 362.874 52.7375 364.386 53.4746 365.744C54.2117 367.102 55.2567 368.269 56.5259 369.15Z" fill="#BCD85E"/>
<path d="M65.5027 368.98L315.916 224.409C317.261 223.535 318.38 222.355 319.182 220.967C319.984 219.578 320.447 218.02 320.532 216.419V13.8488C320.532 10.9096 318.463 9.71061 315.916 11.1855L65.5027 155.757C64.1594 156.632 63.0414 157.812 62.2394 159.2C61.4374 160.588 60.9741 162.146 60.887 163.747V366.317C60.887 369.256 62.9561 370.455 65.5027 368.98Z" fill="#BCD85E"/>
<path opacity="0.5" d="M65.5027 368.98L315.916 224.409C317.261 223.535 318.38 222.355 319.182 220.967C319.984 219.578 320.447 218.02 320.532 216.419V13.8488C320.532 10.9096 318.463 9.71061 315.916 11.1855L65.5027 155.757C64.1594 156.632 63.0414 157.812 62.2394 159.2C61.4374 160.588 60.9741 162.146 60.887 163.747V366.317C60.887 369.256 62.9561 370.455 65.5027 368.98Z" fill="black"/>
<path d="M64.8236 374.243C63.5105 374.816 62.0887 375.098 60.6562 375.069C59.2237 375.039 57.8146 374.7 56.526 374.073C55.254 373.19 54.2072 372.02 53.47 370.658C52.7328 369.296 52.3258 367.78 52.2817 366.232V347.791L60.9295 352.799V371.24C60.8764 373.925 62.5848 375.145 64.8236 374.243Z" fill="#BCD85E"/>
<path opacity="0.5" d="M64.8236 374.243C63.5105 374.816 62.0887 375.098 60.6562 375.069C59.2237 375.039 57.8146 374.7 56.526 374.073C55.254 373.19 54.2072 372.02 53.47 370.658C52.7328 369.296 52.3258 367.78 52.2817 366.232V347.791L60.9295 352.799V371.24C60.8764 373.925 62.5848 375.145 64.8236 374.243Z" fill="black"/>
<path d="M60.8764 352.799V371.24C60.8764 374.179 62.9986 375.368 65.4921 373.904L315.906 229.332C317.243 228.46 318.357 227.287 319.159 225.907C319.96 224.527 320.427 222.978 320.522 221.385V202.858L60.8764 352.799Z" fill="#BCD85E"/>
<path opacity="0.3" d="M60.887 352.756V371.24C60.887 374.179 63.0092 375.368 65.5027 373.904L315.916 229.332C317.252 228.459 318.364 227.286 319.163 225.906C319.963 224.525 320.428 222.977 320.522 221.385V202.858L60.887 352.756Z" fill="black"/>
<path d="M69.5347 329.614V166.622C69.5841 165.662 69.8598 164.727 70.3392 163.894C70.8187 163.06 71.4883 162.352 72.2935 161.826L309.062 25.0856C310.59 24.2049 311.831 24.9158 311.831 26.6772V189.754C311.78 190.715 311.502 191.65 311.021 192.484C310.54 193.317 309.869 194.025 309.062 194.55L72.3042 331.259C70.7762 332.14 69.5347 331.418 69.5347 329.614Z" fill="#BCD85E"/>
<path d="M69.5347 329.614V166.622C69.5841 165.662 69.8598 164.727 70.3392 163.894C70.8187 163.06 71.4883 162.352 72.2935 161.826L309.062 25.0856C310.59 24.2049 311.831 24.9158 311.831 26.6772V189.754C311.78 190.715 311.502 191.65 311.021 192.484C310.54 193.317 309.869 194.025 309.062 194.55L72.3042 331.259C70.7762 332.14 69.5347 331.418 69.5347 329.614Z" fill="#263238"/>
<path d="M190.699 283.702C189.439 284.521 188.39 285.627 187.637 286.929C186.885 288.23 186.451 289.691 186.37 291.193C186.37 293.952 188.312 295.076 190.699 293.697C191.961 292.876 193.011 291.769 193.763 290.465C194.515 289.161 194.949 287.698 195.028 286.195C195.028 283.436 193.086 282.322 190.699 283.702Z" fill="#BCD85E"/>
<path opacity="0.7" d="M62.2452 159.184C61.4229 160.566 60.9528 162.13 60.8764 163.736V352.799L52.2817 347.79V158.781C52.3374 157.169 52.805 155.598 53.6399 154.218L62.2452 159.184Z" fill="black"/>
<path opacity="0.3" d="M320.479 13.0846C320.15 10.7078 318.23 9.9014 315.906 11.1853L65.492 155.757C64.1343 156.606 63.0137 157.785 62.2345 159.184L53.5762 154.186C54.3605 152.788 55.4844 151.609 56.8443 150.759L307.258 6.19825C308.631 5.46895 310.156 5.07351 311.71 5.04402C313.264 5.01452 314.804 5.35179 316.203 6.02848C317.379 6.82997 318.37 7.8747 319.108 9.09204C319.845 10.3094 320.313 11.6709 320.479 13.0846Z" fill="black"/>
<path d="M333.987 38.02C333.615 37.8333 333.199 37.7515 332.784 37.7833C332.369 37.8151 331.97 37.9593 331.631 38.2004L95.3506 174.697C94.4183 175.314 93.6443 176.141 93.0913 177.113C92.5383 178.084 92.2218 179.172 92.1674 180.289V342.283C92.1343 342.83 92.2429 343.376 92.4827 343.869C92.7225 344.362 93.0854 344.784 93.5362 345.095C94.0561 345.382 96.8361 346.995 97.6638 347.44C97.9566 347.589 98.2838 347.658 98.6119 347.639C98.94 347.621 99.2572 347.516 99.5313 347.334L335.759 210.837C336.691 210.221 337.465 209.393 338.018 208.422C338.571 207.45 338.887 206.362 338.942 205.245V42.4129C338.989 42.0014 338.921 41.5848 338.745 41.21C338.569 40.8351 338.291 40.5168 337.944 40.2907C337.414 39.9406 334.581 38.3702 333.987 38.02Z" fill="#BCD85E"/>
<path d="M99.4781 176.989L335.769 40.5453C337.552 39.4843 338.952 40.3543 338.952 42.4128V205.245C338.898 206.362 338.581 207.45 338.028 208.422C337.475 209.393 336.701 210.221 335.769 210.837L99.4781 347.334C97.6955 348.395 96.2949 346.687 96.2949 344.628V182.581C96.3509 181.465 96.6681 180.377 97.221 179.406C97.7739 178.435 98.547 177.607 99.4781 176.989Z" fill="#FAFAFA"/>
<path d="M337.212 41.1607C337.838 41.1607 337.934 41.9459 337.934 42.4128V205.245C337.876 206.18 337.602 207.089 337.132 207.899C336.663 208.71 336.011 209.4 335.228 209.914L98.9688 346.411C98.8102 346.514 98.6271 346.572 98.4383 346.581C97.8441 346.581 97.3772 345.668 97.3772 344.628V182.581C97.4284 181.646 97.6944 180.736 98.1544 179.921C98.6145 179.105 99.2562 178.407 100.03 177.88L336.3 41.4578C336.573 41.2814 336.887 41.179 337.212 41.1607ZM337.212 40.0996C336.701 40.1214 336.204 40.2749 335.769 40.5453L99.4781 176.989C98.547 177.607 97.7739 178.435 97.221 179.406C96.6681 180.377 96.3509 181.465 96.2949 182.581V344.628C96.2949 346.262 97.2074 347.642 98.417 347.642C98.7917 347.635 99.1578 347.528 99.4781 347.334L335.758 210.837C336.691 210.221 337.465 209.393 338.018 208.421C338.571 207.45 338.887 206.362 338.942 205.245V42.4128C338.942 40.9485 338.22 40.0996 337.159 40.0996H337.212Z" fill="#E0E0E0"/>
<path d="M93.4725 345.095C93.8226 345.276 96.3374 346.708 97.4409 347.345C97.0447 347.016 96.7308 346.599 96.5245 346.127C96.3181 345.656 96.225 345.142 96.2525 344.628V193.16L92.1143 190.74V342.283C92.0801 342.829 92.187 343.375 92.4249 343.867C92.6628 344.36 93.0236 344.783 93.4725 345.095Z" fill="#F0F0F0"/>
<path d="M338.995 42.381C338.995 40.3437 337.541 39.5161 335.811 40.5453L99.4781 176.989C98.547 177.607 97.7739 178.435 97.221 179.406C96.6681 180.377 96.3509 181.465 96.2949 182.581V193.192L338.995 52.9917V42.381Z" fill="#BCD85E"/>
<g opacity="0.4">
<path d="M335.769 40.5453L99.4782 176.978C98.5299 177.576 97.7486 178.405 97.2075 179.387L93.1012 177C93.6414 176.052 94.4159 175.259 95.3506 174.697L331.631 38.2003C331.969 37.9575 332.367 37.8114 332.782 37.7778C333.197 37.7441 333.614 37.8242 333.986 38.0093C334.559 38.3701 337.244 39.8874 337.934 40.2588C337.577 40.1265 337.193 40.0834 336.816 40.1333C336.439 40.1833 336.079 40.3247 335.769 40.5453Z" fill="white"/>
</g>
<path opacity="0.15" d="M92.1143 190.751V180.236C92.1579 179.09 92.4979 177.975 93.1011 177L97.2181 179.376C96.6235 180.335 96.2906 181.432 96.2525 182.56V193.17L92.1143 190.751Z" fill="black"/>
<path d="M289.167 164.532L147.651 246.235C146.963 246.681 146.39 247.284 145.979 247.994C145.567 248.704 145.33 249.501 145.285 250.32V290.895C145.33 291.715 145.567 292.511 145.979 293.221C146.39 293.931 146.963 294.534 147.651 294.98L151.779 297.357C152.512 297.728 153.323 297.922 154.145 297.922C154.967 297.922 155.777 297.728 156.511 297.357L298.005 215.654C298.694 215.206 299.267 214.601 299.678 213.889C300.089 213.178 300.327 212.379 300.372 211.559V170.973C300.327 170.153 300.089 169.357 299.678 168.647C299.267 167.937 298.694 167.334 298.005 166.887L293.867 164.511C293.137 164.146 292.331 163.957 291.514 163.961C290.698 163.965 289.894 164.16 289.167 164.532Z" fill="#BCD85E"/>
<path opacity="0.5" d="M300.372 170.612C300.202 169.392 299.215 168.946 298.027 169.636L156.511 251.339C155.813 251.772 155.239 252.379 154.845 253.1L145.985 247.986C146.382 247.276 146.951 246.678 147.64 246.245L289.167 164.543C289.898 164.171 290.707 163.977 291.528 163.977C292.348 163.977 293.157 164.171 293.888 164.543L298.027 166.919C298.658 167.333 299.193 167.876 299.597 168.513C300.002 169.15 300.266 169.865 300.372 170.612Z" fill="white"/>
<path d="M156.108 297.559C155.415 297.832 154.672 297.956 153.928 297.923C153.184 297.89 152.455 297.701 151.789 297.368L147.651 294.991C146.964 294.543 146.392 293.94 145.981 293.231C145.57 292.521 145.331 291.725 145.285 290.906V250.331C145.317 249.502 145.558 248.696 145.985 247.986L154.845 253.1C154.415 253.801 154.173 254.602 154.145 255.424V296.01C154.145 297.357 154.994 297.983 156.108 297.559Z" fill="#263238"/>
<path d="M156.511 251.339L298.027 169.636C299.332 168.882 300.393 169.487 300.393 170.994V211.58C300.348 212.401 300.11 213.199 299.699 213.911C299.288 214.622 298.715 215.227 298.027 215.676L156.532 297.379C155.227 298.132 154.166 297.516 154.166 296.01V255.434C154.209 254.616 154.443 253.818 154.85 253.107C155.258 252.395 155.826 251.79 156.511 251.339Z" fill="#BCD85E"/>
<path d="M251.647 186.199L147.662 246.245C146.973 246.677 146.403 247.276 146.006 247.985L154.866 253.1C155.26 252.379 155.834 251.772 156.532 251.338L260.518 191.303L251.647 186.199Z" fill="#455A64"/>
<path d="M260.496 191.303L156.511 251.338C155.823 251.787 155.25 252.392 154.839 253.104C154.427 253.815 154.19 254.614 154.145 255.434V295.999C154.145 297.506 155.206 298.121 156.511 297.368L260.496 237.332V191.303Z" fill="#37474F"/>
<path d="M180.491 246.394L234.15 215.421C236.367 214.137 238.171 215.05 238.171 217.458C238.072 218.811 237.655 220.121 236.955 221.283C236.254 222.444 235.29 223.424 234.139 224.143L180.491 255.126C178.274 256.41 176.459 255.498 176.459 253.089C176.559 251.735 176.976 250.424 177.677 249.261C178.377 248.098 179.341 247.116 180.491 246.394Z" fill="#BCD85E"/>
<path d="M191.484 256.655C191.494 256.643 191.506 256.634 191.52 256.628C191.534 256.622 191.549 256.619 191.564 256.619C191.579 256.619 191.594 256.622 191.607 256.628C191.621 256.634 191.633 256.643 191.643 256.655C191.691 256.727 191.713 256.812 191.707 256.899V262.936C191.708 263.519 191.658 264.102 191.558 264.676C191.471 265.201 191.321 265.714 191.113 266.204C190.922 266.653 190.673 267.074 190.37 267.456C190.071 267.811 189.712 268.109 189.309 268.337C188.993 268.543 188.625 268.653 188.248 268.655C188.104 268.644 187.964 268.603 187.836 268.536C187.708 268.468 187.596 268.375 187.505 268.263C187.272 267.951 187.119 267.586 187.059 267.202C186.958 266.688 186.912 266.165 186.921 265.642V259.594C186.921 259.488 186.943 259.383 186.985 259.286C187.011 259.199 187.068 259.123 187.144 259.074L187.813 258.681C187.834 258.661 187.863 258.65 187.892 258.65C187.922 258.65 187.95 258.661 187.972 258.681C188.021 258.753 188.043 258.839 188.036 258.925V264.889C188.027 265.217 188.059 265.544 188.131 265.865C188.16 266.07 188.249 266.261 188.386 266.416C188.433 266.473 188.494 266.518 188.562 266.548C188.63 266.577 188.704 266.59 188.778 266.586C188.96 266.574 189.135 266.516 189.288 266.416C189.476 266.304 189.648 266.164 189.797 266.003C189.963 265.812 190.098 265.597 190.2 265.366C190.32 265.094 190.409 264.809 190.465 264.517C190.527 264.167 190.556 263.812 190.55 263.456V257.482C190.554 257.376 190.579 257.271 190.625 257.175C190.651 257.087 190.707 257.012 190.784 256.962L191.484 256.655Z" fill="#FAFAFA"/>
<path d="M195.643 262.363C195.649 262.285 195.63 262.207 195.59 262.14C195.565 262.113 195.534 262.092 195.499 262.079C195.463 262.066 195.426 262.061 195.389 262.066C195.258 262.048 195.126 262.048 194.996 262.066L194.381 262.183C194.182 262.232 193.974 262.232 193.776 262.183C193.62 262.133 193.486 262.032 193.394 261.896C193.29 261.724 193.222 261.533 193.192 261.334C193.089 260.766 193.089 260.183 193.192 259.615C193.272 259.289 193.386 258.973 193.532 258.671C193.677 258.369 193.855 258.084 194.062 257.822C194.263 257.571 194.508 257.359 194.784 257.196C195.007 257.06 195.257 256.973 195.516 256.941C195.704 256.922 195.894 256.962 196.057 257.058C196.213 257.153 196.335 257.294 196.407 257.461C196.493 257.659 196.54 257.871 196.545 258.087C196.556 258.194 196.534 258.301 196.482 258.395C196.456 258.482 196.399 258.557 196.322 258.607L195.686 258.978C195.657 258.995 195.624 259.004 195.59 259.004C195.557 259.004 195.524 258.995 195.495 258.978L195.357 258.872C195.302 258.829 195.236 258.803 195.166 258.798C195.029 258.813 194.899 258.86 194.784 258.936C194.617 259.036 194.47 259.166 194.349 259.318C194.22 259.485 194.153 259.691 194.158 259.901C194.143 259.982 194.143 260.065 194.158 260.145C194.178 260.175 194.205 260.2 194.236 260.219C194.267 260.237 194.302 260.248 194.338 260.252C194.454 260.271 194.573 260.271 194.688 260.252L195.283 260.145C195.781 260.05 196.121 260.145 196.344 260.421C196.578 260.814 196.685 261.27 196.651 261.726C196.649 262.042 196.606 262.356 196.524 262.66C196.44 262.991 196.319 263.311 196.163 263.615C196.007 263.929 195.811 264.222 195.58 264.485C195.36 264.743 195.098 264.962 194.805 265.133C194.572 265.282 194.306 265.373 194.031 265.398C193.831 265.405 193.634 265.349 193.468 265.239C193.304 265.127 193.179 264.968 193.107 264.782C193.022 264.581 192.978 264.364 192.98 264.146C192.97 264.036 192.992 263.925 193.044 263.827C193.07 263.74 193.126 263.665 193.203 263.615L193.84 263.244C193.924 263.244 193.988 263.191 194.031 263.244L194.168 263.392C194.197 263.424 194.231 263.45 194.269 263.468C194.307 263.486 194.349 263.497 194.391 263.498C194.541 263.499 194.686 263.451 194.805 263.361C194.997 263.252 195.169 263.112 195.314 262.947C195.387 262.859 195.447 262.763 195.495 262.66C195.57 262.576 195.621 262.474 195.643 262.363Z" fill="#FAFAFA"/>
<path d="M197.808 259.487C197.806 258.936 197.852 258.386 197.946 257.843C198.035 257.332 198.173 256.831 198.36 256.347C198.516 255.913 198.73 255.503 198.997 255.126C199.219 254.803 199.508 254.532 199.845 254.331C200.091 254.165 200.391 254.101 200.684 254.15C200.943 254.21 201.17 254.366 201.32 254.585C201.52 254.873 201.661 255.198 201.734 255.54C201.836 255.986 201.886 256.442 201.883 256.898V257.556C201.886 257.667 201.86 257.777 201.808 257.875C201.782 257.962 201.726 258.037 201.649 258.087L198.89 259.689C198.884 259.876 198.909 260.062 198.965 260.241C199.006 260.361 199.079 260.467 199.177 260.549C199.264 260.618 199.374 260.652 199.485 260.644C199.613 260.629 199.736 260.585 199.845 260.517C200.006 260.43 200.15 260.315 200.27 260.177C200.378 260.055 200.471 259.919 200.546 259.774C200.591 259.69 200.641 259.609 200.694 259.53C200.74 259.476 200.794 259.429 200.853 259.392L201.511 259.01C201.534 258.992 201.562 258.982 201.591 258.982C201.62 258.982 201.648 258.992 201.67 259.01C201.698 259.044 201.718 259.083 201.729 259.125C201.74 259.167 201.742 259.211 201.734 259.254C201.723 259.461 201.68 259.665 201.607 259.859C201.515 260.153 201.394 260.438 201.246 260.708C201.08 261.018 200.881 261.31 200.652 261.578C200.423 261.851 200.151 262.084 199.845 262.268C199.595 262.432 199.294 262.503 198.997 262.469C198.736 262.406 198.508 262.247 198.36 262.023C198.151 261.702 198.01 261.341 197.946 260.962C197.85 260.477 197.803 259.983 197.808 259.487ZM199.845 256.103C199.682 256.191 199.541 256.314 199.432 256.463C199.314 256.612 199.217 256.776 199.145 256.952C199.071 257.127 199.01 257.308 198.965 257.493C198.927 257.66 198.903 257.831 198.89 258.002L200.758 256.941C200.747 256.795 200.726 256.649 200.694 256.506C200.678 256.378 200.627 256.256 200.546 256.156C200.514 256.11 200.473 256.071 200.426 256.042C200.378 256.013 200.325 255.994 200.27 255.986C200.119 255.973 199.969 256.015 199.845 256.103Z" fill="#FAFAFA"/>
<path d="M205.214 253.142C204.893 253.326 204.64 253.609 204.493 253.949C204.328 254.397 204.252 254.872 204.27 255.349V259.18C204.272 259.289 204.25 259.398 204.206 259.498C204.18 259.586 204.124 259.661 204.047 259.71L203.421 260.071C203.411 260.082 203.399 260.092 203.385 260.098C203.372 260.104 203.357 260.107 203.342 260.107C203.327 260.107 203.312 260.104 203.298 260.098C203.284 260.092 203.272 260.082 203.262 260.071C203.215 259.999 203.192 259.913 203.198 259.827V252.962C203.199 252.853 203.221 252.745 203.262 252.644C203.292 252.558 203.347 252.484 203.421 252.431L204.047 252.071C204.069 252.051 204.097 252.039 204.127 252.039C204.156 252.039 204.185 252.051 204.206 252.071C204.256 252.138 204.278 252.221 204.27 252.304V252.644C204.397 252.359 204.553 252.089 204.737 251.837C204.905 251.605 205.122 251.413 205.374 251.275L205.756 251.052C205.775 251.033 205.802 251.022 205.83 251.022C205.858 251.022 205.884 251.033 205.904 251.052C205.955 251.123 205.981 251.209 205.978 251.296V252.262C205.977 252.372 205.951 252.48 205.904 252.58C205.877 252.664 205.825 252.738 205.756 252.792L205.214 253.142Z" fill="#FAFAFA"/>
<path d="M213.13 252.633C213.14 252.622 213.152 252.613 213.166 252.607C213.18 252.6 213.194 252.597 213.209 252.597C213.225 252.597 213.239 252.6 213.253 252.607C213.267 252.613 213.279 252.622 213.289 252.633C213.337 252.705 213.359 252.791 213.353 252.877V253.938C213.352 254.047 213.331 254.155 213.289 254.257C213.253 254.335 213.198 254.404 213.13 254.458L209.501 256.58C209.479 256.6 209.451 256.612 209.421 256.612C209.392 256.612 209.363 256.6 209.342 256.58C209.294 256.512 209.272 256.43 209.278 256.347V246.797C209.279 246.688 209.3 246.58 209.342 246.479C209.372 246.396 209.427 246.325 209.501 246.277L210.17 245.885C210.191 245.864 210.22 245.853 210.249 245.853C210.279 245.853 210.307 245.864 210.329 245.885C210.376 245.953 210.399 246.035 210.392 246.118V254.193L213.13 252.633Z" fill="#FAFAFA"/>
<path d="M216.387 244.781C216.626 244.616 216.915 244.537 217.204 244.558C217.453 244.578 217.685 244.692 217.852 244.877C218.05 245.104 218.194 245.372 218.276 245.662C218.39 246.037 218.454 246.426 218.467 246.818C218.467 246.903 218.467 247.02 218.467 247.158V247.975C218.467 248.102 218.467 248.219 218.467 248.315C218.446 248.776 218.382 249.234 218.276 249.683C218.178 250.121 218.036 250.548 217.852 250.957C217.684 251.337 217.466 251.694 217.204 252.018C216.981 252.311 216.703 252.559 216.387 252.75C216.142 252.909 215.852 252.987 215.56 252.973C215.315 252.951 215.087 252.838 214.923 252.654C214.72 252.435 214.574 252.169 214.499 251.88C214.385 251.504 214.321 251.115 214.308 250.723C214.308 250.638 214.308 250.532 214.308 250.394V249.577C214.308 249.439 214.308 249.323 214.308 249.238C214.32 248.773 214.381 248.311 214.488 247.858C214.591 247.417 214.737 246.987 214.923 246.574C215.092 246.196 215.306 245.84 215.56 245.513C215.785 245.217 216.066 244.968 216.387 244.781ZM217.385 247.519C217.384 247.284 217.345 247.051 217.268 246.829C217.229 246.694 217.147 246.575 217.035 246.489C216.944 246.429 216.835 246.402 216.727 246.415C216.606 246.438 216.49 246.485 216.387 246.553C216.263 246.621 216.148 246.707 216.048 246.808C215.926 246.934 215.823 247.077 215.74 247.232C215.634 247.425 215.555 247.632 215.507 247.848C215.437 248.119 215.394 248.396 215.379 248.675C215.379 248.76 215.379 248.856 215.379 248.972V249.726C215.379 249.842 215.379 249.938 215.379 250.002C215.389 250.236 215.432 250.469 215.507 250.691C215.546 250.827 215.627 250.946 215.74 251.031C215.784 251.062 215.834 251.084 215.887 251.095C215.94 251.106 215.995 251.106 216.048 251.095C216.168 251.074 216.283 251.031 216.387 250.967C216.51 250.896 216.624 250.811 216.727 250.713C216.845 250.583 216.949 250.441 217.035 250.288C217.137 250.093 217.215 249.886 217.268 249.673C217.337 249.402 217.377 249.124 217.385 248.845C217.391 248.746 217.391 248.647 217.385 248.548V247.805C217.391 247.71 217.391 247.614 217.385 247.519Z" fill="#FAFAFA"/>
<path d="M221.714 250.988C221.85 250.905 221.972 250.802 222.075 250.681C222.203 250.531 222.313 250.367 222.404 250.192C222.509 249.979 222.591 249.755 222.648 249.524C222.713 249.264 222.745 248.996 222.743 248.728V248.187C222.743 248.293 222.637 248.42 222.563 248.569C222.49 248.724 222.405 248.873 222.308 249.015C222.197 249.164 222.077 249.306 221.947 249.439C221.814 249.579 221.66 249.697 221.491 249.789C221.382 249.864 221.259 249.915 221.13 249.941C221 249.966 220.867 249.965 220.738 249.938C220.502 249.864 220.299 249.71 220.165 249.503C219.992 249.229 219.866 248.927 219.794 248.611C219.703 248.211 219.653 247.802 219.645 247.391C219.645 247.253 219.645 247.084 219.645 246.882C219.645 246.68 219.645 246.511 219.645 246.362C219.658 245.895 219.708 245.431 219.794 244.972C219.881 244.52 220.005 244.077 220.165 243.646C220.315 243.271 220.507 242.915 220.738 242.585C220.934 242.292 221.191 242.046 221.491 241.863C221.632 241.778 221.787 241.717 221.947 241.683C222.067 241.66 222.189 241.66 222.308 241.683C222.402 241.709 222.489 241.756 222.563 241.821C222.631 241.872 222.691 241.933 222.743 242.001V241.661C222.744 241.552 222.765 241.444 222.807 241.343C222.837 241.26 222.893 241.19 222.966 241.141L223.592 240.77C223.614 240.75 223.642 240.739 223.672 240.739C223.701 240.739 223.73 240.75 223.751 240.77C223.803 240.841 223.829 240.927 223.826 241.014V247.911C223.854 248.944 223.662 249.971 223.263 250.925C222.95 251.674 222.408 252.306 221.714 252.728C221.477 252.875 221.207 252.959 220.929 252.972C220.709 252.986 220.49 252.93 220.303 252.813C220.123 252.679 219.978 252.505 219.878 252.304C219.775 252.062 219.717 251.803 219.709 251.54C219.699 251.43 219.721 251.319 219.772 251.222C219.798 251.134 219.855 251.059 219.931 251.01L220.494 250.691C220.507 250.677 220.522 250.666 220.54 250.659C220.557 250.651 220.576 250.647 220.595 250.647C220.614 250.647 220.632 250.651 220.65 250.659C220.667 250.666 220.683 250.677 220.695 250.691C220.748 250.746 220.794 250.807 220.833 250.872C220.898 250.985 221.005 251.069 221.13 251.105C221.258 251.2 221.449 251.094 221.714 250.988ZM220.717 245.842C220.717 246.125 220.717 246.401 220.717 246.67C220.686 247.093 220.807 247.514 221.056 247.858C221.151 247.94 221.271 247.984 221.396 247.984C221.52 247.984 221.641 247.94 221.735 247.858C222.043 247.658 222.284 247.369 222.425 247.03C222.618 246.588 222.726 246.113 222.743 245.63C222.743 245.471 222.743 245.28 222.743 245.057C222.743 244.834 222.743 244.643 222.743 244.505C222.765 244.125 222.652 243.749 222.425 243.444C222.331 243.358 222.208 243.31 222.08 243.31C221.952 243.31 221.829 243.358 221.735 243.444C221.433 243.643 221.197 243.928 221.056 244.261C220.838 244.76 220.723 245.298 220.717 245.842Z" fill="#FAFAFA"/>
<path d="M226.298 236.42C226.319 236.402 226.345 236.393 226.372 236.393C226.399 236.393 226.425 236.402 226.446 236.42C226.502 236.488 226.529 236.576 226.521 236.664V237.82C226.521 237.931 226.496 238.04 226.446 238.139C226.417 238.218 226.365 238.288 226.298 238.34L225.587 238.754C225.577 238.765 225.565 238.774 225.551 238.781C225.537 238.787 225.522 238.79 225.507 238.79C225.492 238.79 225.477 238.787 225.464 238.781C225.45 238.774 225.438 238.765 225.428 238.754C225.4 238.722 225.379 238.685 225.366 238.645C225.354 238.605 225.349 238.563 225.353 238.521V237.364C225.353 237.254 225.378 237.145 225.428 237.046C225.457 236.963 225.513 236.892 225.587 236.844L226.298 236.42ZM226.478 246.383C226.479 246.489 226.457 246.594 226.415 246.691C226.381 246.774 226.326 246.847 226.255 246.903L225.619 247.264C225.61 247.275 225.598 247.284 225.586 247.29C225.573 247.296 225.559 247.299 225.544 247.299C225.53 247.299 225.516 247.296 225.503 247.29C225.49 247.284 225.479 247.275 225.47 247.264C225.415 247.195 225.388 247.108 225.396 247.02V240.155C225.395 240.044 225.421 239.935 225.47 239.836C225.5 239.754 225.551 239.681 225.619 239.624L226.255 239.263C226.277 239.243 226.305 239.232 226.335 239.232C226.365 239.232 226.393 239.243 226.415 239.263C226.462 239.332 226.484 239.414 226.478 239.497V246.383Z" fill="#FAFAFA"/>
<path d="M232.06 243.147C232.059 243.256 232.037 243.364 231.996 243.465C231.966 243.548 231.91 243.619 231.837 243.667L231.2 244.038C231.18 244.058 231.154 244.069 231.126 244.069C231.098 244.069 231.071 244.058 231.052 244.038C230.996 243.97 230.969 243.882 230.977 243.794V240.059C231.01 239.618 230.93 239.176 230.744 238.775C230.595 238.51 230.362 238.468 230.033 238.659C229.705 238.879 229.462 239.205 229.343 239.582C229.166 240.082 229.08 240.611 229.089 241.142V244.887C229.088 244.996 229.066 245.104 229.025 245.205C228.999 245.293 228.943 245.368 228.866 245.418L228.24 245.778C228.23 245.79 228.218 245.799 228.204 245.805C228.19 245.811 228.175 245.814 228.16 245.814C228.145 245.814 228.13 245.811 228.117 245.805C228.103 245.799 228.091 245.79 228.081 245.778C228.031 245.711 228.009 245.628 228.017 245.545V238.68C228.015 238.57 228.037 238.462 228.081 238.362C228.107 238.274 228.163 238.199 228.24 238.149L228.866 237.789C228.876 237.777 228.888 237.768 228.902 237.762C228.915 237.756 228.93 237.753 228.945 237.753C228.96 237.753 228.975 237.756 228.989 237.762C229.003 237.768 229.015 237.777 229.025 237.789C229.072 237.861 229.095 237.946 229.089 238.033V238.362C229.228 238.038 229.399 237.729 229.598 237.438C229.773 237.17 230.009 236.948 230.288 236.791C230.529 236.615 230.83 236.539 231.126 236.579C231.243 236.608 231.353 236.662 231.448 236.737C231.543 236.812 231.622 236.907 231.678 237.014C231.832 237.301 231.932 237.614 231.975 237.937C232.031 238.359 232.06 238.785 232.06 239.21V243.147Z" fill="#FAFAFA"/>
<path d="M285.58 212.259L275.277 218.201L276.879 203.749C275.638 203.091 274.853 201.489 274.853 199.187C274.853 195.08 277.357 190.316 280.434 188.576C283.511 186.836 286.005 188.682 286.005 192.82C285.941 195.255 285.246 197.631 283.989 199.717L285.58 212.259Z" fill="#455A64"/>
<path d="M285.591 212.259L276.519 207.028L275.277 218.212L285.591 212.259Z" fill="#37474F"/>
<path d="M280.413 188.544C278.169 190.06 276.496 192.282 275.659 194.857L283.967 199.654C285.225 197.568 285.92 195.191 285.983 192.757C286.005 188.65 283.511 186.772 280.413 188.544Z" fill="#37474F"/>
<path d="M230.33 140.424C226.797 138.387 221.926 138.674 216.536 141.782C205.777 148 197.055 163.099 197.055 175.525C197.055 181.764 199.262 186.135 202.806 188.151L209.671 192.141C213.194 194.178 218.064 193.881 223.465 190.772C234.224 184.565 242.946 169.455 242.946 157.03C242.946 150.823 240.76 146.419 237.238 144.435" fill="#BCD85E"/>
<path d="M223.454 145.783C212.695 152.001 203.973 167.11 203.973 179.525C203.973 191.94 212.695 196.99 223.454 190.772C234.214 184.554 242.946 169.455 242.936 157.03C242.925 144.605 234.203 139.575 223.454 145.783Z" fill="#BCD85E"/>
<path d="M234.203 173.35V174.771C231.625 179.372 227.928 183.248 223.454 186.04C219.263 188.449 215.475 188.714 212.695 187.175V184.247C212.837 181.2 213.707 178.232 215.232 175.59C216.757 172.948 218.892 170.71 221.459 169.063L224.293 167.429C226.797 165.986 229.237 165.795 231.147 166.909C233.057 168.023 234.203 170.368 234.203 173.35Z" fill="#BCD85E"/>
<path opacity="0.4" d="M230.33 140.424L237.227 144.435C233.704 142.387 228.834 142.674 223.433 145.783C216.388 149.857 210.212 157.741 206.795 166.187L199.888 162.187C203.315 153.698 209.437 145.857 216.525 141.782C221.937 138.684 226.807 138.387 230.33 140.424Z" fill="white"/>
<path opacity="0.2" d="M209.427 191.982L202.816 188.151C199.272 186.135 197.065 181.785 197.065 175.525L203.973 179.536C204.015 185.584 206.053 189.892 209.427 191.982Z" fill="black"/>
<path opacity="0.1" d="M199.909 162.187L206.817 166.187C205.047 170.416 204.096 174.942 204.015 179.525L197.108 175.514C197.193 170.935 198.143 166.413 199.909 162.187Z" fill="black"/>
<path d="M220.993 166.76C220.334 166.767 219.686 166.599 219.114 166.272C218.426 165.813 217.874 165.176 217.517 164.429C217.16 163.682 217.012 162.852 217.088 162.028C217.178 160.094 217.73 158.211 218.697 156.535C219.664 154.859 221.019 153.438 222.648 152.393C223.302 151.871 224.099 151.558 224.934 151.496C225.769 151.434 226.603 151.625 227.327 152.044C228.052 152.464 228.633 153.092 228.994 153.847C229.356 154.603 229.481 155.449 229.354 156.277C229.262 158.21 228.71 160.092 227.742 161.768C226.775 163.444 225.421 164.865 223.794 165.911C222.952 166.437 221.985 166.73 220.993 166.76Z" fill="white"/>
<path d="M231.147 166.898C229.237 165.784 226.797 165.975 224.293 167.418L221.459 169.052C218.891 170.7 216.755 172.94 215.23 175.584C213.705 178.227 212.836 181.198 212.695 184.247V187.186C215.475 188.724 219.263 188.459 223.454 186.051C227.928 183.259 231.625 179.383 234.203 174.782V173.36C234.203 170.368 233.099 168.023 231.147 166.898Z" fill="white"/>
<path d="M449.283 350.464C449.283 350.464 450.694 338.071 456.859 328.447C463.024 318.823 471.491 312.828 479.396 312.202C487.301 311.576 493.689 318.855 485.232 323.874C476.775 328.893 461.751 333.965 454.832 352.64L449.283 350.464Z" fill="#BCD85E"/>
<path opacity="0.1" d="M449.283 350.464C449.283 350.464 450.694 338.071 456.859 328.447C463.024 318.823 471.491 312.828 479.396 312.202C487.301 311.576 493.689 318.855 485.232 323.874C476.775 328.893 461.751 333.965 454.832 352.64L449.283 350.464Z" fill="black"/>
<path d="M451.607 347.239H451.522C451.418 347.196 451.335 347.114 451.291 347.011C451.247 346.908 451.246 346.791 451.288 346.687C459.628 326.155 475.502 317.571 482.739 315.916C482.793 315.903 482.849 315.901 482.904 315.911C482.959 315.92 483.012 315.94 483.059 315.969C483.106 315.999 483.147 316.037 483.18 316.083C483.212 316.128 483.235 316.18 483.248 316.234C483.26 316.288 483.262 316.345 483.253 316.4C483.244 316.455 483.224 316.507 483.194 316.555C483.165 316.602 483.126 316.643 483.081 316.675C483.035 316.708 482.984 316.731 482.929 316.743C475.842 318.377 460.276 326.802 452.073 347.016C452.033 347.1 451.964 347.169 451.879 347.209C451.794 347.25 451.698 347.26 451.607 347.239Z" fill="white"/>
<path d="M493.816 347.483C493.105 349.095 491.344 349.944 489.71 350.602C488.076 351.26 486.293 351.971 485.402 353.499C483.619 356.576 486.548 360.926 484.638 363.908C484.188 364.508 483.622 365.011 482.973 365.387C482.323 365.763 481.605 366.003 480.86 366.094C479.64 366.317 478.399 366.317 477.168 366.423C476.578 366.415 475.99 366.369 475.407 366.285C473.692 365.902 471.899 366.092 470.303 366.826C467.852 368.205 467.12 371.293 465.613 373.681C464.692 375.086 463.479 376.277 462.056 377.17C460.633 378.064 459.034 378.64 457.368 378.859C456.307 378.997 454.185 379.198 453.124 378.572C453.041 378.531 452.963 378.482 452.89 378.424C452.731 378.254 452.54 378.031 452.455 377.914C452.45 377.89 452.45 377.864 452.455 377.84C452.02 376.238 452.731 374.582 452.763 372.927V372.63C452.689 370.71 452.636 368.8 452.593 366.89C452.501 363.353 452.466 359.816 452.487 356.279C452.487 353.987 452.233 351.483 453.209 349.329C454.27 346.952 456.944 346.899 457.952 344.575C458.355 343.642 458.567 342.655 458.96 341.71C459.567 340.337 460.538 339.157 461.769 338.299C463.001 337.44 464.444 336.935 465.942 336.84C470.6 336.607 474.77 340.373 479.428 340.023C480.627 339.928 481.805 339.556 482.993 339.344C486.76 338.633 491.121 339.705 493.243 342.899C493.709 343.556 494.005 344.319 494.105 345.119C494.205 345.918 494.106 346.73 493.816 347.483Z" fill="#BCD85E"/>
<path d="M451.989 370.487C451.888 370.457 451.803 370.39 451.752 370.299C451.7 370.207 451.686 370.1 451.713 369.999C458.143 345.87 483.545 342.411 489.519 342.814C489.571 342.817 489.623 342.83 489.67 342.853C489.718 342.876 489.76 342.908 489.794 342.948C489.829 342.987 489.855 343.033 489.872 343.083C489.888 343.133 489.895 343.186 489.89 343.238C489.88 343.342 489.829 343.437 489.75 343.504C489.671 343.571 489.569 343.605 489.466 343.599C483.64 343.185 458.769 346.591 452.477 370.211C452.447 370.311 452.38 370.396 452.288 370.448C452.197 370.499 452.09 370.513 451.989 370.487Z" fill="white"/>
<path d="M480.245 358.263C480.165 358.252 480.09 358.215 480.033 358.157C477.684 356.122 474.916 354.63 471.924 353.788C468.932 352.946 465.792 352.775 462.727 353.287C462.623 353.296 462.52 353.267 462.438 353.204C462.355 353.141 462.299 353.05 462.281 352.947C462.266 352.843 462.291 352.738 462.353 352.652C462.414 352.567 462.507 352.509 462.61 352.491C465.807 351.959 469.082 352.141 472.201 353.023C475.319 353.905 478.204 355.467 480.648 357.595C480.686 357.631 480.716 357.675 480.736 357.723C480.756 357.772 480.767 357.824 480.767 357.876C480.767 357.928 480.756 357.98 480.736 358.029C480.716 358.077 480.686 358.121 480.648 358.157C480.6 358.214 480.536 358.255 480.464 358.274C480.391 358.293 480.315 358.29 480.245 358.263Z" fill="white"/>
<path d="M390.892 59.04L394.266 60.3345V52.907C394.266 47.0074 398.967 45.5962 404.07 48.546C409.185 51.4958 413.323 58.658 413.323 64.5576V65.6187C414.034 65.4014 414.786 65.3476 415.521 65.4616C416.255 65.5755 416.955 65.8541 417.567 66.2766C419.505 67.5402 421.118 69.2433 422.274 71.2474C423.43 73.2515 424.097 75.5001 424.22 77.8104V78.2985L428.931 81.0149C430.206 81.8469 431.267 82.9672 432.028 84.2852C432.789 85.6032 433.23 87.0818 433.314 88.6016C433.314 91.4028 431.351 92.5382 428.931 91.1376L390.892 69.1627C389.616 68.3326 388.555 67.2126 387.796 65.894C387.036 64.5754 386.599 63.0958 386.52 61.576C386.52 58.7854 388.462 57.65 390.892 59.04Z" fill="#E6E6E6"/>
<path d="M436.083 53.1616L442.206 56.695C442.172 56.4274 442.154 56.1582 442.152 55.8885V54.1166C442.152 50.9333 444.359 49.6813 447.097 51.2623C448.273 51.9825 449.28 52.949 450.047 54.0953C450.492 50.1269 453.612 48.652 457.389 50.8272C459.548 52.2318 461.346 54.1252 462.636 56.354C463.926 58.5827 464.674 61.0842 464.817 63.6556V66.3083C464.844 67.3682 464.63 68.4204 464.191 69.3854L469.284 72.314C470.078 72.8404 470.737 73.5457 471.209 74.3731C471.681 75.2005 471.952 76.127 472 77.0782C472 78.829 470.77 79.5399 469.252 78.6698L436.083 59.5705C435.281 59.0478 434.614 58.3427 434.136 57.5128C433.658 56.683 433.384 55.7519 433.335 54.7956C433.335 53.0024 434.566 52.2915 436.083 53.1616Z" fill="#E6E6E6"/>
<path d="M412.379 214.201C407.922 221.735 403.635 228.282 400.622 231.422C394.903 234.075 381.47 238.171 376.217 238.85C375.295 238.967 374.361 238.749 373.586 238.234C371.517 236.876 369.914 236.653 367.739 235.9C366.031 235.317 365.309 234.499 364.991 234.839C364.662 235.224 364.497 235.723 364.531 236.229C364.564 236.734 364.794 237.206 365.171 237.545C365.988 238.32 366.892 238.997 367.867 239.561C365.537 240.139 363.106 240.182 360.757 239.688C356.205 238.489 354.062 240.675 357.139 245.62C358.2 247.381 362.572 250.214 371.358 249.45C374.492 249.281 377.613 248.927 380.706 248.389C389.131 246.585 398.5 244.845 404.261 243.084C406.405 242.241 408.323 240.911 409.864 239.2C419.552 228.154 422.767 220.281 427.011 213.129L426.65 201.458C419.774 201.224 416.103 207.898 412.379 214.201Z" fill="#FFA8A7"/>
<path d="M427.828 201.224C425.834 200.944 423.802 201.214 421.95 202.005C420.099 202.796 418.499 204.078 417.323 205.713C412.612 211.75 404.272 226.244 404.272 226.244C404.272 226.244 406.999 233.513 414.363 234.733L426.194 218.753C426.194 218.753 431.796 207.654 427.828 201.224Z" fill="#455A64"/>
<path d="M453.411 364.142H445.696V377.893H453.411V364.142Z" fill="#FFA8A7"/>
<path d="M426.671 363.41L418.968 363.685L418.575 349.127L426.671 348.852V363.41Z" fill="#FFA8A7"/>
<path d="M454.493 245.1C454.493 252.761 453.368 314.483 453.368 314.483C453.538 316.69 455.49 320.765 455.098 329.243C454.514 340.756 453.739 371.017 453.739 371.017C452.415 371.695 450.954 372.062 449.467 372.092C447.98 372.121 446.505 371.812 445.155 371.187C445.155 371.187 438.895 328.744 437.516 317.38C436.306 307.417 433.208 274.438 433.208 274.438L429.038 313.422C429.922 317.605 430.243 321.887 429.993 326.155C429.632 331.46 427.149 358.921 427.149 358.921C425.816 359.707 424.322 360.18 422.78 360.303C421.237 360.426 419.687 360.197 418.246 359.632C418.246 359.632 413.854 318.25 413.769 313.39C413.663 307.873 416.337 245.036 416.337 245.036L454.493 245.1Z" fill="#37474F"/>
<path d="M445.696 373.925V372.779C444.954 373.108 443.245 379.92 440.179 382.827C437.749 385.14 434.438 387.804 433.59 390.382C432.741 392.961 438.205 394.542 440.487 394.128C443.118 393.64 447.702 391.698 448.848 389.883C449.994 388.069 450.535 385.437 451.469 384.122C452.402 382.806 454.556 381.342 455.055 379.814C455.211 378.384 455.062 376.938 454.62 375.569C454.259 374.148 453.877 372.588 453.41 372.726V373.596C452.323 374.489 450.955 374.97 449.548 374.954C448.423 375.05 445.686 374.816 445.696 373.925Z" fill="#263238"/>
<path d="M418.883 361.202C418.48 361.202 418.151 361.807 417.27 362.805C415.961 364.182 414.429 365.33 412.739 366.2C409.853 367.707 404.251 370.02 401.694 371.219C400.102 371.962 400.176 373.957 401.821 375.092C403.466 376.227 407.423 377.044 412.177 375.941C414.766 375.336 418.14 372.842 420.284 372.98C422.427 373.118 426.406 373.076 427.987 371.919C429.568 370.763 428.931 368.365 428.486 366.296C427.998 364.025 427.425 360.492 426.671 360.651V361.447C425.748 362.911 420.963 363.505 418.926 362.433L418.883 361.202Z" fill="#263238"/>
<path d="M433.208 274.438C429.195 273.125 425.526 270.932 422.47 268.019C422.47 268.019 424.592 272.061 430.703 275.828L429.388 310.642L433.208 274.438Z" fill="#263238"/>
<path d="M450.185 202.349C450.185 202.349 456.551 203.813 456.095 215.315L454.769 233.619V261.101C449.103 267.531 423.997 267.064 415.35 260.591C415.35 260.591 416.326 228.069 416.91 215.549C417.323 206.657 419.371 202.179 428.114 201.203L438.863 201.67L450.185 202.349Z" fill="#BCD85E"/>
<path d="M442.078 178.453C442.115 179.993 441.846 181.525 441.288 182.961C440.73 184.396 439.893 185.707 438.826 186.818C437.759 187.929 436.482 188.817 435.07 189.432C433.658 190.047 432.138 190.376 430.597 190.401C424.231 190.401 420.496 184.905 419.117 178.453C416.57 166.644 424.252 166.495 430.597 166.495C433.705 166.559 436.661 167.855 438.814 170.097C440.967 172.34 442.141 175.345 442.078 178.453Z" fill="#263238"/>
<path d="M447.935 183.281C447.935 183.281 446.174 191.897 445.463 193.319C445.016 194.175 444.256 194.825 443.341 195.134L443.468 189.075L447.935 183.281Z" fill="#263238"/>
<path d="M445.718 170.941C445.718 170.941 446.98 170.623 448.328 172.724C449.474 174.517 449.739 178.549 447.935 183.334L444.614 183.738L445.718 170.941Z" fill="#263238"/>
<path d="M446.938 172.692L451.013 172.766C451.04 172.503 451.014 172.237 450.934 171.984C450.854 171.732 450.722 171.498 450.548 171.299C450.374 171.1 450.16 170.939 449.92 170.826C449.681 170.713 449.42 170.651 449.156 170.644C448.599 170.652 448.064 170.866 447.655 171.243C447.246 171.621 446.99 172.137 446.938 172.692Z" fill="#263238"/>
<path d="M447.437 171.726L450.45 168.83C450.276 168.625 450.062 168.458 449.821 168.341C449.58 168.223 449.317 168.156 449.049 168.145C448.78 168.134 448.513 168.179 448.263 168.277C448.013 168.375 447.786 168.523 447.596 168.713C447.196 169.104 446.958 169.63 446.929 170.189C446.899 170.747 447.08 171.296 447.437 171.726Z" fill="#263238"/>
<path d="M443.617 183.684C444.285 184.098 445.23 182.772 446.057 181.87C446.885 180.968 449.453 180.14 450.79 183.069C452.127 185.998 449.845 188.894 447.935 189.849C444.508 191.547 443.426 189.075 443.426 189.075L443.139 202.72C438.322 210.148 427.393 209.914 431.33 202.359V198.211C429.71 198.48 428.066 198.565 426.427 198.465C423.753 198.041 422.077 195.844 421.26 192.831C419.965 187.992 419.467 184.088 420.57 174.57C421.78 164.15 433.43 164.033 439.67 168.203C445.909 172.373 443.617 183.684 443.617 183.684Z" fill="#FFA8A7"/>
<path d="M429.101 172.946C431.881 172.671 434.629 172.098 437.42 171.885C438.022 171.812 438.632 171.841 439.224 171.97C441.346 172.554 441.091 175.037 441.431 176.766C442.014 179.759 442.492 184.82 443.617 184.841C443.956 184.841 445.23 182.645 446.057 181.859C446.512 181.183 446.769 180.393 446.8 179.578C447.012 178.347 447.118 177.085 447.214 175.833C447.299 174.772 447.405 173.71 447.405 172.649C447.453 171.45 447.357 170.25 447.118 169.074C446.852 168.073 446.342 167.154 445.633 166.4L445.421 166.166C444.022 164.704 442.325 163.56 440.444 162.813C437.739 161.8 434.901 161.181 432.019 160.978C429.141 160.774 426.276 160.42 423.435 159.916C423.272 159.869 423.099 159.869 422.936 159.916C422.821 159.98 422.724 160.072 422.653 160.183C422.583 160.294 422.542 160.422 422.533 160.553C422.417 161.212 422.49 161.891 422.743 162.511C422.997 163.131 423.42 163.666 423.966 164.055C422.045 164.203 419.838 163.206 417.992 162.696C417.842 162.633 417.682 162.601 417.52 162.601C417.357 162.601 417.197 162.633 417.047 162.696C416.862 162.826 416.73 163.018 416.676 163.238C416.542 163.736 416.523 164.259 416.623 164.766C416.792 166.301 417.363 167.765 418.278 169.01C419.708 170.872 421.729 172.193 424.008 172.755C425.686 173.079 427.404 173.143 429.101 172.946Z" fill="#263238"/>
<path d="M431.34 198.211C431.34 198.211 437.303 196.959 439.383 195.802C440.622 195.124 441.628 194.089 442.269 192.831C441.956 194.095 441.397 195.285 440.625 196.333C439.107 198.37 431.34 199.855 431.34 199.855V198.211Z" fill="#F28F8F"/>
<path d="M432.773 182.125C432.761 182.452 432.88 182.771 433.102 183.012C433.325 183.252 433.634 183.395 433.961 183.409C434.221 183.43 434.481 183.372 434.708 183.243C434.934 183.114 435.117 182.92 435.231 182.685C435.345 182.451 435.386 182.187 435.348 181.929C435.309 181.671 435.194 181.431 435.017 181.239C434.84 181.048 434.609 180.914 434.355 180.856C434.1 180.798 433.835 180.819 433.592 180.914C433.349 181.01 433.141 181.177 432.995 181.393C432.849 181.609 432.771 181.864 432.773 182.125Z" fill="#263238"/>
<path d="M434.682 176.979L437.24 178.453C437.426 178.09 437.468 177.669 437.358 177.276C437.248 176.883 436.993 176.545 436.645 176.331C436.476 176.236 436.288 176.177 436.095 176.159C435.901 176.14 435.706 176.162 435.521 176.223C435.337 176.283 435.167 176.382 435.022 176.512C434.878 176.642 434.762 176.801 434.682 176.979Z" fill="#263238"/>
<path d="M431.871 190.73L429.144 191.791C429.199 191.978 429.291 192.152 429.416 192.302C429.541 192.451 429.695 192.574 429.869 192.662C430.043 192.749 430.234 192.8 430.428 192.811C430.623 192.822 430.818 192.793 431.001 192.725C431.372 192.565 431.668 192.27 431.83 191.9C431.991 191.529 432.006 191.111 431.871 190.73Z" fill="#F28F8F"/>
<path d="M421.801 178.071L424.135 176.204C424.031 176.041 423.893 175.902 423.731 175.796C423.569 175.689 423.387 175.618 423.195 175.587C423.004 175.556 422.809 175.566 422.621 175.616C422.434 175.665 422.26 175.754 422.109 175.875C421.797 176.14 421.593 176.51 421.536 176.915C421.48 177.32 421.574 177.731 421.801 178.071Z" fill="#263238"/>
<path d="M422.83 181.775C422.849 182.007 422.935 182.229 423.077 182.413C423.22 182.597 423.413 182.736 423.633 182.812C423.853 182.888 424.09 182.899 424.316 182.842C424.542 182.786 424.747 182.665 424.905 182.494C425.063 182.323 425.168 182.11 425.208 181.88C425.247 181.651 425.218 181.415 425.125 181.201C425.032 180.987 424.879 180.806 424.684 180.678C424.49 180.55 424.262 180.481 424.029 180.48C423.865 180.486 423.704 180.524 423.555 180.592C423.406 180.66 423.271 180.757 423.16 180.877C423.048 180.998 422.962 181.139 422.905 181.293C422.849 181.447 422.823 181.611 422.83 181.775Z" fill="#263238"/>
<path d="M429.229 180.777L429.091 188.321L424.804 187.345L429.229 180.777Z" fill="#F28F8F"/>
<path d="M327.429 243.964L334.082 240.123L336.713 236.929L330.071 240.77L327.429 243.964Z" fill="#BCD85E"/>
<path opacity="0.4" d="M327.429 243.964L334.082 240.123L336.713 236.929L330.071 240.77L327.429 243.964Z" fill="black"/>
<path d="M345.52 254.405L352.173 250.564L357.723 245.651L351.08 249.482L345.52 254.405Z" fill="#BCD85E"/>
<path opacity="0.4" d="M345.52 254.405L352.173 250.564L357.723 245.651L351.08 249.482L345.52 254.405Z" fill="black"/>
<path d="M402.033 267.658C403.606 269.767 404.558 272.273 404.781 274.895C403.215 272.782 402.264 270.278 402.033 267.658ZM417.493 267.86C415.254 252.633 407.073 237.576 397.333 231.942C392.653 229.236 388.324 229.141 384.854 231.168L378.594 234.775L378.244 234.987C377.965 235.141 377.696 235.311 377.437 235.497C376.923 235.851 376.44 236.248 375.994 236.685L375.782 236.887C375.591 237.078 375.39 237.301 375.209 237.513C375.029 237.725 374.753 238.054 374.541 238.34C374.09 238.933 373.683 239.557 373.32 240.208C373.129 240.537 372.949 240.887 372.779 241.269L318.102 209.713L311.46 213.543V217.787L312.022 218.106L312.553 218.413V219.262L311.492 219.888V222.35L319.524 239.327L327.461 243.922L330.103 240.738L337.106 244.93L341.127 251.816L345.563 254.373L351.112 249.45L357.924 253.387L360.216 262.841L371.665 269.462C372.231 271.868 372.94 274.238 373.787 276.56C373.862 276.794 373.957 277.038 374.053 277.303C377.851 287.277 383.889 295.819 390.701 299.755C391.517 300.24 392.373 300.655 393.258 300.997C393.726 301.183 394.204 301.342 394.691 301.474C395.115 301.588 395.539 301.683 395.964 301.761C397.304 302.005 398.677 302.005 400.017 301.761L400.569 301.623C400.833 301.57 401.092 301.495 401.343 301.4L401.938 301.167C402.148 301.091 402.351 300.995 402.542 300.88C402.739 300.795 402.93 300.7 403.115 300.594L403.391 300.424C403.441 300.408 403.488 300.382 403.529 300.35C405.047 299.48 408.782 297.315 409.8 296.742C414.851 293.813 418.119 286.407 418.119 275.934C418.111 273.231 417.901 270.532 417.493 267.86Z" fill="#BCD85E"/>
<path d="M400.091 280.508C397.46 278.99 395.338 274.491 395.338 270.459C395.338 266.427 397.46 264.379 400.091 265.886C402.723 267.393 404.834 271.902 404.834 275.945C404.834 279.988 402.712 282.025 400.091 280.508ZM410.84 271.69C408.612 256.474 400.431 241.407 390.68 235.783C386.16 233.173 381.979 232.982 378.583 234.775L378.233 234.988C377.955 235.141 377.685 235.311 377.427 235.497C376.913 235.851 376.43 236.248 375.984 236.685L375.772 236.887C375.581 237.078 375.379 237.301 375.199 237.513C375.018 237.725 374.742 238.054 374.53 238.341C374.08 238.933 373.672 239.557 373.31 240.208C373.119 240.537 372.939 240.887 372.769 241.269C371.78 243.32 371.066 245.493 370.647 247.731L311.449 213.543V217.788L312.012 218.106L312.542 218.414V219.262L311.481 219.888V222.35L319.513 239.327L327.45 243.922L330.092 240.739L337.095 244.93L341.117 251.816L345.552 254.373L351.102 249.45L357.914 253.387L360.206 262.841L371.665 269.462C372.231 271.868 372.94 274.239 373.787 276.56C373.862 276.794 373.957 277.038 374.053 277.303C377.851 287.277 383.889 295.819 390.701 299.756C391.517 300.24 392.373 300.655 393.258 300.997C393.726 301.183 394.204 301.343 394.691 301.475C395.115 301.588 395.539 301.683 395.964 301.761C397.304 302.005 398.677 302.005 400.017 301.761L400.569 301.623C400.833 301.57 401.092 301.495 401.344 301.4L401.938 301.167C402.148 301.091 402.351 300.995 402.543 300.88C402.739 300.796 402.93 300.7 403.116 300.594L403.391 300.424C403.441 300.408 403.488 300.383 403.529 300.35C408.368 297.294 411.477 289.994 411.477 279.776C411.459 277.069 411.246 274.367 410.84 271.69Z" fill="#BCD85E"/>
<path opacity="0.4" d="M404.834 275.935C404.834 279.977 402.712 282.025 400.091 280.508C397.471 278.99 395.338 274.502 395.338 270.459C395.338 266.417 397.46 264.369 400.091 265.886C400.849 266.347 401.509 266.953 402.033 267.669C402.261 270.289 403.213 272.794 404.781 274.905C404.82 275.247 404.838 275.591 404.834 275.935Z" fill="black"/>
<path opacity="0.4" d="M418.098 275.924C418.098 286.397 414.83 293.803 409.779 296.732C408.718 297.305 405.025 299.469 403.508 300.339C408.347 297.283 411.456 289.983 411.456 279.765C411.444 277.062 411.239 274.364 410.84 271.69C408.612 256.474 400.431 241.407 390.68 235.783C386.16 233.173 381.979 232.982 378.583 234.775L384.844 231.168C388.314 229.141 392.643 229.237 397.322 231.942C407.073 237.577 415.254 252.633 417.482 267.86C417.887 270.529 418.092 273.224 418.098 275.924Z" fill="white"/>
<path d="M411.456 279.744C411.456 289.962 408.347 297.262 403.508 300.318C405.025 299.448 408.76 297.283 409.779 296.71C414.83 293.782 418.098 286.375 418.098 275.903C418.098 275.521 418.098 275.128 418.098 274.735L411.456 278.576C411.445 278.99 411.456 279.372 411.456 279.744Z" fill="#BCD85E"/>
<path opacity="0.1" d="M411.456 279.744C411.456 289.962 408.347 297.262 403.508 300.318C405.025 299.448 408.76 297.283 409.779 296.71C414.83 293.782 418.098 286.375 418.098 275.903C418.098 275.521 418.098 275.128 418.098 274.735L411.456 278.576C411.445 278.99 411.456 279.372 411.456 279.744Z" fill="black"/>
<path opacity="0.15" d="M370.901 252.071V254.225L311.46 219.91L312.553 219.273V218.382L370.901 252.071Z" fill="black"/>
<path opacity="0.15" d="M370.901 252.962V254.225L311.46 219.91L312.553 219.273V219.262L370.901 252.962Z" fill="black"/>
<path opacity="0.15" d="M396.749 296.721C394.496 296.662 392.299 296.007 390.383 294.821C380.695 289.23 372.811 272.592 372.811 257.737C372.811 249.068 375.432 242.595 380.005 239.953C383.188 238.107 386.955 238.34 390.913 240.622C400.59 246.214 408.474 262.904 408.474 277.759C408.474 286.418 405.853 292.901 401.28 295.532C399.9 296.32 398.338 296.73 396.749 296.721ZM384.6 239.794C383.186 239.786 381.795 240.152 380.568 240.855C376.398 243.264 373.904 249.577 373.904 257.726C373.904 272.242 381.544 288.497 390.945 293.888C394.542 296.01 397.948 296.201 400.781 294.567C404.951 292.158 407.445 285.855 407.445 277.706C407.445 263.18 399.805 246.935 390.414 241.534C388.659 240.467 386.654 239.881 384.6 239.837V239.794Z" fill="black"/>
<path opacity="0.4" d="M372.726 241.248C371.737 243.299 371.023 245.472 370.604 247.71L311.407 213.522L318.049 209.691L372.726 241.248Z" fill="white"/>
<path d="M449.665 244.569C452.763 238.701 456.307 225.523 458.069 218.87C460.573 209.426 456.519 203.484 451.914 203.24C449.039 203.686 439.563 238.139 439.563 238.139C438.502 238.977 424.104 246.288 419.477 248.124C418.65 248.437 417.737 248.437 416.909 248.124C414.692 247.317 413.174 247.466 410.999 247.254C409.291 247.084 408.431 246.479 408.209 246.84C408.006 247.288 407.98 247.795 408.136 248.261C408.291 248.727 408.616 249.118 409.047 249.355C409.984 249.9 410.981 250.335 412.018 250.649C410.158 251.213 408.22 251.475 406.277 251.424C401.821 251.328 400.219 253.259 403.678 257.79C405.8 260.613 409.312 261.504 417.154 258.798C419.403 258.013 422.459 256.496 425.313 255.466C431.192 253.344 432.741 253.09 437.218 251.572C443.744 249.365 448.285 247.179 449.665 244.569Z" fill="#FFA8A7"/>
<path d="M450.185 202.349C452.891 202.72 455.49 203.325 457.092 205.532C458.695 207.739 459.979 210.837 458.408 219.273C457.206 225.206 455.596 231.048 453.591 236.76C453.591 236.76 447.288 239.455 440.593 232.621L445.198 214.817C445.198 214.817 445.941 203.24 450.185 202.349Z" fill="#455A64"/>
</g>
<defs>
<filter id="filter0_d_275_5054" x="0" y="0" width="520" height="504.89" filterUnits="userSpaceOnUse" color-interpolation-filters="sRGB">
<feFlood flood-opacity="0" result="BackgroundImageFix"/>
<feColorMatrix in="SourceAlpha" type="matrix" values="0 0 0 0 0 0 0 0 0 0 0 0 0 0 0 0 0 0 127 0" result="hardAlpha"/>
<feOffset dx="5" dy="5"/>
<feGaussianBlur stdDeviation="5"/>
<feComposite in2="hardAlpha" operator="out"/>
<feColorMatrix type="matrix" values="0 0 0 0 0 0 0 0 0 0 0 0 0 0 0 0 0 0 0.25 0"/>
<feBlend mode="normal" in2="BackgroundImageFix" result="effect1_dropShadow_275_5054"/>
<feBlend mode="normal" in="SourceGraphic" in2="effect1_dropShadow_275_5054" result="shape"/>
</filter>
</defs>
</svg>
