<?xml version="1.0" encoding="utf-8"?>
<!-- Generator: Adobe Illustrator 21.0.2, SVG Export Plug-In . SVG Version: 6.00 Build 0)  -->
<svg version="1.1" id="Layer_1" xmlns="http://www.w3.org/2000/svg" xmlns:xlink="http://www.w3.org/1999/xlink" x="0px" y="0px"
	 viewBox="0 0 83 65" style="enable-background:new 0 0 83 65;" xml:space="preserve">
<style type="text/css">
	.st0{fill:#0081CC;}
</style>
<g>
	<path class="st0" d="M70.9,52.8h-1V21.3c0-2.8-2.3-5.1-5.1-5.1v-1c0-6.2-5-11.1-11.2-11.2H43.5c-6.2,0-11.1,5-11.2,11.2v1H18.2
		c-2.8,0-5.1,2.3-5.1,5.1v31.4h-1c-0.6,0-1,0.5-1,1v4.1c0,1.7,1.4,3,3,3h54.7c1.7,0,3-1.4,3-3v-4.1C71.9,53.2,71.5,52.8,70.9,52.8z
		 M34.4,15.3c0-5,4.1-9.1,9.1-9.1h10.1c5,0,9.1,4.1,9.1,9.1v2c0,5-4.1,9.1-9.1,9.1c-0.3,0-0.5,0.1-0.7,0.3l-5.4,5.4v-4.6
		c0-0.6-0.5-1-1-1h-3c-5,0-9.1-4.1-9.1-9.1V15.3z M15.1,21.3c0-1.7,1.4-3,3-3h14.2C33,24,37.8,28.4,43.5,28.4h2v6.1
		c0,0.4,0.2,0.8,0.6,0.9c0.4,0.2,0.8,0.1,1.1-0.2l6.8-6.8c5.6-0.2,10.2-4.6,10.7-10.1h0c1.7,0,3,1.4,3,3v31.4H15.1V21.3z M46.6,55.8
		H36.4v-1h10.1V55.8z M68.9,58.9H14.1c-0.6,0-1-0.5-1-1h9.1v-2h-9.1v-1h21.3v1c0,1.1,0.9,2,2,2h10.1c1.1,0,2-0.9,2-2v-1h21.3v1h-9.1
		v2h9.1C69.9,58.4,69.4,58.9,68.9,58.9z"/>
	<path class="st0" d="M39.5,11.2h18.2v2H39.5V11.2z"/>
	<path class="st0" d="M39.5,15.3h18.2v2H39.5V15.3z"/>
	<path class="st0" d="M39.5,19.3h18.2v2H39.5V19.3z"/>
	<path class="st0" d="M36.4,45.7c0.6,0,1-0.5,1-1V29.5c0-0.6-0.5-1-1-1H20.2c-0.6,0-1,0.5-1,1v10.1c0,0.6,0.5,1,1,1h10.7l4.8,4.8
		C35.9,45.6,36.2,45.7,36.4,45.7z M35.4,42.2l-3.3-3.3c-0.2-0.2-0.4-0.3-0.7-0.3H21.2v-8.1h14.2V42.2z"/>
	<path class="st0" d="M23.3,33.5h2v2h-2V33.5z"/>
	<path class="st0" d="M27.3,33.5h2v2h-2V33.5z"/>
	<path class="st0" d="M31.4,33.5h2v2h-2V33.5z"/>
	<path class="st0" d="M42.5,38.6h4.1v2h-4.1V38.6z"/>
	<path class="st0" d="M48.6,38.6h10.1v2H48.6V38.6z"/>
	<path class="st0" d="M42.5,42.6h16.2v2H42.5V42.6z"/>
	<path class="st0" d="M42.5,46.7h16.2v2H42.5V46.7z"/>
</g>
<g>
</g>
<g>
</g>
<g>
</g>
<g>
</g>
<g>
</g>
<g>
</g>
<g>
</g>
<g>
</g>
<g>
</g>
<g>
</g>
<g>
</g>
<g>
</g>
<g>
</g>
<g>
</g>
<g>
</g>
</svg>
