<?xml version="1.0" encoding="utf-8"?>
<!-- Generator: Adobe Illustrator 21.0.2, SVG Export Plug-In . SVG Version: 6.00 Build 0)  -->
<svg version="1.1" id="Layer_1" xmlns="http://www.w3.org/2000/svg" xmlns:xlink="http://www.w3.org/1999/xlink" x="0px" y="0px"
	 viewBox="0 0 83 65" style="enable-background:new 0 0 83 65;" xml:space="preserve">
<style type="text/css">
	.st0{fill:none;stroke:#0081CC;stroke-width:3;stroke-miterlimit:10;}
</style>
<g>
	<path class="st0" d="M56,42.7H27.1V9.6H56V42.7z M45.9,52.1c0,2-1.7,3.7-3.7,3.7c-2,0-3.7-1.7-3.7-3.7c0-2,1.7-3.7,3.7-3.7
		C44.3,48.4,45.9,50.1,45.9,52.1z M60.9,55.5c0,2.8-2.3,5.1-5.1,5.1H27.1c-2.8,0-5.1-2.3-5.1-5.1V9.5c0-2.8,2.3-5.1,5.1-5.1h28.7
		c2.8,0,5.1,2.3,5.1,5.1V55.5z"/>
</g>
<g>
</g>
<g>
</g>
<g>
</g>
<g>
</g>
<g>
</g>
<g>
</g>
<g>
</g>
<g>
</g>
<g>
</g>
<g>
</g>
<g>
</g>
<g>
</g>
<g>
</g>
<g>
</g>
<g>
</g>
</svg>
