<?xml version="1.0" encoding="utf-8"?>
<!-- Generator: Adobe Illustrator 21.0.2, SVG Export Plug-In . SVG Version: 6.00 Build 0)  -->
<svg version="1.1" id="Layer_1" xmlns="http://www.w3.org/2000/svg" xmlns:xlink="http://www.w3.org/1999/xlink" x="0px" y="0px"
	 viewBox="0 0 83 65" style="enable-background:new 0 0 83 65;" xml:space="preserve">
<style type="text/css">
	.st0{fill:#0081CC;stroke:#0081CC;stroke-miterlimit:10;}
</style>
<g>
	<path class="st0" d="M74.2,28.4c0-2.4-0.8-4.8-2.2-6.7c-1.3-1.7-3-3-4.9-3.8C66.9,13,62.8,9,57.9,9c-1.1,0-2.2,0.2-3.2,0.6
		C53,7.1,50.8,5,48.2,3.5c-2.9-1.7-6.3-2.6-9.7-2.6c-3.7,0-7.3,1-10.4,3c-2.9,1.8-5.2,4.4-6.8,7.3c-3.3,0.4-6.4,2-8.7,4.5
		c-2.4,2.6-3.8,6.1-3.8,9.7c0,5.3,2.9,9.9,7.1,12.3c0,1,0.1,2.6,0.1,3.3c0.1,0.9,0.8,1.6,1.6,1.8l2.8,0.5c0.5,2.5,1.5,4.8,2.9,6.9
		l-1.7,2.3c-0.5,0.7-0.5,1.7,0.1,2.4c0.5,0.6,1.1,1.2,1.6,1.8c0.5,0.5,1.1,1.1,1.8,1.6c0.7,0.6,1.7,0.6,2.4,0.1l2.3-1.7
		c2.1,1.4,4.4,2.3,6.9,2.9l0.5,2.8c0.1,0.9,0.9,1.6,1.8,1.6c0.8,0.1,1.6,0.1,2.4,0.1s1.6,0,2.4-0.1c0.9-0.1,1.6-0.8,1.8-1.6l0.5-2.8
		c2.5-0.5,4.8-1.5,6.9-2.9l2.3,1.7c0.7,0.5,1.7,0.5,2.4-0.1c0.6-0.5,1.2-1.1,1.8-1.6s1.1-1.1,1.6-1.8c0.6-0.7,0.6-1.7,0.1-2.4
		l-1.7-2.3c1.4-2.1,2.3-4.4,2.9-6.9l2.8-0.5c0.9-0.1,1.6-0.9,1.6-1.8c0.1-0.7,0.1-1.5,0.1-2.2C71.2,37.2,74.2,33.2,74.2,28.4z
		 M63,37.7H28.2c-0.5,0-1,0.4-1,1c0,0.5,0.4,1,1,1h1.1c0.5,6.3,5.8,11.3,12.2,11.3s11.7-5,12.2-11.3H63c0.7,0,1.4-0.1,2.1-0.2
		c0,0.5,0,1-0.1,1.4c0,0,0,0-0.1,0l-3.5,0.6c-0.4,0.1-0.7,0.4-0.8,0.8c-0.5,2.7-1.5,5.2-3.1,7.4c-0.2,0.3-0.2,0.8,0,1.1l2.1,2.9
		c0,0,0,0.1,0,0.1c-0.5,0.6-1,1.1-1.5,1.6c-0.5,0.5-1.1,1-1.6,1.5c0,0,0,0-0.1,0l-2.9-2.1c-0.3-0.2-0.8-0.2-1.1,0
		c-2.2,1.5-4.7,2.6-7.4,3.1c-0.4,0.1-0.7,0.4-0.8,0.8l-0.6,3.5c0,0,0,0.1,0,0.1c-0.8,0.1-1.5,0.1-2.2,0.1s-1.5,0-2.2-0.1
		c0,0,0,0,0-0.1l-0.6-3.5c-0.1-0.4-0.4-0.7-0.8-0.8c-2.7-0.5-5.2-1.5-7.4-3.1c-0.3-0.2-0.8-0.2-1.1,0l-2.9,2.1c0,0-0.1,0-0.1,0
		c-0.6-0.5-1.1-1-1.6-1.5s-1-1.1-1.5-1.6c0,0,0,0,0-0.1l2.1-2.9c0.2-0.3,0.2-0.8,0-1.1c-1.5-2.2-2.6-4.7-3.1-7.4
		c-0.1-0.4-0.4-0.7-0.8-0.8l-3.5-0.6c0,0-0.1,0-0.1,0c-0.1-0.6-0.1-1.5-0.1-2.2c1.6,0.6,3.4,1,5.2,1h1c0.5,0,1-0.4,1-1
		c0-0.5-0.4-1-1-1h-1c-6.8,0-12.3-5.5-12.3-12.3c0-3.1,1.2-6.1,3.3-8.4c2.1-2.3,4.9-3.7,8-3.9c0.3,0,0.6-0.2,0.8-0.5
		c1.4-2.9,3.6-5.3,6.3-7c2.8-1.8,6-2.7,9.3-2.7c3.1,0,6.1,0.8,8.8,2.4c2.6,1.5,4.7,3.6,6.3,6.2c0.3,0.4,0.8,0.6,1.2,0.4
		c1-0.5,2.1-0.8,3.2-0.8c4,0,7.2,3.2,7.2,7.2c0,0.1,0,0.2,0,0.3c0,0,0,0.1,0,0.1c0,0.4,0.3,0.8,0.7,1c3.9,1.2,6.5,4.8,6.5,8.9
		C72.3,33.5,68.1,37.7,63,37.7z M51.8,39.6c-0.5,5.2-4.9,9.3-10.3,9.3c-5.4,0-9.8-4.1-10.3-9.3H51.8z"/>
	<path class="st0" d="M26.4,41.8c-0.5,0.1-0.8,0.7-0.7,1.2c1.9,7,8.4,12,15.7,12S55.3,50,57.2,43c0.1-0.5-0.2-1-0.7-1.2
		c-0.5-0.1-1,0.2-1.2,0.7C53.7,48.7,48,53,41.5,53s-12.2-4.3-13.9-10.6C27.5,42,27,41.7,26.4,41.8z"/>
	<path class="st0" d="M37.3,30.1L35.5,25c-0.1-0.4-0.5-0.6-0.9-0.6h-7.2l2.5-7c0.1-0.2,0.3-0.3,0.5-0.3s0.4,0.1,0.5,0.3l1.5,4.2
		c0.2,0.5,0.7,0.8,1.2,0.6c0.5-0.2,0.8-0.7,0.6-1.2l-1.5-4.2c-0.3-1-1.3-1.6-2.3-1.6c-1,0-1.9,0.6-2.3,1.6l-4.8,13.4
		c-0.2,0.5,0.1,1,0.6,1.2c0.1,0,0.2,0.1,0.3,0.1c0.4,0,0.8-0.2,0.9-0.6l1.6-4.5h7.3l1.6,4.5c0.1,0.4,0.5,0.6,0.9,0.6
		c0.1,0,0.2,0,0.3-0.1C37.2,31.2,37.5,30.6,37.3,30.1z"/>
	<path class="st0" d="M44.8,15.2h-3.6c-1.1,0-2,0.9-2,2v13.3c0,0.5,0.4,1,1,1c0.5,0,1-0.4,1-1V17.1c0,0,0-0.1,0.1-0.1h3.6
		c2,0,3.6,1.6,3.6,3.6c0,2-1.6,3.6-3.6,3.6h-0.5c-0.5,0-1,0.4-1,1c0,0.5,0.4,1,1,1h0.5c3.1,0,5.6-2.5,5.6-5.6
		C50.3,17.7,47.8,15.2,44.8,15.2z"/>
	<path class="st0" d="M53.8,15.2c-0.5,0-1,0.4-1,1v14.3c0,0.5,0.4,1,1,1c0.5,0,1-0.4,1-1V16.1C54.7,15.6,54.3,15.2,53.8,15.2z"/>
</g>
<g>
</g>
<g>
</g>
<g>
</g>
<g>
</g>
<g>
</g>
<g>
</g>
<g>
</g>
<g>
</g>
<g>
</g>
<g>
</g>
<g>
</g>
<g>
</g>
<g>
</g>
<g>
</g>
<g>
</g>
</svg>
