<?xml version="1.0" encoding="utf-8"?>
<!-- Generator: Adobe Illustrator 21.0.2, SVG Export Plug-In . SVG Version: 6.00 Build 0)  -->
<svg version="1.1" id="Layer_1" xmlns="http://www.w3.org/2000/svg" xmlns:xlink="http://www.w3.org/1999/xlink" x="0px" y="0px"
	 viewBox="0 0 83 65" style="enable-background:new 0 0 83 65;" xml:space="preserve">
<style type="text/css">
	.st0{fill:#0081CC;}
</style>
<g>
	<g>
		<g>
			<path class="st0" d="M12.2,18.9C12.2,18.9,12.1,18.9,12.2,18.9C12.1,18.9,12.2,18.9,12.2,18.9C12.2,18.9,12.2,18.9,12.2,18.9z"/>
			<path class="st0" d="M31.2,41.7C31.2,41.7,31.2,41.7,31.2,41.7C31.2,41.7,31.2,41.7,31.2,41.7C31.2,41.7,31.2,41.7,31.2,41.7z"/>
			<path class="st0" d="M37.1,6.2c0.3,0,0.6,0,0.9,0C37.7,6.2,37.4,6.2,37.1,6.2z"/>
			<path class="st0" d="M12.2,38.7C12.2,38.7,12.2,38.7,12.2,38.7C12.2,38.7,12.2,38.6,12.2,38.7C12.2,38.7,12.2,38.7,12.2,38.7z"/>
			<path class="st0" d="M72.9,57.5c0-0.6-0.3-1.1-0.7-1.6c-1.4-1.4-2.9-2.9-4.3-4.3c-0.4-0.4-0.8-0.8-1.2-1.2
				c-0.1-0.1-0.1-0.1-0.2-0.2c-0.3-0.3-0.7-0.7-1-1c-0.7-0.7-1.5-1.1-2.4-0.9c-0.7,0.1-1.2-0.1-1.6-0.6c-0.1-0.1-0.2-0.2-0.3-0.3
				c-0.4-0.4-0.9-0.8-1.3-1.3c-0.1-0.1-0.1-0.1-0.2-0.2c-0.4-0.3-0.2-0.6,0-1c1.8-2.6,2.3-5.5,1.7-8.6c-0.2-0.7-0.3-1.5-0.7-2.1
				c-0.9-1.9-2.2-3.5-3.9-4.7c-0.5-0.3-1-0.6-1.6-0.9c-0.8-0.3-1.5-0.6-2.3-0.7c-0.2,0-0.4-0.1-0.5-0.3c-0.1-0.3-0.1-0.5-0.1-0.8
				c0-3.7,0-7.4,0-11.1c0-0.3-0.1-0.6-0.4-0.8c-0.4-0.4-0.8-0.9-1.3-1.2c-0.5-0.3-0.9-0.8-1.3-1.2c-0.1-0.1-0.1-0.1-0.2-0.2
				c-1.5-1.3-2.9-2.7-4.4-4c-0.4-0.5-1-0.8-1.4-1.3c-0.8-0.9-1.8-1.6-2.7-2.5C40.7,4.2,40.3,4,39.9,4C31.4,4,23,4,14.5,4
				c-0.3,0-0.6,0.1-0.9,0.2c-1.9,0.7-3.2,1.9-3.5,4.1c0,15.7,0,31.3,0,47c0.1,0.6,0.2,1.3,0.6,1.8c0.8,1.2,1.9,1.9,3.3,2.3
				c0.3,0.1,0.5,0.1,0.8,0.1c3.9-0.1,7.8,0,11.7,0c6.9,0,13.9,0,20.8,0c0.4,0,0.8,0,1.2-0.1c0.4,0,0.7-0.2,1-0.3
				c1.2-0.6,2.1-1.5,2.7-2.7c0.3-0.6,0.4-1.3,0.4-2c0-1.4,0-2.7,0-4.1c0-0.2,0-0.5,0.1-0.7c0.1-0.1,0.3-0.2,0.5-0.2
				c1.5-0.3,2.8-0.9,4-1.7c0.7-0.5,0.7-0.4,1.3,0.1c0.4,0.4,0.9,0.8,1.3,1.3c0.1,0.1,0.2,0.2,0.3,0.3c0.5,0.4,0.6,0.8,0.5,1.4
				c-0.2,1,0.1,1.9,0.8,2.6c0.4,0.4,0.7,0.7,1.1,1.1c0.5,0.5,0.9,0.9,1.4,1.4c1.5,1.4,2.8,2.9,4.2,4.3c0.5,0.4,1,0.7,1.6,0.8
				c0.1,0,0.1,0,0.2,0c0.2,0,0.5,0,0.7,0c1-0.2,1.8-0.7,2.3-1.7C73,58.7,72.9,58.1,72.9,57.5z M41,9.8c0-0.7,0-1.4,0-2.2
				c0.4,0.3,0.8,0.6,1.1,1C42.5,9,43,9.4,43.4,9.8c1.7,1.5,3.4,3.1,5,4.7c0,0.2-0.2,0.1-0.3,0.1c-2,0-4,0-6.1,0
				c-0.1,0-0.1,0-0.2-0.1c-0.6-0.1-0.9-0.6-1-1.2c0-0.4,0-0.8,0-1.3C40.9,11.4,40.9,10.6,41,9.8z M50.3,54.5
				c-0.1,1.5-1.1,2.6-2.5,2.7c0,0,0,0,0,0c-0.3,0.1-0.6,0.1-0.8,0.1c-10.5,0-21,0-31.6,0c-0.2,0-0.5,0-0.7-0.1l0,0
				c-1.3-0.1-2.4-1.1-2.5-2.4c-0.1-0.9-0.1-1.9,0-2.8c0-0.9,0-1.7,0-2.6c0,0,0,0,0-0.1c0,0,0-0.1,0-0.1c0,0,0,0,0-0.1
				c0-1.8,0-3.5,0-5.3c0-0.5,0-1,0-1.5c0-0.2,0-0.5,0-0.7c0-0.2,0-0.4,0-0.7l0,0l0,0c0-0.9,0-1.9,0-2.8c0-1.3,0-2.5,0-3.8
				c0-0.6,0-1.2,0-1.9c0-0.6,0-1.2,0-1.9c0-0.2,0-0.4,0-0.7c0,0,0,0,0,0c0,0,0,0,0,0l0,0l0,0c0-0.9,0-1.8,0-2.7c0-2.5,0-5.1,0-7.6
				c0-0.2,0-0.4,0-0.7c0-0.8,0-1.6,0-2.4c-0.1-0.1,0-0.2,0-0.4c0-1.6,0-3.2,0-4.8c0-0.6,0-1.1,0-1.7c0-0.2,0-0.4,0-0.5
				c0-1.4,1-2.6,2.3-2.8c0.2-0.1,0.5-0.1,0.7-0.1c7.7,0,15.5,0,23.2,0c0.2,0,0.4-0.1,0.5,0.1c0,1.9,0,3.8,0,5.8
				c0.1,0.7,0,1.5,0.1,2.2c0.5,1.4,1.4,2.2,2.8,2.5c2.7,0,5.3,0,8,0c0.4,0,0.4,0.1,0.4,0.5c0,3.4,0,6.8,0,10.2
				c0,0.4-0.1,0.5-0.5,0.5c-1,0.1-1.9,0.4-2.8,0.6c-1.4,0.6-2.7,1.4-3.8,2.5c-0.4,0.4-0.9,0.1-1.4,0.1c-2.2,0-4.4,0-6.5,0
				c-0.4,0-0.6,0.1-0.6,0.6c0,0.5,0,0.9,0,1.4c0.2,0.1,0.4,0.1,0.6,0.1c0.2,0,0.4,0,0.7,0c1.1,0,2.2,0,3.3,0c0.1,0,0.1,0,0.2,0
				c0.7,0,1.4,0,2.1,0c-0.3,0.5-0.5,1-0.7,1.4c-0.3,0.8-0.5,1.7-0.6,2.6c0.1,0.4-0.2,0.4-0.4,0.4c-1.5,0-2.9,0-4.4,0
				c-0.2,0-0.4,0-0.7,0c0,0.2,0,0.5,0,0.7c0.1,1.3,0.1,1.3,1.4,1.3c1.1,0,2.3,0,3.4,0c0.2,0,0.4-0.1,0.6,0.1
				c0.2,1.1,0.4,2.2,0.9,3.3c0.2,0.5,0.5,0.9,0.8,1.5c-1.3,0-2.4,0-3.6,0c-1.1,0-2.3,0-3.4,0c0,0.6,0,1.3,0,1.9c2.3,0,4.6,0,6.9,0
				c0.6,0,1.2-0.1,1.8,0.1c0.9,0.8,1.9,1.5,2.9,2c0.6,0.2,1.3,0.5,1.9,0.7l0,0h0c0.6,0.1,1.2,0.2,1.8,0.2c0.3,0,0.3,0.2,0.3,0.4
				C50.3,51.3,50.3,52.9,50.3,54.5z M52.2,47.3c-0.7,0.1-1.5,0.2-2.2,0c-0.7,0-1.5-0.2-2.1-0.5c-2-0.7-3.5-2-4.5-3.8
				c-0.4-0.6-0.7-1.2-0.8-1.9c-1.5-4.5,1.1-9.9,6.2-11.2c1.6-0.4,3.2-0.4,4.8,0.2v0l0,0c0.6,0.2,1.2,0.4,1.7,0.8
				c1.8,1.1,3,2.6,3.7,4.7c0.3,0.7,0.4,1.5,0.5,2.3C59.8,42.6,56.6,46.6,52.2,47.3z M70.6,58.6c-0.4,0.4-0.8,0.4-1.2-0.1
				c-1.4-1.4-2.8-2.8-4.1-4.2c-0.5-0.4-0.9-0.9-1.3-1.4c-0.4-0.4-0.8-0.8-1.2-1.2c-0.4-0.4-0.3-0.8,0-1.2c0.4-0.4,0.8-0.3,1.2,0
				c0.4,0.4,0.8,0.8,1.2,1.3c0.4,0.4,0.8,0.8,1.2,1.2c1.4,1.4,2.8,2.8,4.2,4.3C71,57.8,70.9,58.2,70.6,58.6z"/>
			<path class="st0" d="M18.5,57.1C18.4,57.1,18.4,57.1,18.5,57.1C18.4,57.2,18.5,57.2,18.5,57.1C18.5,57.1,18.5,57.1,18.5,57.1z"/>
			<path class="st0" d="M20,52.9C20,52.9,20,52.9,20,52.9c0,0,0.1,0,0.1,0C20,52.9,20,52.9,20,52.9C20,52.9,20,52.9,20,52.9z"/>
			<path class="st0" d="M50.2,20.6c0,0.2,0,0.5,0,0.7C50.3,21,50.3,20.8,50.2,20.6z"/>
			<path class="st0" d="M26.4,46.7C26.4,46.7,26.4,46.7,26.4,46.7C26.4,46.7,26.4,46.7,26.4,46.7C26.4,46.7,26.4,46.7,26.4,46.7z"/>
			<rect x="17.1" y="51" class="st0" width="27.9" height="1.6"/>
			<g>
				<path class="st0" d="M29.1,46H16.9c-0.8,0-1.4-0.6-1.4-1.4V30.9c0-0.8,0.6-1.4,1.4-1.4h12.3c0.8,0,1.4,0.6,1.4,1.4v13.7
					C30.5,45.3,29.9,46,29.1,46z M17,44.4h12V31H17V44.4z"/>
			</g>
		</g>
	</g>
	<g>
		<path class="st0" d="M21.9,14.6c-0.2,0.1-0.5,0.2-1,0.2c-1.3,0-2-0.8-2-1.9c0-1.3,0.9-2,2-2c0.4,0,0.8,0.1,0.9,0.2l-0.2,0.7
			c-0.2-0.1-0.4-0.1-0.7-0.1c-0.7,0-1.2,0.4-1.2,1.2c0,0.7,0.4,1.2,1.2,1.2c0.3,0,0.5-0.1,0.7-0.1L21.9,14.6z"/>
		<path class="st0" d="M23.4,13.7l-0.3,1h-0.9l1.1-3.7h1.1l1.2,3.7h-0.9l-0.3-1H23.4z M24.3,13.1l-0.2-0.8c-0.1-0.2-0.1-0.5-0.2-0.7
			h0c-0.1,0.2-0.1,0.5-0.2,0.7l-0.2,0.8H24.3z"/>
		<path class="st0" d="M26.2,13.8c0.2,0.1,0.6,0.2,0.9,0.2c0.4,0,0.6-0.2,0.6-0.4c0-0.2-0.2-0.4-0.6-0.5c-0.6-0.2-1-0.6-1-1.1
			c0-0.6,0.5-1.1,1.4-1.1c0.4,0,0.7,0.1,1,0.2l-0.2,0.7c-0.1-0.1-0.4-0.2-0.8-0.2c-0.4,0-0.5,0.2-0.5,0.4c0,0.2,0.2,0.3,0.7,0.5
			c0.7,0.2,1,0.6,1,1.1c0,0.6-0.5,1.2-1.5,1.2c-0.4,0-0.8-0.1-1.1-0.2L26.2,13.8z"/>
		<path class="st0" d="M31.4,13.1H30V14h1.5v0.7h-2.4v-3.7h2.3v0.7H30v0.8h1.4V13.1z"/>
		<path class="st0" d="M17.3,20.4c0.2,0.1,0.6,0.2,0.9,0.2c0.4,0,0.6-0.2,0.6-0.4c0-0.2-0.2-0.4-0.6-0.5c-0.6-0.2-1-0.6-1-1.1
			c0-0.6,0.5-1.1,1.4-1.1c0.4,0,0.7,0.1,1,0.2l-0.2,0.7c-0.1-0.1-0.4-0.2-0.8-0.2c-0.4,0-0.5,0.2-0.5,0.4c0,0.2,0.2,0.3,0.7,0.5
			c0.7,0.2,1,0.6,1,1.1c0,0.6-0.5,1.2-1.5,1.2c-0.4,0-0.8-0.1-1.1-0.2L17.3,20.4z"/>
		<path class="st0" d="M21,18.3h-1v-0.7h2.9v0.7h-1v3H21V18.3z"/>
		<path class="st0" d="M24.1,17.6v2.1c0,0.6,0.2,1,0.7,1c0.4,0,0.7-0.3,0.7-1v-2.1h0.8v2.1c0,1.2-0.6,1.7-1.6,1.7
			c-0.9,0-1.5-0.5-1.5-1.7v-2.1H24.1z"/>
		<path class="st0" d="M27,17.6c0.3,0,0.7-0.1,1.1-0.1c0.7,0,1.2,0.1,1.5,0.4c0.4,0.3,0.6,0.7,0.6,1.4c0,0.7-0.3,1.2-0.6,1.5
			c-0.4,0.3-1,0.5-1.7,0.5c-0.4,0-0.7,0-1-0.1V17.6z M27.9,20.7c0.1,0,0.2,0,0.3,0c0.8,0,1.3-0.4,1.3-1.3c0-0.8-0.4-1.2-1.2-1.2
			c-0.2,0-0.3,0-0.4,0V20.7z"/>
		<path class="st0" d="M31.6,21.3v-1.5l-1.2-2.2h1l0.4,0.9c0.1,0.3,0.2,0.5,0.3,0.7h0c0.1-0.2,0.2-0.4,0.3-0.7l0.4-0.9h0.9l-1.2,2.2
			v1.6H31.6z"/>
	</g>
</g>
<g>
</g>
<g>
</g>
<g>
</g>
<g>
</g>
<g>
</g>
<g>
</g>
<g>
</g>
<g>
</g>
<g>
</g>
<g>
</g>
<g>
</g>
<g>
</g>
<g>
</g>
<g>
</g>
<g>
</g>
</svg>
