<?xml version="1.0" encoding="utf-8"?>
<!-- Generator: Adobe Illustrator 21.0.2, SVG Export Plug-In . SVG Version: 6.00 Build 0)  -->
<svg version="1.1" id="Layer_1" xmlns="http://www.w3.org/2000/svg" xmlns:xlink="http://www.w3.org/1999/xlink" x="0px" y="0px"
	 viewBox="0 0 83 65" style="enable-background:new 0 0 83 65;" xml:space="preserve">
<style type="text/css">
	.st0{fill:none;stroke:#0081CC;stroke-width:3;stroke-miterlimit:10;}
</style>
<path class="st0" d="M19.2,28.4c0,0,4-11.6,5.6-16.4c1.6-4.8,7.5-2.7,6,1.6c-1.5,4.4-5.5,16.5-5.5,16.5l4.1-12.1
	c1.8-5.3,7.7-2.2,6.2,2.1c-0.7,2.1-6.5,20.1-6.5,20.1s2.6-1.5,5.5-3.5c2.9-2,6.8,2.4,3.5,5.4c-2,1.8-9.7,8.8-12.4,10.8
	c-2.1,1.6-6.6,3.5-11.1,2.3c-4.5-1.2-9.1-2.8-11.1-6.9c-2-4.1-1.9-7.7-0.1-13.1c1.8-5.4,5-14.7,6.6-19.5c1.6-4.7,7.8-2.8,6,2.3
	l-3.2,9.3c0,0,4.3-12,5.5-15.3c1.1-3.3,7.2-2.7,5.3,3L19.2,28.4z M64.4,28.6c0,0-3.5-11.7-4.9-16.6c-1.4-4.9-7.4-3.1-6.1,1.4
	c1.3,4.4,4.8,16.8,4.8,16.8l-3.6-12.2c-1.6-5.4-7.6-2.5-6.3,1.9C49,21.8,54,40,54,40s-2.5-1.6-5.3-3.7c-2.8-2.1-6.9,2.1-3.7,5.3
	c1.9,1.9,9.4,9.2,11.9,11.3c2.1,1.7,6.5,3.8,11,2.7c4.6-1,9.2-2.4,11.4-6.4c2.2-4,2.2-7.7,0.6-13.1c-1.6-5.5-4.4-14.9-5.8-19.7
	c-1.4-4.8-7.7-3.2-6.1,2.1l2.8,9.5c0,0-3.8-12.2-4.8-15.6c-1-3.4-7.1-3-5.4,2.7L64.4,28.6z"/>
<g>
</g>
<g>
</g>
<g>
</g>
<g>
</g>
<g>
</g>
<g>
</g>
<g>
</g>
<g>
</g>
<g>
</g>
<g>
</g>
<g>
</g>
<g>
</g>
<g>
</g>
<g>
</g>
<g>
</g>
</svg>
