<?xml version="1.0" encoding="utf-8"?>
<!-- Generator: Adobe Illustrator 21.0.2, SVG Export Plug-In . SVG Version: 6.00 Build 0)  -->
<svg version="1.1" id="Layer_1" xmlns="http://www.w3.org/2000/svg" xmlns:xlink="http://www.w3.org/1999/xlink" x="0px" y="0px"
	 viewBox="0 0 83 65" style="enable-background:new 0 0 83 65;" xml:space="preserve">
<style type="text/css">
	.st0{fill:#0081CC;}
</style>
<g>
	<g>
		<path class="st0" d="M50.1,43.6v-1c0.3-0.2,0.6-0.5,0.9-0.8c2.2-2.4,3.6-5.4,3.9-8.7c2-0.3,3.7-1.3,4.9-2.9
			c1.6-2.3,1.8-5.7,0.4-9.9c-0.1-0.2-0.2-0.5-0.5-0.6l-0.6-0.4c0.1-3.8-1.2-7.5-3.7-10.4c-3.1-3.4-7.7-5.2-14-5.2
			c-6.2,0-10.9,1.8-14,5.2c-2.5,2.9-3.8,6.6-3.7,10.4l-0.6,0.4c-0.2,0.1-0.4,0.3-0.5,0.6c-1.4,4.2-1.2,7.5,0.4,9.9
			c1.2,1.6,3,2.7,4.9,3c0.4,3.2,1.8,6.3,3.9,8.7c0.3,0.3,0.6,0.5,0.9,0.8v1c-4.3,0.8-21.7,4.9-21.4,16.5c0,0.6,0.5,1.1,1.1,1.1h57.7
			c0.6,0,1.1-0.5,1.1-1.1C71.8,48.5,54.4,44.4,50.1,43.6z M27.5,30.6c-1-0.3-1.8-0.9-2.4-1.8l0.1,0c-1.1-1.7-1.2-4.2-0.2-7.5
			l0.8-0.6c0.3-0.2,0.5-0.6,0.5-1.1c-0.2-3.4,0.9-6.7,3.1-9.3C31.9,7.5,36,6.1,41.5,6c5.5,0,9.6,1.5,12.2,4.4
			c2.2,2.6,3.3,5.9,3.1,9.3c0,0.4,0.2,0.8,0.5,1.1l0.8,0.6c1,3.3,0.9,5.8-0.2,7.5c-0.6,0.8-1.4,1.4-2.4,1.8c1.4-1.6,2-3.6,1.9-5.7
			c-0.2-1.2-0.9-2.4-1.8-3.2C55,10.4,47.1,9.1,43.7,9.1c-0.7,0-1.5,0.1-2.2,0.2c-0.7-0.1-1.4-0.2-2.2-0.2c-3.4,0-11.4,1.2-11.9,12.6
			c-1,0.8-1.6,1.9-1.9,3.2C25.4,27,26.1,29,27.5,30.6z M53.3,21.3c-4.8,0.3-9.5-0.9-13.6-3.4c-0.5-0.3-1.1-0.3-1.5,0.1
			c-2.3,2.4-6.4,3-8.4,3.1c0.6-8,5.5-9.8,9.6-9.8c0.7,0,1.3,0,1.9,0.2c0.1,0,0.3,0,0.5,0c0.6-0.1,1.3-0.2,1.9-0.2
			C47.8,11.4,52.7,13.2,53.3,21.3L53.3,21.3z M30.2,30.8L30.2,30.8c0-0.3-0.1-0.5-0.2-0.7c-1.6-1.8-2.3-3.4-2.1-4.7
			c0.1-0.7,0.5-1.4,1-1.9c1.5,0,6.8-0.3,10.2-3.2c3.8,2.2,8.2,3.4,12.6,3.4c0.8,0,1.5,0,2.3-0.1c0.6,0.5,0.9,1.1,1,1.9
			c0.2,1.3-0.5,3-2.1,4.7c-0.2,0.2-0.3,0.5-0.3,0.8c0,0,0,0.2,0,0.6L46.1,35c-1.3-1.2-3.4-1.2-4.6,0.1s-1.2,3.4,0.1,4.6
			c1.3,1.2,3.4,1.2,4.6-0.1c0.6-0.6,0.9-1.4,0.9-2.2c0-0.1,0-0.2,0-0.3l5.2-2.8c-0.4,2.2-1.5,4.3-3,6c-2,1.9-4.7,3-7.5,2.8h-0.6
			c-2.8,0.1-5.5-0.9-7.5-2.8C30.1,36.7,30.2,30.9,30.2,30.8z M44.9,37.3c0,0.6-0.5,1-1,1s-1-0.5-1-1s0.5-1,1-1S44.9,36.8,44.9,37.3z
			 M40.4,58.9H13.8c0.9-8.5,14.8-12.1,19.1-13v2c0,2.6,3.1,4.5,7.4,4.9V58.9z M35.2,47.9L35.2,47.9V44c1.9,0.9,3.9,1.3,6,1.3h0.6
			c2.1,0,4.1-0.4,6-1.3v3.9c0,1.1-2.5,2.6-6.3,2.6S35.2,49,35.2,47.9z M42.6,58.9v-6.2c4.3-0.3,7.4-2.3,7.4-4.9v-2
			c4.4,0.9,18.2,4.5,19.1,13L42.6,58.9L42.6,58.9z"/>
	</g>
</g>
<g>
</g>
<g>
</g>
<g>
</g>
<g>
</g>
<g>
</g>
<g>
</g>
<g>
</g>
<g>
</g>
<g>
</g>
<g>
</g>
<g>
</g>
<g>
</g>
<g>
</g>
<g>
</g>
<g>
</g>
</svg>
