<?xml version="1.0" encoding="utf-8"?>
<!-- Generator: Adobe Illustrator 21.0.2, SVG Export Plug-In . SVG Version: 6.00 Build 0)  -->
<svg version="1.1" id="Layer_1" xmlns="http://www.w3.org/2000/svg" xmlns:xlink="http://www.w3.org/1999/xlink" x="0px" y="0px"
	 viewBox="0 0 83 65" style="enable-background:new 0 0 83 65;" xml:space="preserve">
<style type="text/css">
	.st0{fill:none;stroke:#0081CC;stroke-width:3;stroke-miterlimit:10;}
</style>
<path class="st0" d="M41.2,40.3l9.6,9.4 M42.4,40.3l-9.6,9.4 M41.9,27.8v13.2 M64.9,50.2c1.5-0.7,2.6-2.2,2.6-3.9
	c0-2.4-2-4.3-4.4-4.3c-2.4,0-4.4,1.9-4.4,4.3c0,1.7,1,3.2,2.6,3.9C57.6,51,55,54.1,55,57.7c0,4.3,15.9,4.3,15.9,0
	C70.9,54.1,68.3,51,64.9,50.2z M21.9,50.2c1.5-0.7,2.6-2.2,2.6-3.9c0-2.4-2-4.3-4.4-4.3c-2.4,0-4.4,1.9-4.4,4.3c0,1.7,1,3.2,2.6,3.9
	c-3.5,0.8-6.1,3.9-6.1,7.5c0,4.3,15.9,4.3,15.9,0C28,54.1,25.4,51,21.9,50.2z M44.1,12.3c1.5-0.7,2.6-2.2,2.6-3.9
	c0-2.4-2-4.3-4.4-4.3c-2.4,0-4.4,1.9-4.4,4.3c0,1.7,1,3.2,2.6,3.9c-3.5,0.8-6.1,3.9-6.1,7.5c0,4.3,15.9,4.3,15.9,0
	C50.1,16.1,47.5,13.1,44.1,12.3z"/>
<g>
</g>
<g>
</g>
<g>
</g>
<g>
</g>
<g>
</g>
<g>
</g>
<g>
</g>
<g>
</g>
<g>
</g>
<g>
</g>
<g>
</g>
<g>
</g>
<g>
</g>
<g>
</g>
<g>
</g>
</svg>
