<svg id="Layer_1" data-name="Layer 1" xmlns="http://www.w3.org/2000/svg" viewBox="0 0 249.4 59.4"><defs><style>.cls-1{fill:#1980c4;}</style></defs><title>EXECED-stacked</title><path class="cls-1" d="M74.6,448.7H71.4l-.7,2H69.1l3.3-8.7h1.4l3.3,8.7H75.4ZM73,444l-1.1,3.3h2.2Z" transform="translate(-36.3 -414.3)"/><path class="cls-1" d="M80.4,450.7H78.9v-7.1H76.4v-1.4h6.5v1.4H80.4Z" transform="translate(-36.3 -414.3)"/><path class="cls-1" d="M90.1,450.7H88.5v-7.1H86v-1.4h6.5v1.4H90.1Z" transform="translate(-36.3 -414.3)"/><path class="cls-1" d="M100.3,442.2v8.6H98.8v-3.7H95.2v3.7H93.6v-8.6h1.5v3.5h3.6v-3.5Z" transform="translate(-36.3 -414.3)"/><path class="cls-1" d="M108,442.2v1.4h-4.5v2h4v1.4h-4v2.2h4.7v1.4H102v-8.6Z" transform="translate(-36.3 -414.3)"/><path class="cls-1" d="M115.1,448.9l.7-2,1.6-4.7h1.7l-3.2,8.7h-1.5l-3.2-8.7h1.7l1.6,4.7Z" transform="translate(-36.3 -414.3)"/><path class="cls-1" d="M126,442.2v1.4h-4.5v2h4v1.4h-4v2.2h4.7v1.4H120v-8.6Z" transform="translate(-36.3 -414.3)"/><path class="cls-1" d="M129.3,450.7h-1.5v-8.6h3.5c1.5,0,2.9.5,2.9,2.6a2.2,2.2,0,0,1-1.7,2.4l2.1,3.5h-1.8l-1.9-3.4h-1.6Zm2.1-4.8c.5,0,1.2-.1,1.2-1.2s-.7-1.2-1.2-1.2h-2.1v2.3Z" transform="translate(-36.3 -414.3)"/><path class="cls-1" d="M139.4,450.7h-1.5v-3.5l-3.3-5h1.8l1.6,2.5.7,1.1.7-1.1,1.6-2.5h1.8l-3.3,5Z" transform="translate(-36.3 -414.3)"/><path class="cls-1" d="M148.7,449.5c1.2,0,1.7-.4,1.8-1.4l1.5.2c-.2,1.6-1.2,2.7-3.4,2.7s-3.7-1.8-3.7-4.4,1-4.4,3.7-4.4,3.2,1.1,3.4,2.7l-1.5.2c-.2-1-.7-1.4-1.8-1.4s-2.1,1.4-2.1,3S146.9,449.5,148.7,449.5Z" transform="translate(-36.3 -414.3)"/><path class="cls-1" d="M159.5,442.2v1.4h-4.5v2h4v1.4h-4v2.2h4.7v1.4h-6.3v-8.6Z" transform="translate(-36.3 -414.3)"/><path class="cls-1" d="M163.5,446.3l-.8-1.3v5.7h-1.5v-8.6h1.4l3,4.4.8,1.3v-5.7h1.5v8.6h-1.4Z" transform="translate(-36.3 -414.3)"/><path class="cls-1" d="M173,450.7h-1.5v-7.1H169v-1.4h6.5v1.4H173Z" transform="translate(-36.3 -414.3)"/><path class="cls-1" d="M182.7,442.2v1.4h-4.5v2h4v1.4h-4v2.2h4.7v1.4h-6.3v-8.6Z" transform="translate(-36.3 -414.3)"/><path class="cls-1" d="M185.9,450.7h-1.5v-8.6h3.5c1.5,0,2.9.5,2.9,2.6a2.2,2.2,0,0,1-1.7,2.4l2.1,3.5h-1.8l-1.9-3.4h-1.6Zm2.1-4.8c.5,0,1.2-.1,1.2-1.2s-.7-1.2-1.2-1.2h-2.1v2.3Z" transform="translate(-36.3 -414.3)"/><path class="cls-1" d="M194.5,446.5c0-2.7,1.1-4.4,3.8-4.4s3.8,1.7,3.8,4.4-1.1,4.4-3.8,4.4S194.5,449.2,194.5,446.5Zm1.6,0c0,1.6.4,3,2.3,3s2.3-1.4,2.3-3-.4-3-2.3-3S196.1,444.8,196.1,446.5Z" transform="translate(-36.3 -414.3)"/><path class="cls-1" d="M205.2,450.7h-1.5v-8.6h5.8v1.4h-4.3v2H209v1.4h-3.8Z" transform="translate(-36.3 -414.3)"/><path class="cls-1" d="M213.1,450.7v-8.6h3.7a2.2,2.2,0,0,1,2.5,2.4,1.9,1.9,0,0,1-.8,1.7,2,2,0,0,1,1.1,2c0,2.1-1.3,2.5-2.8,2.5Zm1.5-7.1v2h2c.7,0,1.1-.2,1.1-1s-.4-1-1.1-1Zm2.1,5.7c.5,0,1.3-.1,1.3-1.1s-.7-1.1-1.2-1.1h-2.2v2.2Z" transform="translate(-36.3 -414.3)"/><path class="cls-1" d="M220.9,447.6v-5.4h1.5v5.4c0,1,.3,1.9,2,1.9s2-.8,2-1.9v-5.4h1.5v5.4c0,1.9-.8,3.3-3.5,3.3S220.9,449.5,220.9,447.6Z" transform="translate(-36.3 -414.3)"/><path class="cls-1" d="M229.2,448.3l1.6-.2c.1,1,.7,1.4,1.9,1.4s1.8-.3,1.8-1.3-.4-1.1-1.9-1.2-3.1-.5-3.1-2.4,1.4-2.6,3.1-2.6,3.3,1,3.4,2.6l-1.6.2c-.1-1-.7-1.3-1.9-1.3s-1.5.2-1.5,1.2.3.8,1.7,1,3.3.6,3.3,2.6-1.6,2.7-3.3,2.7S229.3,450,229.2,448.3Z" transform="translate(-36.3 -414.3)"/><path class="cls-1" d="M239.1,450.7h-1.5v-8.6h1.5Z" transform="translate(-36.3 -414.3)"/><path class="cls-1" d="M243.2,446.3l-.8-1.3v5.7h-1.5v-8.6h1.4l3,4.4.8,1.3v-5.7h1.5v8.6h-1.4Z" transform="translate(-36.3 -414.3)"/><path class="cls-1" d="M255.3,442.2v1.4h-4.5v2h4v1.4h-4v2.2h4.7v1.4h-6.3v-8.6Z" transform="translate(-36.3 -414.3)"/><path class="cls-1" d="M256.8,448.3l1.6-.2c.1,1,.7,1.4,1.9,1.4s1.8-.3,1.8-1.3-.4-1.1-1.9-1.2-3.1-.5-3.1-2.4,1.4-2.6,3.1-2.6,3.3,1,3.4,2.6l-1.6.2c-.1-1-.7-1.3-1.9-1.3s-1.5.2-1.5,1.2.3.8,1.7,1,3.3.6,3.3,2.6-1.6,2.7-3.3,2.7S256.9,450,256.8,448.3Z" transform="translate(-36.3 -414.3)"/><path class="cls-1" d="M264.7,448.3l1.6-.2c.1,1,.7,1.4,1.9,1.4s1.8-.3,1.8-1.3-.4-1.1-1.9-1.2-3.1-.5-3.1-2.4,1.4-2.6,3.1-2.6,3.3,1,3.4,2.6l-1.6.2c-.1-1-.7-1.3-1.9-1.3s-1.5.2-1.5,1.2.3.8,1.7,1,3.3.6,3.3,2.6-1.6,2.7-3.3,2.7S264.9,450,264.7,448.3Z" transform="translate(-36.3 -414.3)"/><path d="M74.9,433.4c1.8,0,2.6-.7,2.8-2.2l2.4.3c-.3,2.5-1.8,4.2-5.2,4.2s-5.7-2.7-5.7-6.9,1.6-6.9,5.7-6.9,4.9,1.6,5.2,4.2l-2.4.3c-.2-1.6-1-2.2-2.8-2.2s-3.2,2.2-3.2,4.7S72.2,433.4,74.9,433.4Z" transform="translate(-36.3 -414.3)"/><path d="M81.7,430.9c0-3.1,1.7-4.7,4.4-4.7s4.4,1.6,4.4,4.7-1.7,4.7-4.4,4.7S81.7,434,81.7,430.9Zm2.4,0c0,1.9.8,2.6,2,2.6s2-.7,2-2.6-.8-2.6-2-2.6S84.1,429,84.1,430.9Z" transform="translate(-36.3 -414.3)"/><path d="M92.3,421.8h2.3v13.6H92.3Z" transform="translate(-36.3 -414.3)"/><path d="M103,434.4a3.6,3.6,0,0,1-2.7,1.2c-2.1,0-3.6-1.1-3.6-3.2v-6H99v5.7c0,.9.6,1.4,1.6,1.4a2.4,2.4,0,0,0,2.3-1.6v-5.5h2.3V433l.2,2.4h-2.1Z" transform="translate(-36.3 -414.3)"/><path d="M109.9,427.3a3,3,0,0,1,2.4-1.2,2.8,2.8,0,0,1,2.6,1.3,3.5,3.5,0,0,1,2.8-1.3,3,3,0,0,1,3.3,3.3v5.9h-2.3v-5.8a1.2,1.2,0,0,0-1.4-1.3,1.9,1.9,0,0,0-1.7,1.6v5.5h-2.3v-5.8a1.2,1.2,0,0,0-1.4-1.3,2,2,0,0,0-1.8,1.6v5.5h-2.3v-6.6l-.2-2.4h2.1Z" transform="translate(-36.3 -414.3)"/><path d="M125.4,427.2a3.5,3.5,0,0,1,2.5-1c2.7,0,4.1,1.7,4.1,4.7s-1.5,4.7-4.1,4.7a3.5,3.5,0,0,1-2.7-1.2l-.2,1h-2.1l.2-2.4V421.8h2.3Zm2.2,1.1a2.1,2.1,0,0,0-2.2,1.5V432a2.1,2.1,0,0,0,2.2,1.5c1.2,0,2.1-.8,2.1-2.6S128.7,428.3,127.6,428.3Z" transform="translate(-36.3 -414.3)"/><path d="M136.2,424.9h-2.5v-2.5h2.5Zm-2.4,1.5h2.3v9h-2.3Z" transform="translate(-36.3 -414.3)"/><path d="M141.2,430l2.8-.4v-.2c0-.8-.6-1.2-1.7-1.2s-1.6.4-1.7,1.2l-2.4-.3c.3-1.6,1.1-2.9,4-2.9s4.1,1.1,4.1,3.4V433l.2,2.4h-2.1l-.2-1a3.8,3.8,0,0,1-2.9,1.2c-2.4,0-3.3-1.2-3.3-2.8S139.2,430.3,141.2,430Zm.3,3.7A2.5,2.5,0,0,0,144,432v-.7l-2.4.4c-.9.2-1.2.4-1.2,1S140.8,433.7,141.5,433.7Z" transform="translate(-36.3 -414.3)"/><path d="M152.4,435.4V422.2H158c1.7,0,3.9.6,3.9,3.7a3,3,0,0,1-1.2,2.6,3.1,3.1,0,0,1,1.6,3.1c0,3.2-2,3.9-4.3,3.9Zm2.4-11v3.2h3.1c1,0,1.7-.3,1.7-1.6s-.6-1.5-1.7-1.5Zm3.3,8.8c.8,0,2-.1,2-1.7s-1-1.8-1.9-1.8h-3.3v3.5Z" transform="translate(-36.3 -414.3)"/><path d="M170.2,434.4a3.6,3.6,0,0,1-2.7,1.2c-2.1,0-3.6-1.1-3.6-3.2v-6h2.3v5.7c0,.9.6,1.4,1.6,1.4a2.4,2.4,0,0,0,2.3-1.6v-5.5h2.3V433l.2,2.4h-2.1Z" transform="translate(-36.3 -414.3)"/><path d="M179.8,432.6c0-.7-.7-.7-2-.8s-3.7-.3-3.7-2.6,2.1-3,3.9-3,3.8.9,4,2.8l-2.3.3c-.1-.7-.5-1.2-1.7-1.2s-1.4.2-1.4.9.7.6,1.8.7,3.8.2,3.8,2.8-2.2,3-4.2,3-3.9-1.1-4.1-2.9l2.4-.3c.1.8.6,1.3,1.7,1.3S179.8,433.4,179.8,432.6Z" transform="translate(-36.3 -414.3)"/><path d="M186.5,424.9H184v-2.5h2.5Zm-2.4,1.5h2.3v9h-2.3Z" transform="translate(-36.3 -414.3)"/><path d="M191,427.3a3.6,3.6,0,0,1,2.7-1.2c2.1,0,3.6,1.1,3.6,3.2v6H195v-5.7c0-.9-.6-1.4-1.6-1.4a2.4,2.4,0,0,0-2.3,1.6v5.5h-2.3v-6.6l-.2-2.4h2.1Z" transform="translate(-36.3 -414.3)"/><path d="M201.2,431.8a1.8,1.8,0,0,0,2.1,1.8c1.2,0,1.7-.5,1.8-1.1l2.4.3c-.2,1.5-1.2,2.8-4.1,2.8s-4.6-1.7-4.6-4.7,1.7-4.7,4.4-4.7,4.3,1.7,4.3,4.7v.9Zm0-1.8H205a1.6,1.6,0,0,0-1.8-1.8A1.8,1.8,0,0,0,201.2,430Z" transform="translate(-36.3 -414.3)"/><path d="M214.5,432.6c0-.7-.7-.7-2-.8s-3.7-.3-3.7-2.6,2.1-3,3.9-3,3.8.9,4,2.8l-2.3.3c-.1-.7-.5-1.2-1.7-1.2s-1.4.2-1.4.9.7.6,1.8.7,3.8.2,3.8,2.8-2.2,3-4.2,3-3.9-1.1-4.1-2.9l2.4-.3c.1.8.6,1.3,1.7,1.3S214.5,433.4,214.5,432.6Z" transform="translate(-36.3 -414.3)"/><path d="M223.8,432.6c0-.7-.7-.7-2-.8s-3.7-.3-3.7-2.6,2.1-3,3.9-3,3.8.9,4,2.8l-2.3.3c-.1-.7-.5-1.2-1.7-1.2s-1.4.2-1.4.9.7.6,1.8.7,3.8.2,3.8,2.8-2.2,3-4.2,3-3.9-1.1-4.1-2.9l2.4-.3c.1.8.6,1.3,1.7,1.3S223.8,433.4,223.8,432.6Z" transform="translate(-36.3 -414.3)"/><path d="M231.6,431.6l2.4-.3c.2,1.5,1.1,2.1,2.9,2.1s2.8-.5,2.8-2-.7-1.6-2.9-1.9-4.8-.8-4.8-3.7,2.2-4,4.8-4,5,1.5,5.3,4l-2.4.3c-.2-1.6-1.1-2.1-2.9-2.1s-2.4.3-2.4,1.8.5,1.3,2.6,1.5,5.1.9,5.1,4-2.5,4.2-5.2,4.2S231.9,434.2,231.6,431.6Z" transform="translate(-36.3 -414.3)"/><path d="M248,433.5c1.2,0,1.6-.5,1.8-1.3l2.4.3c-.2,1.7-1.1,3.1-4.1,3.1s-4.4-1.7-4.4-4.7,1.6-4.7,4.4-4.7,3.9,1.4,4.1,3.1l-2.4.3c-.2-.8-.6-1.3-1.8-1.3s-2,.8-2,2.6S246.7,433.4,248,433.5Z" transform="translate(-36.3 -414.3)"/><path d="M253.5,421.8h2.3v5.4a3.5,3.5,0,0,1,2.6-1.1c2.1,0,3.6,1.1,3.6,3.2v6h-2.3v-5.7c0-.9-.6-1.4-1.6-1.4a2.4,2.4,0,0,0-2.3,1.6v5.5h-2.3Z" transform="translate(-36.3 -414.3)"/><path d="M263.1,430.9c0-3.1,1.7-4.7,4.4-4.7s4.4,1.6,4.4,4.7-1.7,4.7-4.4,4.7S263.1,434,263.1,430.9Zm2.4,0c0,1.9.8,2.6,2,2.6s2-.7,2-2.6-.8-2.6-2-2.6S265.5,429,265.5,430.9Z" transform="translate(-36.3 -414.3)"/><path d="M273.1,430.9c0-3.1,1.7-4.7,4.4-4.7s4.4,1.6,4.4,4.7-1.7,4.7-4.4,4.7S273.1,434,273.1,430.9Zm2.4,0c0,1.9.8,2.6,2,2.6s2-.7,2-2.6-.8-2.6-2-2.6S275.5,429,275.5,430.9Z" transform="translate(-36.3 -414.3)"/><path d="M283.4,421.8h2.3v13.6h-2.3Z" transform="translate(-36.3 -414.3)"/><path class="cls-1" d="M63.1,429.9l2.2-2.2H51.9V414.3L36.3,429.9H49.7v2.2H42.9l-2.2,2.2h9.1v2.2H47.3l-2.2,2.2h4.6v4.5l2.2-2.2v-2.2h2.2l2.2-2.2H51.9v-2.2h6.7l2.2-2.2H51.9v-2.2Zm-21.4-2.2,8-8v8Z" transform="translate(-36.3 -414.3)"/><rect id="Bar_-_Single" data-name="Bar - Single" class="cls-1" x="33.1" y="44.3" width="0.3" height="15.05"/><path class="cls-1" d="M273.8,445.2H273v-2.2h-.9v-.8h2.5v.8h-.9Zm2.6,0-.5-1.4v1.4H275v-3h1.1l.5,1.5v0l.5-1.5h1.1v3h-.8v-1.4l-.5,1.4Z" transform="translate(-36.3 -414.3)"/><path d="M82.8,461.8v.4H77.3v3.7h5v.4h-5v4H83v.4H76.8v-8.9Z" transform="translate(-36.3 -414.3)"/><path d="M87.6,466l-.8-1.1-2.1-3.1h.6l1.9,2.8.7,1.1.7-1.1,1.9-2.8h.6L89,464.9l-.8,1.1.8,1.2,2.4,3.5h-.6l-2-3.1-.8-1.2-.8,1.2-2,3.1h-.6l2.4-3.5Z" transform="translate(-36.3 -414.3)"/><path d="M99.1,461.8v.4H93.6v3.7h5v.4h-5v4h5.7v.4H93.1v-8.9Z" transform="translate(-36.3 -414.3)"/><path d="M104.7,461.7c2.2,0,3.1,1,3.3,2.3h-.5c-.2-1.2-1.1-2-2.9-2s-3.3,1.6-3.3,4.2,1,4.1,3.3,4.2,2.6-.7,2.9-2h.5c-.3,1.3-1.2,2.3-3.3,2.3s-3.8-1.8-3.8-4.6S102.1,461.7,104.7,461.7Z" transform="translate(-36.3 -414.3)"/><path d="M109.7,467.7v-5.9h.5v6c0,1.5.7,2.6,3,2.6s3-1,3-2.6v-6h.5v5.9c0,1.9-.9,3.1-3.5,3.1S109.7,469.6,109.7,467.7Z" transform="translate(-36.3 -414.3)"/><path d="M121.5,470.7h-.5v-8.5h-3v-.4h6.5v.4h-3Z" transform="translate(-36.3 -414.3)"/><path d="M126.8,470.7h-.5v-8.9h.5Z" transform="translate(-36.3 -414.3)"/><path d="M132.3,470.3l1-2.6,2.2-5.9h.5l-3.4,9H132l-3.4-9h.5l2.2,5.9Z" transform="translate(-36.3 -414.3)"/><path d="M143.5,461.8v.4H138v3.7h5v.4h-5v4h5.7v.4h-6.2v-8.9Z" transform="translate(-36.3 -414.3)"/><path d="M154.4,461.8v.4h-5.5v3.7h5v.4h-5v4h5.7v.4h-6.2v-8.9Z" transform="translate(-36.3 -414.3)"/><path d="M159.5,470.7h-2.9v-8.9h2.9c2.6,0,4,1,4,4.5S162.1,470.7,159.5,470.7Zm.1-.4c2.4,0,3.4-1,3.4-4s-1-4-3.4-4H157v8.1Z" transform="translate(-36.3 -414.3)"/><path d="M165.3,467.7v-5.9h.5v6c0,1.5.7,2.6,3,2.6s3-1,3-2.6v-6h.5v5.9c0,1.9-.9,3.1-3.5,3.1S165.3,469.6,165.3,467.7Z" transform="translate(-36.3 -414.3)"/><path d="M177.9,461.7c2.2,0,3.1,1,3.3,2.3h-.5c-.2-1.2-1.1-2-2.9-2s-3.3,1.6-3.3,4.2,1,4.1,3.3,4.2,2.6-.7,2.9-2h.5c-.3,1.3-1.2,2.3-3.3,2.3s-3.8-1.8-3.8-4.6S175.2,461.7,177.9,461.7Z" transform="translate(-36.3 -414.3)"/><path d="M187.8,467.7h-4.1l-1.1,3h-.5l3.4-9h.5l3.4,9h-.5Zm-3-2.8-.9,2.4h3.8l-.9-2.4-1-2.6Z" transform="translate(-36.3 -414.3)"/><path d="M192.7,470.7h-.5v-8.5h-3v-.4h6.5v.4h-3Z" transform="translate(-36.3 -414.3)"/><path d="M198,470.7h-.5v-8.9h.5Z" transform="translate(-36.3 -414.3)"/><path d="M200.1,466.3c0-2.6,1-4.6,3.8-4.6s3.8,1.9,3.8,4.6-1,4.6-3.8,4.6S200.1,468.9,200.1,466.3Zm.5,0c0,2.3.8,4.2,3.3,4.2s3.3-1.8,3.3-4.2-.8-4.2-3.3-4.2S200.6,463.9,200.6,466.3Z" transform="translate(-36.3 -414.3)"/><path d="M211.4,464.5l-1.4-2.1v8.4h-.4v-8.9h.6l4.1,6.2,1.4,2.1v-8.4h.4v8.9h-.6Z" transform="translate(-36.3 -414.3)"/></svg>