<?xml version="1.0" encoding="utf-8"?>
<!-- Generator: Adobe Illustrator 21.0.2, SVG Export Plug-In . SVG Version: 6.00 Build 0)  -->
<svg version="1.1" id="Layer_1" xmlns="http://www.w3.org/2000/svg" xmlns:xlink="http://www.w3.org/1999/xlink" x="0px" y="0px"
	 viewBox="0 0 500 148" style="enable-background:new 0 0 500 148;" xml:space="preserve">
<style type="text/css">
	.st0{fill:#FFFFFF;}
</style>
<g>
	<path class="st0" d="M173.1,41.3c1.5,0,3.4,0.2,5.2,0.2c3.3,0,11.8-0.1,14.3-0.1c2.3,0,3.2-0.1,3.8-0.1c0.2,0,0.5,0.4,0.6,1
		c0.1,0.7,0.2,3,0.4,4.2c0.1,0.4,0,0.9-0.3,0.9c-0.2,0-0.4-0.2-0.7-0.9c-1.1-2.6-2.2-3.6-3.4-3.8c-1.4-0.2-9.7-0.2-11.7-0.2
		c-0.5,0.1-0.7,0.2-0.7,2.4v14.3c0,0.7,0.2,1,0.4,1h7.9c2.9,0,3.6-0.1,4.2-0.4c0.4-0.2,1-1,1.6-2.4c0.2-0.4,0.4-0.7,0.6-0.7
		c0.2,0,0.3,0.3,0.3,0.7c0,0.4-0.3,2.3-0.4,3.3c-0.1,1.1,0.1,3.1,0.1,3.5c0.2,0.9-0.2,1.2-0.4,1.2c-0.2,0-0.3-0.3-0.7-1.3
		c-0.2-0.6-0.6-1.7-1.6-2c-1.4-0.3-3.1-0.4-11.5-0.4c-0.4,0-0.5,0.1-0.5,1.2c0,3.2,0.2,11.9,0.2,13.1c0,0.7,0.5,2.3,1.6,2.8
		c1,0.4,2,0.6,6.2,0.6c5.2,0,6.4-0.1,7.6-1.2c0.6-0.6,1.6-2.1,2.2-3c0.6-0.8,0.9-1.1,1.1-1.1c0.2,0,0.3,0.4,0.1,1.1
		c-0.4,1.4-1.1,4.1-1.4,4.7c-0.2,0.4-0.6,0.7-1,0.7c-6.6,0-13.7-0.3-18.7-0.3c-2.1,0-5.6,0.3-6.3,0.3c-0.8,0-1.2-0.2-1.2-0.4
		c0-0.2,0.4-0.4,1.1-0.6c2.1-0.3,3.4-1.1,3.4-3.9c0.3-9.9,0.3-16.8,0.3-29c0-3.6-0.7-4.3-3-4.8c-0.6-0.1-0.9-0.3-0.9-0.6
		C172.1,41.5,172.6,41.3,173.1,41.3L173.1,41.3z"/>
	<path class="st0" d="M211.6,41.3c1.4,0.1,5.2,0.3,7.2,0.3c0.2,0,0.6,0.2,0.8,0.9c2.7,5.9,11.5,23.4,15.4,30.8
		c0.2,0.4,0.3,0.1,0.6-0.3c3.7-7,11.6-22.5,13.1-25.5c0.7-1.6,1.5-3.8,1.9-5.1c0.1-0.1,0.3-0.8,0.6-0.8c1.7,0,5.1-0.4,6.8-0.4
		c0.6,0,1,0.1,1,0.4c0,0.2-0.5,0.5-0.9,0.6c-3.7,0.9-3.9,1.6-4.1,5.2c-0.1,2.1-0.2,9.6-0.2,12.7c0,6.8,0.3,13,0.4,15
		c0.3,3.6,0.9,4.2,3.4,4.9c0.6,0.2,1,0.4,1,0.7c0,0.2-0.4,0.4-1.1,0.4c-1.2,0-4.6-0.4-6.2-0.4c-2.6,0-4.2,0.1-5.2,0.1
		c-0.6,0-1.3-0.1-1.3-0.5c0-0.2,0.6-0.5,1.2-0.6c2.6-0.7,3.1-1.7,3.2-6.9c0.2-3.4,0.2-20.1,0.2-22.9c0-0.6-0.2-0.6-0.3-0.3
		c-4.2,8.4-11.9,23.3-14.9,30c-0.3,0.7-0.6,1.1-0.9,1.1c-0.3,0-0.7-1-1.3-2.2c-2.9-6.3-11.2-23.6-13.6-28.5
		c-0.3-0.5-0.4-0.5-0.6,0.3c-0.2,3.6-0.9,19.8-0.9,22.4c0,2.1,0,3.3,0.4,4.6c0.3,1.5,1.7,2.2,3.2,2.5c0.7,0.1,1.1,0.4,1.1,0.6
		c0,0.4-0.6,0.5-1.2,0.4c-0.7-0.1-3-0.3-5.2-0.3c-2.2,0-3.9,0.4-4.6,0.4c-0.8,0-1.1-0.1-1.1-0.4c0-0.2,0.2-0.4,1.1-0.6
		c1.9-0.4,2.7-1.1,3.4-2c0.6-0.9,0.9-2.9,1.3-6.7c0.4-3.7,1.2-17.5,1.2-21.5c0-3.7-0.4-4.6-1.4-5.9c-1.1-1.2-2.2-1.4-3.4-1.7
		c-0.6-0.1-1-0.3-1-0.6C210.5,41.4,211.1,41.3,211.6,41.3L211.6,41.3z"/>
	<path class="st0" d="M270.7,41.3c1.5,0,3.4,0.2,5.2,0.2c3.3,0,11.8-0.1,14.3-0.1c2.3,0,3.2-0.1,3.8-0.1c0.2,0,0.5,0.4,0.6,1
		c0.1,0.7,0.2,3,0.4,4.2c0.1,0.4,0,0.9-0.3,0.9c-0.2,0-0.4-0.2-0.7-0.9c-1.1-2.6-2.2-3.6-3.4-3.8c-1.4-0.2-9.7-0.2-11.7-0.2
		c-0.5,0.1-0.7,0.2-0.7,2.4v14.3c0,0.7,0.2,1,0.4,1h7.9c2.9,0,3.6-0.1,4.2-0.4c0.4-0.2,1-1,1.6-2.4c0.2-0.4,0.4-0.7,0.6-0.7
		c0.2,0,0.3,0.3,0.3,0.7c0,0.4-0.3,2.3-0.4,3.3c-0.1,1.1,0.1,3.1,0.1,3.5c0.2,0.9-0.3,1.2-0.4,1.2c-0.2,0-0.3-0.3-0.7-1.3
		c-0.2-0.6-0.6-1.7-1.6-2c-1.4-0.3-3.1-0.4-11.5-0.4c-0.4,0-0.5,0.1-0.5,1.2c0,3.2,0.2,11.9,0.2,13.1c0,0.7,0.5,2.3,1.6,2.8
		c1,0.4,2,0.6,6.2,0.6c5.2,0,6.4-0.1,7.6-1.2c0.6-0.6,1.6-2.1,2.2-3c0.6-0.8,0.9-1.1,1.1-1.1c0.2,0,0.3,0.4,0.1,1.1
		c-0.4,1.4-1.1,4.1-1.4,4.7c-0.2,0.4-0.6,0.7-1,0.7c-6.6,0-13.7-0.3-18.7-0.3c-2.1,0-5.6,0.3-6.3,0.3c-0.8,0-1.2-0.2-1.2-0.4
		c0-0.2,0.4-0.4,1.1-0.6c2.1-0.3,3.4-1.1,3.4-3.9c0.3-9.9,0.3-16.8,0.3-29c0-3.6-0.7-4.3-3-4.8c-0.6-0.1-0.9-0.3-0.9-0.6
		C269.8,41.5,270.2,41.3,270.7,41.3L270.7,41.3z"/>
	<path class="st0" d="M316.8,42.7c-0.1,0.1-0.3,0.1-0.4,1.2c-0.1,1.2-0.1,14.2-0.1,15.3c0,0.8,0.2,1.1,0.5,1.1
		c0.3,0.1,1.1,0.1,1.5,0.1c1.6-0.1,5.2-0.5,6.6-1.4c1.7-1.2,3.5-3.7,3.5-7c0-3.2-0.9-5.6-2.5-7.2c-1.8-1.7-4-2.5-7.1-2.5
		C317.9,42.3,317.1,42.5,316.8,42.7L316.8,42.7z M329.4,43.5c2.7,1.9,3.9,4.6,3.9,7.5c0,4.1-2.1,5.9-3.6,7c-0.9,0.9-2.6,1.6-3.6,1.9
		c-0.3,0.1-0.2,0.5,0.1,1.1c1.2,2.4,4.7,8.2,6.7,11.1c1.9,2.7,3.2,4.4,4.6,5.7c1.9,1.9,3.5,2.4,4.7,2.4c0.4,0,0.8,0.2,0.8,0.4
		c0,0.1-0.2,0.4-0.7,0.5c-0.6,0.3-1.7,0.3-2.9,0.3c-3.9,0-6.6-1.7-9.1-5c-2.7-3.6-7.3-11.2-8.5-13.2c-0.8-1.1-1.4-1.6-2.2-1.7
		c-0.6-0.1-1.3-0.3-2.6-0.2c-0.2,0.1-0.5,0.3-0.6,0.6c-0.1,0.7-0.1,8-0.1,10.4c0,3.3,0.2,5.4,0.5,5.9c0.2,0.7,0.7,1.4,2.9,1.8
		c0.7,0.1,0.9,0.3,0.9,0.6c0,0.2-0.5,0.4-1.2,0.4c-1.1,0-3-0.3-5.3-0.3c-2.2,0-4.5,0.3-5.7,0.3c-0.6,0-1.1-0.1-1.1-0.4
		c0-0.2,0.4-0.4,1.2-0.6c2.1-0.4,2.7-1,2.9-3.6c0.2-3.6,0.3-8.5,0.3-16.3c0-8.7-0.2-12.6-0.4-14.7c-0.1-1.7-0.2-2.7-2.8-3.1
		c-0.6-0.1-1.1-0.3-1.1-0.6c0-0.2,0.4-0.4,1.1-0.4c0.9,0,2.7,0.2,4.9,0.2c2.6,0,4.3-0.3,7.5-0.3C324.8,41.2,327.4,42,329.4,43.5
		L329.4,43.5z"/>
	<path class="st0" d="M352.9,41.3c2.1,0,3.4,0.2,5.3,0.2c2.1,0,4-0.2,5.4-0.2c0.6,0,0.9,0.1,0.9,0.3c0,0.2-0.2,0.5-0.9,0.6
		c-2.5,0.4-2.6,1.3-2.7,3.9c-0.2,3.1-0.1,10.4-0.1,14.2c0,9.2,0.1,14.4,0.2,16.3c0.2,2.4,0.6,2.8,2.4,3.2c0.9,0.2,1.1,0.4,1.1,0.7
		c0,0.3-0.4,0.4-1.2,0.4c-1,0-2.6-0.2-4.4-0.2c-3.1,0-4.9,0.3-6.1,0.3c-0.6,0-1-0.1-1-0.4c0-0.2,0.3-0.4,1.4-0.6
		c2.3-0.5,2.7-1.5,2.7-5.2c0.1-3.6,0.1-20.8,0.1-23.8c0-3.1-0.1-5.1-0.2-6c-0.2-2.1-0.9-2.3-3-2.8c-0.4-0.1-0.7-0.3-0.7-0.5
		S352.3,41.3,352.9,41.3L352.9,41.3z"/>
	<path class="st0" d="M401.7,41.5c2.9,0,4.1-0.1,5.1-0.7c0.3-0.2,0.4-0.2,0.5-0.1c0.1,0.2,0.1,0.3,0.1,0.8c-0.2,0.7-0.2,2.6-0.2,4.7
		c0,0.9-0.3,1.4-0.5,1.4c-0.3,0-0.4-0.6-0.5-0.9c-0.1-1.1-0.6-2.4-1.1-2.9c-0.6-0.5-1.4-0.7-5.7-0.7c-1.9,0-5.1,0-6.1,0.1
		c-0.3,0.1-0.4,0.6-0.4,1c0,2.3-0.1,16.8-0.1,19.5c-0.1,3.5,0.2,11.2,0.4,13.2c0.2,2.1,0.9,2.6,3,3.2c0.7,0.2,1.1,0.3,1.1,0.6
		c0,0.4-0.4,0.4-1.2,0.4c-1.4,0-3.4-0.4-5.9-0.4c-3.2,0-5.1,0.4-6.1,0.4c-0.8,0-1.1-0.3-1.1-0.6c0-0.3,0.6-0.4,1.2-0.6
		c3-0.4,3.4-1.4,3.6-4.3c0.4-6.1,0.4-30.9,0.3-31.8c-0.1-0.6-0.2-0.7-0.4-0.7c-0.4-0.1-1.8-0.2-4.7-0.2c-2.6,0-4.1,0.1-5.3,0.3
		c-1.2,0.2-2,1-2.9,3.4c-0.3,0.7-0.6,1.1-0.9,1.1c-0.2,0-0.2-0.5-0.2-0.9c0.3-1.9,0.8-3.7,0.8-5.4c0.1-0.5,0.1-0.8,0.4-0.9
		c0.1-0.1,0.3,0.1,0.5,0.2c0.2,0.3,1.1,0.6,2,0.6c1,0.1,7.2,0.3,13.6,0.3L401.7,41.5L401.7,41.5z"/>
	<path class="st0" d="M429.4,41.4c0.7,0,1,0.2,1,0.4c0,0.3-0.5,0.5-1,0.6c-3.2,0.5-3.1,2.6-3.1,5.6c-0.1,5.9-0.1,14.4,0,17.5
		c0.1,4.6,1.2,8.2,3.4,10.4c2.4,2.5,5.9,3.4,8.8,3.4c7.1,0,11.7-3.6,12.1-15.9c0.1-2.3,0.2-5.2,0.2-7.3c0-11.9-0.5-12.7-2.2-13.3
		c-0.6-0.2-1.2-0.3-1.6-0.4c-0.5-0.1-0.9-0.4-0.9-0.6c0-0.3,0.3-0.4,1-0.4c1.3,0,2.4,0.2,4.3,0.2c1.4,0,3-0.2,4.5-0.2
		c0.7,0,1.1,0.1,1.1,0.3c0,0.3-0.3,0.5-1.3,0.7c-2.5,0.4-2.6,1.7-2.8,4.5c-0.3,3.8-0.3,12.2-0.6,16c-0.4,5.6-1,11-4.6,14.8
		c-3.2,3.4-8,4.1-11,4.1c-3.3,0-7.2-0.9-9.7-2.9c-3.8-3-5.2-6.7-5.4-14.3c-0.1-4.7-0.1-14.5-0.2-18.2c-0.3-3.1-0.4-3.5-2.9-4.2
		c-0.3-0.1-0.7-0.3-0.7-0.6c0-0.2,0.6-0.2,1.1-0.2c1.5,0,3.3,0.2,5.6,0.2C426.1,41.6,428,41.4,429.4,41.4L429.4,41.4z"/>
	<path class="st0" d="M487.4,41.6c0.3,0.1,0.4,0.5,0.4,0.7c0,1.7,0.2,3.5,0.3,4.2c0.1,0.8-0.1,1.2-0.3,1.2c-0.2,0-0.4-0.3-0.6-1
		c-0.5-1.6-1.1-2.9-2.4-3.7c-1.4-1.1-3.4-1.6-5.1-1.6c-2.9,0-7.3,2.5-7.3,7.7c0,3.4,2.2,5.7,4.4,7.2c2.4,1.6,4.4,3.1,6.4,4.5
		c2.4,1.7,5.9,4.5,5.9,9.9c0,6.9-6.6,11.1-13,11.1c-2.7,0-6.6-0.7-8.5-1.7c-0.7-0.4-0.9-0.8-1.1-1.7c-0.1-1-0.6-3.1-0.6-4.6
		c-0.1-0.7,0.1-1.2,0.3-1.2c0.3,0,0.4,0.4,0.7,1.2c1.1,4.7,5.2,6.8,9.2,6.8c5,0,8.2-4,8.2-8.1c0-4.2-3-6.6-7.5-9.6
		c-4.8-3.2-8.6-6.6-8.6-12c0-3.4,1.5-6.1,4-8c1.7-1.3,4.4-2.5,8-2.5C483.2,40.5,486.3,41.3,487.4,41.6L487.4,41.6z"/>
	<path class="st0" d="M203.9,97.2c0.5,0,0.9,0.1,1.4,0.1c0.5,0,1-0.1,1.4-0.1c0.1,0,0.2,0,0.2,0.1c0,0.1-0.1,0.1-0.2,0.1
		c-0.7,0.1-0.7,0.3-0.7,1c0,0.8,0,2.7,0,3.7c0,2.4,0,3.8,0.1,4.3c0,0.6,0.1,0.7,0.6,0.9c0.2,0,0.3,0.1,0.3,0.2
		c0,0.1-0.1,0.1-0.3,0.1c-0.3,0-0.7,0-1.1,0c-0.8,0-1.3,0.1-1.6,0.1c-0.1,0-0.3,0-0.3-0.1c0,0,0.1-0.1,0.4-0.2
		c0.6-0.1,0.7-0.4,0.7-1.4c0-0.9,0-5.5,0-6.2c0-0.8,0-1.3-0.1-1.6c-0.1-0.5-0.2-0.6-0.8-0.7c-0.1,0-0.2-0.1-0.2-0.1
		S203.8,97.2,203.9,97.2L203.9,97.2z"/>
	<path class="st0" d="M210,97.2c0.5,0,1.4,0.1,2,0.1c0.1,0,0.1,0,0.4,0.3c1.1,1.4,5.3,6.1,6.7,7.7c0,0,0.1,0,0.1-0.1
		c0-0.6,0-5.1-0.1-6.5c0-1-0.4-1.1-0.9-1.3c-0.2,0-0.3-0.1-0.3-0.1c0-0.1,0.1-0.1,0.3-0.1c0.3,0,0.8,0.1,1.1,0.1
		c0.5,0,0.9-0.1,1.1-0.1c0.2,0,0.3,0,0.3,0.1c0,0.1-0.1,0.1-0.3,0.2c-0.6,0.2-0.7,0.6-0.7,1c-0.1,0.6-0.1,4.1-0.1,5.6
		c0,1.5,0,2.5,0,3.3c0,0.3,0,0.5-0.1,0.5c-0.1,0-0.3-0.2-0.6-0.6c-0.9-1.2-5.1-6-7.3-8.5c-0.1-0.1-0.1-0.1-0.1,0c0,0.6,0,5.9,0,6.7
		c0,0.7,0,1.1,0.2,1.4c0.1,0.3,0.5,0.4,0.8,0.5c0.2,0,0.3,0.1,0.3,0.2c0,0.1-0.2,0.1-0.3,0.1c-0.3,0-0.7-0.1-1.2-0.1
		c-0.5,0-1,0.1-1.1,0.1c-0.2,0-0.3,0-0.3-0.1c0-0.1,0.1-0.1,0.3-0.2c0.6-0.2,0.8-0.3,0.9-1.3c0.1-0.6,0.2-5.8,0.2-7.1
		c0-1-0.1-1.1-0.3-1.2c-0.2-0.2-0.4-0.2-0.8-0.3c-0.2,0-0.3-0.1-0.3-0.1C209.7,97.2,209.8,97.2,210,97.2L210,97.2z"/>
	<path class="st0" d="M228.9,97.3c0.1,0,0.1,0.1,0.1,0.2c0,0.4,0,0.9,0.1,1.1c0,0.2,0,0.3-0.1,0.3c-0.1,0-0.1-0.1-0.1-0.3
		c-0.1-0.4-0.3-0.8-0.6-1c-0.4-0.3-0.9-0.4-1.3-0.4c-0.8,0-1.9,0.7-1.9,2c0,0.9,0.6,1.5,1.2,1.9c0.6,0.4,1.2,0.8,1.7,1.2
		c0.6,0.4,1.5,1.2,1.5,2.6c0,1.8-1.7,2.9-3.4,2.9c-0.7,0-1.7-0.2-2.2-0.5c-0.2-0.1-0.2-0.2-0.3-0.4c0-0.3-0.2-0.8-0.2-1.2
		c0-0.2,0-0.3,0.1-0.3c0.1,0,0.1,0.1,0.2,0.3c0.3,1.2,1.3,1.8,2.4,1.8c1.3,0,2.1-1,2.1-2.1c0-1.1-0.8-1.7-2-2.5
		c-1.3-0.8-2.2-1.7-2.2-3.1c0-0.9,0.4-1.6,1-2.1c0.4-0.3,1.2-0.7,2.1-0.7C227.8,97,228.6,97.2,228.9,97.3L228.9,97.3z"/>
	<path class="st0" d="M239.3,97.3c0.8,0,1.1,0,1.3-0.2c0.1,0,0.1-0.1,0.1,0c0,0,0,0.1,0,0.2c-0.1,0.2-0.1,0.7,0,1.2
		c0,0.2-0.1,0.4-0.1,0.4c-0.1,0-0.1-0.1-0.1-0.2c0-0.3-0.2-0.6-0.3-0.8c-0.1-0.1-0.4-0.2-1.5-0.2c-0.5,0-1.3,0-1.6,0
		c-0.1,0-0.1,0.1-0.1,0.3c0,0.6,0,4.4,0,5.1c0,0.9,0,2.9,0.1,3.4c0.1,0.6,0.2,0.7,0.8,0.8c0.2,0,0.3,0.1,0.3,0.2
		c0,0.1-0.1,0.1-0.3,0.1c-0.4,0-0.9-0.1-1.5-0.1c-0.8,0-1.3,0.1-1.6,0.1c-0.2,0-0.3-0.1-0.3-0.1c0-0.1,0.1-0.1,0.3-0.1
		c0.8-0.1,0.9-0.4,0.9-1.1c0.1-1.6,0.1-8.1,0.1-8.3c0-0.1-0.1-0.2-0.1-0.2c-0.1,0-0.5,0-1.2,0c-0.7,0-1.1,0-1.4,0.1
		c-0.3,0.1-0.5,0.3-0.7,0.9c-0.1,0.2-0.2,0.3-0.2,0.3c-0.1,0-0.1-0.1,0-0.2c0.1-0.5,0.2-1,0.2-1.4c0-0.1,0-0.2,0.1-0.2
		c0,0,0.1,0,0.1,0.1c0.1,0.1,0.3,0.1,0.5,0.2c0.3,0,1.9,0.1,3.5,0.1L239.3,97.3L239.3,97.3z"/>
	<path class="st0" d="M243.8,97.2c0.5,0,0.9,0.1,1.4,0.1c0.5,0,1-0.1,1.4-0.1c0.1,0,0.2,0,0.2,0.1c0,0.1-0.1,0.1-0.2,0.1
		c-0.7,0.1-0.7,0.3-0.7,1c0,0.8,0,2.7,0,3.7c0,2.4,0,3.8,0.1,4.3c0,0.6,0.1,0.7,0.6,0.9c0.2,0,0.3,0.1,0.3,0.2
		c0,0.1-0.1,0.1-0.3,0.1c-0.3,0-0.7,0-1.1,0c-0.8,0-1.3,0.1-1.6,0.1c-0.1,0-0.3,0-0.3-0.1c0,0,0.1-0.1,0.4-0.2
		c0.6-0.1,0.7-0.4,0.7-1.4c0-0.9,0-5.5,0-6.2c0-0.8,0-1.3-0.1-1.6c-0.1-0.5-0.2-0.6-0.8-0.7c-0.1,0-0.2-0.1-0.2-0.1
		S243.6,97.2,243.8,97.2L243.8,97.2z"/>
	<path class="st0" d="M256.5,97.3c0.8,0,1.1,0,1.3-0.2c0.1,0,0.1-0.1,0.1,0c0,0,0,0.1,0,0.2c-0.1,0.2-0.1,0.7,0,1.2
		c0,0.2-0.1,0.4-0.1,0.4c-0.1,0-0.1-0.1-0.1-0.2c0-0.3-0.2-0.6-0.3-0.8c-0.1-0.1-0.4-0.2-1.5-0.2c-0.5,0-1.3,0-1.6,0
		c-0.1,0-0.1,0.1-0.1,0.3c0,0.6,0,4.4,0,5.1c0,0.9,0,2.9,0.1,3.4c0.1,0.6,0.2,0.7,0.8,0.8c0.2,0,0.3,0.1,0.3,0.2
		c0,0.1-0.1,0.1-0.3,0.1c-0.4,0-0.9-0.1-1.5-0.1c-0.8,0-1.3,0.1-1.6,0.1c-0.2,0-0.3-0.1-0.3-0.1c0-0.1,0.1-0.1,0.3-0.1
		c0.8-0.1,0.9-0.4,0.9-1.1c0.1-1.6,0.1-8.1,0.1-8.3c0-0.1-0.1-0.2-0.1-0.2c-0.1,0-0.5,0-1.2,0c-0.7,0-1.1,0-1.4,0.1
		c-0.3,0.1-0.5,0.3-0.7,0.9c-0.1,0.2-0.2,0.3-0.2,0.3c-0.1,0-0.1-0.1,0-0.2c0.1-0.5,0.2-1,0.2-1.4c0-0.1,0-0.2,0.1-0.2
		c0,0,0.1,0,0.1,0.1c0.1,0.1,0.3,0.1,0.5,0.2c0.3,0,1.9,0.1,3.5,0.1L256.5,97.3L256.5,97.3z"/>
	<path class="st0" d="M263.7,97.2c0.2,0,0.3,0,0.3,0.1c0,0.1-0.1,0.1-0.3,0.2c-0.8,0.1-0.8,0.7-0.8,1.5c0,1.6,0,3.8,0,4.6
		c0,1.2,0.3,2.2,0.9,2.7c0.6,0.7,1.5,0.9,2.3,0.9c1.8,0,3-0.9,3.2-4.2c0-0.6,0-1.4,0-1.9c0-3.1-0.1-3.3-0.6-3.5
		c-0.1-0.1-0.3-0.1-0.4-0.1c-0.1,0-0.2-0.1-0.2-0.1c0-0.1,0.1-0.1,0.3-0.1c0.3,0,0.6,0,1.1,0c0.4,0,0.8,0,1.2,0c0.2,0,0.3,0,0.3,0.1
		c0,0.1-0.1,0.1-0.3,0.2c-0.6,0.1-0.7,0.4-0.7,1.2c-0.1,1-0.1,3.2-0.1,4.2c-0.1,1.5-0.3,2.9-1.2,3.9c-0.8,0.9-2.1,1.1-2.9,1.1
		c-0.9,0-1.9-0.2-2.5-0.8c-1-0.8-1.3-1.7-1.4-3.7c0-1.2,0-3.8-0.1-4.8c-0.1-0.8-0.1-0.9-0.8-1.1c-0.1,0-0.2-0.1-0.2-0.2
		c0-0.1,0.1-0.1,0.3-0.1c0.4,0,0.9,0.1,1.4,0.1C262.9,97.3,263.3,97.2,263.7,97.2L263.7,97.2z"/>
	<path class="st0" d="M280.5,97.3c0.8,0,1.1,0,1.3-0.2c0.1,0,0.1-0.1,0.1,0c0,0,0,0.1,0,0.2c-0.1,0.2-0.1,0.7,0,1.2
		c0,0.2-0.1,0.4-0.1,0.4c-0.1,0-0.1-0.1-0.1-0.2c0-0.3-0.2-0.6-0.3-0.8c-0.1-0.1-0.4-0.2-1.5-0.2c-0.5,0-1.3,0-1.6,0
		c-0.1,0-0.1,0.1-0.1,0.3c0,0.6,0,4.4,0,5.1c0,0.9,0,2.9,0.1,3.4c0.1,0.6,0.2,0.7,0.8,0.8c0.2,0,0.3,0.1,0.3,0.2
		c0,0.1-0.1,0.1-0.3,0.1c-0.4,0-0.9-0.1-1.5-0.1c-0.8,0-1.3,0.1-1.6,0.1c-0.2,0-0.3-0.1-0.3-0.1c0-0.1,0.1-0.1,0.3-0.1
		c0.8-0.1,0.9-0.4,0.9-1.1c0.1-1.6,0.1-8.1,0.1-8.3c0-0.1-0.1-0.2-0.1-0.2c-0.1,0-0.5,0-1.2,0c-0.7,0-1.1,0-1.4,0.1
		c-0.3,0.1-0.5,0.3-0.7,0.9c-0.1,0.2-0.2,0.3-0.2,0.3c-0.1,0-0.1-0.1,0-0.2c0.1-0.5,0.2-1,0.2-1.4c0-0.1,0-0.2,0.1-0.2
		c0,0,0.1,0,0.1,0.1c0.1,0.1,0.3,0.1,0.5,0.2c0.3,0,1.9,0.1,3.5,0.1L280.5,97.3L280.5,97.3z"/>
	<path class="st0" d="M285,97.2c0.4,0,0.9,0.1,1.4,0.1c0.9,0,3.1,0,3.7,0c0.6,0,0.8,0,1,0c0.1,0,0.1,0.1,0.2,0.3
		c0,0.2,0,0.8,0.1,1.1c0,0.1,0,0.2-0.1,0.2c0,0-0.1,0-0.2-0.2c-0.3-0.7-0.6-0.9-0.9-1c-0.4-0.1-2.5-0.1-3,0c-0.1,0-0.2,0-0.2,0.6
		v3.7c0,0.2,0,0.3,0.1,0.3h2c0.7,0,0.9,0,1.1-0.1c0.1-0.1,0.3-0.3,0.4-0.6c0-0.1,0.1-0.2,0.2-0.2c0,0,0.1,0.1,0.1,0.2
		c0,0.1-0.1,0.6-0.1,0.9c0,0.3,0,0.8,0,0.9c0,0.2-0.1,0.3-0.1,0.3c-0.1,0-0.1-0.1-0.2-0.3c0-0.1-0.2-0.5-0.4-0.5
		c-0.4-0.1-0.8-0.1-3-0.1c-0.1,0-0.1,0-0.1,0.3c0,0.8,0,3.1,0,3.4c0,0.2,0.1,0.6,0.4,0.7c0.3,0.1,0.5,0.2,1.6,0.2c1.4,0,1.7,0,2-0.3
		c0.2-0.2,0.4-0.6,0.6-0.8c0.2-0.2,0.2-0.3,0.3-0.3c0.1,0,0.1,0.1,0,0.3c-0.1,0.4-0.3,1.1-0.4,1.2c-0.1,0.1-0.1,0.2-0.3,0.2
		c-1.7,0-3.6-0.1-4.9-0.1c-0.6,0-1.5,0.1-1.6,0.1c-0.2,0-0.3,0-0.3-0.1c0-0.1,0.1-0.1,0.3-0.1c0.6-0.1,0.9-0.3,0.9-1
		c0.1-2.6,0.1-4.4,0.1-7.6c0-0.9-0.2-1.1-0.8-1.3c-0.2,0-0.2-0.1-0.2-0.1C284.8,97.3,284.9,97.2,285,97.2L285,97.2z"/>
	<path class="st0" d="M305.4,98.5c-0.8,1-1.2,2.5-1.2,3.8c0,1.3,0.5,2.7,1.3,3.6c1,1.3,2.1,1.7,3,1.7c0.6,0,1.2-0.2,1.7-0.7
		c0.8-0.6,1.8-2,1.8-4.3c0-1.4-0.5-2.8-1.4-4c-0.6-0.7-1.5-1.3-2.8-1.3C306.9,97.2,305.9,97.9,305.4,98.5L305.4,98.5z M313.4,102.5
		c0,2.6-1.8,4.3-3,4.8c-0.6,0.3-1.4,0.5-2.1,0.5c-2.9,0-5.3-2.5-5.3-5.5c0-1.6,0.6-3.1,2.1-4.3c0.8-0.7,2.1-1,3.2-1
		C311,97,313.4,99.5,313.4,102.5L313.4,102.5z"/>
	<path class="st0" d="M322.7,97.2c0.3,0,0.5,0.1,0.5,0.2c0,0.2,0.1,0.9,0.1,1.1c0,0.2,0,0.3-0.1,0.3c-0.1,0-0.1-0.1-0.2-0.3
		c-0.3-0.6-0.6-0.9-1.2-0.9c-0.5,0-1.2,0-2.7,0c-0.1,0-0.2,0.2-0.2,0.3c0,0.5,0,2.3,0,4.2c0,0.1,0.1,0.2,0.1,0.2c1.7,0,2.4,0,2.7,0
		c0.2,0,0.5-0.1,0.7-0.6c0.1-0.2,0.1-0.2,0.2-0.2c0.1,0,0.1,0.1,0.1,0.2c0,0.2-0.1,0.7-0.1,1c0,0.3,0,0.6,0.1,0.8
		c0,0.2,0,0.3-0.1,0.3c-0.1,0-0.1-0.1-0.2-0.4c-0.1-0.4-0.3-0.5-0.5-0.6c-0.3,0-0.5-0.1-2.8-0.1c0,0-0.2,0.1-0.2,0.2
		c0,0.3,0,2.8,0,3.6c0,0.6,0.1,0.7,0.9,0.9c0.1,0,0.2,0.1,0.2,0.1c0,0.1-0.2,0.1-0.3,0.1c-0.2,0-0.9-0.1-1.6-0.1
		c-0.6,0-1,0.1-1.3,0.1c-0.1,0-0.3,0-0.3-0.1c0-0.1,0.1-0.1,0.3-0.2c0.6-0.1,0.7-0.3,0.7-0.9c0-0.5,0-2.6,0-4.4c0-1.7,0-2.7,0-3.7
		c0-0.6-0.1-0.7-0.7-0.9c-0.1,0-0.3-0.1-0.3-0.2c0-0.1,0.1-0.1,0.2-0.1c0.2,0,1.1,0.1,1.8,0.1C320.3,97.3,322.1,97.2,322.7,97.2
		L322.7,97.2z"/>
	<path class="st0" d="M334,97.2c0.4,0,1.4,0.1,1.9,0.1c0.1,0,0.1,0.1,0.2,0.2c0.7,1.6,3,6.1,4,8.1c0,0.1,0.1,0,0.1-0.1
		c1-1.8,3-5.9,3.4-6.7c0.2-0.4,0.4-1,0.5-1.3c0,0,0.1-0.2,0.2-0.2c0.5,0,1.3-0.1,1.8-0.1c0.2,0,0.3,0,0.3,0.1c0,0.1-0.1,0.1-0.2,0.1
		c-1,0.2-1,0.4-1.1,1.4c0,0.6,0,2.5,0,3.3c0,1.8,0.1,3.4,0.1,3.9c0.1,0.9,0.2,1.1,0.9,1.3c0.1,0,0.3,0.1,0.3,0.2
		c0,0.1-0.1,0.1-0.3,0.1c-0.3,0-1.2-0.1-1.6-0.1c-0.7,0-1.1,0-1.3,0c-0.2,0-0.3,0-0.3-0.1c0-0.1,0.2-0.1,0.3-0.1
		c0.7-0.2,0.8-0.4,0.8-1.8c0-0.9,0-5.3,0-6c0-0.2,0-0.2-0.1-0.1c-1.1,2.2-3.1,6.1-3.9,7.9c-0.1,0.2-0.1,0.3-0.2,0.3
		c-0.1,0-0.2-0.3-0.3-0.6c-0.8-1.7-2.9-6.2-3.5-7.5c-0.1-0.1-0.1-0.1-0.1,0.1c-0.1,0.9-0.2,5.2-0.2,5.9c0,0.5,0,0.9,0.1,1.2
		c0.1,0.4,0.5,0.6,0.8,0.7c0.2,0,0.3,0.1,0.3,0.2c0,0.1-0.1,0.1-0.3,0.1c-0.2,0-0.8-0.1-1.4-0.1s-1,0.1-1.2,0.1
		c-0.2,0-0.3,0-0.3-0.1c0,0,0.1-0.1,0.3-0.2c0.5-0.1,0.7-0.3,0.9-0.5c0.2-0.2,0.2-0.8,0.3-1.8c0.1-1,0.3-4.6,0.3-5.6
		c0-1-0.1-1.2-0.4-1.5c-0.3-0.3-0.6-0.4-0.9-0.4c-0.1,0-0.3-0.1-0.3-0.1C333.7,97.2,333.8,97.2,334,97.2L334,97.2z"/>
	<path class="st0" d="M354.8,102.5c-0.7-1.8-1.1-2.9-1.3-3.4c0-0.1-0.1-0.1-0.1,0c-0.4,0.9-1.1,2.8-1.3,3.5c0,0,0,0.1,0,0.1
		c0.3,0,0.7,0,1.3,0c0.6,0,1.2,0,1.4-0.1C354.8,102.7,354.8,102.6,354.8,102.5L354.8,102.5z M354.1,97.2c0,0.4,0.2,0.8,0.4,1.4
		c1.1,3,2,5.3,3,7.6c0.4,1,0.6,1.1,1,1.2c0.2,0,0.3,0.1,0.3,0.1c0,0.1-0.1,0.1-0.3,0.1c-0.3,0-0.6,0-1.4,0c-0.6,0-1.2,0.1-1.6,0.1
		c-0.2,0-0.3,0-0.3-0.1c0-0.1,0.1-0.1,0.3-0.1c0.7-0.1,0.7-0.4,0.7-0.7c0-0.3-0.6-1.7-1.1-3.2c0-0.1-0.1-0.2-0.2-0.2
		c-0.6,0-2.7,0-3,0c-0.1,0-0.2,0.2-0.2,0.3c-0.1,0.4-0.6,1.6-0.8,2.4c-0.2,0.6-0.2,0.9,0,1.1c0.1,0.1,0.4,0.2,0.7,0.3
		c0.2,0,0.2,0.1,0.2,0.2c0,0.1-0.1,0.1-0.3,0.1c-0.3,0-1-0.1-1.6-0.1c-0.4,0-0.7,0.1-1.1,0.1c-0.2,0-0.3,0-0.3-0.1
		c0-0.1,0.2-0.1,0.3-0.1c0.7-0.1,0.9-0.3,1.5-1.7c0.5-1,1.9-4.6,2.8-7c0.1-0.2,0.1-0.3,0.1-0.5c0-0.1,0-0.2,0-0.2
		c0.2-0.1,0.5-0.5,0.6-0.8c0-0.1,0-0.2,0.1-0.2C354.1,97,354.1,97.1,354.1,97.2L354.1,97.2z"/>
	<path class="st0" d="M361.5,97.2c0.5,0,1.4,0.1,2,0.1c0.1,0,0.1,0,0.4,0.3c1.1,1.4,5.3,6.1,6.7,7.7c0,0,0.1,0,0.1-0.1
		c0-0.6,0-5.1-0.1-6.5c0-1-0.4-1.1-0.9-1.3c-0.2,0-0.3-0.1-0.3-0.1c0-0.1,0.1-0.1,0.3-0.1c0.3,0,0.8,0.1,1.1,0.1
		c0.5,0,0.9-0.1,1.1-0.1c0.2,0,0.3,0,0.3,0.1c0,0.1-0.1,0.1-0.3,0.2c-0.6,0.2-0.7,0.6-0.7,1c-0.1,0.6-0.1,4.1-0.1,5.6
		c0,1.5,0,2.5,0,3.3c0,0.3,0,0.5-0.1,0.5c-0.1,0-0.3-0.2-0.6-0.6c-0.9-1.2-5.1-6-7.3-8.5c-0.1-0.1-0.1-0.1-0.1,0c0,0.6,0,5.9,0,6.7
		c0,0.7,0,1.1,0.2,1.4c0.1,0.3,0.5,0.4,0.8,0.5c0.2,0,0.3,0.1,0.3,0.2c0,0.1-0.2,0.1-0.3,0.1c-0.3,0-0.7-0.1-1.2-0.1
		c-0.5,0-1,0.1-1.1,0.1c-0.2,0-0.3,0-0.3-0.1c0-0.1,0.1-0.1,0.3-0.2c0.6-0.2,0.8-0.3,0.9-1.3c0.1-0.6,0.2-5.8,0.2-7.1
		c0-1-0.1-1.1-0.3-1.2c-0.2-0.2-0.4-0.2-0.8-0.3c-0.2,0-0.3-0.1-0.3-0.1C361.2,97.2,361.2,97.2,361.5,97.2L361.5,97.2z"/>
	<path class="st0" d="M380.4,102.5c-0.7-1.8-1.1-2.9-1.3-3.4c0-0.1-0.1-0.1-0.1,0c-0.4,0.9-1.1,2.8-1.3,3.5c0,0,0,0.1,0,0.1
		c0.3,0,0.7,0,1.3,0c0.6,0,1.2,0,1.4-0.1C380.4,102.7,380.4,102.6,380.4,102.5L380.4,102.5z M379.7,97.2c0,0.4,0.2,0.8,0.4,1.4
		c1.1,3,2,5.3,3,7.6c0.4,1,0.6,1.1,1,1.2c0.2,0,0.3,0.1,0.3,0.1c0,0.1-0.1,0.1-0.3,0.1c-0.3,0-0.6,0-1.4,0c-0.6,0-1.2,0.1-1.6,0.1
		c-0.2,0-0.3,0-0.3-0.1c0-0.1,0.1-0.1,0.3-0.1c0.7-0.1,0.7-0.4,0.7-0.7c0-0.3-0.6-1.7-1.1-3.2c0-0.1-0.1-0.2-0.2-0.2
		c-0.6,0-2.7,0-3,0c-0.1,0-0.2,0.2-0.2,0.3c-0.1,0.4-0.6,1.6-0.8,2.4c-0.2,0.6-0.2,0.9,0,1.1c0.1,0.1,0.4,0.2,0.7,0.3
		c0.2,0,0.2,0.1,0.2,0.2c0,0.1-0.1,0.1-0.3,0.1c-0.3,0-1-0.1-1.6-0.1c-0.4,0-0.7,0.1-1.1,0.1c-0.2,0-0.3,0-0.3-0.1
		c0-0.1,0.2-0.1,0.3-0.1c0.7-0.1,0.9-0.3,1.5-1.7c0.5-1,1.9-4.6,2.8-7c0.1-0.2,0.1-0.3,0.1-0.5c0-0.1,0-0.2,0-0.2
		c0.2-0.1,0.5-0.5,0.6-0.8c0-0.1,0-0.2,0.1-0.2C379.6,97,379.7,97.1,379.7,97.2L379.7,97.2z"/>
	<path class="st0" d="M394.5,97.3c0.4,0.1,0.9,0.3,1.1,0.4c0.1,0,0.2,0.2,0.2,0.4l0.1,1.1c0,0.2,0,0.3-0.1,0.3c-0.1,0-0.1,0-0.2-0.3
		c-0.5-1.2-1.4-1.9-3.1-1.9c-1.1,0-2.3,0.5-3,1.3c-0.8,0.9-1.4,2.2-1.4,3.9c0,1.9,1,3.4,1.9,4.1c0.7,0.6,1.6,0.9,2.5,0.9
		c0.7,0,1.4-0.3,1.8-0.7c0.2-0.2,0.2-0.5,0.2-0.9c0-0.3,0.1-1.4,0-1.9c0-0.6-0.2-0.7-0.9-0.9c-0.2,0-0.3-0.1-0.3-0.1
		c0-0.1,0.1-0.1,0.4-0.1c0.4,0,0.8,0.1,1.4,0.1c0.5,0,0.9,0,1,0c0.2,0,0.3,0,0.3,0.1c0,0.1-0.2,0.1-0.3,0.2
		c-0.3,0.1-0.4,0.2-0.4,1.1c0,0.8,0.1,1.8,0.1,2.1c0,0.2,0,0.3-0.1,0.4c-0.2,0.1-0.5,0.2-0.8,0.4c-0.7,0.3-1.6,0.6-2.5,0.6
		c-1.7,0-3.1-0.6-4.1-1.5c-1.2-1-1.8-2.3-1.8-3.9c0-1.7,0.7-3.1,2.2-4.3c0.7-0.5,1.8-1.2,3.8-1.2C393.5,97,394.1,97.2,394.5,97.3
		L394.5,97.3z"/>
	<path class="st0" d="M399.8,97.2c0.4,0,0.9,0.1,1.4,0.1c0.9,0,3.1,0,3.7,0c0.6,0,0.8,0,1,0c0.1,0,0.1,0.1,0.2,0.3
		c0,0.2,0,0.8,0.1,1.1c0,0.1,0,0.2-0.1,0.2c0,0-0.1,0-0.2-0.2c-0.3-0.7-0.6-0.9-0.9-1c-0.4-0.1-2.5-0.1-3,0c-0.1,0-0.2,0-0.2,0.6
		v3.7c0,0.2,0,0.3,0.1,0.3h2c0.7,0,0.9,0,1.1-0.1c0.1-0.1,0.3-0.3,0.4-0.6c0-0.1,0.1-0.2,0.2-0.2c0,0,0.1,0.1,0.1,0.2
		c0,0.1-0.1,0.6-0.1,0.9c0,0.3,0,0.8,0,0.9c0,0.2-0.1,0.3-0.1,0.3c-0.1,0-0.1-0.1-0.2-0.3c0-0.1-0.2-0.5-0.4-0.5
		c-0.4-0.1-0.8-0.1-3-0.1c-0.1,0-0.1,0-0.1,0.3c0,0.8,0,3.1,0,3.4c0,0.2,0.1,0.6,0.4,0.7c0.3,0.1,0.5,0.2,1.6,0.2c1.4,0,1.7,0,2-0.3
		c0.2-0.2,0.4-0.6,0.6-0.8c0.2-0.2,0.2-0.3,0.3-0.3c0.1,0,0.1,0.1,0,0.3c-0.1,0.4-0.3,1.1-0.4,1.2c-0.1,0.1-0.1,0.2-0.3,0.2
		c-1.7,0-3.6-0.1-4.9-0.1c-0.6,0-1.5,0.1-1.6,0.1c-0.2,0-0.3,0-0.3-0.1c0-0.1,0.1-0.1,0.3-0.1c0.6-0.1,0.9-0.3,0.9-1
		c0.1-2.6,0.1-4.4,0.1-7.6c0-0.9-0.2-1.1-0.8-1.3c-0.2,0-0.2-0.1-0.2-0.1C399.5,97.3,399.6,97.2,399.8,97.2L399.8,97.2z"/>
	<path class="st0" d="M409.8,97.2c0.4,0,1.4,0.1,1.9,0.1c0.1,0,0.1,0.1,0.2,0.2c0.7,1.6,3,6.1,4,8.1c0,0.1,0.1,0,0.1-0.1
		c1-1.8,3-5.9,3.4-6.7c0.2-0.4,0.4-1,0.5-1.3c0,0,0.1-0.2,0.2-0.2c0.5,0,1.3-0.1,1.8-0.1c0.2,0,0.3,0,0.3,0.1c0,0.1-0.1,0.1-0.2,0.1
		c-1,0.2-1,0.4-1.1,1.4c0,0.6,0,2.5,0,3.3c0,1.8,0.1,3.4,0.1,3.9c0.1,0.9,0.2,1.1,0.9,1.3c0.1,0,0.3,0.1,0.3,0.2
		c0,0.1-0.1,0.1-0.3,0.1c-0.3,0-1.2-0.1-1.6-0.1c-0.7,0-1.1,0-1.3,0c-0.2,0-0.3,0-0.3-0.1c0-0.1,0.2-0.1,0.3-0.1
		c0.7-0.2,0.8-0.4,0.8-1.8c0-0.9,0-5.3,0-6c0-0.2,0-0.2-0.1-0.1c-1.1,2.2-3.1,6.1-3.9,7.9c-0.1,0.2-0.1,0.3-0.2,0.3
		c-0.1,0-0.2-0.3-0.3-0.6c-0.8-1.7-2.9-6.2-3.5-7.5c-0.1-0.1-0.1-0.1-0.1,0.1c-0.1,0.9-0.2,5.2-0.2,5.9c0,0.5,0,0.9,0.1,1.2
		c0.1,0.4,0.5,0.6,0.8,0.7c0.2,0,0.3,0.1,0.3,0.2c0,0.1-0.1,0.1-0.3,0.1c-0.2,0-0.8-0.1-1.4-0.1s-1,0.1-1.2,0.1
		c-0.2,0-0.3,0-0.3-0.1c0,0,0.1-0.1,0.3-0.2c0.5-0.1,0.7-0.3,0.9-0.5c0.2-0.2,0.2-0.8,0.3-1.8c0.1-1,0.3-4.6,0.3-5.6
		c0-1-0.1-1.2-0.4-1.5c-0.3-0.3-0.6-0.4-0.9-0.4c-0.1,0-0.3-0.1-0.3-0.1C409.5,97.2,409.7,97.2,409.8,97.2L409.8,97.2z"/>
	<path class="st0" d="M425.2,97.2c0.4,0,0.9,0.1,1.4,0.1c0.9,0,3.1,0,3.7,0c0.6,0,0.8,0,1,0c0.1,0,0.1,0.1,0.2,0.3
		c0,0.2,0,0.8,0.1,1.1c0,0.1,0,0.2-0.1,0.2c0,0-0.1,0-0.2-0.2c-0.3-0.7-0.6-0.9-0.9-1c-0.4-0.1-2.5-0.1-3,0c-0.1,0-0.2,0-0.2,0.6
		v3.7c0,0.2,0,0.3,0.1,0.3h2c0.7,0,0.9,0,1.1-0.1c0.1-0.1,0.3-0.3,0.4-0.6c0-0.1,0.1-0.2,0.2-0.2c0,0,0.1,0.1,0.1,0.2
		c0,0.1-0.1,0.6-0.1,0.9c0,0.3,0,0.8,0,0.9c0,0.2-0.1,0.3-0.1,0.3c-0.1,0-0.1-0.1-0.2-0.3c0-0.1-0.2-0.5-0.4-0.5
		c-0.4-0.1-0.8-0.1-3-0.1c-0.1,0-0.1,0-0.1,0.3c0,0.8,0,3.1,0,3.4c0,0.2,0.1,0.6,0.4,0.7c0.3,0.1,0.5,0.2,1.6,0.2c1.4,0,1.7,0,2-0.3
		c0.2-0.2,0.4-0.6,0.6-0.8c0.2-0.2,0.2-0.3,0.3-0.3c0.1,0,0.1,0.1,0,0.3c-0.1,0.4-0.3,1.1-0.4,1.2c-0.1,0.1-0.1,0.2-0.3,0.2
		c-1.7,0-3.6-0.1-4.9-0.1c-0.6,0-1.5,0.1-1.6,0.1c-0.2,0-0.3,0-0.3-0.1c0-0.1,0.1-0.1,0.3-0.1c0.6-0.1,0.9-0.3,0.9-1
		c0.1-2.6,0.1-4.4,0.1-7.6c0-0.9-0.2-1.1-0.8-1.3c-0.2,0-0.2-0.1-0.2-0.1C425,97.3,425.1,97.2,425.2,97.2L425.2,97.2z"/>
	<path class="st0" d="M434.9,97.2c0.5,0,1.4,0.1,2,0.1c0.1,0,0.1,0,0.4,0.3c1.1,1.4,5.3,6.1,6.7,7.7c0,0,0.1,0,0.1-0.1
		c0-0.6,0-5.1-0.1-6.5c0-1-0.4-1.1-0.9-1.3c-0.2,0-0.3-0.1-0.3-0.1c0-0.1,0.1-0.1,0.3-0.1c0.3,0,0.8,0.1,1.1,0.1
		c0.5,0,0.9-0.1,1.1-0.1c0.2,0,0.3,0,0.3,0.1c0,0.1-0.1,0.1-0.3,0.2c-0.6,0.2-0.7,0.6-0.7,1c-0.1,0.6-0.1,4.1-0.1,5.6
		c0,1.5,0,2.5,0,3.3c0,0.3,0,0.5-0.1,0.5c-0.1,0-0.3-0.2-0.6-0.6c-0.9-1.2-5.1-6-7.3-8.5c-0.1-0.1-0.1-0.1-0.1,0c0,0.6,0,5.9,0,6.7
		c0,0.7,0,1.1,0.2,1.4c0.1,0.3,0.5,0.4,0.8,0.5c0.2,0,0.3,0.1,0.3,0.2c0,0.1-0.2,0.1-0.3,0.1c-0.3,0-0.7-0.1-1.2-0.1
		c-0.5,0-1,0.1-1.1,0.1c-0.2,0-0.3,0-0.3-0.1c0-0.1,0.1-0.1,0.3-0.2c0.6-0.2,0.8-0.3,0.9-1.3c0.1-0.6,0.2-5.8,0.2-7.1
		c0-1-0.1-1.1-0.3-1.2c-0.2-0.2-0.4-0.2-0.8-0.3c-0.2,0-0.3-0.1-0.3-0.1C434.6,97.2,434.6,97.2,434.9,97.2L434.9,97.2z"/>
	<path class="st0" d="M455.3,97.3c0.8,0,1.1,0,1.3-0.2c0.1,0,0.1-0.1,0.1,0c0,0,0,0.1,0,0.2c-0.1,0.2-0.1,0.7,0,1.2
		c0,0.2-0.1,0.4-0.1,0.4c-0.1,0-0.1-0.1-0.1-0.2c0-0.3-0.2-0.6-0.3-0.8c-0.1-0.1-0.4-0.2-1.5-0.2c-0.5,0-1.3,0-1.6,0
		c-0.1,0-0.1,0.1-0.1,0.3c0,0.6,0,4.4,0,5.1c0,0.9,0,2.9,0.1,3.4c0.1,0.6,0.2,0.7,0.8,0.8c0.2,0,0.3,0.1,0.3,0.2
		c0,0.1-0.1,0.1-0.3,0.1c-0.4,0-0.9-0.1-1.5-0.1c-0.8,0-1.3,0.1-1.6,0.1c-0.2,0-0.3-0.1-0.3-0.1c0-0.1,0.1-0.1,0.3-0.1
		c0.8-0.1,0.9-0.4,0.9-1.1c0.1-1.6,0.1-8.1,0.1-8.3c0-0.1-0.1-0.2-0.1-0.2c-0.1,0-0.5,0-1.2,0c-0.7,0-1.1,0-1.4,0.1
		c-0.3,0.1-0.5,0.3-0.7,0.9c-0.1,0.2-0.2,0.3-0.2,0.3c-0.1,0-0.1-0.1,0-0.2c0.1-0.5,0.2-1,0.2-1.4c0-0.1,0-0.2,0.1-0.2
		c0,0,0.1,0,0.1,0.1c0.1,0.1,0.3,0.1,0.5,0.2c0.3,0,1.9,0.1,3.5,0.1L455.3,97.3L455.3,97.3z"/>
	<path class="st0" d="M80.2,7.4c-36.8,0-66.7,29.9-66.7,66.7c0,36.8,29.9,66.7,66.7,66.7c36.8,0,66.7-29.9,66.7-66.7
		C146.9,37.4,117,7.4,80.2,7.4L80.2,7.4z M80.2,143.3c-38.1,0-69.2-31-69.2-69.2C11,36,42,5,80.2,5c38.1,0,69.2,31,69.2,69.2
		C149.3,112.3,118.3,143.3,80.2,143.3L80.2,143.3z"/>
	<path class="st0" d="M80.2,30.8c-23.9,0-43.4,19.5-43.4,43.4c0,23.9,19.5,43.4,43.4,43.4c23.9,0,43.4-19.5,43.4-43.4
		C123.5,50.3,104.1,30.8,80.2,30.8L80.2,30.8z M80.2,120c-25.3,0-45.8-20.5-45.8-45.8c0-25.3,20.5-45.8,45.8-45.8
		c25.3,0,45.8,20.6,45.8,45.8C126,99.4,105.4,120,80.2,120L80.2,120z"/>
	<polygon class="st0" points="81.2,71.7 78.7,71.6 79,29.4 81.4,29.4 81.2,71.7 	"/>
	<path class="st0" d="M79.5,53.4H49.7c-0.6,0-1.1-0.5-1.1-1.1c0-0.6,0.5-1.1,1.1-1.1h29.8c0.6,0,1.1,0.5,1.1,1.1
		C80.6,52.9,80.1,53.4,79.5,53.4L79.5,53.4z"/>
	<path class="st0" d="M58.1,72.3c-0.6,0-1.1-0.5-1.1-1.1V57.4c0-0.6,0.5-1.1,1.1-1.1c0.6,0,1.1,0.5,1.1,1.1v13.8
		C59.2,71.8,58.7,72.3,58.1,72.3L58.1,72.3z"/>
	<path class="st0" d="M50.1,72.6c-0.6,0-1.1-0.5-1.1-1.1V57.4c0-0.6,0.5-1.1,1.1-1.1c0.6,0,1.1,0.5,1.1,1.1v14.2
		C51.2,72.2,50.7,72.6,50.1,72.6L50.1,72.6z"/>
	<path class="st0" d="M66.1,72.6c-0.6,0-1.1-0.5-1.1-1.1V57.6c0-0.6,0.5-1.1,1.1-1.1c0.6,0,1.1,0.5,1.1,1.1v13.9
		C67.2,72.1,66.7,72.6,66.1,72.6L66.1,72.6z"/>
	<path class="st0" d="M74.1,72.6c-0.6,0-1.1-0.5-1.1-1.1V57.6c0-0.6,0.5-1.1,1.1-1.1c0.6,0,1.1,0.5,1.1,1.1v13.9
		C75.2,72.1,74.7,72.6,74.1,72.6L74.1,72.6z"/>
	<path class="st0" d="M79.6,58.2H50.2c-0.6,0-1.1-0.5-1.1-1.1c0-0.6,0.5-1.1,1.1-1.1h29.5c0.6,0,1.1,0.5,1.1,1.1
		C80.7,57.7,80.2,58.2,79.6,58.2L79.6,58.2z"/>
	<path class="st0" d="M49.7,53.4c-0.2,0-0.4-0.1-0.6-0.2c-0.5-0.3-0.6-1-0.3-1.5C49.2,51,59.8,35.6,80,35.6h0c0.6,0,1.1,0.5,1.1,1.1
		c0,0.6-0.5,1.1-1.1,1.1h0h0c-19,0-29.4,15-29.5,15.1C50.3,53.2,50,53.4,49.7,53.4L49.7,53.4z"/>
	<path class="st0" d="M112.2,77.2c1.1,0,2.1,0.3,3.1,0.8c1.4,0.7,3.2,0.7,4.6,0c0.6-0.3,2.3-1,4.2-0.7l0-5.1c-1.6,0-2.8,0.5-3.1,0.6
		c-2.1,1.1-4.8,1.1-6.9,0c-1.3-0.7-2.7-0.7-3.9,0c-2.1,1.1-4.8,1.1-6.9,0c-1.3-0.7-2.7-0.7-3.9,0c-2.1,1.1-4.8,1.1-6.9,0
		c-1.3-0.7-2.7-0.7-3.9,0c-2.1,1.1-4.8,1.1-6.9,0c-1.3-0.7-2.7-0.7-3.9,0c-2.1,1.1-4.8,1.1-6.9,0c-1.3-0.7-2.7-0.7-3.9,0
		c-2.1,1.1-4.8,1.1-6.9,0c-1.3-0.7-2.7-0.7-3.9,0c-2.1,1.1-4.8,1.1-6.9,0c-1.3-0.7-2.7-0.7-3.9,0c-2.1,1.1-4.8,1.1-6.9,0
		c-0.2-0.1-1.8-0.8-2.1-0.9l-0.6,5.2c1.3-0.8,3.2,0.4,3.8,0.7c1.4,0.7,3.2,0.7,4.6,0c2-1,4.2-1,6.2,0c1.4,0.7,3.2,0.7,4.6,0
		c2-1,4.2-1,6.2,0c1.4,0.7,3.2,0.7,4.6,0c2-1,4.2-1,6.2,0c1.4,0.7,3.2,0.7,4.6,0c2-1,4.2-1,6.2,0c1.4,0.7,3.2,0.7,4.6,0
		c2-1,4.2-1,6.2,0c1.4,0.7,3.2,0.7,4.6,0c2-1,4.2-1,6.2,0c1.4,0.7,3.2,0.7,4.6,0C110.1,77.5,111.1,77.2,112.2,77.2L112.2,77.2z
		 M117.6,81c-1.2,0-2.4-0.3-3.4-0.8c-1.3-0.7-2.7-0.7-3.9,0c-2.1,1.1-4.8,1.1-6.9,0c-1.3-0.7-2.7-0.7-3.9,0c-2.1,1.1-4.8,1.1-6.9,0
		c-1.3-0.7-2.7-0.7-3.9,0c-2.1,1.1-4.8,1.1-6.9,0c-1.3-0.7-2.7-0.7-3.9,0c-2.1,1.1-4.8,1.1-6.9,0c-1.3-0.7-2.7-0.7-3.9,0
		c-2.1,1.1-4.8,1.1-6.9,0c-1.3-0.7-2.7-0.7-3.9,0c-2.1,1.1-4.8,1.1-6.9,0c-1.3-0.7-2.7-0.7-3.9,0c-2.1,1.1-4.8,1.1-6.9,0
		c-0.6-0.3-0.6-0.4-1.3-0.5l-1.1,0.2L35.3,70l1.2-0.2c1.1,0,2.1,0.4,3.1,0.9c1.4,0.7,3.2,0.7,4.6,0c2-1,4.2-1,6.2,0
		c1.4,0.7,3.2,0.7,4.6,0c2-1,4.2-1,6.2,0c1.4,0.7,3.2,0.7,4.6,0c2-1,4.2-1,6.2,0c1.4,0.7,3.2,0.7,4.6,0c2-1,4.2-1,6.2,0
		c1.4,0.7,3.2,0.7,4.6,0c2-1,4.2-1,6.2,0c1.4,0.7,3.2,0.7,4.6,0c2-1,4.2-1,6.2,0c1.4,0.7,3.2,0.7,4.6,0c2-1,4.2-1,6.2,0
		c1.4,0.7,3.2,0.7,4.6,0c1-0.5,2-0.8,3.1-0.8l2,0l-0.3,9.7l-1.2-0.1c-0.7,0-1.9,0.2-2.5,0.5C120,80.7,118.8,81,117.6,81L117.6,81z"
		/>
	<path class="st0" d="M99.9,72.3c-0.6,0-1.1-0.5-1.1-1.1V34.8c0-0.6,0.5-1.1,1.1-1.1c0.6,0,1.1,0.5,1.1,1.1v36.4
		C101,71.8,100.5,72.3,99.9,72.3L99.9,72.3z"/>
	<path class="st0" d="M119.7,55.7h-39c-0.6,0-1.1-0.5-1.1-1.1c0-0.6,0.5-1.1,1.1-1.1h39c0.6,0,1.1,0.5,1.1,1.1
		C120.7,55.2,120.3,55.7,119.7,55.7L119.7,55.7z"/>
	<path class="st0" d="M75.7,100.8c-0.1,1.5-1.3,2.6-2.8,2.5c-1.5-0.1-2.6-1.3-2.5-2.8c0.1-1.5,1.3-2.6,2.8-2.5
		C74.7,98.1,75.8,99.4,75.7,100.8L75.7,100.8z"/>
	<path class="st0" d="M68.5,108.1c-0.1,1.5-1.3,2.6-2.8,2.5c-1.5-0.1-2.6-1.3-2.5-2.8c0.1-1.5,1.3-2.6,2.8-2.5
		C67.4,105.4,68.6,106.6,68.5,108.1L68.5,108.1z"/>
	<path class="st0" d="M84,100.8c0.1,1.5,1.3,2.6,2.8,2.5c1.5-0.1,2.6-1.3,2.5-2.8c-0.1-1.5-1.3-2.6-2.8-2.5
		C85,98.1,83.9,99.4,84,100.8L84,100.8z"/>
	<path class="st0" d="M91.3,108.1c0.1,1.5,1.3,2.6,2.8,2.5c1.5-0.1,2.6-1.3,2.5-2.8c-0.1-1.5-1.3-2.6-2.8-2.5
		C92.3,105.4,91.2,106.6,91.3,108.1L91.3,108.1z"/>
	<path class="st0" d="M53.2,111c-0.3,0-0.6-0.1-0.8-0.3c-0.4-0.4-0.4-1.1,0-1.6l27-26.9c0.4-0.4,1.1-0.4,1.6,0l26.9,26.9
		c0.4,0.4,0.4,1.2,0,1.6c-0.4,0.4-1.1,0.4-1.6,0L80.2,84.6L54,110.7C53.8,110.9,53.5,111,53.2,111L53.2,111z"/>
	<path class="st0" d="M68.3,117.6c-0.3,0-0.6-0.1-0.8-0.3c-0.4-0.4-0.4-1.2,0-1.6L79.4,104c0.4-0.4,1.1-0.4,1.6,0l11.9,11.6
		c0.4,0.4,0.5,1.1,0,1.6c-0.4,0.4-1.1,0.5-1.6,0l-11.1-10.9l-11.1,10.9C68.9,117.5,68.6,117.6,68.3,117.6L68.3,117.6z"/>
	<path class="st0" d="M25.8,42.9c0.8-1.4,2-2.3,3.5-2.8c0.2-0.1,0.4,0,0.4,0.2c0.1,0.4,0.2,0.7,0.3,1.1c0.1,0.2,0,0.3-0.2,0.4
		c-1,0.3-1.9,1-2.5,1.9c-1.2,2.1-0.4,4.7,1.7,5.9c2.1,1.2,4.8,0.6,6-1.5c0.7-1.2,0.8-2.3,0.8-2.5l-1.7-1l-0.8,1.5
		c-0.1,0.2-0.3,0.2-0.4,0.1L32,45.7c-0.2-0.1-0.2-0.3-0.1-0.4l1.6-2.7c0.1-0.1,0.3-0.2,0.4-0.1c1.2,0.7,2.4,1.4,3.6,2.1
		c0.1,0,0.2,0.2,0.2,0.3c0,0,0.1,2.1-1.1,4.2c-1.7,3-5.4,4-8.4,2.3C25.2,49.6,24.1,45.8,25.8,42.9L25.8,42.9z"/>
	<path class="st0" d="M33.7,32.9c-0.1-0.1-0.1-0.3,0-0.5l0.8-0.8c0.1-0.1,0.3-0.1,0.5,0l7.2,7.1l3.3-3.3c0.1-0.1,0.3-0.1,0.5,0
		l0.7,0.7c0.1,0.1,0.1,0.3,0,0.5l-4.3,4.3c-0.1,0.1-0.3,0.1-0.5,0L33.7,32.9L33.7,32.9z"/>
	<path class="st0" d="M53.9,29.6c2.1-1.2,2.9-3.9,1.6-6.1c-1.2-2.1-4-2.9-6.1-1.6c-2.1,1.2-2.8,4-1.6,6.1
		C49,30.1,51.8,30.8,53.9,29.6L53.9,29.6z M48.5,20.4c3-1.7,6.7-0.7,8.4,2.3c1.7,3,0.7,6.7-2.2,8.4c-3,1.7-6.7,0.7-8.4-2.2
		C44.6,25.8,45.6,22.1,48.5,20.4L48.5,20.4z"/>
	<path class="st0" d="M68.6,23.7c1-0.2,1.6-1.2,1.4-2.2c-0.2-1-1.4-1.5-2.5-1.3l-2.3,0.5l0.8,3.6L68.6,23.7L68.6,23.7z M67.1,18.7
		c1.1-0.3,1.5-1.2,1.3-2.2c-0.2-1-1.1-1.6-2.1-1.3L64,15.8l0.8,3.5L67.1,18.7L67.1,18.7z M62.1,14.9c0-0.2,0.1-0.3,0.2-0.4l3.7-0.9
		c2-0.5,3.8,0.5,4.2,2.3c0.3,1.3-0.4,2.4-1.1,3.1c1,0.2,2.4,0.7,2.7,2.2c0.4,1.9-0.8,3.6-2.9,4.1l-3.9,0.9c-0.2,0-0.4-0.1-0.4-0.2
		L62.1,14.9L62.1,14.9z"/>
	<path class="st0" d="M84,20l-2-4.8l-0.1,0l-2.2,4.6L84,20L84,20z M76.2,23.4l5.6-11.4c0.1-0.1,0.2-0.2,0.3-0.2l0.2,0
		c0.1,0,0.2,0.1,0.3,0.2l4.9,11.7c0.1,0.2,0,0.4-0.3,0.4l-1.1,0c-0.2,0-0.3-0.1-0.4-0.3l-1-2.4L79,21.4c-0.4,0.8-0.7,1.5-1.1,2.3
		c-0.1,0.1-0.2,0.3-0.4,0.2l-1.1,0C76.2,23.9,76.1,23.7,76.2,23.4L76.2,23.4z"/>
	<path class="st0" d="M94.9,14.1c0-0.2,0.2-0.3,0.4-0.2l1.1,0.3c0.2,0,0.3,0.2,0.2,0.4l-2.8,9.7l4.5,1.3c0.2,0.1,0.3,0.2,0.2,0.4
		l-0.3,0.9c0,0.2-0.2,0.3-0.4,0.2L92,25.4c-0.2-0.1-0.3-0.2-0.2-0.4L94.9,14.1L94.9,14.1z"/>
	<path class="st0" d="M114.8,22.8c0.1-0.1,0.3-0.2,0.5-0.1l0.9,0.6c0.1,0.1,0.2,0.3,0.1,0.5l-6.4,9.3c-0.1,0.1-0.3,0.2-0.5,0.1
		l-0.9-0.6c-0.1-0.1-0.2-0.3-0.1-0.5L114.8,22.8L114.8,22.8z"/>
	<path class="st0" d="M121.8,28c0.1-0.2,0.3-0.3,0.5-0.1l0.8,0.9c0.1,0.1,0.1,0.3,0.1,0.3l-3.6,8.6l0.1,0.1l8.7-3.1
		c0.1,0,0.2,0,0.3,0.1l0.8,0.9c0.2,0.2,0.1,0.4-0.1,0.5l-12,4.1c-0.1,0-0.2,0-0.3-0.1l-0.1-0.1c-0.1-0.1-0.1-0.2-0.1-0.3L121.8,28
		L121.8,28z"/>
	<path class="st0" d="M129.7,47.4l3.1-6.2c0.1-0.2,0.4-0.2,0.6,0l0.6,1.1c0.1,0.1,0,0.2,0,0.3l-2.4,4.8L137,48
		c0.1,0,0.2,0.1,0.3,0.2l0.6,1.1c0.1,0.2,0,0.5-0.3,0.5l-6.9-0.9l-4.8,2.6c-0.2,0.1-0.4,0-0.4-0.1l-0.5-1c-0.1-0.2,0-0.4,0.1-0.4
		L129.7,47.4L129.7,47.4z"/>
	<path class="st0" d="M36.2,98.5c0.1-0.1,0.3-0.1,0.4,0.1l3.6,5.8c0.1,0.2,0,0.4-0.1,0.4l-0.8,0.5c-0.1,0.1-0.3,0.1-0.4-0.1
		l-2.9-4.6l-3,1.9l2.4,3.9c0.1,0.1,0,0.4-0.1,0.4l-0.8,0.5c-0.2,0.1-0.4,0-0.4-0.1l-2.4-3.9l-3.1,2l2.9,4.6c0.1,0.2,0,0.4-0.1,0.4
		l-0.8,0.5c-0.1,0.1-0.4,0.1-0.5-0.1l-3.6-5.8c-0.1-0.2,0-0.4,0.1-0.4L36.2,98.5L36.2,98.5z"/>
	<path class="st0" d="M38.8,118.3c1.8,1.7,4.4,1.6,6.2-0.2c1.7-1.8,1.6-4.4-0.2-6.1l-1.7-1.5l-6,6.4L38.8,118.3L38.8,118.3z
		 M42.8,108.2c0.1-0.1,0.3-0.1,0.4,0l2.9,2.7c2.4,2.3,2.6,6.1,0.3,8.5c-2.3,2.4-6.1,2.5-8.5,0.3l-2.9-2.7c-0.1-0.1-0.1-0.3,0-0.4
		L42.8,108.2L42.8,108.2z"/>
	<path class="st0" d="M53.5,117.3c0.1-0.2,0.3-0.2,0.4-0.1l1,0.5c0.2,0.1,0.2,0.3,0.1,0.4l-3.2,6.3c-0.8,1.5-0.4,3.2,1.2,4
		c1.6,0.8,3.2,0.1,3.9-1.4l3.2-6.3c0.1-0.2,0.3-0.2,0.4-0.1l1,0.5c0.2,0.1,0.2,0.3,0.1,0.4l-3.3,6.4c-1.2,2.3-3.9,3.2-6.3,2
		c-2.4-1.2-3.2-3.9-2-6.2L53.5,117.3L53.5,117.3z"/>
	<path class="st0" d="M71.6,123.6c1.7,0.3,2.8,1.1,3.8,2.4c0.1,0.2,0.1,0.4-0.1,0.5l-0.9,0.6c-0.1,0.1-0.3,0.1-0.4-0.1
		c-0.7-0.8-1.6-1.5-2.7-1.7c-2.4-0.5-4.6,1.2-5.1,3.5c-0.5,2.4,1,4.7,3.4,5.2c1.2,0.2,2.2-0.1,3.1-0.5c0.2-0.1,0.3,0,0.4,0.1
		l0.6,0.9c0.1,0.1,0,0.4-0.1,0.4c-1.4,0.9-2.9,1.1-4.4,0.8c-3.4-0.7-5.5-3.9-4.9-7.2C65,125.1,68.2,122.9,71.6,123.6L71.6,123.6z"/>
	<path class="st0" d="M86.3,132.1l-2.4-4.5l-0.1,0l-1.8,4.8L86.3,132.1L86.3,132.1z M78.8,136.2l4.4-11.9c0-0.1,0.2-0.2,0.3-0.2
		l0.2,0c0.1,0,0.2,0.1,0.3,0.2l6,11.1c0.1,0.2,0,0.4-0.3,0.5l-1.1,0.1c-0.2,0-0.3-0.1-0.4-0.2l-1.2-2.3l-5.6,0.4
		c-0.3,0.8-0.6,1.6-0.9,2.4c0,0.1-0.2,0.3-0.4,0.3l-1.1,0.1C78.9,136.7,78.8,136.5,78.8,136.2L78.8,136.2z"/>
	<path class="st0" d="M94,124.2l-2.7,0.8c-0.2,0.1-0.4-0.1-0.4-0.2l-0.3-0.9c0-0.2,0-0.4,0.2-0.4l7.1-2.1c0.2-0.1,0.4,0.1,0.4,0.2
		l0.3,0.9c0,0.2,0,0.4-0.2,0.4l-2.7,0.8l2.9,9.6c0.1,0.2-0.1,0.4-0.2,0.4l-1.1,0.3c-0.2,0-0.4-0.1-0.4-0.2L94,124.2L94,124.2z"/>
	<path class="st0" d="M101.8,119.8c-0.1-0.2,0-0.4,0.1-0.4l1-0.5c0.2-0.1,0.4,0,0.4,0.1l5.1,10.1c0.1,0.2,0,0.4-0.1,0.4l-1,0.5
		c-0.2,0.1-0.4,0-0.4-0.1L101.8,119.8L101.8,119.8z"/>
	<path class="st0" d="M118.5,121c1.9-1.6,2.1-4.4,0.6-6.3c-1.6-1.9-4.4-2.1-6.3-0.6c-1.9,1.6-2.1,4.4-0.5,6.3
		C113.8,122.3,116.7,122.6,118.5,121L118.5,121z M111.7,112.9c2.6-2.2,6.5-1.8,8.7,0.8c2.2,2.6,1.8,6.5-0.8,8.7
		c-2.6,2.2-6.5,1.8-8.7-0.8C108.8,118.9,109.1,115.1,111.7,112.9L111.7,112.9z"/>
	<path class="st0" d="M119.1,106.1c-0.1-0.1-0.2-0.3-0.1-0.4l0.2-0.4l11.2-1.5l0,0l-6.8-4.4c-0.1-0.1-0.2-0.3-0.1-0.4l0.6-0.9
		c0.1-0.1,0.3-0.2,0.5-0.1l9.6,6.3c0.1,0.1,0.2,0.3,0.1,0.4l-0.2,0.4l-11.4,1.4l0,0l7,4.5c0.1,0.1,0.2,0.3,0.1,0.4l-0.6,0.9
		c-0.1,0.1-0.3,0.2-0.5,0.1L119.1,106.1L119.1,106.1z"/>
</g>
</svg>
