<?xml version="1.0" encoding="utf-8"?>
<!-- Generator: Adobe Illustrator 21.0.2, SVG Export Plug-In . SVG Version: 6.00 Build 0)  -->
<svg version="1.1" id="Layer_1" xmlns="http://www.w3.org/2000/svg" xmlns:xlink="http://www.w3.org/1999/xlink" x="0px" y="0px"
	 viewBox="0 0 2408 348" style="enable-background:new 0 0 2408 348;" xml:space="preserve">
<style type="text/css">
	.st0{fill:#A41F35;}
	.st1{fill:#8A8C8C;}
	.st2{fill:#555759;}
</style>
<g>
	<g>
		<g>
			<polygon class="st0" points="823.3,323.8 877.7,323.8 877.7,310.5 837.7,310.5 837.7,276.1 876.5,276.1 876.5,262.7 837.7,262.7 
				837.7,237.9 877.7,237.9 877.7,224.5 823.3,224.5 			"/>
			<polygon class="st0" points="968.4,224.5 951.9,224.5 931.5,258.7 912.3,224.5 895.9,224.5 923.3,271.9 892.1,323.8 908.3,323.8 
				931.4,285.2 953.7,323.8 969.9,323.8 939.7,271.9 			"/>
			<polygon class="st0" points="988,323.8 1042.5,323.8 1042.5,310.5 1002.5,310.5 1002.5,276.1 1041.3,276.1 1041.3,262.7 
				1002.5,262.7 1002.5,237.9 1042.5,237.9 1042.5,224.5 988,224.5 			"/>
			<path class="st0" d="M1114.4,222.5c-29.6,0-52.7,22.9-52.7,52.2c0,28.2,23.2,51.2,51.7,51.2c8.9,0,18.6-2.6,26.1-7l0.6-0.3v-17.5
				l-1.9,1.7c-7,6.3-15.9,9.7-25.1,9.7c-20.4,0-36.9-17.1-36.9-38.2c0-21.2,16.7-38.5,37.2-38.5c9,0,18.3,3.4,24.8,9.2l1.9,1.7
				v-17.2l-0.6-0.3C1132.2,224.8,1123.6,222.5,1114.4,222.5z"/>
			<path class="st0" d="M1221.3,282.9c0,19.7-7.3,29.3-22.3,29.3s-22.3-9.6-22.3-29.3v-58.4h-14.4V287c0,23.2,14.7,38.9,36.7,38.9
				c21.9,0,36.7-15.6,36.7-38.9v-62.5h-14.4V282.9z"/>
			<polygon class="st0" points="1253,237.9 1276.1,237.9 1276.1,323.8 1290.5,323.8 1290.5,237.9 1313.5,237.9 1313.5,224.5 
				1253,224.5 			"/>
			<rect x="1332.3" y="224.5" class="st0" width="14.4" height="99.3"/>
			<polygon class="st0" points="1407.6,294.4 1379.5,224.5 1363.7,224.5 1407.6,330.9 1451.4,224.5 1435.7,224.5 			"/>
			<polygon class="st0" points="1468.7,323.8 1523.2,323.8 1523.2,310.5 1483.2,310.5 1483.2,276.1 1522,276.1 1522,262.7 
				1483.2,262.7 1483.2,237.9 1523.2,237.9 1523.2,224.5 1468.7,224.5 			"/>
			<polygon class="st0" points="1596.9,323.8 1651.3,323.8 1651.3,310.5 1611.3,310.5 1611.3,276.1 1650.1,276.1 1650.1,262.7 
				1611.3,262.7 1611.3,237.9 1651.3,237.9 1651.3,224.5 1596.9,224.5 			"/>
			<path class="st0" d="M1696,224.5h-21.2v99.3h20.8c34.5,0,56-19.2,56-50.2C1751.6,243.8,1729.8,224.5,1696,224.5z M1689.2,237.9
				h3.1c20.5,0,44.9,6.3,44.9,36.3c0,16.6-7.8,36.3-44.9,36.3h-3.1V237.9z"/>
			<path class="st0" d="M1830.6,282.9c0,19.7-7.3,29.3-22.3,29.3s-22.3-9.6-22.3-29.3v-58.4h-14.4V287c0,23.2,14.7,38.9,36.7,38.9
				c21.9,0,36.7-15.6,36.7-38.9v-62.5h-14.4V282.9z"/>
			<path class="st0" d="M1918.7,222.5c-29.6,0-52.7,22.9-52.7,52.2c0,28.2,23.2,51.2,51.7,51.2c8.9,0,18.6-2.6,26.1-7l0.6-0.3v-17.5
				l-1.9,1.7c-7,6.3-15.9,9.7-25.1,9.7c-20.4,0-36.9-17.1-36.9-38.2c0-21.2,16.7-38.5,37.2-38.5c9,0,18.3,3.4,24.8,9.2l1.9,1.7
				v-17.2l-0.6-0.3C1936.6,224.8,1927.9,222.5,1918.7,222.5z"/>
			<path class="st0" d="M1957.4,323.8h15.5l11.1-24.3h43l11.1,24.3h15.5l-48.1-105.1L1957.4,323.8z M2005.5,250.9l15.5,35.2h-30.9
				L2005.5,250.9z"/>
			<polygon class="st0" points="2061.7,237.9 2084.8,237.9 2084.8,323.8 2099.2,323.8 2099.2,237.9 2122.2,237.9 2122.2,224.5 
				2061.7,224.5 			"/>
			<rect x="2141" y="224.5" class="st0" width="14.4" height="99.3"/>
			<path class="st0" d="M2228.3,222.5c-28.7,0-52,23.2-52,51.7c0,29,22.8,51.7,52,51.7s52-22.7,52-51.7
				C2280.3,245.7,2257,222.5,2228.3,222.5z M2228.3,312.3c-20.7,0-37.6-17.1-37.6-38.1c0-21.7,16.2-38.1,37.6-38.1
				c21.4,0,37.6,16.4,37.6,38.1C2265.9,295.2,2249,312.3,2228.3,312.3z"/>
			<polygon class="st0" points="2373.3,224.5 2373.3,294.4 2300.5,218.2 2300.5,323.8 2314.9,323.8 2314.9,253.3 2387.7,329.6 
				2387.7,224.5 			"/>
		</g>
		<g>
			<polygon class="st1" points="423.7,329.5 470.8,329.5 483,329.5 514.9,329.5 514.9,24.3 423.7,24.3 			"/>
		</g>
		<polygon class="st2" points="523,24.3 523,99.6 560.7,99.6 560.7,329.5 656.4,329.5 656.4,99.6 759.8,99.6 759.8,24.3 		"/>
		<polygon class="st0" points="415.5,176.9 414.2,170.3 387.1,24.3 295.7,24.3 233.8,172.5 171.9,24.3 80.2,24.3 23.4,329.5 
			114.5,329.5 143.7,173.1 212.2,329.5 255.4,329.5 323.6,173.1 352.7,329.5 384.5,329.5 415.5,329.5 		"/>
		<g>
			<g>
				<g id="XMLID_72_">
					<path id="XMLID_91_" class="st2" d="M850,24.5h38.9l30.9,81.3l32.7-81.3h39.3l27.9,152.1h-42.8l-12.7-87.5h-0.4l-36.5,87.5
						h-15.7l-34.9-87.5h-0.4l-14.3,87.5h-40L850,24.5z"/>
					<path id="XMLID_88_" class="st2" d="M1079.6,150.2l-10.5,26.4h-42l58.5-152.1h43.2l57.3,152.1h-42.2l-9.9-26.4H1079.6z
						 M1107.3,71.5h-0.4l-16.3,48.4h32.9L1107.3,71.5z"/>
					<path id="XMLID_86_" class="st2" d="M1197.7,24.5h39.5l72.4,93h0.4v-93h39.5v152.1H1310l-72.4-93.2h-0.4v93.2h-39.5V24.5z"/>
					<path id="XMLID_83_" class="st2" d="M1413.6,150.2l-10.5,26.4h-42l58.5-152.1h43.2l57.3,152.1h-42.1l-9.9-26.4H1413.6z
						 M1441.2,71.5h-0.4l-16.3,48.4h32.9L1441.2,71.5z"/>
					<path id="XMLID_81_" class="st2" d="M1677.9,91.7c-0.4,22.2-2,41.1-15.5,60.1c-14.9,20.8-37.3,29.8-62.7,29.8
						c-47.8,0-81.1-32.5-81.1-80.3c0-49.4,33.5-81.9,82.5-81.9c31.3,0,55.5,14.1,68.6,42.6l-37.5,15.7
						c-5.4-14.5-16.9-24.2-32.9-24.2c-26,0-39.5,24.8-39.5,48c0,23.6,14.1,47.6,40.1,47.6c17.1,0,30.3-8.9,31.9-26.4h-32.3V91.7
						H1677.9z"/>
					<path id="XMLID_79_" class="st2" d="M1736,58v25.4h44.6v33.5H1736v26.2h47v33.5h-86.5V24.5h86.5V58H1736z"/>
					<path id="XMLID_77_" class="st2" d="M2048.9,58v25.4h44.6v33.5h-44.6v26.2h47v33.5h-86.5V24.5h86.5V58H2048.9z"/>
					<path id="XMLID_75_" class="st2" d="M2120.4,24.5h39.5l72.4,93h0.4v-93h39.5v152.1h-39.5l-72.4-93.2h-0.4v93.2h-39.5V24.5z"/>
					<path id="XMLID_73_" class="st2" d="M2357,176.6h-39.5V58h-32.7V24.5h104.9V58H2357V176.6z"/>
				</g>
			</g>
			<path id="XMLID_70_" class="st2" d="M1825.3,24.5h38.9l30.9,81.3l32.7-81.3h39.3l27.8,152.1h-42.8l-12.7-87.5h-0.4l-36.5,87.5
				h-15.7L1852,89.1h-0.4l-14.3,87.5h-40L1825.3,24.5z"/>
		</g>
	</g>
</g>
</svg>
