<svg id="Layer_1" data-name="Layer 1" xmlns="http://www.w3.org/2000/svg" xmlns:xlink="http://www.w3.org/1999/xlink" viewBox="0 0 2381.1999 786.2307"><defs><style>.cls-1{fill:none;}.cls-2{clip-path:url(#clip-path);}.cls-3{fill:#026937;}.cls-4{fill:#00703c;}.cls-5{fill:#231f20;}.cls-6{fill:#69a688;}</style><clipPath id="clip-path" transform="translate(-31.1416 -25.2786)"><rect class="cls-1" x="31.1416" y="25.2786" width="2341.8584" height="786.2307"/></clipPath></defs><title>TUCK_NEW</title><g class="cls-2"><path class="cls-3" d="M428.0169,91.0023H322.1834L428.0169,163.518V91.0023Zm-355.3823,0V163.518L177.0083,91.0023ZM86.9979,203.1478H413.76L249.706,91.0023,86.9979,203.1478ZM72.6347,371.5245h37.93V244.5839h-37.93V371.5245Zm79.4327,0h37.9013V244.5839H152.0674V371.5245Zm79.3275,0h37.92V244.5839h-37.92V371.5245Zm79.6442,0h37.5835V244.5839H311.0391V371.5245Zm79.1927,0h37.7852V244.5839H390.2317V371.5245ZM75.0941,413.2783c.8264,28.5809,14.2481,58.1426,35.3257,75.1287,22.3949,18.081,49.3437-.2784,75.9649-2.4978,15.7465-1.2494,29.6385,5.8319,45.3751,8.5314,18.0711,3.3242,33.7694-4.5441,51.4372-8.5314,19.1474-3.9873,35.797,4.4575,54.3295,8.5314,21.2606,4.64,38.7463-9.8674,58.8736-8.9829,19.2625-18.446,27.6689-46.0667,29.485-72.1793ZM151.3955,521.11c14.9388-3.6508,28.37-10.4724,43.8187-8.6366,17.6,2.0945,33.7792,11.2014,51.3988,9.5978,19.2527-1.8643,37.2382-13.8064,57.3172-9.3578,25.4977,5.5436,58.0275,16.6781,76.5984-6.9554-12.0376-1.1343-24.3349,7.8-36.94,5.9371-19.1179-2.6523-36.6519-12.3937-55.9144-9.7808-17.4946,2.6139-33.4526,11.5191-51.3988,9.588-18.9162-2.2479-36.2957-12.4222-55.8849-8.3582-16.8227,3.5456-30.9262,10.2894-47.8542,9.1846,5.2259,6.7635,10.433,10.8659,18.8591,8.7813m9.8949,14.6033c24.2493,18.8109,59.1333,30.455,90.0015,41.6377,32.1747-4.2942,64.2441-21.3855,89.9336-39.2166-15.1119-2.0659-26.4008-8.2815-43.2137-9.4345-13.3057-.98-24.9694,4.064-37.7754,7.8781-20.6555,6.0237-40.2742-2.1142-60.5549-6.6386-13.93-3.1707-27.8322,1.1136-38.3912,5.7738M469.6645,49.46V412.3368c-6.0808,159.1439-218.6421,211.2441-218.6421,211.2441S40.2485,572.22,31.1416,412.3368V49.46Z" transform="translate(-31.1416 -25.2786)"/><path class="cls-4" d="M227.6673,152.5459c0-13.3057,10.3956-24.0948,23.3462-24.0948,12.8345,0,23.355,10.7892,23.355,24.0948,0,13.2486-10.5206,24.0476-23.355,24.0476-12.9505,0-23.3462-10.799-23.3462-24.0476" transform="translate(-31.1416 -25.2786)"/><path class="cls-4" d="M126.0611,433.7223c0-4.4388-.3463-5.3606-4.6976-5.3606h-3.92v-1.8928c4.0355.1151,8.2628.1151,11.6057.1151,3.2957,0,7.4168,0,11.4906-.1151v1.8928h-3.9587c-4.3611,0-4.6877.9218-4.6877,5.3606V449.67c0,5.3124,0,6.004,4.8609,6.004h3.7856v1.7777c-3.7856,0-7.61-.1151-11.4906-.1151-4.064,0-7.7532.1151-11.6057.1151v-1.7777h3.8525c4.7655,0,4.7655-.6916,4.7655-6.004V433.7223Z" transform="translate(-31.1416 -25.2786)"/><path class="cls-4" d="M190.6317,470.9408c8.4153-2.3158,25.0167-12.3839,25.0167-30.9548,0-7.9834-3.8427-12.7676-8.7714-12.7676-4.2559,0-7.6952,4.1978-7.6952,10.0779,0,5.2839,2.7,9.1846,7.35,9.1846,2.5746,0,5.4856-2.1811,6.9652-3.3055v2.2007c-3.6125,3.641-6.11,4.8894-10.1645,4.8894-4.1506,0-10.0877-3.3045-10.0877-11.3942,0-7.8781,6.7252-13.3923,14.91-13.3923,8.34,0,13.3637,6.35,13.3637,15.1414,0,14.9584-13.21,27.4574-30.2533,31.9051l-.6336-1.5849Z" transform="translate(-31.1416 -25.2786)"/><path class="cls-4" d="M288.6255,458.5668a16.5592,16.5592,0,1,1,16.1311-16.5059,16.446,16.446,0,0,1-16.1311,16.5059m-11.4424-16.5059a11.4235,11.4235,0,1,0,11.4424-11.768,11.5915,11.5915,0,0,0-11.4424,11.768" transform="translate(-31.1416 -25.2786)"/><path class="cls-4" d="M371.2093,458.5668a16.5614,16.5614,0,0,1,0-33.1073c8.9731,0,16.0445,7.4079,16.0445,16.6014a16.2074,16.2074,0,0,1-16.0445,16.5059m-11.4512-16.5059a11.4311,11.4311,0,1,0,22.8553,0,11.4326,11.4326,0,1,0-22.8553,0" transform="translate(-31.1416 -25.2786)"/><polygon class="cls-3" points="521.521 339.406 2307.301 339.406 2307.301 332.787 521.521 332.787 521.521 339.406 521.521 339.406"/><polygon class="cls-4" points="521.521 603.932 2307.301 603.932 2307.301 597.322 521.521 597.322 521.521 603.932 521.521 603.932"/><path class="cls-5" d="M745.6052,93.0289H736.334c-1.0379-18.5611,0-30.9351-27.5253-30.9351H656.5451V254.3066c0,24.0762,13.0568,24.4116,31.2912,24.7579v8.9534c-16.505,0-31.2912-.6818-46.4317-.6818-16.5059,0-32.6459.3463-49.8621.6818v-8.9534c18.2344-.3463,31.32-.6818,31.32-24.7579V62.0938H577.804c-30.9538,0-32.3281,8.58-38.1787,30.9351h-8.9347l3.7758-54.665h6.8885C545.13,47.644,554.42,47.98,563.0089,47.98H719.1364c12.3839,0,20.992-3.1029,22.3378-9.6165h7.2338l-3.1029,54.665Z" transform="translate(-31.1416 -25.2786)"/><path class="cls-5" d="M880.424,269.1116c0,6.1772,3.7846,6.5422,9.6362,6.5422,4.1112,0,9.2613-.365,13.7474-.365v7.2249c-14.7951,1.3832-42.9924,8.5983-49.5247,10.6445L852.572,292.14V264.2881c-20.6359,16.8512-36.45,28.87-60.8815,28.87-18.5611,0-37.8137-12.0189-37.8137-40.9176V164.2195c0-8.9347-1.3832-17.5625-20.6457-19.2723v-6.5235c12.3839-.3365,39.8984-2.4024,44.3756-2.4024,3.7758,0,3.7758,2.4024,3.7758,9.9726v88.7236c0,10.3179,0,39.89,29.9169,39.89,11.6923,0,27.1692-8.9347,41.619-20.9831V161.1255c0-6.8786-16.5148-10.6642-28.8987-14.1035v-6.187c30.9548-2.0748,50.2261-4.8137,53.6566-4.8137,2.7477,0,2.7477,2.4024,2.7477,6.1969V269.1116Z" transform="translate(-31.1416 -25.2786)"/><path class="cls-5" d="M1057.9469,257.4095c-16.8611,19.5891-39.8993,35.7586-67.0488,35.7586-35.7586,0-68.4429-34.7305-68.4429-71.1709,0-49.8523,35.7871-91.1437,85.2941-91.1437,17.533,0,46.4317,5.5043,46.4317,23.7387,0,7.9165-4.8225,15.1316-13.0952,15.1316-14.42,0-13.7474-27.8509-46.0765-27.8509-29.5706,0-45.0386,32.9912-45.0386,59.152,0,35.4123,22.7018,66.7026,60.18,66.7026,17.5428,0,28.9085-6.1959,41.9643-16.1685l5.8319,5.8506Z" transform="translate(-31.1416 -25.2786)"/><path class="cls-5" d="M1239.3606,144.957c-18.5611,0-29.9169,7.56-42.6461,19.2625l-38.16,34.3842,58.1239,64.311c13.7474,15.1119,16.1685,16.16,31.9818,16.8414v8.2815c-8.9534-.365-14.7853-.72-26.8327-.72-7.5515,0-15.468.3551-23.0284.72-3.4393-4.8323-7.2249-9.6647-11.0105-14.1232l-54.6748-61.9086h-6.8688v55.7215c0,11.347,7.5515,11.347,17.1966,11.347h6.1782v8.9633c-12.0287,0-24.0575-.72-36.46-.72-12.3839,0-24.7481.3551-37.1418.72v-8.9633h6.2067c9.6165,0,16.505,0,16.505-11.347V76.1875c0-22.3555-5.1688-23.0383-18.2246-26.8327V43.85c13.7385-4.4674,28.1776-10.6642,35.4123-14.7755,3.7659-2.0561,6.5234-3.7954,7.56-3.7954,2.0846,0,2.7674,2.0748,2.7674,4.8225V204.108l11-2.0551,37.1418-32.6656c5.4866-4.8225,13.4021-13.0755,13.4021-17.5517,0-6.8786-11.346-6.8786-16.86-6.8786v-8.9357c12.0277.3365,24.4313.6926,36.459.6926,10.6741,0,21.3186-.3561,31.973-.6926v8.9357Z" transform="translate(-31.1416 -25.2786)"/><polygon class="cls-5" points="520.906 525.115 520.906 411.633 579.375 411.633 579.375 424.2 535.365 424.2 535.365 460.679 576.244 460.679 576.244 473.245 535.365 473.245 535.365 512.538 580.317 512.538 580.317 525.115 520.906 525.115 520.906 525.115"/><polygon class="cls-5" points="688.005 525.115 670.577 525.115 644.157 476.559 619.169 525.115 603.451 525.115 636.154 466.318 605.181 411.633 621.859 411.633 645.099 455.644 668.685 411.633 684.565 411.633 654.062 466.318 688.005 525.115 688.005 525.115"/><polygon class="cls-5" points="718.383 525.115 718.383 411.633 776.862 411.633 776.862 424.2 732.833 424.2 732.833 460.679 773.721 460.679 773.721 473.245 732.833 473.245 732.833 512.538 777.795 512.538 777.795 525.115 718.383 525.115 718.383 525.115"/><path class="cls-5" d="M893.8546,468.1931c.1535-6.4467-.3168-12.8935-3.3144-16.505-2.9592-3.6321-9.7414-4.8806-12.7292-4.8806-11.9323,0-16.6594,7.2436-17.1306,8.8-.4516,1.2681-3.2947,4.0925-3.2947,23.5951V509.514c0,27.8421,9.1079,31.1565,20.2807,31.1565,4.4093,0,17.7642-1.5849,17.9177-23.7594h14.9388c.5961,35.8452-24.69,35.8452-32.0783,35.8452-14.1419,0-35.8353-.9415-35.8353-44.9619V475.725c0-32.06,14.133-41.1763,36.46-41.1763,22.5,0,31.1269,11.6529,29.7152,33.6444Z" transform="translate(-31.1416 -25.2786)"/><path class="cls-5" d="M946.5215,436.9117H960.99V509.514c0,24.8543,7.5614,31.1565,21.2232,31.1565,13.6805,0,21.232-6.3021,21.232-31.1565V436.9117h14.4488v71.9776c0,31.4447-11.6342,43.8866-35.6809,43.8866s-35.6917-12.4419-35.6917-43.8866V436.9117Z" transform="translate(-31.1416 -25.2786)"/><polygon class="cls-5" points="1091.318 411.633 1091.318 424.2 1061.459 424.2 1061.459 525.115 1046.991 525.115 1046.991 424.2 1017.111 424.2 1017.111 411.633 1091.318 411.633 1091.318 411.633"/><polygon class="cls-5" points="1138.356 525.115 1123.877 525.115 1123.877 411.633 1138.356 411.633 1138.356 525.115 1138.356 525.115"/><polygon class="cls-5" points="1220.873 525.115 1203.588 525.115 1170.742 411.633 1186.459 411.633 1212.398 511.453 1212.706 511.453 1239.27 411.633 1254.046 411.633 1220.873 525.115 1220.873 525.115"/><polygon class="cls-5" points="1284.569 525.115 1284.569 411.633 1343.048 411.633 1343.048 424.2 1299.027 424.2 1299.027 460.679 1339.887 460.679 1339.887 473.245 1299.027 473.245 1299.027 512.538 1343.979 512.538 1343.979 525.115 1284.569 525.115 1284.569 525.115"/><polygon class="cls-5" points="1429.532 525.115 1429.532 411.633 1488.012 411.633 1488.012 424.2 1444.011 424.2 1444.011 460.679 1484.87 460.679 1484.87 473.245 1444.011 473.245 1444.011 512.538 1488.934 512.538 1488.934 525.115 1429.532 525.115 1429.532 525.115"/><path class="cls-5" d="M1555.3247,436.9117h34.9223c14.4587,0,24.816,5.1885,30.4649,17.2831,4.5726,9.5978,5.0439,32.2229,5.0439,35.8452,0,24.1913-2.2,38.18-6.917,45.73-6.12,9.7424-17.6107,14.623-37.3917,14.623h-26.1224V436.9117Zm14.4685,100.9146h13.69c20.0987,0,27.4869-7.5515,27.4869-33.9327V480.9223c0-22.9517-7.0813-31.4437-22.1263-31.4437h-19.051v88.3478Z" transform="translate(-31.1416 -25.2786)"/><path class="cls-5" d="M1666.3368,436.9117h14.4685V509.514c0,24.8543,7.5319,31.1565,21.2222,31.1565s21.2232-6.3021,21.2232-31.1565V436.9117H1737.7v71.9776c0,31.4447-11.6244,43.8866-35.672,43.8866-24.0663,0-35.6907-12.4419-35.6907-43.8866V436.9117Z" transform="translate(-31.1416 -25.2786)"/><path class="cls-5" d="M1828.5944,468.1931c.1634-6.4467-.3463-12.8935-3.3055-16.505-2.9976-3.6321-9.7414-4.8806-12.7292-4.8806-11.9609,0-16.6781,7.2436-17.13,8.8-.4811,1.2681-3.2957,4.0925-3.2957,23.5951V509.514c0,27.8421,9.0882,31.1565,20.262,31.1565,4.4192,0,17.7544-1.5849,17.9462-23.7594h14.8915c.6336,35.8452-24.6811,35.8452-32.05,35.8452-14.1616,0-35.8354-.9415-35.8354-44.9619V475.725c0-32.06,14.1321-41.1763,36.45-41.1763,22.5,0,31.1368,11.6529,29.6956,33.6444Z" transform="translate(-31.1416 -25.2786)"/><path class="cls-5" d="M1907.3542,436.9117h18.3978l36.94,113.4815h-16.1783l-8.2146-27.0354H1894.48l-8.5019,27.0354h-14.6131l35.9887-113.4815Zm8.8009,13.3539h-.3079L1898.083,510.792H1934.38l-18.2246-60.5264Z" transform="translate(-31.1416 -25.2786)"/><polygon class="cls-5" points="2026.048 411.633 2026.048 424.2 1996.188 424.2 1996.188 525.115 1981.739 525.115 1981.739 424.2 1951.861 424.2 1951.861 411.633 2026.048 411.633 2026.048 411.633"/><polygon class="cls-5" points="2073.056 525.115 2058.607 525.115 2058.607 411.633 2073.056 411.633 2073.056 525.115 2073.056 525.115"/><path class="cls-5" d="M2146.8349,508.9179V471.661c0-22.6438,11.6243-37.1123,35.7-37.1123,24.0181,0,35.6622,14.4685,35.6622,37.1123v37.2569c0,31.4162-11.6441,43.8286-35.6622,43.8286-24.0762,0-35.7-12.4124-35.7-43.8286m56.5862.5962V471.1622c0-23.7112-16.3515-24.509-20.8857-24.509-4.5726,0-20.9153.7978-20.9153,24.509V509.514c0,24.8543,7.2052,31.1565,20.9153,31.1565,13.6618,0,20.8857-6.3021,20.8857-31.1565" transform="translate(-31.1416 -25.2786)"/><polygon class="cls-5" points="2302.612 411.633 2302.612 525.115 2282.802 525.115 2238.013 426.716 2237.686 426.716 2237.686 525.115 2224.813 525.115 2224.813 411.633 2245.238 411.633 2289.412 508.753 2289.719 508.753 2289.719 411.633 2302.612 411.633 2302.612 411.633"/><path class="cls-5" d="M1342.9463,804.4861c-3.2081,2.9976-6.7438,6.1969-11.346,6.1969-4.6976,0-6.8885-4.3621-7.1187-8.4832-5.39,4.9376-10.5393,8.4832-17.6393,8.4832-7.34,0-12.3937-5.034-12.3937-11.1059.4614-9.1846,5.1688-10.9043,29.9366-19.3874v-7.58c0-6.428-3.7856-9.8575-11.1345-9.8575-5.0439,0-8.493,2.8727-8.7045,8.0316,0,3.2091-3.67,4.8137-6.4369,4.8137a2.0639,2.0639,0,0,1-2.0561-2.2775c0-6.1,5.1688-8.9633,13.1817-13.0853,4.0158-2.0551,5.9657-3.66,10.3366-3.66,5.14,0,13.9885,3.3045,13.9885,9.6067v31.7625c0,4.7163,1.5858,6.5422,4.1221,6.5422a5.6641,5.6641,0,0,0,4.2361-1.941l1.0281,1.941Zm-18.5611-20.9723c-5.87,2.305-20.7706,4.9091-20.7706,13.527a8.2725,8.2725,0,0,0,8.1566,8.2421c5.3892,0,8.8285-3.3045,12.6141-6.6474V783.5137Z" transform="translate(-31.1416 -25.2786)"/><path class="cls-5" d="M1371.7013,794.86c0,7.57,4.121,9.645,7.2249,9.645,3.0832,0,5.3892-1.0566,8.0218-3.3331l1.72,1.7c-4.0256,4.1407-9.05,7.82-15.2664,7.82-7.32,0-10.8846-3.9-10.8846-10.6632V764.4716h-7.5614v-1.8348c5.9568-4.6021,9.5211-6.7635,15.3529-16.0445h1.3931v11.7021h17.0814v6.1772h-17.0814V794.86Z" transform="translate(-31.1416 -25.2786)"/><path class="cls-5" d="M1459.4057,709.5086c0-15.2565-7.9648-14.2285-15.5921-14.4115v-4.4093c6.6.3365,13.3726.3365,19.9925.3365,7.1187,0,16.7834-.3365,29.3119-.3365,43.8758,0,67.7788,29.3315,67.7788,59.3153,0,16.7647-9.8378,58.969-69.8162,58.969-8.6366,0-16.6014-.3355-24.5651-.3355-7.6283,0-15.0745.1722-22.7018.3355v-4.4093c10.1645-1.0182,15.0735-1.3547,15.5921-12.8836V709.5086Zm16.6111,79.4613c0,13.0469,9.3,14.5748,17.6009,14.5748,36.6125,0,48.6413-27.6119,48.6413-52.8784,0-31.6749-20.3289-54.541-53.0417-54.541-6.9554,0-10.1645.49-13.2.6631V788.97Z" transform="translate(-31.1416 -25.2786)"/><path class="cls-5" d="M1660.2266,802.3434c-4.7556,4.41-9.9913,9.1659-16.7646,9.1659-6.9652,0-10.1744-6.4369-10.53-12.5472-7.9647,7.282-15.5733,12.5472-26.0742,12.5472-10.8374,0-18.3023-7.4561-18.3023-16.4381.6631-13.5565,7.6283-16.1026,44.232-28.63V755.2585c0-9.4925-5.5909-14.5649-16.4666-14.5649-7.4354,0-12.499,4.2372-12.8541,11.8359,0,4.7556-5.4187,7.1285-9.4827,7.1285-2.5362,0-3.036-2.19-3.036-3.3911,0-8.9731,7.6086-13.21,19.474-19.3009,5.8988-3.0645,8.81-5.4187,15.2369-5.4187,7.6283,0,20.6753,4.9189,20.6753,14.2186v46.9413c0,6.9367,2.3728,9.6362,6.1,9.6362a8.3477,8.3477,0,0,0,6.2638-2.8727l1.5278,2.8727ZM1632.7879,771.35c-8.6554,3.3823-30.6656,7.283-30.6656,19.9935a12.2187,12.2187,0,0,0,12.0091,12.2107c7.9637,0,13.0656-4.9288,18.6565-9.8477V771.35Z" transform="translate(-31.1416 -25.2786)"/><path class="cls-5" d="M1683.8216,804.5628h4.5638c4.7655,0,8.1379,0,8.1379-5.6007V751.3578c0-5.2554-6.2647-6.2638-8.8107-7.6283v-2.5362c12.3838-5.2554,19.1473-9.6549,20.6752-9.6549,1.0182,0,1.5081.4988,1.5081,2.19v15.2565h.365c4.2371-6.62,11.3371-17.4464,21.7032-17.4464,4.2076,0,9.6362,2.8913,9.6362,8.982,0,4.5736-3.2278,8.6278-7.9745,8.6278-5.2358,0-5.2358-4.0542-11.1926-4.0542-2.8717,0-12.3445,3.8909-12.3445,14.0553v39.8128c0,5.6007,3.3813,5.6007,8.1369,5.6007h9.4827v4.4093c-9.3381-.1722-16.4479-.3355-23.721-.3355-6.9357,0-14.0642.1633-20.1656.3355v-4.4093Z" transform="translate(-31.1416 -25.2786)"/><path class="cls-5" d="M1788.512,788.1247c0,11.1827,6.11,14.2186,10.6741,14.2186,4.5726,0,7.9647-1.4983,11.8457-4.9091l2.5559,2.546c-5.9372,6.1-13.3933,11.529-22.5385,11.529-10.8374,0-16.1026-5.7748-16.1026-15.7661V743.2111h-11.163v-2.7c8.8-6.7832,14.0652-9.9923,22.7018-23.721h2.0266v17.2743h25.239v9.1462h-25.239v44.9137Z" transform="translate(-31.1416 -25.2786)"/><path class="cls-5" d="M1846.4156,753.0489c0-7.4463-2.5362-8.4743-8.81-11.8556v-2.728c7.9736-2.364,17.2831-5.5731,18.138-6.1014a6.04,6.04,0,0,1,3.0645-.8254c.8077,0,1.1727,1.0271,1.1727,2.3631v10.3278c9.31-6.6,17.1011-12.6908,29.3119-12.6908,8.9633,0,15.5635,4.2263,17.9659,13.0361,9.1364-6.1093,16.9368-13.0361,29.1387-13.0361,14.7273,0,20.1459,11.5181,20.1459,23.8932v43.53c0,5.6007,3.7276,5.6007,8.4645,5.6007h2.5549v4.4093c-5.4275,0-11.3558-.3355-17.4366-.3355-6.13,0-12.2206.1722-18.321.3355v-4.4093h3.0546c4.7369,0,8.1379,0,8.1379-5.6007v-37.43c0-10.6839-2.2007-20.8484-14.7381-20.8484-6.61,0-16.1016,5.4187-20.0022,8.1379v50.1405c0,5.6007,3.9006,5.6007,8.6366,5.6007h3.0655v4.4093c-5.9371,0-12.0386-.3355-18.139-.3355s-12.2009.1722-18.2925.3355v-4.4093h3.036c4.7556,0,8.128,0,8.128-5.6007v-37.43c0-10.6839-2.2-20.8484-14.7371-20.8484-6.6,0-16.0731,5.4187-19.9738,8.1379v50.1405c0,5.6007,3.7079,5.6007,8.4733,5.6007h3.0261v4.4093c-5.9273,0-11.8644-.3355-17.956-.3355-6.0808,0-12.1812.1722-18.7814.3355v-4.4093h3.5347c4.7369,0,8.1379,0,8.1379-5.6007V753.0489Z" transform="translate(-31.1416 -25.2786)"/><path class="cls-5" d="M2027.1379,731.5384c23.5478,0,41.1762,15.592,41.1762,39.63,0,21.8656-17.2733,40.3411-38.9766,40.3411-22.5287,0-41.0032-15.593-41.0032-39.6495,0-21.8567,16.1016-40.3214,38.8035-40.3214m2.0364,75.57c16.9377,0,23.5576-19.657,23.5576-34.2308,0-13.892-7.4551-36.94-25.421-36.94-16.7745,0-23.3747,19.6659-23.3747,34.2308,0,13.892,7.4551,36.94,25.2381,36.94" transform="translate(-31.1416 -25.2786)"/><path class="cls-5" d="M2162.2163,799.6439c0,3.0458,1.8535,3.2189,4.7359,3.2189,2.0364,0,4.5736-.1731,6.7734-.1731v3.5544c-7.2731.6818-21.1749,4.2372-24.4028,5.2455l-.8352-.49V797.2808c-10.1744,8.3-17.9659,14.2088-30.0035,14.2088-9.1374,0-18.6388-5.9086-18.6388-20.1459v-43.377c0-4.4-.6719-8.6376-10.1743-9.4827v-3.218c6.11-.1731,19.6757-1.2012,21.8764-1.2012,1.8633,0,1.8633,1.2012,1.8633,4.9288v43.7125c0,5.0822,0,19.6373,14.7479,19.6373,5.7542,0,13.3638-4.3995,20.4922-10.3278V746.4487c0-3.3921-8.128-5.2554-14.2285-6.9465v-3.0547c15.2369-1.0281,24.7382-2.3827,26.41-2.3827,1.3842,0,1.3842,1.2012,1.3842,3.0645v62.5146Z" transform="translate(-31.1416 -25.2786)"/><path class="cls-5" d="M2215.1813,788.1247c0,11.1827,6.11,14.2186,10.6829,14.2186,4.5924,0,7.9834-1.4983,11.8654-4.9091l2.555,2.546c-5.9372,6.1-13.4022,11.529-22.5385,11.529-10.8561,0-16.1017-5.7748-16.1017-15.7661V743.2111H2190.48v-2.7c8.8-6.7832,14.0366-9.9923,22.6733-23.721h2.0276v17.2743h25.2764v9.1462h-25.2764v44.9137Z" transform="translate(-31.1416 -25.2786)"/><path class="cls-5" d="M2272.8439,704.59c0-11.01-2.5362-11.3371-8.9731-13.2V688.67a108.3493,108.3493,0,0,0,17.4366-7.282c1.8741-1.0281,3.2288-1.8643,3.7374-1.8643,1.0281,0,1.3645,1.0094,1.3645,2.364v64.551c1.5081-1.3448,12.374-14.9,26.0742-14.9,14.7469,0,22.7116,10.8265,22.7116,25.5745v41.8492c0,5.6007,3.7276,5.6007,8.4635,5.6007h3.0655v4.4093c-5.9381,0-11.8753-.3355-18.3023-.3355-6.1005,0-12.201.1633-18.3024.3355v-4.4093h3.036c7.9932,0,8.493-1.8731,8.493-18.4843V766.9409c0-12.3652-1.2-25.2478-16.6013-25.2478-7.9638,0-14.7666,5.9371-18.6379,9.5112v47.7578c0,5.6007,3.7079,5.6007,8.4733,5.6007h3.036v4.4093c-5.9371,0-11.8457-.3355-17.9462-.3355s-12.2008.1633-18.3023.3355v-4.4093h3.0458c4.7556,0,8.128,0,8.128-5.6007V704.59Z" transform="translate(-31.1416 -25.2786)"/><line class="cls-6" x1="2381.1999" y1="380.9479" x2="2381.1999" y2="294.4821"/></g></svg>