<svg width="22" height="16" viewBox="0 0 22 16" fill="none" xmlns="http://www.w3.org/2000/svg">
<path fill-rule="evenodd" clip-rule="evenodd" d="M1.83751 0.489576C1.6412 0.538623 1.53129 0.612399 1.44587 0.752488C1.37119 0.874942 1.36619 0.968895 1.36606 2.24876C1.3659 3.75365 1.36746 3.7641 1.62159 3.94537L1.75549 4.04088H3.56713C5.33291 4.04088 5.38167 4.03874 5.49207 3.95631C5.55437 3.90981 5.64336 3.82082 5.68986 3.75853C5.77139 3.64936 5.77442 3.59519 5.77442 2.25696C5.77442 0.91874 5.77139 0.864567 5.68986 0.755399C5.64336 0.693106 5.55437 0.604115 5.49211 0.55761C5.38241 0.475632 5.32631 0.472844 3.66973 0.465954C2.72967 0.462058 1.90517 0.47268 1.83751 0.489576ZM7.19684 0.492077C7.12204 0.510367 7.01418 0.568888 6.95714 0.6222C6.74048 0.824582 6.73815 0.84197 6.73815 2.25959C6.73815 3.52239 6.7418 3.5851 6.82402 3.73142C7.00245 4.04891 6.94729 4.04088 8.95266 4.04088C10.6629 4.04088 10.7423 4.03747 10.8755 3.95886C11.1599 3.79092 11.1672 3.74852 11.1672 2.26381C11.1672 0.777175 11.1604 0.736658 10.886 0.565976C10.7375 0.473623 10.7258 0.473008 9.03468 0.465954C8.09864 0.462058 7.2716 0.473787 7.19684 0.492077ZM12.7669 2.6762C12.6656 2.72755 12.541 2.83228 12.4901 2.90893L12.3975 3.04828V6.15664V9.265L12.2985 9.38007L12.1995 9.49514L6.56016 9.51565C0.944282 9.53607 0.920291 9.53652 0.807555 9.62071C0.745262 9.66722 0.656271 9.75621 0.609767 9.8185C0.528445 9.92742 0.525205 9.98246 0.525205 11.2585C0.525205 12.5346 0.528445 12.5897 0.609767 12.6986C0.656271 12.7609 0.745221 12.8499 0.807473 12.8964C0.91541 12.977 0.981395 12.9815 2.22849 12.9928L3.53629 13.0047L3.56171 13.1569C3.75196 14.2959 4.57297 15.1928 5.65549 15.444C6.05599 15.5369 6.64251 15.5263 7.02492 15.4193C8.01793 15.1411 8.77861 14.3302 8.98567 13.329L9.05338 13.0015H11.0117H12.97L12.989 13.0937C13.0822 13.5479 13.1238 13.6811 13.2679 13.9857C13.4064 14.2783 13.4929 14.3935 13.8071 14.7033C14.3918 15.2799 14.9457 15.5082 15.7548 15.506C16.5126 15.5039 17.123 15.2482 17.6706 14.7038C17.9321 14.4439 18.0382 14.3007 18.1726 14.0262C18.3394 13.6854 18.4669 13.2824 18.4669 13.0954V13.0015H19.47C20.6006 13.0015 20.7556 12.9718 21.0809 12.6935C21.2471 12.5512 21.4541 12.2014 21.4677 12.0399C21.4715 11.9936 21.4881 12.0757 21.5044 12.2223C21.5208 12.3689 21.5276 11.7876 21.5196 10.9305C21.5045 9.32134 21.4744 8.89382 21.3391 8.36693C21.1776 7.73801 20.9366 7.25709 20.476 6.64498C20.0845 6.12477 19.846 5.74909 19.3677 4.89929C19.1147 4.4497 18.8285 3.97001 18.7317 3.83329C18.4488 3.43361 17.8991 2.94104 17.5353 2.76122L17.2205 2.60554L15.0858 2.59418L12.9511 2.58282L12.7669 2.6762ZM14.2117 5.52575L14.2224 7.44467L16.6284 7.45525C19.3854 7.46738 19.2035 7.49162 19.0962 7.12627C18.997 6.78884 18.7151 6.23255 18.2609 5.47801C17.4901 4.19757 17.2717 3.92064 16.8811 3.7283C16.6876 3.63308 16.6538 3.63049 15.442 3.61881L14.2011 3.60687L14.2117 5.52575ZM1.66346 5.03105C1.5903 5.0671 1.49344 5.15654 1.44816 5.22974C1.37008 5.35605 1.3659 5.43303 1.3659 6.73602C1.3659 8.09536 1.36684 8.11058 1.45899 8.24853C1.64882 8.53269 1.63816 8.53129 3.5718 8.53133C5.21538 8.53142 5.31434 8.52719 5.46414 8.45075C5.57364 8.39494 5.64947 8.3139 5.71069 8.18739C5.79661 8.00998 5.79882 7.9661 5.78681 6.67889C5.77455 5.36593 5.77352 5.35191 5.67891 5.21928C5.49351 4.95933 5.52791 4.96351 3.57221 4.96453C2.02894 4.96535 1.77907 4.97405 1.66346 5.03105ZM7.02103 5.05668C6.7402 5.2443 6.73527 5.27547 6.74762 6.78851C6.7584 8.11398 6.76054 8.14445 6.8501 8.27006C7.03628 8.53101 7.03952 8.53142 8.95885 8.53133C10.8721 8.53129 10.8715 8.53138 11.0617 8.27216C11.1431 8.16131 11.1471 8.09852 11.1577 6.77531C11.1682 5.45361 11.1651 5.38845 11.0863 5.26054C11.0409 5.18701 10.9438 5.09023 10.8702 5.0454C10.7423 4.96736 10.6604 4.96388 8.94848 4.96375L7.16038 4.96359L7.02103 5.05668ZM0.522949 11.2585C0.522908 11.9578 0.528527 12.2496 0.535375 11.907C0.542224 11.5644 0.542224 10.9924 0.535375 10.6357C0.528568 10.2791 0.522949 10.5593 0.522949 11.2585ZM6.06149 11.7685C5.48826 11.9081 5.13709 12.5228 5.31856 13.0692C5.51524 13.6613 6.16262 13.9453 6.71764 13.6829C6.96407 13.5664 7.11478 13.4133 7.22694 13.1655C7.56596 12.4166 6.86257 11.5735 6.06149 11.7685ZM15.4937 11.7685C14.9762 11.8945 14.6265 12.4346 14.7297 12.9484C14.8508 13.5517 15.4345 13.9046 16.041 13.7413C16.279 13.6772 16.6376 13.3301 16.6993 13.104C16.8596 12.5159 16.5723 11.9524 16.0296 11.7905C15.8132 11.7259 15.6894 11.7208 15.4937 11.7685Z" fill="#4C5D33"/>
</svg>
