<svg id="Layer_1" data-name="Layer 1" xmlns="http://www.w3.org/2000/svg" viewBox="0 0 2312.4658 209.6031"><defs><style>.cls-1{fill:#1980c4;}</style></defs><title>columbia-logo-horiz</title><path class="cls-1" d="M261.5331,216.8743H243.4023l-4.188,11.63h-9.4409l18.8183-49.6438h7.7519l18.8183,49.6438H265.721Zm-9.0656-26.6937-6.3135,18.7548h12.6273Z" transform="translate(-43.1953 -20.8813)"/><path class="cls-1" d="M294.4114,228.5043h-8.7535v-40.64H271.4671v-8.1294h37.1355v8.1294H294.4114Z" transform="translate(-43.1953 -20.8813)"/><path class="cls-1" d="M349.4217,228.5043h-8.7534v-40.64H326.4775v-8.1294h37.1354v8.1294H349.4217Z" transform="translate(-43.1953 -20.8813)"/><path class="cls-1" d="M407.8093,179.7351v48.7692h-8.7534V207.62H378.5493v20.8842h-8.7515V179.7351h8.7515v19.7594h20.5066V179.7351Z" transform="translate(-43.1953 -20.8813)"/><path class="cls-1" d="M451.8772,179.7351v8.1294H426.0557v11.63h22.883V207.62h-22.883v12.7547h27.0094v8.13H417.3045V179.7351Z" transform="translate(-43.1953 -20.8813)"/><path class="cls-1" d="M491.88,218.0622l3.8761-11.5029,9.1268-26.8242h9.6911l-18.381,49.6433h-8.6261l-18.381-49.6433h9.6892l9.1287,26.8242Z" transform="translate(-43.1953 -20.8813)"/><path class="cls-1" d="M554.392,179.7351v8.1294H528.5708v11.63h22.8831V207.62H528.5708v12.7547H555.58v8.13H519.8193V179.7351Z" transform="translate(-43.1953 -20.8813)"/><path class="cls-1" d="M572.8273,228.5043h-8.7515V179.7351h20.1313c8.4393,0,16.5673,2.8168,16.5673,14.8166,0,8.63-4.19,12.4444-9.6276,13.8829l11.8147,20.07H592.7084l-10.9409-19.1321h-8.94Zm11.9421-27.325c3.0632,0,7.0644-.5605,7.0644-6.6276,0-6.1233-4.0012-6.6872-7.0644-6.6872H572.8273v13.3148Z" transform="translate(-43.1953 -20.8813)"/><path class="cls-1" d="M630.3408,228.5043h-8.7535V208.3076l-18.8818-28.5725h10.0668l9.252,14.5064,3.94,6.3138,3.9377-6.3138,9.2542-14.5064H649.22l-18.8795,28.5725Z" transform="translate(-43.1953 -20.8813)"/><path class="cls-1" d="M683.41,221.2489c6.5663,0,9.4409-2.4357,10.317-8.2488l8.815.9338c-1.0012,9.3774-6.6275,15.4445-19.132,15.4445-15.0034,0-20.88-10.0645-20.88-25.2587s5.8769-25.2592,20.88-25.2592c12.5045,0,18.1308,6.0675,19.132,15.4445l-8.815.938c-.8761-5.8168-3.7507-8.253-10.317-8.253-10.0029,0-11.94,8.0625-11.94,17.13S673.4071,221.2489,683.41,221.2489Z" transform="translate(-43.1953 -20.8813)"/><path class="cls-1" d="M744.8593,179.7351v8.1294H719.0381v11.63h22.8831V207.62H719.0381v12.7547h27.0094v8.13H710.2866V179.7351Z" transform="translate(-43.1953 -20.8813)"/><path class="cls-1" d="M767.9852,203.3687l-4.8138-7.5021.1251,11.6938v20.9439H754.545V179.7351h8.0641l16.8174,25.1355,4.8138,7.5017-.1251-11.6934V179.7351h8.7535v48.7692h-8.0641Z" transform="translate(-43.1953 -20.8813)"/><path class="cls-1" d="M821.9959,228.5043h-8.7534v-40.64H799.0517v-8.1294h37.1354v8.1294H821.9959Z" transform="translate(-43.1953 -20.8813)"/><path class="cls-1" d="M876.9447,179.7351v8.1294H851.1235v11.63h22.8827V207.62H851.1235v12.7547h27.0094v8.13H842.372V179.7351Z" transform="translate(-43.1953 -20.8813)"/><path class="cls-1" d="M895.38,228.5043h-8.7515V179.7351H906.76c8.4393,0,16.5669,2.8168,16.5669,14.8166,0,8.63-4.19,12.4444-9.6276,13.8829l11.8151,20.07H915.2607L904.32,209.3722h-8.94Zm11.9417-27.325c3.0636,0,7.0648-.5605,7.0648-6.6276,0-6.1233-4.0012-6.6872-7.0648-6.6872H895.38v13.3148Z" transform="translate(-43.1953 -20.8813)"/><path class="cls-1" d="M944.448,204.12c0-15.381,6.4389-25.2592,21.8819-25.2592s21.8815,9.8782,21.8815,25.2592-6.439,25.2587-21.8815,25.2587S944.448,219.5006,944.448,204.12Zm8.8766,0c0,9.2538,2.5651,17.1292,13.0053,17.1292s12.9413-7.8754,12.9413-17.1292S976.77,186.99,966.33,186.99,953.3246,194.8654,953.3246,204.12Z" transform="translate(-43.1953 -20.8813)"/><path class="cls-1" d="M1005.1463,228.5043h-8.7515V179.7351h33.3213v8.1294h-24.57v11.63h21.57V207.62h-21.57Z" transform="translate(-43.1953 -20.8813)"/><path class="cls-1" d="M1050.4039,228.5043V179.7351h20.88c6.1906,0,14.5049,2.2525,14.5049,13.509,0,5.0621-2.1872,8.2493-4.4382,9.6873,3.437,1.4384,6.0017,5.44,6.0017,11.3162,0,11.88-7.5036,14.2567-15.7544,14.2567Zm8.7516-40.64v11.63h11.5033c3.7525,0,6.1267-1.1248,6.1267-5.94,0-4.6887-2.3126-5.69-6.1267-5.69Zm12.0037,32.51c2.8768,0,7.2534-.3738,7.2534-6.2542,0-5.8727-3.8146-6.5-7.0032-6.5h-12.2539v12.7547Z" transform="translate(-43.1953 -20.8813)"/><path class="cls-1" d="M1094.66,210.6837V179.7351h8.7515v30.9486c0,5.94,1.8773,10.5652,11.13,10.5652s11.1272-4.6252,11.1272-10.5652V179.7351h8.7535v30.9486c0,10.6287-4.6887,18.6947-19.8807,18.6947S1094.66,221.3124,1094.66,210.6837Z" transform="translate(-43.1953 -20.8813)"/><path class="cls-1" d="M1141.79,214.4347l8.8785-.938c.6875,5.69,4.1879,7.7522,10.8158,7.7522,4.8773-.06,10.3786-1.8753,10.3786-7.2515,0-4.2514-2.5632-6.0636-10.6291-6.8142-8.94-.751-17.6917-3.0635-17.7552-13.5056-.0616-10.2516,8.1276-14.8171,17.5685-14.8171,12.7528,0,18.5677,5.6264,19.4438,14.8806l-8.8786.9376c-.6874-5.7533-3.9377-7.6887-10.5652-7.6887-3.3138.06-8.8151,1.2479-8.8151,6.7511.0616,3.3773,1.9373,4.8157,9.439,5.5628,11.9421,1.0647,18.82,3.25,18.8814,14.6935.0636,10.8794-9.3769,15.381-19.0681,15.381C1148.292,229.3784,1142.7907,224.1258,1141.79,214.4347Z" transform="translate(-43.1953 -20.8813)"/><path class="cls-1" d="M1198.24,228.5043h-8.7535V179.7351h8.7535Z" transform="translate(-43.1953 -20.8813)"/><path class="cls-1" d="M1222.0552,203.3687l-4.8157-7.5021.127,11.6938v20.9439h-8.75V179.7351h8.0622l16.8194,25.1355,4.8118,7.5017-.127-11.6934V179.7351h8.7573v48.7692h-8.066Z" transform="translate(-43.1953 -20.8813)"/><path class="cls-1" d="M1291.01,179.7351v8.1294h-25.823v11.63H1288.07V207.62H1265.187v12.7547h27.0109v8.13h-35.7606V179.7351Z" transform="translate(-43.1953 -20.8813)"/><path class="cls-1" d="M1299.0649,214.4347l8.8766-.938c.6875,5.69,4.1917,7.7522,10.8193,7.7522,4.8754-.06,10.3786-1.8753,10.3786-7.2515,0-4.2514-2.5629-6.0636-10.6327-6.8142-8.9363-.751-17.69-3.0635-17.7532-13.5056-.06-10.2516,8.13-14.8171,17.5666-14.8171,12.7542,0,18.5677,5.6264,19.4457,14.8806l-8.88.9376c-.6875-5.7533-3.9377-7.6887-10.5652-7.6887-3.31.06-8.8135,1.2479-8.8135,6.7511.0638,3.3773,1.9392,4.8157,9.4409,5.5628,11.94,1.0647,18.8183,3.25,18.8818,14.6935.06,10.8794-9.3774,15.381-19.0685,15.381C1305.5654,229.3784,1300.066,224.1258,1299.0649,214.4347Z" transform="translate(-43.1953 -20.8813)"/><path class="cls-1" d="M1344.2625,214.4347l8.8766-.938c.6874,5.69,4.1879,7.7522,10.8158,7.7522,4.8754-.06,10.3786-1.8753,10.3786-7.2515,0-4.2514-2.5632-6.0636-10.6292-6.8142-8.94-.751-17.6935-3.0635-17.7532-13.5056-.0635-10.2516,8.1256-14.8171,17.5665-14.8171,12.7547,0,18.5678,5.6264,19.4419,14.8806l-8.8766.9376c-.6875-5.7533-3.9377-7.6887-10.5653-7.6887-3.3137.06-8.8169,1.2479-8.8169,6.7511.0635,3.3773,1.9392,4.8157,9.4409,5.5628,11.944,1.0647,18.8179,3.25,18.8814,14.6935.0635,10.8794-9.377,15.381-19.0681,15.381C1350.763,229.3784,1345.2636,224.1258,1344.2625,214.4347Z" transform="translate(-43.1953 -20.8813)"/><path d="M263.2141,129.9157c10.162,0,14.615-3.7732,15.9678-12.77l13.64,1.45c-1.55,14.5106-10.2554,23.8953-29.6077,23.8953-23.219,0-32.3159-15.5715-32.3159-39.0858,0-23.5066,9.0969-39.0857,32.3159-39.0857,19.3523,0,28.0572,9.3812,29.6077,23.8953l-13.64,1.45c-1.3528-8.9964-5.8058-12.77-15.9678-12.77-15.4782,0-18.4778,12.4819-18.4778,26.51S247.7359,129.9157,263.2141,129.9157Z" transform="translate(-43.1953 -20.8813)"/><path d="M301.9188,115.4984c0-17.8018,9.6723-26.9921,25.15-26.9921,15.4819,0,25.162,9.19,25.162,26.9921,0,17.8057-9.68,26.9926-25.162,26.9926C311.5911,142.491,301.9188,133.3041,301.9188,115.4984Zm13.5466,0c0,10.6441,4.4457,14.7088,11.6039,14.7088,7.1658,0,11.6154-4.0647,11.6154-14.7088,0-10.64-4.45-14.7046-11.6154-14.7046C319.9111,100.7938,315.4654,104.8586,315.4654,115.4984Z" transform="translate(-43.1953 -20.8813)"/><path d="M362.0979,63.7368h13.1579v77.4018H362.0979Z" transform="translate(-43.1953 -20.8813)"/><path d="M423.0541,135.7215c-3.3849,4.1619-9.4818,6.77-15.482,6.77-11.9027,0-20.32-6.0935-20.32-18.3811V89.8625H400.41v32.3124c0,5.3238,3.583,7.9352,9,7.9352,6.6762,0,12.0895-5.0288,12.8668-8.9964V89.8625h13.0607v37.4453l.8742,13.8308H424.1149Z" transform="translate(-43.1953 -20.8813)"/><path d="M462.4237,95.2757a16.8951,16.8951,0,0,1,13.4494-6.7694c7.2553,0,12.09,2.8019,14.8022,7.3521,3.676-4.8417,9.9673-7.3521,15.9636-7.3521,11.802,0,18.6763,6.8666,18.6763,18.8665v33.7658H512.1531V108.24c0-5.0288-3.0968-7.4459-7.9351-7.3525-5.51.0971-8.9964,4.7411-9.9639,8.9963v31.2551H481.0962V108.24c0-5.0288-3.0038-7.4459-7.8383-7.3525-5.5143.0971-8.996,4.7411-10.0645,8.9963v31.2551H450.1361V103.6929l-.8741-13.83h12.0932Z" transform="translate(-43.1953 -20.8813)"/><path d="M550.7569,94.4088c2.9067-3.295,8.6115-5.9025,14.4172-5.9025,15.19,0,23.51,9.5828,23.51,26.9921,0,17.4174-8.32,26.9926-23.51,26.9926-5.9963,0-12.579-2.9924-15.2838-6.96l-1.0685,5.6076h-12.097l.8742-13.8308V63.7368h13.1579Zm12.2879,6.4784c-6.7737,0-11.32,4.3562-12.2879,8.6153v11.9961c.9678,4.2552,5.5142,8.6115,12.2879,8.6115s11.8989-4.7373,11.8989-14.6117C574.9437,105.6283,569.8181,100.8872,563.0448,100.8872Z" transform="translate(-43.1953 -20.8813)"/><path d="M612.3894,81.4415H597.8749V66.927h14.5145Zm-13.8343,8.421H611.713v51.2761H598.5551Z" transform="translate(-43.1953 -20.8813)"/><path d="M640.8349,110.1785l15.6725-2.2227v-1.0651c0-4.5463-3.1906-6.87-9.8667-6.87-6.9677-.0972-9,2.4209-9.68,6.5793l-13.4456-1.741c1.4533-9.1942,6.2878-16.3523,22.7334-16.3523,14.6151,0,23.4206,6.0931,23.4206,19.45v19.352l.8707,13.8308H658.4427l-1.0612-5.4171c-3.9676,4.453-9.87,6.77-16.64,6.77-13.6437,0-18.8741-6.6723-18.8741-15.96C621.8674,115.1136,629.2275,111.8185,640.8349,110.1785Zm1.5467,21.0972c7.5507.2877,12.7734-4.8421,14.1258-9.2951v-4.1619l-13.64,2.2265c-5.2265.8742-7.0648,2.4209-7.0648,5.903C635.8026,129.3365,638.2235,131.1786,642.3816,131.2757Z" transform="translate(-43.1953 -20.8813)"/><path d="M704.3056,141.1386V65.6718h32.3159c9.579,0,22.45,3.4821,22.45,20.8991,0,7.8379-3.3922,12.77-6.8743,14.9927,5.3238,2.23,9.2913,8.4206,9.2913,17.5179,0,18.3845-11.6111,22.0571-24.3846,22.0571Zm13.5466-62.8877V96.2471H735.65c5.8058,0,9.4818-1.7411,9.4818-9.198,0-7.2477-3.5789-8.7982-9.4818-8.7982Zm18.575,50.3125c4.4534,0,11.2229-.5831,11.2229-9.6762,0-9.0974-5.9026-10.0649-10.8381-10.0649h-18.96v19.7411Z" transform="translate(-43.1953 -20.8813)"/><path d="M806.1853,135.7215c-3.3845,4.1619-9.4818,6.77-15.4781,6.77-11.9065,0-20.32-6.0935-20.32-18.3811V89.8625h13.1545v32.3124c0,5.3238,3.5827,7.9352,9.0036,7.9352,6.6761,0,12.0932-5.0288,12.8629-8.9964V89.8625h13.0611v37.4453l.8776,13.8308H807.2539Z" transform="translate(-43.1953 -20.8813)"/><path d="M860.66,125.2756c-.0933-4.2591-4.1581-4.0647-11.2267-4.7445-9.9677-.8746-20.9962-1.8383-20.9962-15.0933,0-12.8668,12.1942-16.9315,22.158-16.9315,14.6117,0,21.4783,5.2227,22.8345,16.1579l-13.3561,1.7449c-.5753-4.0647-3.09-6.68-9.4784-6.5828-4.0609.0968-8.1256,1.158-8.1256,5.32.0972,3.5827,4.0647,3.5827,10.3487,4.259,10.2588,1.0685,21.5789,1.3524,21.5789,15.7731,0,13.0573-12.4857,17.3126-24.09,17.3126-15.5787,0-22.2552-6.284-23.417-16.7372l13.45-1.741c.7732,4.7449,3.4894,7.2629,9.9673,7.1658C856.0085,131.0737,860.7569,129.7214,860.66,125.2756Z" transform="translate(-43.1953 -20.8813)"/><path d="M899.0691,81.4415H884.555V66.927h14.5141Zm-13.83,8.421h13.1545v51.2761H885.2386Z" transform="translate(-43.1953 -20.8813)"/><path d="M924.7127,95.2757c3.3811-4.1619,9.4784-6.7694,15.4747-6.7694,11.9027,0,20.3237,6.0931,20.3237,18.3844v34.2479H947.3528V108.8223c0-5.32-3.5827-7.9351-9.0036-7.9351-6.6723,0-12.0932,5.036-12.8668,8.9963v31.2551H912.4251V103.6929l-.8779-13.83h12.097Z" transform="translate(-43.1953 -20.8813)"/><path d="M982.56,120.5311c.3963,7.2549,5.1333,10.4493,11.716,10.4493,6.867.0933,9.4822-2.6152,10.2516-6.0969l13.4532,1.6473c-1.3562,8.6077-7.0648,15.96-23.4205,15.96-16.3489,0-25.9241-9.478-25.9241-26.9926,0-17.51,9.5752-26.9921,25.2515-26.9921,15.87,0,24.3846,9.5828,24.3846,26.9921v5.0327Zm.0972-10.3526h21.4855c-.2877-6.87-3.68-10.1582-10.1578-10.1582C987.5966,100.02,983.3451,103.1137,982.6577,110.1785Z" transform="translate(-43.1953 -20.8813)"/><path d="M1058.4232,125.2756c-.0971-4.2591-4.1619-4.0647-11.219-4.7445-9.9712-.8746-20.9963-1.8383-20.9963-15.0933,0-12.8668,12.1832-16.9315,22.1509-16.9315,14.6074,0,21.4889,5.2227,22.834,16.1579l-13.3522,1.7449c-.5754-4.0647-3.1011-6.68-9.4818-6.5828-4.0647.0968-8.13,1.158-8.13,5.32.0968,3.5827,4.0648,3.5827,10.3521,4.259,10.2554,1.0685,21.5828,1.3524,21.5828,15.7731,0,13.0573-12.4781,17.3126-24.097,17.3126-15.5714,0-22.2514-6.284-23.41-16.7372l13.4421-1.741c.7809,4.7449,3.4894,7.2629,9.9677,7.1658C1053.7793,131.0737,1058.5166,129.7214,1058.4232,125.2756Z" transform="translate(-43.1953 -20.8813)"/><path d="M1111.16,125.2756c-.0972-4.2591-4.1619-4.0647-11.2344-4.7445-9.9635-.8746-20.9924-1.8383-20.9924-15.0933,0-12.8668,12.1942-16.9315,22.1619-16.9315,14.6079,0,21.4745,5.2227,22.8268,16.1579l-13.3522,1.7449c-.5792-4.0647-3.0934-6.68-9.4746-6.5828-4.0647.0968-8.13,1.158-8.13,5.32.0973,3.5827,4.0648,3.5827,10.356,4.259,10.2516,1.0685,21.5678,1.3524,21.5678,15.7731,0,13.0573-12.4819,17.3126-24.0858,17.3126-15.5787,0-22.2587-6.284-23.4205-16.7372l13.4532-1.741c.7693,4.7449,3.4855,7.2629,9.9673,7.1658C1106.5053,131.0737,1111.2576,129.7214,1111.16,125.2756Z" transform="translate(-43.1953 -20.8813)"/><path d="M1155.9509,119.3692l13.7409-1.4534c1.0609,8.8093,6.4818,12,16.7372,12,7.55-.0972,16.0608-2.899,16.0608-11.2229,0-6.5789-3.9676-9.3846-16.4457-10.5465-13.8381-1.1622-27.3923-4.7411-27.4856-20.899-.0934-15.8669,12.579-22.9278,27.1941-22.9278,19.7334,0,28.73,8.7048,30.09,23.0249l-13.7447,1.45c-1.0575-8.8954-6.0859-11.8993-16.3451-11.8993-5.1294.0972-13.6437,1.9316-13.6437,10.45.0971,5.2266,2.9962,7.4493,14.6078,8.6112,18.4816,1.6438,29.1257,5.0287,29.2225,22.7372.0971,16.8382-14.5179,23.7982-29.51,23.7982C1166.012,142.491,1157.4976,134.3653,1155.9509,119.3692Z" transform="translate(-43.1953 -20.8813)"/><path d="M1248.928,130.2072c7.061.0934,9.3774-2.6117,10.2588-7.1581l13.4422,1.7406c-1.248,9.7661-6.4784,17.7013-23.6038,17.7013-15.6763,0-24.96-9.5752-24.96-26.9926,0-17.4093,9.2837-26.9921,24.96-26.9921,17.1254,0,22.3558,7.9351,23.6038,17.7046l-13.4422,1.7449c-.8814-4.5506-3.1978-7.2591-10.2588-7.162-7.1658.1905-11.5144,4.7408-11.5144,14.7046C1237.4136,125.4661,1241.7622,130.0129,1248.928,130.2072Z" transform="translate(-43.1953 -20.8813)"/><path d="M1280.5641,63.7368h13.1583V94.5994c3.1978-3.87,9.1979-6.0931,14.7122-6.0931,11.8954,0,20.3161,6.0931,20.3161,18.3844v34.2479h-13.1579V108.8223c0-5.32-3.5866-7.9351-8.9964-7.9351-6.6872,0-12.097,5.036-12.874,8.9963v31.2551h-13.1583Z" transform="translate(-43.1953 -20.8813)"/><path d="M1335.0347,115.4984c0-17.8018,9.6761-26.9921,25.1581-26.9921s25.1577,9.19,25.1577,26.9921c0,17.8057-9.6761,26.9926-25.1577,26.9926S1335.0347,133.3041,1335.0347,115.4984Zm13.5542,0c0,10.6441,4.4457,14.7088,11.6039,14.7088,7.1654,0,11.6112-4.0647,11.6112-14.7088,0-10.64-4.4458-14.7046-11.6112-14.7046C1353.0346,100.7938,1348.5889,104.8586,1348.5889,115.4984Z" transform="translate(-43.1953 -20.8813)"/><path d="M1392.3147,115.4984c0-17.8018,9.6686-26.9921,25.1578-26.9921,15.4747,0,25.15,9.19,25.15,26.9921,0,17.8057-9.6758,26.9926-25.15,26.9926C1401.9833,142.491,1392.3147,133.3041,1392.3147,115.4984Zm13.539,0c0,10.6441,4.4534,14.7088,11.6188,14.7088,7.1509,0,11.604-4.0647,11.604-14.7088,0-10.64-4.4531-14.7046-11.604-14.7046C1410.3071,100.7938,1405.8537,104.8586,1405.8537,115.4984Z" transform="translate(-43.1953 -20.8813)"/><path d="M1450.5585,63.7368h13.1579v77.4018h-13.1579Z" transform="translate(-43.1953 -20.8813)"/><path class="cls-1" d="M195.7762,109.8835l12.7133-12.706H132.201V20.8813L43.1953,109.8835H119.48v12.7172H80.5924L67.8752,135.3179H119.48v12.7172H106.0268L93.31,160.7522h26.17v25.4271l12.721-12.71V160.7522h12.7248l12.71-12.7171H132.201V135.3179h38.1443l12.7137-12.7172H132.201V109.8835ZM73.8826,97.1775,119.48,51.58V97.1775Z" transform="translate(-43.1953 -20.8813)"/><rect class="cls-1" x="1473.785" y="41.2771" width="1.629" height="168.326"/><path class="cls-1" d="M1396.01,196.7h-4.5242V184.0722h-4.9614v-4.3337h14.4471v4.3337H1396.01Zm14.8244,0-2.6416-7.8528-.6871-2.07.0635,2.3237V196.7h-4.6516V179.7385h6.4072l2.8918,8.6712.7509,2.4511.7583-2.4511,2.888-8.6712h6.411V196.7h-4.6513V189.101l.0635-2.3237-.6951,2.07-2.6335,7.8528Z" transform="translate(-43.1953 -20.8813)"/><path d="M1596.7619,122.8173V125.16h-31.214v21.1979h28.6138V148.7h-28.6138v22.5018h32.5142v2.3387h-35.1144V122.8173Z" transform="translate(-43.1953 -20.8813)"/><path d="M1624.4679,147.0077l-4.42-6.5-11.9663-17.69h3.1868l10.6662,15.8032,4.0946,6.0485,4.0984-6.0485,10.6625-15.8032h3.1868l-11.9626,17.69-4.4234,6.5,4.6812,6.8294,13.3971,19.7035h-3.3175l-11.6413-17.4283-4.6812-6.8256-4.6811,6.8256-11.6413,17.4283h-3.3138l13.3934-19.7035Z" transform="translate(-43.1953 -20.8813)"/><path d="M1689.44,122.8173V125.16h-31.2141v21.1979H1686.84V148.7h-28.6139v22.5018H1690.74v2.3387h-35.1144V122.8173Z" transform="translate(-43.1953 -20.8813)"/><path d="M1721.6331,122.1673c12.2913,0,17.4955,5.5927,18.99,13.2664l-2.731.3885c-1.3-7.0871-6.1793-11.4432-16.2589-11.3125-13.1992.1943-18.7247,8.8431-18.7247,23.6711,0,14.8244,5.5255,23.4732,18.7247,23.6712,10.08.127,14.9588-4.2292,16.2589-11.3163l2.731.3885c-1.4944,7.6737-6.6986,13.2665-18.99,13.2665-14.9551,0-21.4595-10.08-21.4595-26.01C1700.1736,132.2469,1706.678,122.1673,1721.6331,122.1673Z" transform="translate(-43.1953 -20.8813)"/><path d="M1749.9293,156.6989V122.8173h2.6638v34.3373c0,8.78,3.9676,14.63,17.2975,14.63,13.3337,0,17.2976-5.85,17.2976-14.63V122.8173h2.6674v33.8816c0,10.6624-4.9426,17.4918-19.965,17.4918S1749.9293,167.3613,1749.9293,156.6989Z" transform="translate(-43.1953 -20.8813)"/><path d="M1817.4981,173.5406h-2.6V125.16h-17.2341v-2.3425h37.0683V125.16h-17.234Z" transform="translate(-43.1953 -20.8813)"/><path d="M1847.4158,173.5406h-2.6V122.8173h2.6Z" transform="translate(-43.1953 -20.8813)"/><path d="M1878.63,171.2019l5.5293-15.0261,12.4856-33.3585h2.8617l-19.5092,51.3734h-2.731l-19.5093-51.3734h2.8618l12.4856,33.3585Z" transform="translate(-43.1953 -20.8813)"/><path d="M1942.3655,122.8173V125.16h-31.214v21.1979h28.6138V148.7h-28.6138v22.5018h32.5141v2.3387h-35.1144V122.8173Z" transform="translate(-43.1953 -20.8813)"/><path d="M2004.476,122.8173V125.16h-31.214v21.1979h28.6138V148.7H1973.262v22.5018h32.5141v2.3387h-35.1144V122.8173Z" transform="translate(-43.1953 -20.8813)"/><path d="M2033.8744,173.5406h-16.711V122.8173h16.711c14.7608,0,22.9538,5.5928,22.9538,25.3635C2056.8282,167.9479,2048.6352,173.5406,2033.8744,173.5406Zm.7136-2.3387c13.7222,0,19.5092-5.4657,19.5092-23.0211,0-17.559-5.787-23.021-19.5092-23.021h-14.8244v46.0421Z" transform="translate(-43.1953 -20.8813)"/><path d="M2066.9153,156.6989V122.8173h2.6638v34.3373c0,8.78,3.9676,14.63,17.2975,14.63,13.3337,0,17.2976-5.85,17.2976-14.63V122.8173h2.6675v33.8816c0,10.6624-4.9427,17.4918-19.9651,17.4918S2066.9153,167.3613,2066.9153,156.6989Z" transform="translate(-43.1953 -20.8813)"/><path d="M2138.3882,122.1673c12.2876,0,17.4918,5.5927,18.9862,13.2664l-2.731.3885c-1.3-7.0871-6.1793-11.4432-16.2552-11.3125-13.2029.1943-18.7322,8.8431-18.7322,23.6711,0,14.8244,5.5293,23.4732,18.7322,23.6712,10.0759.127,14.9551-4.2292,16.2552-11.3163l2.731.3885c-1.4944,7.6737-6.6986,13.2665-18.9862,13.2665-14.9588,0-21.4631-10.08-21.4631-26.01C2116.9251,132.2469,2123.4294,122.1673,2138.3882,122.1673Z" transform="translate(-43.1953 -20.8813)"/><path d="M2194.835,156.31h-23.1518l-6.4371,17.23h-2.8617l19.5092-51.3733h2.731l19.5092,51.3733h-2.8617Zm-17.1033-16.1319-5.2042,13.7857h21.3959l-5.1369-13.7857-5.5293-15.0186Z" transform="translate(-43.1953 -20.8813)"/><path d="M2222.9258,173.5406h-2.6V125.16h-17.234v-2.3425H2240.16V125.16h-17.234Z" transform="translate(-43.1953 -20.8813)"/><path d="M2252.8434,173.5406h-2.6V122.8173h2.6Z" transform="translate(-43.1953 -20.8813)"/><path d="M2265.1983,148.1808c0-15.0858,5.9178-26.0135,21.4632-26.0135,15.5416,0,21.4594,10.9277,21.4594,26.0135s-5.9178,26.01-21.4594,26.01C2271.1161,174.1907,2265.1983,163.2667,2265.1983,148.1808Zm2.731,0c0,13.2627,4.6849,23.6712,18.7322,23.6712,14.0435,0,18.7247-10.4085,18.7247-23.6712,0-13.27-4.6812-23.6711-18.7247-23.6711C2272.6142,124.51,2267.9293,134.9107,2267.9293,148.1808Z" transform="translate(-43.1953 -20.8813)"/><path d="M2329.3225,138.1647l-7.8044-12.2278.1943,17.69v29.9139h-2.533V122.8173h3.1868l23.148,35.3759,7.8045,12.2241-.1943-17.686v-29.914h2.5367v50.7233h-3.1868Z" transform="translate(-43.1953 -20.8813)"/></svg>