<svg id="global-business" xmlns="http://www.w3.org/2000/svg" viewBox="0 0 29.4917 29.4917"><defs><style>.cls-1{fill:#0081cc;}</style></defs><title>global-business</title><path class="cls-1" d="M15,29.7461A14.7458,14.7458,0,1,1,29.7461,15,14.7626,14.7626,0,0,1,15,29.7461Zm0-29A14.2542,14.2542,0,1,0,29.2539,15,14.2706,14.2706,0,0,0,15,.7456Z" transform="translate(-0.2544 -0.2544)"/><path class="cls-1" d="M12.7755,22.1136s.0091-.343.0091-.5336V19.4156a.7137.7137,0,0,0-.3967-.6418l-.5723-.2861a.0157.0157,0,0,1-.0087-.0141v-.3464a1.2053,1.2053,0,0,0,.4888-.9691v-.4888a.963.963,0,0,0-.9619-.9619H10.845a.963.963,0,0,0-.9619.9619v.4888a1.2053,1.2053,0,0,0,.4888.9691v.3464a.0157.0157,0,0,1-.0087.0141l-.5723.2861a.7136.7136,0,0,0-.3966.6418V21.58c0,.1906.0091.5336.0091.5336m.7755-.4387-.334.0021.0067-.0969V19.4156a.2588.2588,0,0,1,.1438-.2327l.3971-.1985.3624.3624a.4736.4736,0,0,0,.669,0l.3624-.3624.3971.1985a.2588.2588,0,0,1,.1438.2327V21.58c0,.1.0067.0969.0067.0969L12,21.6749M10.34,16.6694a.5051.5051,0,0,1,.5045-.5045h.4888a.5051.5051,0,0,1,.5045.5045v.4888a.75.75,0,0,1-.749.749h0a.75.75,0,0,1-.749-.749v-.4888Zm.7379,2.354-.3126-.3126a.4724.4724,0,0,0,.0635-.2372v-.1091h.52v.1091a.4725.4725,0,0,0,.0635.2372l-.3126.3126A.0158.0158,0,0,1,11.0783,19.0234Z" transform="translate(-0.2544 -0.2544)"/><path class="cls-1" d="M16.7544,22.1136s.0091-.343.0091-.5336V19.4156a.7137.7137,0,0,0-.3967-.6418l-.5723-.2861a.0157.0157,0,0,1-.0087-.0141v-.3464a1.2053,1.2053,0,0,0,.4888-.9691v-.4888a.963.963,0,0,0-.9619-.9619h-.4888a.963.963,0,0,0-.9619.9619v.4888a1.2053,1.2053,0,0,0,.4888.9691v.3464a.0157.0157,0,0,1-.0087.0141l-.5723.2861a.7136.7136,0,0,0-.3966.6418V21.58c0,.1906.0091.5336.0091.5336m.7755-.4387-.334.0021.0067-.0969V19.4156a.2588.2588,0,0,1,.1438-.2327l.3971-.1985.3624.3624a.4736.4736,0,0,0,.669,0l.3624-.3624.3971.1985a.2588.2588,0,0,1,.1438.2327V21.58c0,.1.0067.0969.0067.0969l-.334-.0021m-1.6595-5.0055a.5051.5051,0,0,1,.5045-.5045h.4888a.5051.5051,0,0,1,.5045.5045v.4888a.75.75,0,0,1-.749.749h0a.75.75,0,0,1-.749-.749v-.4888Zm.7379,2.354-.3126-.3126a.4724.4724,0,0,0,.0635-.2372v-.1091h.52v.1091a.4725.4725,0,0,0,.0635.2372l-.3126.3126A.0158.0158,0,0,1,15.0572,19.0234Z" transform="translate(-0.2544 -0.2544)"/><path class="cls-1" d="M20.7333,22.1136s.0091-.343.0091-.5336V19.4156a.7137.7137,0,0,0-.3967-.6418l-.5723-.2861a.0157.0157,0,0,1-.0087-.0141v-.3464a1.2053,1.2053,0,0,0,.4888-.9691v-.4888a.963.963,0,0,0-.9619-.9619h-.4888a.963.963,0,0,0-.9619.9619v.4888a1.2053,1.2053,0,0,0,.4888.9691v.3464a.0157.0157,0,0,1-.0087.0141l-.5723.2861a.7136.7136,0,0,0-.3966.6418V21.58c0,.1906.0091.5336.0091.5336m.7755-.4387-.334.0021.0067-.0969V19.4156a.2588.2588,0,0,1,.1438-.2327l.3971-.1985.3624.3624a.4736.4736,0,0,0,.669,0l.3624-.3624.3971.1985a.2588.2588,0,0,1,.1438.2327V21.58c0,.1.0067.0969.0067.0969l-.334-.0021m-1.6595-5.0055a.5051.5051,0,0,1,.5045-.5045h.4888a.5051.5051,0,0,1,.5045.5045v.4888a.75.75,0,0,1-.749.749h0a.75.75,0,0,1-.749-.749v-.4888Zm.7379,2.354-.3126-.3126a.4724.4724,0,0,0,.0635-.2372v-.1091h.52v.1091a.4725.4725,0,0,0,.0635.2372l-.3126.3126A.0158.0158,0,0,1,19.0362,19.0234Z" transform="translate(-0.2544 -0.2544)"/><path class="cls-1" d="M19.6551,9.8146a6.585,6.585,0,0,0-10.734,7.1868.2287.2287,0,1,0,.4221-.176,6.0773,6.0773,0,0,1-.4646-2.1271h1.7406c.002.0908.0051.1815.01.2715a.2287.2287,0,0,0,.4568-.0227c-.0041-.0824-.007-.1655-.009-.2487h3.6948v.26a.2287.2287,0,1,0,.4573,0v-.26h3.6948c-.002.0834-.0049.1665-.009.249a.2287.2287,0,0,0,.217.24l.0116,0a.2287.2287,0,0,0,.2282-.2173c.0045-.09.0075-.1808.01-.2717h1.7406a6.0775,6.0775,0,0,1-.4648,2.1274.2287.2287,0,1,0,.4221.176,6.59,6.59,0,0,0-1.4236-7.1872Zm1.4662,4.4265H19.3808a9.2123,9.2123,0,0,0-.5425-2.9644H20.226A6.0858,6.0858,0,0,1,21.1213,14.241Zm-1.2047-3.4218H18.6529a6.8218,6.8218,0,0,0-.5235-.9681,5.1754,5.1754,0,0,0-.9594-1.11A6.1572,6.1572,0,0,1,19.9165,10.8193ZM14.7713,8.3544v2.4649H11.8489A3.88,3.88,0,0,1,14.7713,8.3544Zm.4573,0a3.88,3.88,0,0,1,2.9225,2.4649H15.2287ZM12.83,8.7413a5.1781,5.1781,0,0,0-.959,1.11,6.82,6.82,0,0,0-.5235.9681H10.0835A6.157,6.157,0,0,1,12.83,8.7413ZM9.774,11.2766h1.3878a9.2123,9.2123,0,0,0-.5425,2.9644H8.8787A6.0856,6.0856,0,0,1,9.774,11.2766Zm1.3027,2.9644a8.7139,8.7139,0,0,1,.5738-2.9644h3.1208V14.241Zm4.152-2.9644h3.1208a8.7138,8.7138,0,0,1,.5738,2.9644H15.2287Z" transform="translate(-0.2544 -0.2544)"/></svg>