<svg id="leadership" xmlns="http://www.w3.org/2000/svg" viewBox="0 0 29.4917 29.4917"><defs><style>.cls-1{fill:#0081cc;}</style></defs><title>leadership-management</title><path class="cls-1" d="M15,29.7461A14.7458,14.7458,0,1,1,29.7461,15,14.7626,14.7626,0,0,1,15,29.7461Zm0-29A14.2542,14.2542,0,1,0,29.2539,15,14.2706,14.2706,0,0,0,15,.7456Z" transform="translate(-0.2544 -0.2544)"/><path class="cls-1" d="M17.5493,8.3468a1.4319,1.4319,0,1,0,1.432,1.432A1.4335,1.4335,0,0,0,17.5493,8.3468Zm0,2.4286a.3963.3963,0,0,1-.0552-.0048l-.0286-.0034-.0585-.0052.0436-.0393a.9471.9471,0,0,0,.316-.6753h-.4354a.5085.5085,0,0,1-.4238.4762l-.0121.0021-.0093-.0083a.9834.9834,0,0,1-.3333-.7387.9967.9967,0,1,1,.9967.9966Z" transform="translate(-0.2544 -0.2544)"/><path class="cls-1" d="M10.02,11.2617a1.4312,1.4312,0,1,0,1.432,1.4307A1.4321,1.4321,0,0,0,10.02,11.2617Zm.6634,2.1707-.0093.0082-.0123-.0021a.5115.5115,0,0,1-.4234-.4778H9.8049a.9372.9372,0,0,0,.316.6766l.0464.0418-.0624.0027c-.0116,0-.0231.0022-.0348.0038a.338.338,0,0,1-.05.0047,1.0086,1.0086,0,1,1,.6634-.2579Z" transform="translate(-0.2544 -0.2544)"/><path class="cls-1" d="M21.8961,8.8077a.2183.2183,0,0,0-.1487-.2071L20.29,8.1154a.2174.2174,0,0,0-.2864.2059v3.1824H16.5782a.2149.2149,0,0,0-.139.0508L14.982,12.7688a.2193.2193,0,0,0-.0555.0693l-.6929,1.3859-.0086.0037-1.5421.6608-.0093-.0031-1.37-.4566a.2583.2583,0,0,0-.0689-.01H9.2925A1.19,1.19,0,0,0,8.1039,15.607v2.6718a.2179.2179,0,0,0,.2175.2176H9.075v2.9644H8.1039v.4353H11.478a.2179.2179,0,0,0,.2175-.2177v-1.24h3.4252a.2179.2179,0,0,0,.2175-.2176v-1.24h2.6973a.2177.2177,0,0,0,.2175-.2174v-1.24h3.4V17.09h-.4863v-1.969a1.19,1.19,0,0,0-1.1886-1.1887h-.9967V12.91h1.24A1.19,1.19,0,0,0,21.41,11.721V10.2639a.2173.2173,0,0,0-.2175-.2165h-.7536V9.45l1.3087-.4362A.2179.2179,0,0,0,21.8961,8.8077Zm-3.939,3.1309-.1647.4122-.1647-.4122ZM11.99,20.0037H11.478a.2177.2177,0,0,0-.2175.2173v1.24h-.536V18.4964H11.99Zm1.2143,0h-.7807V18.2788a.2171.2171,0,0,0-.216-.2176H10.5069a.2179.2179,0,0,0-.2175.2176v3.182H9.51V15.8757H9.075v2.1855h-.536V15.607a.7544.7544,0,0,1,.7536-.7535h.7536v1.6991h.4352V14.8535l.7228.0013,1.4192.473a.2227.2227,0,0,0,.1555-.0064l1.5334-.6582.2481.3738-.0258.013-1.6364.8184-.008-.0012-1.6244-.2326a.2155.2155,0,0,0-.247.2155v1.2143a.2172.2172,0,0,0,.216.2177h1.2143a.7552.7552,0,0,1,.7551.7535Zm3.4-1.4562h-1.483a.2172.2172,0,0,0-.2175.2164v1.24H13.6378V18.0356a1.19,1.19,0,0,0-1.1886-1.1888h-.9967v-.7462l1.4524.207a.2271.2271,0,0,0,.1286-.02l1.9421-.9724a.2.2,0,0,0,.0758-.0677l.0115-.01.951-1.4238.59-.4432Zm2.915-1.4575H18.2532V15.5815h1.2657Zm1.4559-6.6087v1.24a.7552.7552,0,0,1-.7536.755H18.7636a.2173.2173,0,0,0-.2175.2165V14.15a.2179.2179,0,0,0,.2175.2176H19.978a.7553.7553,0,0,1,.7551.7537V17.09h-.7807V15.3638a.2177.2177,0,0,0-.2175-.2174H18.0356a.2177.2177,0,0,0-.2175.2174v3.1836h-.7792V12.9352a.2183.2183,0,0,0-.3483-.1737l-.9711.7291a.1821.1821,0,0,0-.0506.0525l-.7913,1.1862-.2343-.3523.0067-.0132.6491-1.2938,1.3576-1.1313H17.16l.0065.016.4248,1.0613a.2167.2167,0,0,0,.403,0l.4311-1.0775h1.796a.2179.2179,0,0,0,.2175-.2176v-1.24Zm-.536-1.49V8.6228l.5522.1849Z" transform="translate(-0.2544 -0.2544)"/><rect class="cls-1" x="13.6778" y="9.0636" width="0.4351" height="0.4352"/><rect class="cls-1" x="12.7067" y="9.0636" width="0.4351" height="0.4352"/><rect class="cls-1" x="11.7356" y="9.0636" width="0.4339" height="0.4352"/></svg>