<svg id="strategy_and_innovation" data-name="strategy and innovation" xmlns="http://www.w3.org/2000/svg" viewBox="0 0 29.4917 29.4917"><defs><style>.cls-1{fill:#0081cc;}</style></defs><title>strategy-innovation</title><path class="cls-1" d="M15,29.7461A14.7458,14.7458,0,1,1,29.7461,15,14.7626,14.7626,0,0,1,15,29.7461Zm0-29A14.2542,14.2542,0,1,0,29.2539,15,14.2706,14.2706,0,0,0,15,.7456Z" transform="translate(-0.2544 -0.2544)"/><path class="cls-1" d="M20.9617,12.7138H19.6434V10.1156a.2132.2132,0,0,0-.0234-.0971l-.0009-.0021-.5939-1.1726h0l-.52-1.026a.2145.2145,0,0,0-.3827,0l-.52,1.0261v0l-.5938,1.1724-.0009.0021a.2132.2132,0,0,0-.0234.0971V12.163a.2145.2145,0,0,0,.429,0V10.33h1.8006v2.3823H17.4139v-.6082a.2145.2145,0,1,0-.429,0v.61h-.4212V7.8812a.2145.2145,0,0,0-.2145-.2145H14.1478a.2145.2145,0,0,0-.2145.2145V9.9518a.2145.2145,0,1,0,.429,0V8.0956h1.7725V9.02H15.673a.2145.2145,0,0,0,0,.429h.4617v.526H15.4a.2145.2145,0,1,0,0,.429h.7351v.526H15.673a.2145.2145,0,1,0,0,.429h.4617v.526H15.4a.2145.2145,0,1,0,0,.429h.7351v.3981H14.3623V9.6639a.2145.2145,0,0,0-.429,0v3.05h-.5371l-.147-.9262a.2144.2144,0,0,0,.1782-.2112v-.8023a.2144.2144,0,0,0-.1659-.2087,1.1951,1.1951,0,0,0,.1659-.6074A2.9521,2.9521,0,0,0,12.91,8.6135c-.2465-.4529-.4889-.8322-.4991-.8481a.2145.2145,0,0,0-.3612,0c-.01.0159-.2526.3952-.4991.8481a2.952,2.952,0,0,0-.5174,1.3444,1.1951,1.1951,0,0,0,.1659.6074.2144.2144,0,0,0-.1659.2087v.8023a.2144.2144,0,0,0,.1782.2112l-.147.9262h-.75a.2145.2145,0,0,0-.2.1371c-.3225.8334-.9208,2.2812-1.2487,3.07a.5508.5508,0,0,0,.5089.7623H10.05a22.4286,22.4286,0,0,0,.6213,2.5753,1.5588,1.5588,0,0,0,1.47.9568,3.5759,3.5759,0,0,0,.793-.033l.35,1.9739a.2145.2145,0,0,0,.2112.1771H19.34a.2145.2145,0,0,0,.212-.2472l-.53-3.4289c.32-.4681.9805-1.6509,1.23-2.1044a.2145.2145,0,1,0-.3759-.2067c-.2548.4636-.9243,1.6581-1.2554,2.1379a.2146.2146,0,0,0-.0354.1546l.5046,3.2657H13.6751l-.3563-2.01a.2145.2145,0,0,0-.262-.171c-.016.0039-1.6074.3791-1.9847-.6169a25.38,25.38,0,0,1-.6343-2.6773.2145.2145,0,0,0-.2108-.175H9.375a.1219.1219,0,0,1-.1127-.1686c.3114-.7491.8661-2.0914,1.1993-2.9428H20.7423a8.3564,8.3564,0,0,1-.8529,3.1622.2145.2145,0,1,0,.3885.1819,8.56,8.56,0,0,0,.8984-3.5577.2146.2146,0,0,0-.2145-.2154ZM18.4848,8.7263h-.3412l.1706-.3369Zm-.5585.429h.7758l.3766.7436H17.55Zm-4.9279,1.8333v.3733H11.4622v-.3733h1.5362Zm-1.3532.8023h1.17l.1463.9216H11.4989Zm.5838-3.5027c.0869.1448.1958.3314.3041.53a3.0269,3.0269,0,0,1,.4652,1.1394.7674.7674,0,0,1-.2906.6016h-.9551a.7675.7675,0,0,1-.2906-.6016A5.0677,5.0677,0,0,1,12.229,8.2882Z" transform="translate(-0.2544 -0.2544)"/></svg>