<svg width="370" height="295" viewBox="0 0 370 295" fill="none" xmlns="http://www.w3.org/2000/svg">
<path d="M279.493 328.325L223.619 500.019C223.523 500.312 223.619 500.639 223.885 500.833C223.885 500.833 224.292 501.188 224.741 501.509C225.182 501.836 225.655 502.112 225.655 502.112C225.913 502.302 226.258 502.292 226.503 502.112L372.537 395.916L518.564 502.112C518.809 502.292 519.16 502.302 519.419 502.112C519.419 502.112 519.888 501.833 520.333 501.502C520.782 501.188 521.189 500.819 521.189 500.819C521.447 500.633 521.544 500.308 521.447 500.015L465.577 328.318L611.694 222.257C611.946 222.081 612.066 221.749 611.963 221.446C611.963 221.446 611.849 220.911 611.67 220.39C611.497 219.87 611.283 219.369 611.283 219.369C611.19 219.059 610.904 218.869 610.594 218.869L430.035 218.945L374.31 47.2C374.217 46.9068 373.948 46.6998 373.62 46.6998C373.62 46.6998 373.078 46.6481 372.523 46.6481C371.968 46.6481 371.433 46.6998 371.433 46.6998C371.112 46.6998 370.843 46.9068 370.743 47.2L315.025 218.945L134.466 218.869C134.163 218.862 133.877 219.059 133.773 219.369C133.773 219.369 133.556 219.87 133.387 220.39C133.214 220.911 133.1 221.446 133.1 221.446C133.004 221.749 133.111 222.07 133.366 222.257L279.489 328.325H279.493Z" fill="#E81D24"/>
<mask id="mask0_2_94" style="mask-type:luminance" maskUnits="userSpaceOnUse" x="0" y="0" width="373" height="295">
<path d="M372.535 0.615112H0V294.558H372.535V0.615112Z" fill="white"/>
</mask>
<g mask="url(#mask0_2_94)">
<path d="M93.7911 280.726C91.2144 283.344 87.8478 285.955 84.5364 287.032C81.4078 288.06 72.4808 288.901 69.8075 281.537C69.228 279.943 69.6902 279.446 71.1286 279.012C73.281 278.356 78.8207 276.69 84.6675 274.455C89.9726 272.437 94.7018 269.971 96.1781 268.967C98.8273 267.205 99.2067 264.742 98.0201 262.11C94.2327 253.745 85.7333 245.015 71.7115 247.774C60.57 249.971 52.6433 260.068 52.7157 271.554C52.8054 285.78 61.4323 294.048 72.3566 296.555C82.4564 298.894 94.2844 293.927 99.3067 285.673C101.297 282.492 95.6124 278.774 93.7877 280.726H93.7911ZM68.4553 269.692C67.3446 266.684 68.1552 257.446 73.2327 255.67C78.5724 253.804 81.8735 256.539 83.5085 261.92C84.1156 263.914 83.9983 266.025 83.3498 266.825C82.4081 267.981 80.7214 268.681 79.2036 269.198L75.2058 270.554C71.2769 271.916 69.397 272.199 68.4588 269.695L68.4553 269.692Z" fill="white"/>
<path d="M224.458 279.888C221.878 282.506 218.514 285.117 215.203 286.193C212.074 287.221 203.147 288.063 200.474 280.699C199.895 279.105 200.353 278.608 201.795 278.174C203.948 277.518 209.487 275.852 215.334 273.617C220.639 271.599 225.368 269.133 226.845 268.129C229.494 266.366 229.873 263.903 228.687 261.272C224.896 252.907 216.4 244.176 202.378 246.936C191.237 249.133 183.31 259.23 183.382 270.716C183.472 284.941 192.099 293.209 203.027 295.717C213.126 298.056 224.954 293.089 229.973 284.834C231.967 281.654 226.279 277.936 224.458 279.888ZM199.122 268.853C198.456 267.053 198.48 263.027 199.691 259.702C200.505 257.467 201.733 255.718 203.899 254.832C206.342 253.835 208.435 254.09 210.074 255.021C211.954 256.087 213.299 258.209 214.172 261.082C214.779 263.076 214.661 265.187 214.013 265.987C213.071 267.142 211.595 267.729 209.867 268.36C208.135 268.991 206.597 269.502 205.869 269.736C201.912 271.002 200.06 271.361 199.122 268.857V268.853Z" fill="white"/>
<path d="M324.066 279.25C321.489 281.868 318.126 284.479 314.811 285.555C311.683 286.583 302.756 287.425 300.082 280.06C299.503 278.467 299.962 277.97 301.403 277.535C303.556 276.88 309.096 275.214 314.942 272.979C320.248 270.961 324.977 268.495 326.453 267.491C329.102 265.728 329.482 263.265 328.295 260.633C324.504 252.269 316.008 243.538 301.986 246.298C290.845 248.495 282.918 258.591 282.991 270.078C283.08 284.303 291.707 292.571 302.631 295.079C312.731 297.418 324.559 292.451 329.582 284.196C331.575 281.016 325.887 277.297 324.063 279.25H324.066ZM298.73 268.215C298.064 266.415 298.089 262.389 299.303 259.064C300.117 256.829 301.345 255.08 303.511 254.193C305.95 253.197 308.044 253.452 309.685 254.383C311.565 255.449 312.914 257.57 313.783 260.444C314.39 262.437 314.273 264.548 313.625 265.349C312.683 266.504 311.207 267.091 309.479 267.722C307.747 268.353 306.208 268.864 305.477 269.098C301.521 270.364 299.668 270.723 298.73 268.219V268.215Z" fill="white"/>
<path d="M30.2463 283.831C30.2601 285.738 29.6703 287.832 28.2043 288.498L25.0308 289.957C24.4617 290.222 24.3065 290.643 24.3099 291.274C24.3099 291.433 24.3237 291.533 24.3548 291.747L24.7514 295.355C24.9239 296.338 25.5965 296.493 26.9004 296.486L49.9424 296.338C51.2428 296.331 51.9154 296.166 52.0741 295.183L52.426 291.568C52.457 291.354 52.4674 291.25 52.4674 291.095C52.4639 290.464 52.2983 290.046 51.7292 289.788L48.5385 288.37C47.0656 287.725 46.4516 285.638 46.4378 283.731L46.1825 243.811C46.1688 241.907 46.7586 239.809 48.2246 239.144L51.398 237.685C51.9672 237.422 52.1259 236.998 52.119 236.37C52.119 236.212 52.1017 236.112 52.0707 235.898L51.6809 233.187C51.5084 232.207 50.8358 232.052 49.5354 232.059L27.5696 232.2C26.2692 232.207 25.6 232.373 25.4379 233.356L25.0791 236.07C25.0481 236.284 25.0377 236.384 25.0377 236.543C25.0412 237.174 25.2033 237.591 25.7759 237.85L28.3768 239.271C29.8635 240.11 29.9773 242.01 29.9876 243.914L30.0601 255.049C30.0635 255.821 29.4392 256.456 28.6665 256.46L16.1797 256.539C15.407 256.542 14.7758 255.922 14.7689 255.145L14.6965 244.011C14.6827 242.107 14.7689 240.203 16.2452 239.347L18.8288 237.892C19.398 237.629 19.5567 237.205 19.5498 236.577C19.5498 236.419 19.536 236.319 19.5015 236.105L19.1082 233.394C18.9358 232.414 18.2631 232.259 16.9627 232.266L-5.00306 232.407C-6.30348 232.414 -6.97611 232.58 -7.13478 233.563L-7.49007 236.277C-7.52112 236.491 -7.53491 236.591 -7.53147 236.75C-7.52802 237.381 -7.36244 237.798 -6.78984 238.057L-3.59915 239.475C-2.12626 240.12 -1.51227 242.21 -1.49847 244.114L-1.24321 284.034C-1.22942 285.942 -1.81926 288.035 -3.28526 288.701L-6.45525 290.16C-7.0244 290.426 -7.18308 290.847 -7.17963 291.478C-7.17963 291.637 -7.16238 291.737 -7.13133 291.95L-6.73465 295.558C-6.56218 296.542 -5.88955 296.697 -4.58568 296.69L18.4563 296.542C19.7567 296.535 20.4293 296.369 20.588 295.386L20.9399 291.771C20.9709 291.557 20.9813 291.454 20.9813 291.298C20.9778 290.667 20.8122 290.25 20.2431 289.991L17.0524 288.573C15.5795 287.928 14.9655 285.842 14.9517 283.934L14.8482 267.705C14.8448 266.932 15.4657 266.297 16.2418 266.294L28.7286 266.215C29.5013 266.211 30.136 266.832 30.1394 267.608L30.2429 283.837L30.2463 283.831Z" fill="white"/>
<path d="M120.79 238.323C120.817 242.755 117.116 246.374 112.525 246.405C107.934 246.436 104.188 242.862 104.157 238.43C104.129 233.997 107.83 230.379 112.421 230.351C117.016 230.32 120.762 233.89 120.79 238.323Z" fill="white"/>
<path d="M103.746 295.993C102.497 296 101.852 295.852 101.687 294.91L101.304 291.312C101.273 291.109 101.276 291.009 101.276 290.857C101.273 290.253 101.435 289.881 101.952 289.594L104.419 288.197C105.788 287.525 106.388 285.552 106.375 283.72L106.23 260.927C106.216 259.019 105.874 256.584 104.195 255.759L102.604 254.856C102.032 254.6 101.87 254.18 101.866 253.552C101.866 253.393 101.877 253.293 101.904 253.079L102.263 250.364C102.425 249.381 103.094 249.216 104.395 249.209L119.962 249.109C120.734 249.105 121.369 249.726 121.373 250.502L121.583 283.627C121.593 285.459 122.218 287.425 123.597 288.08L126.081 289.443C126.602 289.719 126.767 290.091 126.774 290.695C126.774 290.85 126.781 290.947 126.75 291.15L126.416 294.751C126.26 295.696 125.619 295.855 124.37 295.862L103.743 295.993H103.746Z" fill="white"/>
<path d="M150.575 251.337C150.575 251.337 151.448 250.906 153.021 250.13C156.129 248.647 162.213 245.987 167.267 247.56C171.647 248.93 175.442 252.079 175.494 260.402L175.656 285.628C175.663 286.704 175.711 287.149 176.214 287.418C176.887 287.78 178.046 286.676 179.16 286.093C180.285 285.507 180.913 286.183 181.609 286.942C182.216 287.604 182.948 288.542 182.368 289.784C180.53 293.699 176.37 295.972 171.485 296.003C166.87 296.035 160.975 293.423 160.934 286.507L160.778 262.22C160.754 258.509 158.053 257.239 155.963 257.512C152.81 257.922 150.53 260.578 150.561 265.287L150.675 283.437C150.685 285.269 151.313 287.235 152.69 287.89L155.173 289.253C155.694 289.529 155.86 289.901 155.866 290.505C155.866 290.66 155.873 290.757 155.846 290.96L155.508 294.562C155.352 295.507 154.711 295.665 153.462 295.672L132.835 295.803C131.586 295.81 130.941 295.662 130.776 294.72L130.393 291.123C130.362 290.919 130.365 290.819 130.365 290.667C130.362 290.064 130.524 289.691 131.041 289.405L133.507 288.008C134.877 287.335 135.477 285.362 135.463 283.53L135.318 260.737C135.305 258.829 134.967 256.394 133.287 255.57L131.697 254.666C131.124 254.411 130.958 253.99 130.955 253.362C130.955 253.203 130.965 253.103 130.996 252.89L131.352 250.175C131.514 249.192 132.183 249.026 133.483 249.019L148.15 248.926C149.306 248.919 149.754 249.575 150.092 250.316L150.579 251.337H150.575Z" fill="white"/>
<path d="M351.847 250.051C351.847 250.051 352.72 249.62 354.293 248.843C357.401 247.36 363.486 244.701 368.539 246.274C372.92 247.643 376.714 250.792 376.766 259.116L376.928 284.341C376.935 285.417 376.987 285.862 377.487 286.131C378.16 286.494 379.322 285.39 380.433 284.807C381.557 284.22 382.185 284.896 382.882 285.655C383.492 286.318 384.22 287.256 383.637 288.498C381.799 292.413 377.639 294.686 372.754 294.717C368.142 294.748 362.244 292.137 362.203 285.221L362.047 260.934C362.023 257.222 359.326 255.953 357.232 256.225C354.079 256.636 351.799 259.292 351.83 264L351.944 282.151C351.954 283.982 352.579 285.949 353.959 286.604L356.442 287.966C356.963 288.242 357.129 288.615 357.135 289.219C357.135 289.374 357.142 289.47 357.115 289.674L356.777 293.275C356.621 294.22 355.98 294.379 354.731 294.386L334.107 294.517C332.855 294.524 332.214 294.375 332.045 293.434L331.662 289.836C331.631 289.632 331.634 289.532 331.634 289.381C331.631 288.777 331.793 288.405 332.31 288.118L334.776 286.721C336.146 286.049 336.746 284.076 336.732 282.244L336.587 259.45C336.574 257.543 336.236 255.108 334.552 254.283L332.962 253.379C332.389 253.124 332.227 252.703 332.224 252.076C332.224 251.917 332.234 251.817 332.265 251.603L332.624 248.888C332.786 247.905 333.455 247.74 334.756 247.733L349.419 247.64C350.575 247.633 351.027 248.288 351.361 249.03L351.851 250.051H351.847Z" fill="white"/>
<path d="M277.372 283.258C278.479 285.01 279.821 286.414 281.2 287.07L283.684 288.432C284.205 288.708 284.37 289.081 284.377 289.684C284.377 289.839 284.384 289.936 284.353 290.139L284.019 293.741C283.863 294.686 283.222 294.844 281.973 294.851L269.521 294.931C267.392 294.945 267.227 294.327 266.254 292.599L255.692 273.655L251.794 277.442L251.829 282.792C251.839 284.624 252.715 286.535 254.143 287.242L256.627 288.604C257.148 288.88 257.317 289.253 257.32 289.857C257.32 290.012 257.327 290.108 257.296 290.312L256.961 293.913C256.806 294.858 256.165 295.017 254.916 295.024L234.289 295.155C233.04 295.162 232.395 295.013 232.229 294.072L231.85 290.474C231.815 290.271 231.822 290.171 231.819 290.019C231.815 289.415 231.981 289.043 232.495 288.756L234.961 287.359C236.331 286.687 236.931 284.714 236.917 282.882L236.655 242.072C236.645 240.244 236.062 238.34 234.64 237.623L232.157 236.257C231.639 235.981 231.47 235.608 231.464 235.004C231.464 234.853 231.457 234.756 231.488 234.553L231.829 231.983C231.984 231.041 232.629 230.882 233.875 230.876L248.824 230.779C250.294 230.769 251.491 231.955 251.501 233.425L251.698 264.404L258.303 258.36C259.245 257.539 260.79 256.166 261.391 255.559C261.994 254.952 262.111 254.055 261.246 253.7L258.893 252.655C258.372 252.42 258.224 252.041 258.217 251.465C258.217 251.32 258.227 251.227 258.255 251.034L258.576 247.74C258.724 246.843 259.335 246.694 260.518 246.688L278.42 246.574C279.607 246.567 280.221 246.705 280.376 247.602L280.738 250.889C280.766 251.082 280.773 251.179 280.78 251.32C280.821 252.034 279.983 252.382 279.465 252.62C279.465 252.62 278.193 252.996 277.044 253.662C275.892 254.328 274.667 255.325 273.115 256.729L266.254 263.396L277.361 283.254L277.372 283.258Z" fill="white"/>
</g>
</svg>
