<svg width="33" height="33" viewBox="0 0 33 33" fill="none" xmlns="http://www.w3.org/2000/svg">
<g clip-path="url(#clip0_4_70)">
<path d="M21.9 19.36C20.99 20.275 19.805 21.18 18.635 21.55C17.535 21.905 14.4 22.18 13.48 19.59C13.28 19.03 13.44 18.855 13.95 18.705C14.705 18.48 16.655 17.91 18.71 17.135C20.575 16.44 22.24 15.585 22.765 15.235C23.7 14.62 23.835 13.76 23.425 12.83C22.115 9.885 19.15 6.805 14.225 7.74C10.31 8.485 7.50502 12.01 7.50502 16.04C7.50502 21.035 10.515 23.955 14.34 24.855C17.88 25.7 22.04 23.98 23.82 21.095C24.525 19.985 22.54 18.665 21.895 19.345M13.03 15.415C12.645 14.36 12.95 11.115 14.74 10.505C16.62 9.86 17.77 10.83 18.33 12.72C18.54 13.42 18.495 14.165 18.265 14.44C17.93 14.845 17.34 15.085 16.805 15.265L15.4 15.73C14.02 16.2 13.36 16.295 13.035 15.415" fill="white"/>
<path d="M3.57002 9.81C3.32002 9.665 3.23002 9.335 3.38002 9.085C3.52502 8.835 3.85502 8.745 4.10502 8.895C4.35502 9.04 4.44502 9.37 4.29502 9.62C4.15002 9.87 3.82002 9.96 3.57002 9.81Z" fill="white"/>
<path d="M28.415 9.605C28.16 9.745 27.835 9.655 27.695 9.4C27.555 9.145 27.645 8.82 27.9 8.68C28.155 8.54 28.48 8.63 28.62 8.885C28.76 9.14 28.67 9.465 28.415 9.605Z" fill="white"/>
<path d="M16.975 9.46748e-07L17.75 0.0650009C17.82 0.0650009 17.875 0.135001 17.865 0.200001L17.64 3C17.625 3.17 17.6 3.355 17.545 3.5C17.39 4.015 16.945 4.21 16.545 4.18C16.205 4.155 15.94 4.055 15.755 3.9C15.7 3.86 15.695 3.785 15.75 3.725L16.02 3.36C16.06 3.31 16.135 3.29 16.19 3.33C16.21 3.35 16.285 3.375 16.355 3.38C16.485 3.39 16.575 3.295 16.59 3.115L16.83 0.115001C16.835 0.0450009 16.905 -0.00499905 16.97 9.46748e-07" fill="white"/>
<path d="M19.625 4.265C19.42 3.835 19.39 3.275 19.725 2.475C20.065 1.66 20.495 1.3 20.935 1.145C21.36 1.005 21.82 1.06 22.28 1.255C22.73 1.44 23.1 1.72 23.295 2.11C23.5 2.54 23.53 3.1 23.195 3.9C22.855 4.715 22.425 5.075 21.985 5.23C21.56 5.37 21.1 5.315 20.64 5.12C20.185 4.93 19.82 4.655 19.625 4.265ZM21.425 2.04C21.17 2.155 20.925 2.465 20.75 2.885C20.565 3.335 20.515 3.71 20.615 3.98C20.685 4.145 20.815 4.255 20.995 4.33C21.165 4.405 21.335 4.41 21.495 4.34C21.75 4.225 21.99 3.92 22.17 3.495C22.355 3.05 22.4 2.67 22.305 2.405C22.235 2.235 22.11 2.125 21.935 2.05C21.755 1.975 21.59 1.97 21.43 2.04" fill="white"/>
<path d="M24.58 7.44C24.55 7.475 24.5 7.485 24.475 7.46L23.8 6.88C23.765 6.85 23.77 6.805 23.8 6.765L24.825 5.58L25.47 3.275C25.5 3.175 25.56 3.165 25.61 3.205L26.365 3.855C26.365 3.855 26.38 3.895 26.375 3.92L25.91 5.175L27.06 4.525C27.09 4.51 27.115 4.5 27.145 4.525L27.84 5.125C27.88 5.16 27.865 5.215 27.795 5.25L25.615 6.26L24.59 7.445L24.58 7.44Z" fill="white"/>
<path d="M6.15503 3.255C5.48503 3.71 5.19003 4.305 5.26503 5.085C5.30003 5.41 5.44003 5.77 5.66003 6.1C5.91503 6.48 6.22503 6.76 6.55003 6.915C7.18503 7.215 7.82503 7.15 8.46003 6.725C9.07503 6.31 9.45003 5.755 9.51503 5.165V5.1C9.51503 5.1 9.51503 5.015 9.43503 4.995C9.43503 4.995 8.82503 4.86 8.81503 4.86C8.80003 4.86 8.77003 4.87 8.72003 4.88C8.70003 4.895 8.68503 4.925 8.68003 4.955C8.62503 5.28 8.36503 5.695 8.11003 5.865C7.71503 6.135 7.43003 6.075 7.26503 5.98C7.24003 5.965 7.20003 5.94 7.19503 5.89C7.18503 5.855 7.19503 5.815 7.23503 5.77C7.67503 5.27 8.18503 4.57 8.37503 4.21C8.56503 3.855 8.57003 3.705 8.40503 3.46C8.22503 3.19 7.91003 2.995 7.54503 2.925C7.08503 2.835 6.59003 2.95 6.15003 3.245M6.24003 4.505L6.25003 4.445C6.29503 4.22 6.42003 4.03 6.61003 3.905C6.77503 3.795 6.94003 3.755 7.10003 3.785C7.23503 3.81 7.35503 3.89 7.43003 4C7.49003 4.09 7.49003 4.185 7.42503 4.29C7.29003 4.51 6.83003 5.08 6.68503 5.24C6.64503 5.285 6.59503 5.325 6.53503 5.32C6.48003 5.32 6.45003 5.27 6.43003 5.245C6.31503 5.075 6.24503 4.88 6.23503 4.685V4.525L6.24003 4.51" fill="white"/>
<path d="M12.895 2.75L12.33 0.640001C12.31 0.575001 12.35 0.500001 12.42 0.480001L13.085 0.285001C13.15 0.265001 13.23 0.305001 13.245 0.370001L14.195 3.925C14.215 3.99 14.17 4.065 14.105 4.085C14.105 4.085 13.235 4.315 13.175 4.325C13.115 4.335 13.065 4.325 13.03 4.285L11.47 2.57L12.15 4.6C12.175 4.665 12.14 4.74 12.075 4.765L11.445 5.005C11.38 5.03 11.305 4.995 11.28 4.93L10.035 1.405C10.01 1.34 10.045 1.265 10.11 1.24L11.035 0.890001C11.09 0.870001 11.15 0.890001 11.185 0.930001L12.88 2.755L12.895 2.75Z" fill="white"/>
<path d="M1.85529e-05 14.905L0.150019 14.095C0.160019 14.045 0.200019 13.995 0.270019 13.99C0.330019 13.99 0.495019 13.99 0.605019 14.015L1.15002 14.115C1.47002 14.175 1.67502 14.15 1.74002 13.805L1.79002 13.515C1.79002 13.49 1.78002 13.475 1.75502 13.47L0.440019 13.23C0.370019 13.215 0.325019 13.15 0.335019 13.075L0.475019 12.295C0.485019 12.225 0.555019 12.18 0.625019 12.19L4.38002 12.875C4.42502 12.885 4.46002 12.93 4.44502 12.99L4.22502 14.2C4.15502 14.595 4.03502 14.92 3.83502 15.16C3.62002 15.43 3.28002 15.555 2.90502 15.485C2.48002 15.41 2.19002 15.17 2.09502 14.725H2.08502C1.87502 15.21 1.53502 15.265 1.07002 15.18L0.615019 15.095C0.470019 15.07 0.275019 15.055 0.135019 15.075C0.0400186 15.075 -0.0249814 15.015 -0.00498145 14.91M3.44502 13.825C3.44502 13.8 3.44502 13.78 3.41002 13.775L2.64002 13.635C2.61002 13.63 2.59502 13.635 2.59002 13.665L2.55002 13.88C2.50002 14.145 2.64502 14.32 2.92002 14.37C3.18502 14.42 3.35002 14.325 3.40002 14.06L3.44002 13.82L3.44502 13.825Z" fill="white"/>
<path d="M2.39002 23.475C2.44502 23.385 2.49002 23.375 2.56502 23.425L3.19502 23.865C3.27502 23.915 3.26502 23.97 3.22002 24.035C3.05502 24.28 3.03502 24.485 3.17502 24.695C3.34002 24.945 3.58002 24.99 3.76002 24.87C3.86502 24.8 3.97002 24.675 3.92002 24.435L3.83002 24.015C3.67002 23.235 3.83502 22.78 4.33002 22.455C4.59502 22.28 4.88002 22.225 5.19002 22.285C5.49502 22.35 5.78002 22.545 6.02002 22.915C6.30002 23.345 6.37002 23.78 6.09002 24.24C6.02002 24.365 5.96002 24.37 5.89502 24.325L5.35502 23.95C5.33002 23.915 5.32002 23.89 5.34502 23.86C5.49002 23.675 5.49002 23.54 5.38002 23.37C5.26002 23.185 5.07002 23.16 4.95002 23.24C4.79502 23.34 4.75002 23.44 4.82002 23.755L4.91502 24.175C5.10002 24.995 4.85502 25.46 4.43002 25.735C4.14002 25.925 3.79502 25.995 3.44502 25.91C3.08002 25.825 2.75002 25.555 2.48002 25.145C2.07502 24.52 2.04502 24.085 2.39502 23.475" fill="white"/>
<path d="M7.25003 28.245C7.20503 28.215 7.17503 28.22 7.15003 28.255L6.47003 29.195C6.44003 29.235 6.39003 29.245 6.34503 29.21L5.63503 28.695C5.59503 28.665 5.59003 28.615 5.61503 28.575L7.86503 25.47C7.91003 25.41 7.96003 25.4 8.02503 25.445L9.00003 26.155C9.27503 26.355 9.50003 26.565 9.62503 26.805C9.84003 27.22 9.81003 27.66 9.48503 28.11C9.09503 28.65 8.67003 28.79 8.21503 28.72C7.95003 28.68 7.68003 28.55 7.41003 28.355L7.25503 28.24L7.25003 28.245ZM8.32503 26.695C8.30003 26.675 8.29003 26.675 8.27003 26.705L7.70003 27.49C7.68003 27.52 7.68003 27.53 7.70503 27.545L7.90503 27.69C8.13503 27.855 8.37003 27.765 8.56503 27.495C8.74003 27.25 8.75003 27 8.52503 26.83L8.32503 26.685V26.695Z" fill="white"/>
<path d="M11.03 31.375C10.755 30.975 10.64 30.425 10.845 29.575C11.055 28.71 11.43 28.285 11.85 28.06C12.255 27.855 12.725 27.84 13.22 27.96C13.7 28.08 14.115 28.295 14.375 28.66C14.65 29.06 14.765 29.61 14.56 30.46C14.35 31.325 13.975 31.75 13.555 31.975C13.15 32.18 12.68 32.195 12.19 32.075C11.7 31.955 11.295 31.74 11.03 31.375ZM12.48 28.88C12.24 29.035 12.05 29.38 11.94 29.83C11.825 30.305 11.84 30.685 11.98 30.94C12.08 31.095 12.225 31.185 12.415 31.23C12.6 31.275 12.77 31.255 12.92 31.16C13.16 31.005 13.35 30.66 13.46 30.21C13.575 29.735 13.56 29.35 13.42 29.105C13.325 28.945 13.175 28.855 12.99 28.81C12.795 28.765 12.63 28.785 12.48 28.875" fill="white"/>
<path d="M22.85 30.165C22.76 30.105 22.755 30.06 22.805 29.99L23.255 29.37C23.305 29.29 23.36 29.305 23.43 29.35C23.67 29.515 23.875 29.54 24.09 29.405C24.345 29.245 24.39 29.005 24.275 28.82C24.21 28.715 24.085 28.61 23.84 28.655L23.42 28.735C22.64 28.885 22.185 28.71 21.87 28.21C21.7 27.94 21.645 27.655 21.71 27.345C21.78 27.04 21.98 26.76 22.355 26.525C22.785 26.25 23.225 26.185 23.685 26.475C23.81 26.55 23.815 26.61 23.765 26.67L23.385 27.205C23.345 27.23 23.32 27.24 23.29 27.21C23.11 27.065 22.975 27.06 22.8 27.17C22.615 27.29 22.585 27.475 22.66 27.595C22.76 27.75 22.855 27.795 23.175 27.73L23.595 27.64C24.42 27.47 24.875 27.72 25.15 28.15C25.335 28.44 25.4 28.79 25.31 29.14C25.22 29.505 24.945 29.83 24.53 30.095C23.9 30.495 23.46 30.515 22.86 30.155" fill="white"/>
<path d="M28.45 26.54L27.935 27.14C27.89 27.195 27.805 27.2 27.755 27.155L24.89 24.7C24.835 24.655 24.83 24.57 24.875 24.52L25.39 23.92C25.44 23.865 25.52 23.855 25.575 23.9L28.44 26.355C28.495 26.4 28.5 26.485 28.45 26.54Z" fill="white"/>
<path d="M30.33 23.745C30.31 23.79 30.26 23.81 30.215 23.79L26.65 22.315C26.605 22.295 26.585 22.245 26.605 22.2L27.105 20.995C27.305 20.51 27.445 20.32 27.625 20.19C27.885 20 28.18 19.99 28.51 20.125C28.865 20.27 29.09 20.575 29.05 20.93V20.975L29.07 20.94C29.345 20.53 29.83 20.4 30.325 20.6C31.06 20.905 31.21 21.615 30.865 22.45L30.33 23.74V23.745ZM27.76 21.585C27.76 21.585 27.76 21.63 27.785 21.64L28.325 21.86C28.325 21.86 28.365 21.86 28.375 21.835L28.45 21.655C28.545 21.425 28.47 21.25 28.29 21.175C28.11 21.1 27.945 21.15 27.84 21.395L27.765 21.58L27.76 21.585ZM29.14 22.155C29.13 22.18 29.14 22.2 29.165 22.21L29.9 22.515C29.925 22.525 29.94 22.515 29.95 22.49L30.045 22.26C30.175 21.95 30.095 21.74 29.86 21.64C29.605 21.535 29.375 21.585 29.225 21.945L29.14 22.155Z" fill="white"/>
<path d="M31.95 15.965C32.02 15.965 32.075 16.03 32.075 16.1L31.97 18.185C31.97 18.255 31.905 18.31 31.835 18.31L28.065 18.125C27.995 18.125 27.94 18.06 27.94 17.99L27.98 17.2C27.98 17.125 28.045 17.07 28.115 17.075L31.12 17.225C31.12 17.225 31.155 17.21 31.155 17.195L31.21 16.07C31.21 16 31.275 15.945 31.345 15.945L31.95 15.975V15.965Z" fill="white"/>
<path d="M31.41 12.26C31.455 12.25 31.5 12.27 31.51 12.31L31.715 13.19C31.725 13.23 31.695 13.275 31.65 13.285L30.095 13.65L28.185 15.16C28.1 15.225 28.045 15.2 28.03 15.135L27.8 14.15C27.795 14.125 27.81 14.11 27.83 14.095L28.965 13.34L27.63 13.185C27.595 13.185 27.57 13.17 27.56 13.135L27.35 12.225C27.335 12.17 27.385 12.135 27.46 12.15L29.855 12.625L31.41 12.26Z" fill="white"/>
<path d="M4.37002 18.865C4.17002 18.08 3.70502 17.605 2.94502 17.41C2.63002 17.33 2.24002 17.34 1.86002 17.44C1.41502 17.555 1.04502 17.745 0.790023 18.005C0.295023 18.5 0.140023 19.125 0.325023 19.865C0.510023 20.585 0.905023 21.125 1.43502 21.385L1.49502 21.415C1.49502 21.415 1.58002 21.435 1.62002 21.37C1.62002 21.37 1.95002 20.84 1.95502 20.835C1.95502 20.82 1.95502 20.795 1.96502 20.74C1.96002 20.715 1.93502 20.69 1.90502 20.675C1.62002 20.515 1.31502 20.13 1.24002 19.835C1.12002 19.37 1.27002 19.125 1.41502 19C1.43502 18.985 1.47502 18.955 1.52002 18.965C1.56002 18.965 1.59002 18.995 1.62002 19.04C1.94502 19.62 2.43002 20.34 2.70002 20.64C2.97002 20.94 3.11002 20.995 3.39502 20.92C3.71002 20.84 4.00002 20.61 4.19002 20.295C4.43002 19.89 4.49002 19.39 4.36002 18.875M3.14002 18.535L3.19502 18.56C3.39002 18.68 3.52502 18.86 3.58002 19.08C3.63002 19.27 3.61002 19.445 3.53002 19.58C3.46002 19.7 3.34002 19.785 3.21502 19.82C3.11002 19.845 3.02002 19.815 2.94502 19.72C2.78502 19.515 2.40002 18.895 2.30002 18.7C2.27502 18.65 2.25002 18.585 2.27502 18.53C2.30002 18.48 2.35502 18.465 2.38002 18.46C2.58002 18.41 2.79002 18.41 2.97502 18.465L3.12502 18.525L3.14002 18.53" fill="white"/>
<path d="M17.795 30.045L18.125 32.19C18.135 32.26 18.085 32.325 18.015 32.34L17.325 32.455C17.255 32.465 17.18 32.42 17.17 32.35L16.625 28.705C16.615 28.635 16.665 28.565 16.735 28.555C16.735 28.555 17.635 28.43 17.7 28.425C17.765 28.425 17.81 28.44 17.84 28.485L19.195 30.4L18.76 28.275C18.745 28.205 18.785 28.135 18.855 28.12L19.515 27.955C19.585 27.94 19.655 27.98 19.67 28.05L20.46 31.715C20.475 31.78 20.435 31.855 20.365 31.87L19.415 32.105C19.36 32.12 19.3 32.09 19.27 32.05L17.795 30.045Z" fill="white"/>
</g>
<defs>
<clipPath id="clip0_4_70">
<rect width="32.075" height="32.455" fill="white"/>
</clipPath>
</defs>
</svg>
