<svg id="Layer_15_copy_2" data-name="Layer 15 copy 2" xmlns="http://www.w3.org/2000/svg" viewBox="0 0 29.4917 29.4917"><title>digital-strategy</title><path d="M15,29.7461A14.7458,14.7458,0,1,1,29.7461,15,14.7626,14.7626,0,0,1,15,29.7461Zm0-29A14.2542,14.2542,0,1,0,29.2539,15,14.2706,14.2706,0,0,0,15,.7456Z" transform="translate(-0.2544 -0.2544)"/><path d="M18.549,21.8626H9.0238a.29.29,0,1,1,0-.58H18.549a.29.29,0,1,1,0,.58" transform="translate(-0.2544 -0.2544)"/><path d="M20.1569,14.5219a.293.293,0,0,1-.2957-.29V11.9061H14.9748v1.3907a.2957.2957,0,0,1-.5914,0V11.6159a.2931.2931,0,0,1,.2957-.29h5.4778a.2931.2931,0,0,1,.2957.29v2.6159a.293.293,0,0,1-.2957.29" transform="translate(-0.2544 -0.2544)"/><path d="M16.9581,20.7215H9.5091a.293.293,0,0,1-.2957-.29V15.057a.2931.2931,0,0,1,.2957-.29h7.449a.2931.2931,0,0,1,.2957.29v5.3744a.293.293,0,0,1-.2957.29m-7.1534-.58h6.8577V15.3468H9.8048Z" transform="translate(-0.2544 -0.2544)"/><path d="M18.549,21.8626a.29.29,0,1,1,0-.58.7356.7356,0,0,0,.7416-.7274.2957.2957,0,0,1,.5914,0,1.3223,1.3223,0,0,1-1.333,1.3076" transform="translate(-0.2544 -0.2544)"/><path d="M9.0238,21.8626a1.3223,1.3223,0,0,1-1.333-1.3076.2957.2957,0,0,1,.5914,0,.7356.7356,0,0,0,.7416.7274.29.29,0,1,1,0,.58" transform="translate(-0.2544 -0.2544)"/><path d="M7.9869,15.2234a.2931.2931,0,0,1-.2957-.29,1.3222,1.3222,0,0,1,1.3329-1.3075.29.29,0,1,1,0,.58.7354.7354,0,0,0-.7416.7271.2931.2931,0,0,1-.2957.29" transform="translate(-0.2544 -0.2544)"/><path d="M19.5862,15.2234a.2931.2931,0,0,1-.2957-.29.7354.7354,0,0,0-.7416-.7271.29.29,0,1,1,0-.58,1.3222,1.3222,0,0,1,1.333,1.3075.2931.2931,0,0,1-.2957.29" transform="translate(-0.2544 -0.2544)"/><path d="M19.5862,20.8452a.2931.2931,0,0,1-.2957-.29V14.9334a.2957.2957,0,0,1,.5914,0V20.555a.2931.2931,0,0,1-.2957.29" transform="translate(-0.2544 -0.2544)"/><path d="M7.9865,20.8452h0a.2931.2931,0,0,1-.2957-.29l0-5.6216a.2957.2957,0,0,1,.5914,0l0,5.6216a.2931.2931,0,0,1-.2957.29" transform="translate(-0.2544 -0.2544)"/><path d="M18.549,14.2062H9.0242a.29.29,0,1,1,0-.58H18.549a.29.29,0,1,1,0,.58" transform="translate(-0.2544 -0.2544)"/><path d="M18.2025,18.6334a.8889.8889,0,1,1,.9056-.889.8987.8987,0,0,1-.9056.889m0-1.1973a.3085.3085,0,1,0,.3143.3083.312.312,0,0,0-.3143-.3083" transform="translate(-0.2544 -0.2544)"/><path d="M13.4475,11.3415a.2468.2468,0,0,1-.2491-.2444,1.2888,1.2888,0,0,1,1.2991-1.2754.2445.2445,0,1,1,0,.4889.7946.7946,0,0,0-.8007.7865.2468.2468,0,0,1-.2492.2444" transform="translate(-0.2544 -0.2544)"/><path d="M21.3481,11.3415a.2468.2468,0,0,1-.25-.2444.7938.7938,0,0,0-.8-.7857.2445.2445,0,1,1,0-.489,1.2887,1.2887,0,0,1,1.2991,1.2747.2468.2468,0,0,1-.2491.2444" transform="translate(-0.2544 -0.2544)"/><path d="M20.2981,21.8344a.2445.2445,0,1,1,0-.4889.7939.7939,0,0,0,.8-.7857.2494.2494,0,0,1,.4987,0,1.2886,1.2886,0,0,1-1.2991,1.2746" transform="translate(-0.2544 -0.2544)"/><path d="M13.4475,13.1505a.2469.2469,0,0,1-.2491-.2444v-1.809a.2492.2492,0,0,1,.4983,0v1.809a.2469.2469,0,0,1-.2492.2444" transform="translate(-0.2544 -0.2544)"/><path d="M20.2981,10.3114h0l-5.8007,0a.2447.2447,0,1,1,0-.4893l5.8007.0007a.2446.2446,0,1,1,0,.489" transform="translate(-0.2544 -0.2544)"/><path d="M21.3481,14.6493a.247.247,0,0,1-.25-.2445V11.0971a.2494.2494,0,0,1,.4987,0v3.3076a.2469.2469,0,0,1-.2491.2445" transform="translate(-0.2544 -0.2544)"/><path d="M21.3481,20.8041a.2469.2469,0,0,1-.25-.2444V17.7461a.2494.2494,0,0,1,.4987,0V20.56a.2468.2468,0,0,1-.2491.2444" transform="translate(-0.2544 -0.2544)"/><path d="M8.59,11.35a.3121.3121,0,0,1-.0749-.0094.29.29,0,0,1-.2117-.354,4.9812,4.9812,0,0,1,2.3521-3.0487,5.165,5.165,0,0,1,4.3132-.3864.2884.2884,0,0,1,.177.3718.2977.2977,0,0,1-.3785.1737,4.5672,4.5672,0,0,0-3.8125.3416,4.3987,4.3987,0,0,0-2.0789,2.6944.2951.2951,0,0,1-.2859.217" transform="translate(-0.2544 -0.2544)"/><path d="M8.3077,12.411a.2962.2962,0,0,1-.2555-.1435l-.8-1.3385a.2852.2852,0,0,1,.0193-.3218.2984.2984,0,0,1,.31-.1053l2.1637.554a.2929.2929,0,0,1,.2184.241.2882.2882,0,0,1-.1431.29l-1.3641.7845a.3015.3015,0,0,1-.1494.0394M8.124,11.24l.2886.4836.4932-.2832Z" transform="translate(-0.2544 -0.2544)"/><path d="M22.4746,18.3345a.2521.2521,0,0,1-.1573-.0549.2414.2414,0,0,1-.0745-.2785l.2771-.6956H20.8952a.2472.2472,0,0,1-.25-.2444V15.0575a.2471.2471,0,0,1,.25-.2444H22.52l-.2771-.6953a.2413.2413,0,0,1,.0745-.2785.2535.2535,0,0,1,.2929-.0159L25.81,15.854a.2422.2422,0,0,1,0,.4109l-3.1994,2.03a.2571.2571,0,0,1-.1356.039m-1.33-1.5179H22.885a.2509.2509,0,0,1,.2058.1067.2407.2407,0,0,1,.026.2271l-.1285.3226L25.2155,16.06l-2.2271-1.4136.1285.3223a.2408.2408,0,0,1-.026.2271.2507.2507,0,0,1-.2058.1063H21.1444Z" transform="translate(-0.2544 -0.2544)"/></svg>