<svg id="Layer_1" data-name="Layer 1" xmlns="http://www.w3.org/2000/svg" viewBox="0 0 1277 365.9133"><defs><style>.cls-1,.cls-4{fill:#2d160b;}.cls-2,.cls-3{fill:#87aa3e;}.cls-3,.cls-4,.cls-5{fill-rule:evenodd;}.cls-5{fill:#575849;}</style></defs><title>eruditus</title><path class="cls-1" d="M430.6562,128.694c0,14.7136,0,26.8265-.7655,33.2693-.6094,4.444-1.3821,7.8176-4.4513,8.4272a23.78,23.78,0,0,1-4.6.6164c-.914,0-1.2262.4536-1.2262.9216,0,.9439.7729,1.2487,2.4523,1.2487,2.3036,0,5.8335-.3048,8.8952-.3048,3.2251-.1783,5.826-.1783,6.1381-.1783,2.2963,0,5.9747.1783,11.9568.483,5.9747.156,14.4165.46,25.9125.46,5.9747,0,7.2008,0,8.2783-4.0127.7654-3.2176,1.9916-13.6436,1.9916-14.87,0-1.0777,0-2.3036-.914-2.3036-.7729,0-1.0776.6164-1.3822,2.3036-1.0776,6.2864-2.913,9.3557-6.8962,11.0352-3.99,1.6868-10.738,1.6868-14.7211,1.6868-15.0259,0-17.33-1.9916-17.79-12.5737-.156-3.2176,0-21,0-26.21V115.1991a.974.974,0,0,1,1.0776-1.0777c2.601,0,17.7829.3121,21.922.7652,5.9822.6168,7.3569,3.2253,7.9738,5.3657a15.781,15.781,0,0,1,.6092,5.06c0,.7729.3122,1.3825,1.0776,1.3825,1.07,0,1.07-1.6873,1.07-2.9132,0-1.07.3122-6.7477.6168-9.8092.4607-5.0681,1.2261-7.6689,1.2261-8.59s-.3047-1.226-.7654-1.226c-.6167,0-1.2261.7652-2.2963,1.9916-1.39,1.538-3.53,1.8428-7.2156,2.1476-3.5224.3048-22.3827.3048-24.3743.3048-.7654,0-.9215-.4608-.9215-1.5312V64.756c0-1.0777.3122-1.5308.9215-1.5308,1.6869,0,18.4.1488,21.0079.4531,8.2783.9216,9.8092,2.7572,10.8867,5.2169a16.4181,16.4181,0,0,1,.914,5.514c0,1.2337.3122,1.9916,1.2336,1.9916.6094,0,.914-.9144,1.07-1.6868.3047-1.8356.6094-8.576.7654-10.114.4607-4.2952,1.2261-6.1308,1.2261-7.2085,0-.7652-.1487-1.382-.6167-1.382-.7654,0-1.3748.6168-2.14.7729a40.9028,40.9028,0,0,1-6.5914.7579c-3.53.156-34.0422.156-35.1124.156l-6.2867-.3048c-3.3812-.1483-7.52-.1483-11.0428-.1483-1.6868,0-2.4523.2971-2.4523,1.226,0,.61.6168.9139,1.2262.9139a28.7756,28.7756,0,0,1,5.2093.4608c5.068,1.0777,6.2942,3.53,6.5989,8.7393.3047,4.9121.3047,9.2069.3047,33.1206Zm92.8526,0c0,14.7136,0,26.8265-.7654,33.2693-.6094,4.444-1.3748,7.8176-4.4439,8.4272a23.8576,23.8576,0,0,1-4.6.6164c-.9214,0-1.2261.4536-1.2261.9216,0,.9439.7654,1.2487,2.4523,1.2487,4.6,0,14.26-.4608,14.409-.4608.7654,0,10.4334.4608,18.86.4608,1.6868,0,2.4522-.483,2.4522-1.2487,0-.4681-.3047-.9216-1.2187-.9216a67.4883,67.4883,0,0,1-6.9035-.6164c-4.6-.61-5.5215-3.9832-5.9822-8.4272-.758-6.4429-.758-18.5557-.758-33.2693v-3.6861c0-.7652.2973-1.226,1.07-1.226l18.8528.3048a2.4538,2.4538,0,0,1,1.9916.9212c3.069,3.9909,10.2773,14.26,16.72,22.695,8.739,11.496,14.097,19.0088,20.6959,22.5312,3.9831,2.1553,7.8175,2.9432,16.4005,2.9432h10.8867c2.757,0,3.6859-.3048,3.6859-1.2487,0-.4681-.6168-.9216-1.3822-.9216a36.7516,36.7516,0,0,1-5.982-.46c-3.8269-.6168-10.4258-2.3036-18.7043-11.0357-8.8951-9.5117-19.321-23.1553-31.8871-39.2586,13.8-12.7225,18.5481-24.07,18.5481-35.41,0-10.5821-6.7474-18.0949-10.5745-20.8594-8.13-5.826-18.4071-6.74-28.06-6.74-4.756,0-16.4081.4531-18.0949.4531-.7655,0-10.426-.4531-17.33-.4531-1.6869,0-2.4523.2971-2.4523,1.226,0,.61.6167.9139,1.2261.9139a28.859,28.859,0,0,1,5.2168.4608c5.0606,1.0777,6.2867,3.53,6.5914,8.7393.3047,4.9121.3047,9.2069.3047,33.1206ZM535.785,64.9048a1.8355,1.8355,0,0,1,1.2187-1.8356,46.21,46.21,0,0,1,10.27-.9216c16.4081,0,26.5294,11.496,26.5294,30.6613,0,11.652-3.9906,19.9377-9.3559,23.6161-3.5224,2.4524-7.8176,2.9128-11.496,2.9128-6.7476,0-13.8-1.0772-16.0959-2.452a1.9874,1.9874,0,0,1-1.07-1.8433Zm93.7667,59.1819V101.7038c0-23.9137,0-28.2085-.3046-33.1206-.3048-5.2092-1.531-7.6616-6.5916-8.7393a28.9167,28.9167,0,0,0-5.2167-.4608c-.6094,0-1.226-.3043-1.226-.9139,0-.9289.7654-1.226,2.46-1.226,6.896,0,16.2446.4531,17.6266.4531s10.5821-.4531,15.1819-.4531c1.68,0,2.4524.2971,2.4524,1.226,0,.61-.6168.9139-1.2337.9139a23.0254,23.0254,0,0,0-3.8269.4608c-4.1392.6168-5.3654,3.3813-5.6775,8.7393-.3046,4.9121-.3046,9.2069-.3046,33.1206V123.165c0,22.0854,4.9119,31.59,11.5033,37.8766,7.5131,7.0525,14.4093,8.4345,23.1558,8.4345a32.1668,32.1668,0,0,0,24.062-11.0425c7.0522-8.7393,8.8953-21.7733,8.8953-37.5646V101.7038c0-23.9137,0-28.2085-.3048-33.1206-.3046-5.2092-1.5383-7.6616-6.5914-8.7393a28.8577,28.8577,0,0,0-5.2167-.4608c-.6094,0-1.2262-.3043-1.2262-.9139,0-.9289.7654-1.226,2.4524-1.226,6.9035,0,15.3379.4531,16.2519.4531,1.07,0,8.2857-.4531,12.8783-.4531,1.6868,0,2.46.2971,2.46,1.226,0,.61-.6166.9139-1.2335.9139a22.9408,22.9408,0,0,0-3.8272.4608c-4.1465.9216-5.3652,3.3813-5.67,8.7393-.3121,4.9121-.3121,9.2069-.3121,33.1206v16.4081c0,16.5569-1.8356,34.9561-14.1045,45.843-11.0427,9.8387-22.5462,11.3695-31.5825,11.3695-5.2167,0-20.7031-.6164-31.59-10.9087-7.5131-7.2085-13.3391-17.9389-13.3391-40.3291M765.037,128.694c0,14.7136,0,26.8265-.7654,33.2693-.6168,4.444-1.3822,7.8176-4.4513,8.4272a23.8564,23.8564,0,0,1-4.6.6164c-.9216,0-1.2262.4536-1.2262.9216,0,.9439.7654,1.2487,2.4522,1.2487,2.3036,0,5.826-.3048,8.8953-.3048,3.2176-.1783,5.826-.1783,6.1306-.1783.7654,0,5.9823.483,12.73.9434,6.5914.4608,14.7211.9216,21.3052.9216,26.0686,0,39.8682-10.76,46.46-17.6563,8.59-9.0441,16.5641-23.9214,16.5641-43.235,0-18.2509-7.2083-30.98-14.8771-38.9538C835.41,55.8607,807.35,57.2432,792.1757,57.2432c-9.2,0-18.86.4531-20.7034.4531-.7654,0-10.4258-.4531-17.33-.4531-1.6793,0-2.4447.2971-2.4447,1.226,0,.61.6094.9139,1.226.9139a28.8376,28.8376,0,0,1,5.2094.4608c5.0606,1.0777,6.2866,3.53,6.5989,8.7393.3046,4.9121.3046,9.2069.3046,33.1206Zm12.8783-29.4426c0-11.8081,0-27.4433.156-32.66,0-1.6868.4533-2.4524,1.8356-3.0693,1.2262-.6091,6.8962-1.07,9.9652-1.07,18.2509,0,35.7218,2.1476,50.1383,17.3293,6.2866,6.5916,14.7136,19.1653,14.7136,38.635,0,14.1045-4.2878,28.8253-12.2614,36.6429-9.0438,9.0513-22.2341,14.26-36.4946,14.26-18.0874,0-24.0695-3.2176-26.0611-6.1308-1.2262-1.6868-1.5308-7.8249-1.6868-11.652-.1488-2.9128-.3048-17.0172-.3048-33.2766Zm138.3911,2.4524c0-23.9137,0-28.2085.3121-33.1206.3046-5.3579,1.5308-7.9736,5.67-8.7393a22.9257,22.9257,0,0,1,3.8344-.4608c.6094,0,1.2262-.3043,1.2262-.9139,0-.9289-.7729-1.226-2.4524-1.226-4.6,0-14.2677.4531-15.0331.4531s-10.4186-.4531-15.4867-.4531c-1.6868,0-2.4447.2971-2.4447,1.226,0,.61.6094.9139,1.2187.9139A20.1025,20.1025,0,0,1,897.9066,60c3.3738.7656,4.9121,3.3741,5.2167,8.5832.3048,4.9121.3048,9.2069.3048,33.1206v26.99c0,14.7136,0,26.8265-.7654,33.2693-.6168,4.444-1.3822,7.8176-4.444,8.4272a23.9319,23.9319,0,0,1-4.6073.6164c-.9214,0-1.2262.4536-1.2262.9216,0,.9439.7656,1.2487,2.4524,1.2487,4.6073,0,14.26-.4608,15.0259-.4608s10.4333.4608,18.8678.4608c1.6793,0,2.4522-.483,2.4522-1.2487,0-.4681-.3046-.9216-1.2262-.9216a67.6726,67.6726,0,0,1-6.9035-.6164c-4.6-.61-5.514-3.9832-5.982-8.4272-.7654-6.4429-.7654-18.5557-.7654-33.2693ZM1002.88,63.8344l19.3136.3048c14.7211.3121,18.3995,3.8344,18.86,8.4345l.156,1.6868c.156,2.14.4608,2.6007,1.2262,2.6007.6094,0,1.07-.6091,1.07-1.9911,0-1.6873.4608-12.2616.4608-16.8617,0-.9212,0-1.8428-.7579-1.8428-.6243,0-1.9991.4608-4.2952.7656a61.2966,61.2966,0,0,1-10.8867.7652H970.5316c-1.8505,0-7.6766-.3048-12.1129-.7652-4.1467-.3048-5.6775-1.8356-6.7549-1.8356-.6168,0-1.2262,1.9916-1.5308,2.9128-.3123,1.2264-3.3738,14.4093-3.3738,15.94,0,.9216.3046,1.382.7654,1.382.6168,0,1.07-.3043,1.5383-1.5308a26.2119,26.2119,0,0,1,2.601-4.7556c2.4522-3.6789,6.1381-4.7488,15.6425-4.9048l22.695-.3048v64.86c0,14.7136,0,26.8265-.7729,33.2693-.6094,4.444-1.3748,7.8176-4.4438,8.4272a23.8587,23.8587,0,0,1-4.6.6164c-.9214,0-1.2335.4536-1.2335.9216,0,.9439.7729,1.2487,2.46,1.2487,4.6,0,14.26-.4608,15.0334-.4608.7579,0,10.4184.4608,18.8528.4608,1.68,0,2.4524-.483,2.4524-1.2487,0-.4681-.3048-.9216-1.2262-.9216a67.6708,67.6708,0,0,1-6.9037-.6164c-4.6-.61-5.5212-3.9832-5.9746-8.4272-.7654-6.4429-.7654-18.5557-.7654-33.2693Zm63.715,60.2523c0,22.39,5.8333,33.1206,13.3388,40.3291,10.8941,10.2923,26.3808,10.9087,31.59,10.9087,9.0511,0,20.5471-1.5308,31.5825-11.3695,12.2764-10.8869,14.1117-29.2861,14.1117-45.843V101.7038c0-23.9137,0-28.2085.3123-33.1206.3046-5.3579,1.5308-7.8176,5.6625-8.7393a23.0773,23.0773,0,0,1,3.8419-.4608c.6094,0,1.2187-.3043,1.2187-.9139,0-.9289-.7654-1.226-2.4449-1.226-4.6,0-11.8081.4531-12.8857.4531-.9214,0-9.3484-.4531-16.2519-.4531-1.6943,0-2.4524.2971-2.4524,1.226,0,.61.6168.9139,1.2262.9139a28.8332,28.8332,0,0,1,5.2092.4608c5.0681,1.0777,6.2943,3.53,6.5989,8.7393.3048,4.9121.3048,9.2069.3048,33.1206v19.1653c0,15.7913-1.8356,28.8253-8.8951,37.5646a32.196,32.196,0,0,1-24.07,11.0425c-8.7465,0-15.6352-1.382-23.1555-8.4345-6.5914-6.2864-11.5035-15.7913-11.5035-37.8766V101.7038c0-23.9137,0-28.2085.3121-33.1206.3123-5.3579,1.531-8.1224,5.6775-8.7393a22.9408,22.9408,0,0,1,3.8272-.4608c.6166,0,1.226-.3043,1.226-.9139,0-.9289-.7654-1.226-2.4522-1.226-4.6,0-13.8.4531-15.1744.4531-1.3822,0-10.7381-.4531-17.6343-.4531-1.6868,0-2.46.2971-2.46,1.226,0,.61.6168.9139,1.2262.9139a29.0022,29.0022,0,0,1,5.2241.4608c5.0532,1.0777,6.2794,3.53,6.5839,8.7393.3048,4.9121.3048,9.2069.3048,33.1206Zm146.2234,51.2377c8.2782,0,16.5567-1.8428,23.1481-6.4651,10.5819-7.5128,13.0268-19.1649,13.0268-25.4517,0-12.2689-4.2878-21.7733-22.3827-36.0338l-4.2952-3.3663c-14.7138-11.5033-18.6968-17.0245-18.6968-25.7638,0-11.1912,8.271-17.7829,18.86-17.7829,14.1045,0,18.2435,6.4356,19.1651,8.1224a27.0285,27.0285,0,0,1,1.9841,7.6689c.156,1.226.3046,1.9916,1.2335,1.9916.7654,0,1.07-1.07,1.07-3.53,0-10.4188.6166-15.4792.6166-16.2448,0-.7729-.3046-1.0777-1.5383-1.0777a24.8083,24.8083,0,0,1-5.3652-.7652,59.35,59.35,0,0,0-14.26-1.5308c-19.47,0-31.7311,11.1912-31.7311,27.5921,0,10.4256,3.6784,19.9377,19.93,33.2766l6.896,5.67c13.1905,10.8869,17.6343,17.025,17.6343,27.5993,0,9.8169-7.2008,20.3913-21.93,20.3913-10.27,0-20.3911-4.2952-22.6947-15.6425a27.3251,27.3251,0,0,1-.4533-5.67c0-1.2264-.156-1.6873-1.0774-1.6873-.7581,0-1.07.7729-1.2262,2.4524-.1485,2.46-.7654,8.59-.7654,16.2521,0,4.1465.156,4.7561,2.2962,5.826,6.2868,3.0915,13.3391,4.1687,20.5548,4.1687" transform="translate(-11 -7.9498)"/><rect class="cls-2" x="373.6727" y="202.2296" width="903.3273" height="4.1465"/><path class="cls-3" d="M172.9895,365.6682c14.1489-8.5678,57.0417-6.1526,62.3847-28.1563,6.0341.6985,12.1946,1.5453,18.355,2.3925-3.7081,34.63-62.2807,38.7316-85.02,30.0817a12.18,12.18,0,0,1,.2972-2.3408c1.33-.7135,2.653-1.4119,3.9832-1.9771" transform="translate(-11 -7.9498)"/><path class="cls-3" d="M252.4355,348.963c24.5452,1.2115,49.4545-26.1575,15.33-40.73-.2081-12.7519-.2081-12.7519.5648-16.2593,68.2108,23.6384,21.3275,74.9881-30.9435,73.1226,3.4258-.2454,17.56-12.7442,15.0482-16.1333" transform="translate(-11 -7.9498)"/><path class="cls-4" d="M201.27,355.77c-10.9387-7.8249-24.0028-15.97-33.3438-25.957.0892-5.5657,5.6329-14.2528,10.909-15.4715,7.4312,16.0289,35.9075,23.7944,38.449,35.1271-5.44,2.6824-10.1808,5.5289-16.0142,6.3014" transform="translate(-11 -7.9498)"/><path class="cls-3" d="M58.4266,308.1672c5.4321-2.0955,10.6042-5.6623,16.5567-4.9638,11.4515,11.4888,26.6853,17.1882,42.276,19.232,1.3079,6.1753,2.6232,12.3505,4.0723,18.6818-15.8954-.29-63.2543-12.93-62.9049-32.95" transform="translate(-11 -7.9498)"/><path class="cls-4" d="M243.9082,308.5192l-.446.8695c-12.0905,5.1947-24.8425,15.65-35.7662,23.5123-6.5246-.1188-11.11-6.5023-13.7032-12.12,9.6011-13.2944,31.9244-23.1408,47.0543-27.8447.6317,4.8454,1.4714,5.7444,2.8611,15.5831" transform="translate(-11 -7.9498)"/><path class="cls-4" d="M107.11,319.187c-5.6329-2.5935-11.2732-5.187-16.906-7.6317a18.9541,18.9541,0,0,1,.1858-2.9278c10.27-9.1629,61.8571-25.8976,68.9911-6.495-14.6618,14.5948-25.0729,5.5512-43.1009,12.2394-6.7476,4.4141-6.7476,4.4141-9.17,4.815" transform="translate(-11 -7.9498)"/><path class="cls-3" d="M73.47,272.9344c4.7782.64,9.69,1.4047,14.5948,2.1848-3.56,26.5815-28.9073,35.1421-48.9566,22.9848-14.9441-13.3166-21.7511-34.7185-18.3475-54.8272a9.5148,9.5148,0,0,1,2.1327-.23c3.9163,4.5923,7.8176,9.6087,12.8115,12.9973,2.5117,27.7926,22.5016,49.0384,37.7653,16.8907" transform="translate(-11 -7.9498)"/><path class="cls-3" d="M345.4234,243.8769c.5126-14.7136-11.4069-30.9063-15.613-41.4507q4.1355-4.9828,8.2635-9.958c26.1653.483,34.1612,94.3312-6.3536,104.6235.3492-20.0788,14.32-33.693,13.7032-53.2148" transform="translate(-11 -7.9498)"/><path class="cls-4" d="M49.206,284.4223c-2.7867-19.6774-1.5978-39.14,7.52-57.1381,4.54.0816,11.3325,9.5861,11.83,13.9856-5.2167,14.119-3.4183,25.4295-2.4151,40.6856-2.6455,5.2241-12.7371,5.6255-16.9356,2.4669" transform="translate(-11 -7.9498)"/><path class="cls-4" d="M85.0778,244.5563c-1.4863-.2821-2.9725-.5647-4.4662-.7207a5.4534,5.4534,0,0,1-.6019-1.1666c-1.6125.0966-3.1137.2-4.6073.3048-3.0765-1.5979-22.3679-29.4054-21.6842-32.98,2.5414-3.1659,5.0829-6.324,7.7507-9.3561,7.825.1488,22.5165,35.3054,25.7342,43.3162a10.3554,10.3554,0,0,0-2.1253.6019" transform="translate(-11 -7.9498)"/><path class="cls-4" d="M297.7954,164.9205c3.0245,5.6183,3.0245,5.6183,5.395,8.3007-.1115,6.4429-9.5714,9.787-14.1787,13.3615-.2378,13.7924,62.0281,33.6857,25.4073,51.7434-4.9641-25.14-40.21-39.8537-59.65-48.7114,2.1328-7.2085,35.3575-22.8659,43.0266-24.6943" transform="translate(-11 -7.9498)"/><path class="cls-4" d="M121.3012,188.3317c3.2474.9366,6.5023,2.0215,9.8909,3.1137a7.526,7.526,0,0,0-.32,1.895C115.43,199.36,95.723,206.0256,84.2864,218.5621a15.4364,15.4364,0,0,0-2.8611,1.1221c-2.638-3.8644-8.2263-8.7987-5.7294-13.733,12.99-12.0684,12.99-12.0684,13.0046-13.0939-17.9611-12.3428-28.03-21.0227-36.9033-41.9859.1115-6.153,8.0926-8.0557,12.6777-10.1734,12.2763,26.5144,31.6568,35.1271,56.8263,47.6337" transform="translate(-11 -7.9498)"/><path class="cls-4" d="M85.1432,209.9367c-.1116-1.7612-.223-3.5224-.1932-5.2759,1.4193.0222,2.98.1932,4.533.3715a3.4626,3.4626,0,0,0-.7283,1.1593,10.7977,10.7977,0,0,0-1.9767-.327c-.0222,1.0255-.0371,2.051-.0594,3.2176,1.5606.03,1.5606.03,1.5457.9144-1.13-.0227-2.1254-.0449-3.1211-.06" transform="translate(-11 -7.9498)"/><path class="cls-4" d="M92.2987,206.696c-2.2517-1.07-1.94-2.8162-4.6223-3.7451,1.5606.0295,3.1211.0594,4.83.23,1.3079-1.88,1.724-1.5757,3.8641-2.1254-.0222,1.3226-.0446,2.6379-.0669,4.102a32.4769,32.4769,0,0,0-4.0053,1.538" transform="translate(-11 -7.9498)"/><path class="cls-4" d="M307.4471,197.4506c.4532-1.7462.4532-1.7462,23.52-38.0921,6.9184-3.6857,9.6606,4.9493,13.1755,9.9131-.1784,10.6864-17.7976,27.5032-24.6269,36.6062-4.0723-2.8538-8.1445-5.7144-12.0682-8.4272" transform="translate(-11 -7.9498)"/><path class="cls-3" d="M47.3341,179.2064c-2.757,3.3146-5.514,6.6361-8.1223,9.958a31.5429,31.5429,0,0,0-3.5522-.3565Q29.4845,176.39,23.3165,163.9726c-4.0648-19.8561-4.0648-19.8561-4.9046-28.662,1.308-18.1394,7.8473-51.4237,30.9881-51-1.8281,7.2974-3.5225,14.5875-5.2093,22.0259-17.062,16.9878-9.2668,39.4446-5.2167,59.88.1263.6318.1783.8695.3046.8473,1.2931-.2676,7.461,9.3189,8.0555,12.1423" transform="translate(-11 -7.9498)"/><path class="cls-3" d="M36.49,157.1959c6.8515,14.045,6.8515,14.045,7.238,16.6907-.4236-.0073-.8546-.015-1.2783-.03C41.6323,171.65,33.9686,170.6711,38,167c-.3031.276.4518-.0988.1619.1911-.6539-3.3813-1.1593-6.7622-1.6719-9.9952" transform="translate(-11 -7.9498)"/><path class="cls-3" d="M69.5006,120.8673c.5126,3.3813,1.1,10.129,3.0393,13.2427-11.7041,3.2992-21.6248,10.5966-30.988,18.1838-5.083-1.8578-4.7337-11.3994-4.4067-16.3482,9.4971-6.7626,20.0567-15.301,32.3554-15.0783" transform="translate(-11 -7.9498)"/><path class="cls-3" d="M62.1422,119.4159c-2.98,1.2187-12.8485,5.8038-15.2488,3.233-.5574-17.1515,7.52-57.5772,27.6142-61.3073,1.3153,6.1753,7.8028,8.4934,6.9631,15.9473-7.6244,6.6211-22.955,30.6681-19.3285,42.127" transform="translate(-11 -7.9498)"/><path class="cls-5" d="M259.0648,56.0912c-.4013-1.7612-.7877-3.53-1.0478-5.2908a19.1339,19.1339,0,0,1,.3344-2.92c.5648.0077,1.137.015,1.7091.0222.1115,1.62.3716,3.2325.6242,4.9937.275.0077.5648.015.8471.015.015-.8695.03-1.7535.0447-2.4819.7133.0073,2.0732,3.4035,3.894,4.6073-1.7018-.1783-3.2624-.3492-4.8229-.5275-.0075.4459-.0149,1.0255-.0223,1.6124-.5648-.015-1.137-.0222-1.56-.03" transform="translate(-11 -7.9498)"/><path class="cls-3" d="M79.2,60.5832q8.739-4.2692,17.4856-8.5456-.7468-13.3538,29.7693-21.8255a30.2533,30.2533,0,0,0,15.0407-14.5353Q72.0732,23.3681,79.2,60.5832" transform="translate(-11 -7.9498)"/><path class="cls-3" d="M191.861,25.2634A75.8063,75.8063,0,0,0,147.69,42.0284q-9.6866-1.9288-19.388-3.8716,37.0519-43.4952,85.3472-24.36A130.5561,130.5561,0,0,0,191.861,25.2634" transform="translate(-11 -7.9498)"/><path class="cls-3" d="M208.0587,57.4954Q176.9033,22.361,159.3844,39.0217q25.5818,24.1659,48.6743,18.4736" transform="translate(-11 -7.9498)"/><path class="cls-3" d="M297.8683,45.8188q-44.42-62.5217-108.0792-10.7,4.0686,4.3467,8.1445,8.7166,38.0886-27.5662,81.0148-4.102,9.4524,3.0432,18.92,6.0859" transform="translate(-11 -7.9498)"/><path class="cls-3" d="M240.7551,31.1415A61.9013,61.9013,0,0,0,222.92,35.7937q7.3346,11.938,18.7415,33.1655,8.048-1.6832,16.1033-3.3741a78.0025,78.0025,0,0,0-17.01-34.4436" transform="translate(-11 -7.9498)"/><path class="cls-3" d="M315.738,71.4905q-16.1963-29.2263-61.5153-31.0174,2.6193,8.6275,5.2389,17.24,22.8955-.413,40.5371,20.8145,7.87-3.5221,15.7393-7.0375" transform="translate(-11 -7.9498)"/><path class="cls-4" d="M288.7859,69.97q-23.3972,30.0406-69.4,9.6387,5.395-5.6516,10.7827-11.3033,17.9574,6.7327,43.725-5.9521Z" transform="translate(-11 -7.9498)"/><path class="cls-4" d="M169.5058,50.2606a162.5792,162.5792,0,0,1-34.6145,22.45q-.6465,8.4825-1.293,16.9651Q155.156,87.7585,180.66,61.831c-1.3227-4.7928-5.5213-8.5828-11.1541-11.57" transform="translate(-11 -7.9498)"/><path class="cls-4" d="M107.8209,88.2837Q90.4541,82.911,79.9465,62.6465q8.4159-3.9576,16.8241-7.9365-.836,11.4917,13.5025,15.9246.3679,12.83-2.4522,17.6491" transform="translate(-11 -7.9498)"/><path class="cls-4" d="M144.9954,64.2154q-18.0021-6.0074-42.1423-2.0955c-1.724-2.6007-2.8684-7.8843-2.2814-16.0067q30.8766-11.5148,56.0312,6.6211-1.5718,6.298-11.6075,11.4811" transform="translate(-11 -7.9498)"/><path class="cls-4" d="M115.4921,63.2425a70.1418,70.1418,0,0,1,16.5937,1.04c-2.6529,15.5908,5.5215,85.8156,28.5655,45.0779q5.1386-16.1854.3567-25.8014,3.9571-7.858,14.81-12.0308,6.1418,15.371,15.5088,8.434,16.854-29.17,36.9033-33.2988,2.7979,6.8776,5.6031,13.7774-35.324,28.5024-32.6823,46.2739.9363,23.7869,20.7032,10.2551,17.69-16.3861,20.406-26.4849,8.0146.4347,16.0365.8695-9.0734,23.6536,5.1795,23.4678,28.1234-6.2646,46.2295.483a83.8025,83.8025,0,0,1-1.8132,14.758q-33.6966-4.9822-57.0789,9.445-31.69,17.9577-24.2851,80.2866,7.3792,30.6536,56.4919,26.4255a88.64,88.64,0,0,1,2.1476,14.9812q-28.3908,1.0028-24.53,15.4493,6.153,32.0919.1485,39.92-14.0894,2.0846-15.33-.1411,2.0063-37.8993-13.4059-42.1351-15.3826-3.4888-13.9707,23.4678a57.4188,57.4188,0,0,1-17.597,8.1746q-7.6132-20.02-15.011-12.76Q169.81,327.633,147.06,331.62q-6.0973-10.3555-6.0118-13.45,31.2-17.6788,25.3105-37.795-6.3871-12.4292-21.7733-1.5535-2.5749-.68-7.03,11.1617-9.0734-.379-18.1618-.7729,1.8281-11.0243,3.6487-22.0559a47.1855,47.1855,0,0,0-23.3264,1.7689q-31.2445-.88-33.2621-6.027.3679-13.6545,1.6944-15.94,51.8882,7.5682,73.8957-11.2511,22.8508-19.5844,14.7583-61.1213-6.1641-32.6266-65.2161-42.6327-1.6942-14.5914.29-16.8467,22.1932,2.9874,20.785-19.2615-.8583-33.4628,2.8314-32.6008" transform="translate(-11 -7.9498)"/><path class="cls-4" d="M67.2222,108.3167q-.2788-11.9489,7.5426-19.2538,25.7713,39.6267,4.756,68.181-2.7867.2449-8.07-9.4672,6.4206-27.3213-4.2282-39.46" transform="translate(-11 -7.9498)"/><path class="cls-2" d="M49.3984,84.31C44.1816,106.3365,43,107,44.1891,106.3365" transform="translate(-11 -7.9498)"/><path class="cls-3" d="M66.6158,185.1032a30.5739,30.5739,0,0,0-10.2551-11.2207Q27.368,206.6091,35.219,209.8569c8.308,12.8558,14.7286,2.0283,31.3968-24.7537" transform="translate(-11 -7.9498)"/><path class="cls-3" d="M20.2147,169.4857q1.65,6.2537,9.9429,17.2331-5.8409,28.09,17.7828,55.7039a58.45,58.45,0,0,1-3.292,18.11q-25.5818-13.2422-32.8533-49.7-3.5-25.0469,8.42-41.3473" transform="translate(-11 -7.9498)"/><path class="cls-3" d="M90.8288,338.4907a42.3036,42.3036,0,0,1,20.51,6.0342q22.2267,23.9767,62.2435.7284,8.0034,4.3474,11.6225,10.9091-28.8145,20.9893-64.4358,14.275-30.1743-7.8247-29.94-31.9467" transform="translate(-11 -7.9498)"/><path class="cls-4" d="M138.8744,314.7788a68.4558,68.4558,0,0,0-18.1544,2.3558A74.5376,74.5376,0,0,0,135.8944,353.83q10.4,1.2267,16.7275-3.9011-14.39-22.2153-13.7476-35.15" transform="translate(-11 -7.9498)"/><path class="cls-4" d="M309.4357,233.3365q-3.79-11.1468-13.0938-12.7-17.9351,35.7481,9.2,67.7207a82.0589,82.0589,0,0,1,8.1669-12.4771q-11.2584-25.3143-4.2729-42.5438" transform="translate(-11 -7.9498)"/><path class="cls-3" d="M316.279,261.9614q14.4907-4.9264,16.0958-2.7867.4905,46.1145-26.7968,63.0911a24.89,24.89,0,0,0-7.5575-14.64q15.3714-16.6977,18.2584-45.6648" transform="translate(-11 -7.9498)"/><path class="cls-3" d="M311.8775,258.8739a129.5159,129.5159,0,0,1-2.0139-15.13q6.4206-1.0926,28.3054-15.9473,5.1832,2.4744,1.4639,20.131-9.4524,7.9811-27.7554,10.9458" transform="translate(-11 -7.9498)"/><path class="cls-4" d="M283.891,130.799a81.5187,81.5187,0,0,1,16.2965,1.9177q8.271,21.4016,21.6842,35.2609-6.0639,11.4366-8.9471,11.1168-19.4735-16.6419-29.0336-48.2954" transform="translate(-11 -7.9498)"/><path class="cls-3" d="M329.3162,142.7036q1.7723-8.0254,3.5372-16.0512Q376.4372,154.7092,359.71,216.22q-5.9078-17.1433-10.7306-20.1459,1.6051-34.4656-19.6629-53.3708" transform="translate(-11 -7.9498)"/><path class="cls-3" d="M342.1574,128.6722q9.4859,3.4113,17.7382,17.6123c14.3273-70.4257-49.2613-101.0793-72.9371-36.5023a76.7816,76.7816,0,0,0,15.3082,1.7467c5.4546-15.5091,17.3-22.851,26.9083-20.8521,8.1966,2.1848,20.8222,15.6724,12.9823,37.9955" transform="translate(-11 -7.9498)"/><path class="cls-4" d="M312.5419,97.1409q6.7771-2.3628,13.5693-4.7334,11.1913,48.0426-7.4683,62.4217-4.2916-5.8625-8.6053-11.726,6.9667-24.4006,2.5044-45.9623" transform="translate(-11 -7.9498)"/><path class="cls-4" d="M229.7823,333.4144a153.9805,153.9805,0,0,1,38.2854,10.3295q6.2311-5.15,12.4695-10.3068-15.5942-14.424-50.2348-15.8139c-2.4,4.1469-2.2145,9.7126-.52,15.7913" transform="translate(-11 -7.9498)"/><path class="cls-1" d="M426.3489,293.8333c0,6.896,0,12.5732-.3641,15.59-.29,2.0882-.6466,3.6639-2.0807,3.9537a11.2969,11.2969,0,0,1-2.1625.29c-.431,0-.5722.2154-.5722.4309,0,.4386.3641.5869,1.1518.5869,1.0776,0,2.7273-.1483,4.1689-.1483,1.5084-.0821,2.7272-.0821,2.8683-.0821,1.085,0,2.809.0821,5.6106.23,2.8015.0744,6.7549.2154,12.1426.2154,2.8015,0,3.3737,0,3.8791-1.88.3566-1.5086.9363-6.398.9363-6.97,0-.5053,0-1.0777-.431-1.0777-.3567,0-.5053.29-.6539,1.0777-.4979,2.9427-1.36,4.3846-3.2252,5.172-1.8727.7878-5.0308.7878-6.8961.7878-7.0522,0-8.1223-.9362-8.3377-5.8932-.0744-1.5086,0-9.8387,0-12.2834v-6.324a.4549.4549,0,0,1,.4979-.5053c1.2261,0,8.3377.1483,10.2773.3642,2.8015.2821,3.4481,1.5086,3.7378,2.5114a7.2756,7.2756,0,0,1,.29,2.3708c0,.3642.1413.6463.5054.6463.4979,0,.4979-.7874.4979-1.36,0-.5125.1485-3.1659.29-4.6073.2081-2.3631.5722-3.59.5722-4.02s-.1412-.58-.3641-.58c-.2825,0-.5648.3642-1.07.9366-.6539.7207-1.6571.8695-3.3811,1.0105-1.65.1411-10.4929.1411-11.4217.1411-.3642,0-.431-.2154-.431-.7207V263.87c0-.5053.1412-.7207.431-.7207.7877,0,8.62.0744,9.8388.2154,3.8866.4313,4.6074,1.2931,5.1053,2.4452a7.5743,7.5743,0,0,1,.431,2.5858c0,.5724.1485.9289.5722.9289.29,0,.431-.4236.5053-.7874.1413-.8622.29-4.02.3567-4.7411.2229-2.0143.58-2.876.58-3.3741,0-.3642-.0743-.654-.29-.654-.3567,0-.6466.29-1.0032.3642a18.894,18.894,0,0,1-3.0914.357c-1.65.0744-15.9548.0744-16.46.0744l-2.9427-.1415c-1.5828-.0744-3.5224-.0744-5.1721-.0744-.7951,0-1.1518.1415-1.1518.5724,0,.29.2823.4309.58.4309a13.6575,13.6575,0,0,1,2.4375.2154c2.3705.5053,2.95,1.6573,3.0914,4.0948.1485,2.3036.1485,4.31.1485,15.5237Zm41.5329,14.7286c-2.0138,3.0915-3.3068,4.2358-5.18,4.7411a12.6728,12.6728,0,0,1-2.37.3642.51.51,0,0,0-.5128.5719c0,.2154.0743.4459.587.4459,2.0807,0,5.2464-.2154,5.7443-.2154.58,0,4.7486.2154,6.25.2154.4385,0,.7951-.1483.7951-.4459a.5623.5623,0,0,0-.5722-.5719,6.9889,6.9889,0,0,1-1.1518-.1488c-.5722-.1411-1.0032-.4309-1.0032-1.0033a5.991,5.991,0,0,1,.7876-2.7345l9.7051-16.0217c3.8048,6.1825,7.2529,12.0757,10.7009,18.0355.5723,1.0033,0,1.6569-.3566,1.724a.5507.5507,0,0,0-.3642.5053c0,.29.29.4309,1.947.513,3.448.1483,6.4651.1483,10.3442.1483.5722,0,.862-.23.862-.5125a.4541.4541,0,0,0-.5053-.5053,11.971,11.971,0,0,1-2.1476-.3642,5.9794,5.9794,0,0,1-3.5968-2.6606c-1.3673-1.65-12.15-19.3953-13.3687-21.268l10.1361-14.803c1.7909-2.66,2.9427-4.2358,4.7411-4.815a8.7559,8.7559,0,0,1,2.155-.2826.63.63,0,0,0,.6466-.5724c0-.29-.2823-.4309-1.0032-.4309-2.1625,0-4.7486.1411-5.3208.1411s-3.2325-.1411-5.6031-.1411c-.7877,0-1.0776.1411-1.0776.4309a.567.567,0,0,0,.5722.5724,8.4068,8.4068,0,0,1,1.7241.1411c.6464.2154,1.0774.58,1.0774,1.0105a3.89,3.89,0,0,1-.6464,2.1553c-.5722,1.2931-7.2528,11.5627-9.1255,14.2233-3.3069-5.2391-5.6775-9.631-8.3379-14.4465a4.716,4.716,0,0,1-.6464-2.0061.8718.8718,0,0,1,.7951-.9366,7.3974,7.3974,0,0,1,1.724-.1411.5623.5623,0,0,0,.5723-.5724c0-.29-.2081-.4309-1.0776-.4309-2.1551,0-5.6031.1411-6.1828.1411-.4979,0-5.6031-.1411-7.4015-.1411-.7877,0-1.07.1411-1.07.4309a.612.612,0,0,0,.5722.5724,12.68,12.68,0,0,1,2.6529.4309c2.1625.6468,3.3812,2.3708,4.8155,4.7411l10.0692,16.3786Zm47.2772-11.6375a125.531,125.531,0,0,1-.3567,13.22c-.29,1.7979-.431,3.0167-1.6571,3.2325a17.285,17.285,0,0,1-1.94.29.4828.4828,0,0,0-.4979.5053c0,.3642.3567.5125,1.0032.5125,1.0033,0,2.4449-.0744,3.6637-.1483,1.3673-.0821,2.586-.0821,2.7272-.0821.9364,0,2.5935,0,5.2465.156,2.586.0744,6.257.2154,10.9981.2154,2.4375,0,3.084,0,3.515-1.59a49.8525,49.8525,0,0,0,.8694-5.8927c0-.4309-.0743-.9366-.431-.9366s-.5053.2159-.6464.9366c-.3642,2.4375-1.2187,3.5224-2.8833,4.2358-1.65.6463-4.6668.6463-6.3166.6463-6.25,0-7.4015-.7878-7.5426-4.8822-.0743-1.2264,0-8.3379,0-10.4188v-5.1049c0-.2159.0669-.4313.431-.4313,1.0776,0,7.8325.0744,9.5491.29,2.4523.29,3.0245,1.0033,3.24,1.8655a5.5393,5.5393,0,0,1,.2823,2.0138c0,.3565.1487.5719.431.5719.431,0,.58-.6463.58-1.1443,0-.4309.1412-2.7345.2823-3.9605.1487-2.0066.5054-3.01.5054-3.3741,0-.3565-.1413-.498-.3567-.498s-.5054.357-.9364.7878c-.6464.6468-1.5753.7135-3.0914.8622-1.4268.1411-9.7719.1411-10.56.1411-.3567,0-.3567-.2082-.3567-.6391V271.703c0-.4309.0669-.6463.3567-.6463.7208,0,8.0479.0667,9.1328.2154,3.4407.4309,4.0872.8545,4.5182,1.8651a6.6242,6.6242,0,0,1,.3567,2.1553c0,.4976.1487.7951.5054.7951.29,0,.5053-.3642.58-.6468.1413-.7207.2825-3.4552.3567-4.0276.1412-1.724.5053-2.4447.5053-2.8756,0-.2826-.0743-.5724-.29-.5724a3.9226,3.9226,0,0,0-.8621.29c-.5053.0744-1.6571.2826-2.8758.3565-1.4342.0744-14.6618,0-15.0928,0-.3566,0-4.4513-.1411-7.3271-.1411-.7135,0-1.0032.1411-1.0032.498a.6156.6156,0,0,0,.5053.5053c.5722,0,1.65.0744,2.155.1411,2.0807.29,2.4449,1.2931,2.5861,3.3741.1412,1.9467.1412,3.6707.1412,13.1529Zm60.9357,18.5485c4.0947,0,8.8356-.3642,11.4292-1.3748,1.0774-.4309,1.2186-.6468,1.5753-1.7984a64.6017,64.6017,0,0,0,1.516-7.8326c0-.4309-.29-.8618-.58-.8618-.431,0-.5054.2154-.6466.8618a11.3215,11.3215,0,0,1-2.4448,5.0981c-2.5117,2.5191-5.6775,2.8756-10.4186,2.8756-13.51,0-22.7765-10.4184-22.7765-22.13,0-6.1753,1.0032-11.6375,5.6774-15.9473,2.2294-2.0882,6.101-4.2435,14.2233-4.2435,5.6031,0,10.203,1.5086,12.4324,3.3741a7.9821,7.9821,0,0,1,2.66,6.1081c0,.8622.0744,1.2931.4979,1.2931.3642,0,.6466-.3565.7208-1.2931.0744-.8618.0744-4.2358.1487-6.25.1412-2.2293.2823-2.9427.2823-3.448,0-.3565-.1412-.6463-.7876-.6463a46.9467,46.9467,0,0,1-6.4726-.9289,61.754,61.754,0,0,0-9.1924-.7284c-9.6978,0-15.4494,2.876-19.2616,6.5395a24.1364,24.1364,0,0,0-7.1116,16.668c0,5.826,1.5084,12.7968,7.6912,18.11,4.9567,4.3175,11.3548,6.5544,20.837,6.5544m26.299-20.3469c0,8.91,2.4447,13.1461,5.5287,16.0217,4.4588,4.1841,11.0726,4.3252,13.1533,4.3252,3.7378,0,8.62-.5053,13.22-4.4662,5.0309-4.31,5.8929-11.7115,5.8929-18.3253v-6.5395c0-9.4822-.0669-11.2062.0744-13.1529.1411-2.0066.5053-3.0171,2.2293-3.3741a7.4605,7.4605,0,0,1,1.5755-.1411.5423.5423,0,0,0,.5053-.5053c0-.357-.2823-.498-1.0033-.498-1.8651,0-4.89.1411-5.3208.1411-.3565,0-4.02-.1411-6.8291-.1411-.7135,0-1.0033.1411-1.0033.498a.5423.5423,0,0,0,.5053.5053c.5722,0,1.65.0744,2.1551.1411,2.0882.29,2.4449,1.4419,2.5191,3.3741.0669,1.9467.1338,3.6707.1338,13.1529v7.6915c0,6.25-.6391,11.2806-3.5893,14.803a12.9773,12.9773,0,0,1-9.772,4.31c-3.5893,0-6.3238-.5053-9.4153-3.2992-2.7273-2.4452-4.6667-6.1159-4.6667-14.9517v-8.5533c0-9.4822,0-11.2062.1411-13.1529.1488-2.0066.5055-3.0842,2.1626-3.3741a7.4606,7.4606,0,0,1,1.5755-.1411.6136.6136,0,0,0,.5722-.5053c0-.357-.3567-.498-1.07-.498-1.8725,0-5.826.1411-6.3982.1411s-4.3844-.1411-7.26-.1411c-.7208,0-1.0107.1411-1.0107.498a.6157.6157,0,0,0,.5053.5053c.5723,0,1.6572.0744,2.1625.1411,2.0807.29,2.4375,1.4419,2.5785,3.3741.1488,1.9467.1488,3.6707.1488,13.1529Zm69.63-23.8538,7.9067.1411c6.0342.1411,7.4015,1.5086,7.61,3.3813l.0742.6463c.0744.8545.2229,1.07.5053,1.07s.5724-.2826.5724-.7878c0-.7207.2229-5.0981.2229-6.97,0-.357,0-.7212-.29-.7212-.2973,0-.862.1488-1.7984.2975a32.12,32.12,0,0,1-4.5331.2821H658.4471c-.7282,0-3.1656-.0739-4.964-.2821a22.6381,22.6381,0,0,1-2.8017-.7284c-.2154,0-.5053.7951-.6466,1.1521-.0742.5053-1.36,5.9671-1.36,6.6134a.4711.4711,0,0,0,.4309.498c.2826,0,.498-.0744.6391-.5719a9.8892,9.8892,0,0,1,1.0108-1.94c.9289-1.4414,2.4375-1.8723,6.3907-1.9394l9.1257-.1411v25.6522c0,5.8932,0,10.7086-.2826,13.22-.2154,1.7979-.58,3.0167-1.8651,3.3065a8.6388,8.6388,0,0,1-1.8728.2826.4417.4417,0,0,0-.5053.4386c0,.3642.2823.5125,1.0105.5125,1.8653,0,6.25-.2154,6.532-.2154.3642,0,4.3844.2154,7.8326.2154.7207,0,1.0105-.23,1.0105-.5125a.4493.4493,0,0,0-.5053-.5053,24.8906,24.8906,0,0,1-2.8758-.29c-1.94-.29-2.222-1.4346-2.4375-3.2325-.29-2.5118-.29-7.3273-.29-13.22Zm35.7887,14.87c0-9.4822,0-11.2062.0669-13.1529.1411-2.1476.5053-3.0171,2.2293-3.3741a7.1739,7.1739,0,0,1,1.5829-.1411.6075.6075,0,0,0,.4978-.5053c0-.357-.2823-.498-1.0033-.498-1.9394,0-6.034.1411-6.3238.1411-.3567,0-4.31-.1411-6.3984-.1411-.7132,0-1.0031.1411-1.0031.498a.5423.5423,0,0,0,.5053.5053,11.59,11.59,0,0,1,1.9394.2154c1.3675.2826,1.8653,1.2187,2.014,3.3.1411,1.9467.1411,3.6707.1411,13.1529v10.7826c0,5.8932-.0742,10.7086-.3567,13.22-.2229,1.7979-.4309,2.9427-1.6571,3.2325a9.2135,9.2135,0,0,1-1.9394.29.4829.4829,0,0,0-.498.5053c0,.3642.3567.5125,1.0033.5125,1.9394,0,5.8929-.2154,6.25-.2154.29,0,4.3844.2154,7.9067.2154.7207,0,1.0033-.23,1.0033-.5125a.4848.4848,0,0,0-.5055-.5053,26.5852,26.5852,0,0,1-2.8758-.29c-1.8653-.29-2.0807-1.4346-2.2962-3.2325-.2823-2.5118-.2823-7.3273-.2823-13.22Zm24.1439-10.2029c-.9364-2.4447-1.7315-4.31-1.7315-5.0976a1.0189,1.0189,0,0,1,.7207-1.0849,8.0215,8.0215,0,0,1,2.3039-.2826.5816.5816,0,0,0,.6391-.5724c0-.29-.5724-.4309-1.7242-.4309-2.4447,0-5.2389.1411-5.8854.1411-.7951,0-4.3844-.1411-7.409-.1411-1.0105,0-1.6646.0671-1.6646.4309a.5492.5492,0,0,0,.5055.5724,12.3967,12.3967,0,0,1,2.46.2154c2.0807.5053,2.9427,1.1521,4.3769,4.6l15.5239,37.438c1.2185,2.9577,1.6571,3.7455,2.3705,3.7455.6538,0,1.0031-.9362,2.7345-4.6073,1.4342-3.0244,4.2358-9.631,8.1149-18.5408,3.24-7.4761,6.3238-14.803,7.0447-16.5347,1.6571-4.1614,2.66-5.0232,3.5224-5.5956a5.8416,5.8416,0,0,1,3.0171-.7207c.5053,0,.7132-.29.7132-.5724,0-.29-.3492-.4309-1.0031-.4309-1.8653,0-4.5926.1411-4.9568.1411-.7876,0-3.6634-.1411-6.1825-.1411-1.0033,0-1.4344.1411-1.4344.498,0,.29.3642.5053.7209.5053a7.3587,7.3587,0,0,1,2.1551.2154,1.2805,1.2805,0,0,1,.862,1.2931,10.9036,10.9036,0,0,1-.5724,2.3036c-1.3673,4.3769-9.6307,25.2213-13.2942,33.41Zm44.981,20.9855a122.9624,122.9624,0,0,1-.3642,13.22c-.2823,1.7979-.4311,3.0167-1.65,3.2325a17.5438,17.5438,0,0,1-1.9394.29.4846.4846,0,0,0-.5053.5053c0,.3642.364.5125,1.0031.5125,1.0108,0,2.4449-.0744,3.6711-.1483,1.3673-.0821,2.586-.0821,2.7273-.0821.9362,0,2.586,0,5.2464.156,2.586.0744,6.2571.2154,10.9908.2154,2.4447,0,3.0913,0,3.5224-1.59a49.88,49.88,0,0,0,.8695-5.8927c0-.4309-.0744-.9366-.4311-.9366-.3642,0-.5053.2159-.6538.9366-.3567,2.4375-1.2187,3.5224-2.876,4.2358-1.65.6463-4.6667.6463-6.3163.6463-6.2571,0-7.4015-.7878-7.55-4.8822-.0669-1.2264,0-8.3379,0-10.4188v-5.1049a.3793.3793,0,0,1,.4311-.4313c1.0774,0,7.84.0744,9.5564.29,2.4449.29,3.0171,1.0033,3.24,1.8655a5.4064,5.4064,0,0,1,.29,2.0138c0,.3565.1413.5719.4236.5719.4311,0,.5722-.6463.5722-1.1443,0-.4309.1488-2.7345.29-3.9605a32.6069,32.6069,0,0,1,.5053-3.3741c0-.3565-.1411-.498-.364-.498-.2082,0-.498.357-.9289.7878-.6466.6468-1.5829.7135-3.0915.8622-1.4342.1411-9.772.1411-10.56.1411-.3642,0-.3642-.2082-.3642-.6391V271.703c0-.4309.0744-.6463.3642-.6463.7135,0,8.048.0667,9.1255.2154,3.448.4309,4.0945.8545,4.5257,1.8651a6.6242,6.6242,0,0,1,.3567,2.1553c0,.4976.1411.7951.5053.7951.29,0,.5053-.3642.5722-.6468.1485-.7207.29-3.4552.3642-4.0276.1411-1.724.4978-2.4447.4978-2.8756,0-.2826-.0744-.5724-.2823-.5724a3.7951,3.7951,0,0,0-.862.29c-.5053.0744-1.65.2826-2.8758.3565-1.4344.0744-14.6619,0-15.0928,0-.3642,0-4.4513-.1411-7.3273-.1411-.7207,0-1.0105.1411-1.0105.498a.6157.6157,0,0,0,.5053.5053c.5722,0,1.6571.0744,2.1626.1411,2.0807.29,2.4375,1.2931,2.586,3.3741.1413,1.9467.1413,3.6707.1413,13.1529Zm64.5992-3.091c0,6.896,0,12.5732-.3567,15.59-.29,2.0882-.654,3.6639-2.0882,3.9537a11.3,11.3,0,0,1-2.1551.29c-.4309,0-.5722.2154-.5722.4309,0,.4386.3567.5869,1.1446.5869,1.0849,0,2.7271-.1483,4.1687-.1483,1.5086-.0821,2.7273-.0821,2.876-.0821,1.0774,0,2.8014.0821,5.6031.23,2.8089.0744,6.7624.2154,12.1426.2154,2.8089,0,3.3811,0,3.8864-1.88.3567-1.5086.9289-6.398.9289-6.97,0-.5053,0-1.0777-.4309-1.0777-.3567,0-.498.29-.6466,1.0777-.498,2.9427-1.3673,4.3846-3.2325,5.172s-5.0234.7878-6.8962.7878c-7.0373,0-8.1222-.9362-8.3379-5.8932-.0742-1.5086,0-9.8387,0-12.2834v-6.324a.4607.4607,0,0,1,.5055-.5053c1.2187,0,8.3376.1483,10.27.3642,2.8089.2821,3.448,1.5086,3.7378,2.5114a7.2756,7.2756,0,0,1,.29,2.3708c0,.3642.1413.6463.5053.6463.5055,0,.5055-.7874.5055-1.36,0-.5125.1411-3.1659.2823-4.6073.2229-2.3631.5722-3.59.5722-4.02s-.1413-.58-.3492-.58c-.2973,0-.58.3642-1.0849.9366-.6391.7207-1.65.8695-3.3738,1.0105-1.65.1411-10.4927.1411-11.4291.1411-.3567,0-.4311-.2154-.4311-.7207V263.87c0-.5053.1488-.7207.4311-.7207.7951,0,8.62.0744,9.8464.2154,3.8789.4313,4.6,1.2931,5.1051,2.4452a7.76,7.76,0,0,1,.4311,2.5858c0,.5724.1411.9289.5722.9289.2823,0,.4236-.4236.5053-.7874.1413-.8622.2823-4.02.3567-4.7411.2154-2.0143.5722-2.876.5722-3.3741,0-.3642-.0669-.654-.2823-.654-.3642,0-.6466.29-1.0108.3642a18.89,18.89,0,0,1-3.0913.357c-1.65.0744-15.9548.0744-16.4526.0744l-2.9429-.1415c-1.5827-.0744-3.5224-.0744-5.1795-.0744-.7876,0-1.1443.1415-1.1443.5724,0,.29.2823.4309.5722.4309a13.7411,13.7411,0,0,1,2.4449.2154c2.3631.5053,2.9427,1.6573,3.0913,4.0948.1413,2.3036.1413,4.31.1413,15.5237Zm42.1794,3.091a125.531,125.531,0,0,1-.3567,13.22c-.29,1.7979-.4309,2.9427-1.6571,3.2325a9.2156,9.2156,0,0,1-1.94.29.4827.4827,0,0,0-.4978.5053c0,.3642.3567.5125,1.0033.5125,1.0031,0,2.5116-.0744,3.8047-.1483,1.3,0,2.4447-.0821,2.586-.0821.29,0,2.4449.156,5.1795.3715,2.7273.1415,6.1086.357,8.8359.357,10.7826,0,16.46-4.2508,19.1871-7.0525a24.4745,24.4745,0,0,0,6.8293-17.1733,21.478,21.478,0,0,0-6.1753-15.5164c-7.4831-7.55-19.0535-6.97-25.37-6.97-3.7378,0-7.7582.1411-8.4864.1411-.3567,0-4.4513-.1411-7.3271-.1411-.7135,0-1.0033.1411-1.0033.498a.6157.6157,0,0,0,.5053.5053c.5722,0,1.65.0744,2.1551.1411,2.0807.29,2.4449,1.2931,2.586,3.3741.1413,1.9467.1413,3.6707.1413,13.1529Zm5.7516-24.5745a1.0775,1.0775,0,0,1,.7878-1.2264,16.8631,16.8631,0,0,1,3.8122-.4309c7.5425,0,14.5056.7878,20.4729,6.8293a21.13,21.13,0,0,1,5.9746,15.3005c0,5.6106-1.6646,11.4293-4.964,14.5208a21.2241,21.2241,0,0,1-14.803,5.5285c-7.4756,0-9.7051-1.2927-10.4927-2.437-.5053-.654-.6466-2.876-.7209-4.3846-.0669-1.1521-.0669-6.8293-.0669-13.2944Zm49.15,22.7761c0,8.91,2.4375,13.1461,5.5287,16.0217,4.4588,4.1841,11.0726,4.3252,13.1533,4.3252,3.7378,0,8.62-.5053,13.22-4.4662,5.0309-4.31,5.8929-11.7115,5.8929-18.3253v-6.5395c0-9.4822-.0744-11.2062.0744-13.1529.1411-2.0066.4978-3.0171,2.2293-3.3741a7.4515,7.4515,0,0,1,1.5829-.1411.5412.5412,0,0,0,.4978-.5053c0-.357-.29-.498-1.0105-.498-1.8653,0-4.8824.1411-5.3133.1411-.3567,0-4.0279-.1411-6.8293-.1411-.7135,0-1.0033.1411-1.0033.498a.5423.5423,0,0,0,.5053.5053c.5722,0,1.65.0744,2.1551.1411,2.0807.29,2.4375,1.4419,2.5118,3.3741.0742,1.9467.1411,3.6707.1411,13.1529v7.6915c0,6.25-.6391,11.2806-3.5893,14.803a12.9773,12.9773,0,0,1-9.772,4.31c-3.5965,0-6.3238-.5053-9.4153-3.2992-2.7273-2.4452-4.6742-6.1159-4.6742-14.9517v-8.5533c0-9.4822,0-11.2062.156-13.1529.1338-2.0066.4905-3.0842,2.1476-3.3741a7.5236,7.5236,0,0,1,1.5829-.1411.63.63,0,0,0,.58-.5053c0-.357-.3642-.498-1.0849-.498-1.8728,0-5.8188.1411-6.3909.1411-.58,0-4.3844-.1411-7.2677-.1411-.706,0-.9958.1411-.9958.498a.6163.6163,0,0,0,.498.5053c.5722,0,1.6571.0744,2.1624.1411,2.0807.29,2.4375,1.4419,2.586,3.3741.1413,1.9467.1413,3.6707.1413,13.1529Zm77.1729,20.3469c4.0945,0,8.8356-.3642,11.4216-1.3748,1.0849-.4309,1.2262-.6468,1.5829-1.7984a64.29,64.29,0,0,0,1.5083-7.8326c0-.4309-.2823-.8618-.5722-.8618-.4384,0-.5053.2154-.6463.8618a11.3242,11.3242,0,0,1-2.4449,5.0981c-2.5191,2.5191-5.6775,2.8756-10.4186,2.8756-13.51,0-22.7766-10.4184-22.7766-22.13,0-6.1753,1.0033-11.6375,5.6775-15.9473,2.2293-2.0882,6.1009-4.2435,14.2233-4.2435,5.6106,0,10.21,1.5086,12.4324,3.3741a7.9826,7.9826,0,0,1,2.66,6.1081c0,.8622.0742,1.2931.4978,1.2931.3567,0,.6466-.3565.7209-1.2931.0742-.8618.0742-4.2358.1485-6.25.1413-2.2293.29-2.9427.29-3.448,0-.3565-.1485-.6463-.8026-.6463a46.8514,46.8514,0,0,1-6.4651-.9289,61.7551,61.7551,0,0,0-9.1924-.7284c-9.7051,0-15.45,2.876-19.2617,6.5395a24.1369,24.1369,0,0,0-7.1116,16.668c0,5.826,1.5086,12.7968,7.6838,18.11,4.964,4.3175,11.3624,6.5544,20.8446,6.5544m24.2849-7.5577c-1.2187,3.0915-2.4447,5.2464-5.3133,5.6033a17.5,17.5,0,0,1-1.88.1488.5513.5513,0,0,0-.5722.5053c0,.3642.4236.5125,1.2187.5125,2.5935,0,5.7591-.2154,6.4057-.2154.7207,0,4.1614.2154,5.6775.2154.5722,0,.9362-.1483.9362-.5125,0-.29-.1485-.5053-.6463-.5053h-.5724c-1.0849,0-2.1624-.4313-2.1624-1.6573a12.6689,12.6689,0,0,1,.9289-4.0948l3.604-9.772a.6522.6522,0,0,1,.6391-.5053h14.595c.3567,0,.4236.0744.5722.3642l5.67,14.0079a1.149,1.149,0,0,1-.5722,1.6573c-.29.1411-.4311.1411-.4311.4309,0,.3565,1.0033.3565,2.2295.4386,4.3769.1483,9.0511.1483,9.98.1483.7282,0,1.4491-.1483,1.4491-.5125s-.4386-.5053-.7951-.5053a8.7327,8.7327,0,0,1-2.5193-.3642c-1.36-.4313-3.0838-1.2187-5.38-6.6805-3.8864-9.2745-14.0226-34.4958-15.1669-37.0743-.6466-1.3675-.8695-2.237-1.5086-2.237-.4311,0-.7135.3642-1.516,2.378Zm9.1257-12.7891c-.2082,0-.2826-.1411-.2082-.4309l5.8854-16.7424c.3567-.9362.7135-.9362,1.0777,0l6.2569,16.7424c.0669.29.0669.4309-.2154.4309Z" transform="translate(-11 -7.9498)"/><path class="cls-1" d="M1099.3577,271.2753l7.9067.1411c6.0342.1411,7.4015,1.5086,7.61,3.3736l.0744.6468c.0742.8618.2229,1.0772.5128,1.0772.2823,0,.5722-.2821.5722-.7951,0-.7135.208-5.0976.208-6.9631,0-.3638,0-.7207-.2823-.7207-.29,0-.862.1411-1.7984.29a31.89,31.89,0,0,1-4.5257.2826h-23.8615c-.7132,0-3.1582-.0671-4.9565-.2826a22.1712,22.1712,0,0,1-2.8014-.7207c-.2157,0-.498.7878-.6391,1.1516-.0744.498-1.3748,5.9675-1.3748,6.6066a.4843.4843,0,0,0,.4384.5053c.29,0,.4978-.0744.6466-.5724a9.9285,9.9285,0,0,1,1.0031-1.9394c.9289-1.4414,2.4375-1.8728,6.3984-1.9394l9.118-.1411V296.92c0,5.8927,0,10.7082-.2823,13.22-.2157,1.7984-.5722,3.0171-1.8728,3.3069a8.1293,8.1293,0,0,1-1.8653.29c-.364,0-.5053.2154-.5053.4309,0,.3715.29.5125,1.0108.5125,1.8651,0,6.25-.2154,6.5393-.2154.3567,0,4.3846.2154,7.8251.2154.7282,0,1.018-.2227,1.018-.5125a.4532.4532,0,0,0-.5128-.498,24.6793,24.6793,0,0,1-2.8683-.29c-1.9394-.29-2.2293-1.4414-2.4375-3.24-.2973-2.5118-.2973-7.3273-.2973-13.22Zm35.7887,14.87c0-9.4822,0-11.2139.0744-13.1533.1338-2.1476.4978-3.0171,2.2218-3.3736a7.1823,7.1823,0,0,1,1.5755-.1411.6244.6244,0,0,0,.5128-.5053c0-.3642-.29-.5057-1.0105-.5057-1.94,0-6.0342.1415-6.324.1415-.3567,0-4.31-.1415-6.3982-.1415-.7209,0-1.0033.1415-1.0033.5057a.555.555,0,0,0,.5053.5053,11.6109,11.6109,0,0,1,1.9471.2077c1.36.29,1.8578,1.2264,2.0063,3.3069.1485,1.9394.1485,3.6711.1485,13.1533V296.92c0,5.8927-.0742,10.7082-.364,13.22-.2229,1.7984-.4311,2.95-1.6573,3.24a9.1842,9.1842,0,0,1-1.9394.29.4766.4766,0,0,0-.4978.498c0,.3715.3565.5125,1.0031.5125,1.94,0,5.8929-.2154,6.25-.2154.29,0,4.3844.2154,7.9067.2154.7209,0,1.0108-.2227,1.0108-.5125a.49.49,0,0,0-.5128-.498,26.3609,26.3609,0,0,1-2.8686-.29c-1.8651-.29-2.0882-1.4414-2.3036-3.24-.2823-2.5118-.2823-7.3273-.2823-13.22Zm14.0151,5.313c0,10.9985,7.4015,24.01,24.7163,24.01,15.2338,0,25.3626-11.2878,25.3626-24.9392,0-14.2306-10.7753-22.9249-25.0059-22.9249-17.4633,0-25.073,14.0151-25.073,23.8538m6.5395-1.65c0-13.2944,7.61-19.9006,18.1768-19.9006,9.9875,0,18.8975,7.6838,18.8975,22.3457,0,17.6785-11.4219,20.6956-17.0991,20.6956-11.4291,0-19.9752-8.9175-19.9752-23.1408m58.7065-12.2839c1.9394,2.1553,9.0511,9.6237,16.3782,17.3148,6.688,6.97,15.8135,15.955,16.4528,16.5269,3.53,3.2475,4.1687,3.7455,4.8153,3.7455.4311,0,.5053-.357.5053-4.3919l.1413-35.7889c0-3.6557.1485-4.8822,2.2293-5.313a7.2834,7.2834,0,0,1,1.5086-.1411.7136.7136,0,0,0,.7209-.58c0-.357-.498-.4313-1.1518-.4313-2.586,0-4.6669.1415-5.3877.1415s-3.7378-.1415-6.6139-.1415c-.7132,0-1.2187.0744-1.2187.4313,0,.2227.0669.58.5055.58a20.27,20.27,0,0,1,3.0913.2821c1.9322.357,2.2964,1.724,2.3706,5.6777l.6466,30.6087c-1.9394-2.0138-8.6946-9.2668-14.9515-15.7318-9.772-10.0619-18.9644-19.8339-19.9677-20.8367-.6538-.6468-1.7315-1.8728-2.4447-1.8728-.5055,0-.8695.6463-.8695,3.0915v35.0006c0,5.5289-.2157,7.1785-1.7984,7.6094a9.8355,9.8355,0,0,1-2.5787.3642.5013.5013,0,0,0-.5128.498c0,.4459.3642.5125,1.0108.5125,2.8758,0,5.5287-.2154,6.1084-.2154.5722,0,3.0915.2154,6.688.2154.7135,0,1.1446-.1411,1.1446-.5125a.4844.4844,0,0,0-.498-.498,14.9484,14.9484,0,0,1-3.1656-.3642c-1.7315-.4309-2.3036-1.9394-2.4449-6.97Z" transform="translate(-11 -7.9498)"/></svg>