<svg id="Layer_15" data-name="Layer 15" xmlns="http://www.w3.org/2000/svg" viewBox="0 0 29.4917 29.4917"><title>organizational-transformation</title><path d="M15,29.7461A14.7458,14.7458,0,1,1,29.7461,15,14.7626,14.7626,0,0,1,15,29.7461Zm0-29A14.2542,14.2542,0,1,0,29.2539,15,14.2706,14.2706,0,0,0,15,.7456Z" transform="translate(-0.2544 -0.2544)"/><path d="M7.2,21.9a1.8938,1.8938,0,1,1,1.8614-1.893A1.879,1.879,0,0,1,7.2,21.9m0-3.0942A1.2009,1.2009,0,1,0,8.381,20.0073,1.192,1.192,0,0,0,7.2,18.8061" transform="translate(-0.2544 -0.2544)"/><path d="M22.8,11.8866a1.8937,1.8937,0,1,1,1.86-1.8929,1.88,1.88,0,0,1-1.86,1.8929m0-3.0943a1.201,1.201,0,1,0,1.18,1.2013A1.1925,1.1925,0,0,0,22.8,8.7924" transform="translate(-0.2544 -0.2544)"/><path d="M16.6632,19.33a1.8938,1.8938,0,1,1,1.86-1.8934,1.88,1.88,0,0,1-1.86,1.8934m0-3.0942a1.201,1.201,0,1,0,1.18,1.2008,1.192,1.192,0,0,0-1.18-1.2008" transform="translate(-0.2544 -0.2544)"/><path d="M8.1778,19.1681A.335.335,0,0,1,7.96,19.087a.35.35,0,0,1-.0423-.4878l3.2019-3.8844a.3361.3361,0,0,1,.48-.042.3508.3508,0,0,1,.0422.4876l-3.2024,3.884a.3367.3367,0,0,1-.2608.1238" transform="translate(-0.2544 -0.2544)"/><path d="M12.3527,15.65a1.8937,1.8937,0,1,1,1.8618-1.8929A1.879,1.879,0,0,1,12.3527,15.65m0-3.0942a1.2009,1.2009,0,1,0,1.1811,1.2013,1.1919,1.1919,0,0,0-1.1811-1.2013" transform="translate(-0.2544 -0.2544)"/><path d="M15.5021,16.7924a.3336.3336,0,0,1-.2182-.0813l-1.9844-1.6949a.35.35,0,0,1-.0422-.4878.336.336,0,0,1,.4792-.0425l1.9844,1.6949a.35.35,0,0,1,.0422.4877.3365.3365,0,0,1-.2609.1239" transform="translate(-0.2544 -0.2544)"/><path d="M17.6389,16.598a.333.333,0,0,1-.2182-.0814.35.35,0,0,1-.0422-.4877l4.1856-5.0768a.3371.3371,0,0,1,.48-.0421.3511.3511,0,0,1,.0422.4878L17.9,16.4741a.3366.3366,0,0,1-.2609.1239" transform="translate(-0.2544 -0.2544)"/></svg>