<svg id="Layer_15_copy" data-name="Layer 15 copy" xmlns="http://www.w3.org/2000/svg" viewBox="0 0 29.4917 29.4917"><title>rapid-innovation</title><path d="M15,29.7461A14.7458,14.7458,0,1,1,29.7461,15,14.7626,14.7626,0,0,1,15,29.7461Zm0-29A14.2542,14.2542,0,1,0,29.2539,15,14.2706,14.2706,0,0,0,15,.7456Z" transform="translate(-0.2544 -0.2544)"/><path d="M21.9993,21.7421a2.9332,2.9332,0,0,1-2.19-1.3427,1.8439,1.8439,0,0,1-1.2482-.0706,2.4326,2.4326,0,0,1-.8392-.5336,2.6451,2.6451,0,0,1-2.4843.6326,3.0512,3.0512,0,0,1-2.1605-1.2414,4.688,4.688,0,0,1-4.2527-.2405A2.6557,2.6557,0,0,1,7.5755,17.262a2.3309,2.3309,0,0,1,.1331-1.297c-.6277-.3144-1.8355-1.0778-1.6837-2.2389A2.0218,2.0218,0,0,1,7.83,12.1139,3.6008,3.6008,0,0,1,13.1364,9.201a3.5051,3.5051,0,0,1,3.1005-.9079,2.9427,2.9427,0,0,1,2.3036,1.5358c1.2046-.2458,3.307-.16,4.2447,1.68a4.1025,4.1025,0,0,1-.0114,3.9067,2.08,2.08,0,0,1,1.009,1.0612,2.0319,2.0319,0,0,1-.1611,2.0568,3.13,3.13,0,0,1,.1272,2.05,1.71,1.71,0,0,1-.976.9955A1.9493,1.9493,0,0,1,21.9993,21.7421Zm-2.0647-2.5763.2836.5534c.0413.0709,1.0207,1.7321,2.2788,1.1925a1.0048,1.0048,0,0,0,.5872-.5851,2.5773,2.5773,0,0,0-.192-1.6952l-.109-.231.178-.1811a1.3149,1.3149,0,0,0,.1761-1.44,1.2816,1.2816,0,0,0-.9429-.7986l-.6738-.0538.4252-.5342a3.3729,3.3729,0,0,0,.2083-3.5518c-1.0109-1.9826-3.6884-1.2534-3.7151-1.2448l-.3182.09-.1114-.3161A2.2394,2.2394,0,0,0,16.1585,9.012c-1.9474-.2193-2.602.7943-2.6287.8374l-.1883.3038L13.04,9.9677a3.097,3.097,0,0,0-2.9349-.1632,2.7618,2.7618,0,0,0-1.56,2.5746l.0552.3927-.3893.02c-.0127.0007-1.3574.0873-1.4812,1.03-.1238.9471,1.5712,1.622,1.5882,1.6283l.4248.1622-.2562.3807a1.68,1.68,0,0,0-.2121,1.1365A1.9754,1.9754,0,0,0,9.2125,18.34a4.23,4.23,0,0,0,3.8559.0631l.35-.1762.1406.37a2.1673,2.1673,0,0,0,1.7843,1.1153c1.6186.2468,2.0078-.6088,2.0111-.6177l.2311-.5787.3784.4919a2.1561,2.1561,0,0,0,.8224.6355c.5454.1849.7922.095.8409.0441Z" transform="translate(-0.2544 -0.2544)"/><path d="M13.1608,18.3663l1.233-3.6708H12.71l2.435-3.74h3.8217L17.5209,12.954h2.3147Zm.8726-4.394H15.388L14.62,16.258l3.1827-2.5807H16.1149L17.56,11.6791H15.5265Z" transform="translate(-0.2544 -0.2544)"/></svg>